<svg width="319" height="430" viewBox="0 0 319 430" fill="none" xmlns="http://www.w3.org/2000/svg">
<path d="M143.916 94.0424L138.456 34.7724C138.236 18.2424 128.456 4.5924 111.916 5.2724L110.396 5.4224C102.999 6.1602 96.1526 9.65732 91.2193 15.217C86.286 20.7768 83.6282 27.991 83.7756 35.4224C84.0456 49.7424 84.5256 65.5624 85.3856 73.1724C87.1456 88.9424 105.726 89.4824 105.726 89.4824L107.726 103.232C107.726 103.232 115.726 108.002 127.356 105.952C139.966 103.712 143.916 94.0424 143.916 94.0424Z" fill="#FFBE9D"/>
<path d="M105.696 89.4324C113.028 88.711 119.999 85.8957 125.776 81.3224C125.776 81.3224 122.176 93.1624 106.286 93.3224L105.696 89.4324Z" fill="#EB996E"/>
<path d="M91.1957 47.1424C91.2612 47.7206 91.5474 48.2513 91.9944 48.6239C92.4415 48.9964 93.0151 49.1822 93.5956 49.1424C93.885 49.1387 94.1706 49.0767 94.4353 48.9601C94.7001 48.8434 94.9386 48.6745 95.1365 48.4635C95.3345 48.2525 95.4878 48.0037 95.5873 47.732C95.6868 47.4603 95.7305 47.1713 95.7156 46.8824C95.6621 46.2943 95.3815 45.7502 94.9335 45.3656C94.4854 44.981 93.905 44.7861 93.3156 44.8224C93.0218 44.8285 92.7323 44.8941 92.4647 45.0154C92.197 45.1368 91.9567 45.3112 91.7585 45.5281C91.5603 45.7451 91.4082 46 91.3114 46.2775C91.2147 46.555 91.1753 46.8492 91.1957 47.1424Z" fill="#263238"/>
<path d="M87.9356 42.7724C88.2456 43.0424 89.8256 41.6024 92.2556 41.3724C94.6856 41.1424 96.5756 42.1724 96.8156 41.8424C96.9256 41.7024 96.5856 41.2024 95.7556 40.7124C94.636 40.0883 93.3494 39.8295 92.0756 39.9724C90.8128 40.0882 89.6208 40.6071 88.6756 41.4524C87.9856 42.1024 87.7856 42.6524 87.9356 42.7724Z" fill="#263238"/>
<path d="M113.476 44.9724C113.527 45.5615 113.807 46.1071 114.255 46.4922C114.704 46.8773 115.286 47.0712 115.876 47.0324C116.165 47.0274 116.45 46.9644 116.714 46.8473C116.978 46.7302 117.216 46.5612 117.413 46.3505C117.611 46.1398 117.765 45.8915 117.865 45.6205C117.965 45.3494 118.009 45.061 117.996 44.7724C117.947 44.1823 117.668 43.6352 117.219 43.2496C116.77 42.8639 116.186 42.6709 115.596 42.7124C115.307 42.7188 115.023 42.7827 114.76 42.9002C114.496 43.0178 114.259 43.1868 114.061 43.3972C113.864 43.6077 113.71 43.8554 113.61 44.1258C113.509 44.3963 113.464 44.6841 113.476 44.9724Z" fill="#263238"/>
<path d="M111.826 40.8524C112.136 41.1124 113.716 39.6824 116.146 39.4424C118.576 39.2024 120.466 40.2424 120.696 39.9224C120.816 39.7824 120.486 39.2724 119.696 38.7924C118.577 38.1648 117.291 37.9026 116.016 38.0424C114.748 38.1491 113.549 38.661 112.596 39.5024C111.876 40.1724 111.676 40.7324 111.826 40.8524Z" fill="#263238"/>
<path d="M104.816 59.7124C104.816 59.5724 103.276 59.4624 100.816 59.3924C100.186 59.3924 99.5858 59.3324 99.4458 58.9124C99.3292 58.2802 99.4095 57.6275 99.6758 57.0424C100.109 55.4824 100.562 53.8491 101.036 52.1424C102.906 45.1424 104.196 39.4724 103.916 39.3924C103.636 39.3124 101.916 44.9124 100.016 51.8824C99.5691 53.5957 99.1424 55.2357 98.7358 56.8024C98.4166 57.5866 98.3882 58.4591 98.6558 59.2624C98.7654 59.4732 98.9229 59.6554 99.1157 59.7944C99.3084 59.9333 99.5311 60.0251 99.7658 60.0624C100.117 60.1105 100.474 60.1105 100.826 60.0624C103.296 59.9924 104.816 59.8524 104.816 59.7124Z" fill="#263238"/>
<path d="M112.116 60.6824C111.726 60.6824 111.976 63.3324 109.916 65.4224C107.856 67.5124 105.016 67.5024 105.026 67.8724C105.026 68.0424 105.706 68.3224 106.896 68.2424C108.439 68.1056 109.886 67.4335 110.986 66.3424C112.049 65.2814 112.653 63.8446 112.666 62.3424C112.656 61.2724 112.296 60.6524 112.116 60.6824Z" fill="#263238"/>
<path d="M110.256 31.4024C110.556 32.0424 112.946 31.4924 115.826 31.5424C118.706 31.5924 121.086 32.1524 121.406 31.5424C121.546 31.2424 121.086 30.6624 120.086 30.1124C118.774 29.4507 117.325 29.1081 115.856 29.1124C114.381 29.0773 112.919 29.3998 111.596 30.0524C110.596 30.5024 110.116 31.1024 110.256 31.4024Z" fill="#263238"/>
<path d="M88.1257 35.6624C88.6057 36.1724 90.2257 35.4324 92.2357 35.2024C94.2457 34.9724 95.9757 35.2024 96.3157 34.5924C96.4557 34.2924 96.1357 33.7724 95.3157 33.3224C94.2547 32.8005 93.0632 32.6036 91.8907 32.7566C90.7183 32.9097 89.6172 33.4057 88.7257 34.1824C88.0957 34.8224 87.9157 35.4124 88.1257 35.6624Z" fill="#263238"/>
<path d="M84.5956 28.0024C84.5956 28.0024 87.7656 17.7024 92.3056 14.9124C97.7956 11.5524 100.916 17.6324 106.256 15.5524C111.596 13.4724 116.846 10.2324 122.886 13.9324C129.506 17.9324 126.946 21.5224 128.026 28.4824C132.396 56.7224 138.386 64.2424 138.526 50.7124C138.526 49.2324 142.526 47.7124 142.526 41.4124C142.526 33.3124 141.846 23.5324 139.526 18.0124C137.526 13.3624 134.466 10.3124 129.196 7.1524C120.866 2.1524 110.196 3.0824 103.056 4.5324C95.9156 5.9824 82.6756 15.6824 84.5956 28.0024Z" fill="#263238"/>
<path d="M137.456 50.3824C137.418 49.8016 137.498 49.2192 137.691 48.6702C137.884 48.1212 138.187 47.6171 138.58 47.1881C138.974 46.7592 139.45 46.4144 139.98 46.1745C140.51 45.9347 141.084 45.8047 141.666 45.7924C144.666 45.7924 148.086 47.1324 148.496 53.2324C149.226 64.0524 138.206 62.5524 138.166 62.2324C138.126 61.9124 137.716 54.9224 137.456 50.3824Z" fill="#FFBE9D"/>
<path d="M140.246 58.0124C140.246 58.0124 140.446 58.1324 140.776 58.2624C141.237 58.4221 141.742 58.397 142.186 58.1924C143.296 57.6924 144.136 55.8124 144.066 53.8624C144.03 52.9339 143.788 52.025 143.356 51.2024C143.229 50.8712 143.025 50.575 142.76 50.3384C142.496 50.1019 142.179 49.9318 141.836 49.8424C141.614 49.807 141.388 49.8469 141.192 49.9557C140.996 50.0645 140.842 50.2359 140.756 50.4424C140.636 50.7524 140.756 50.9624 140.656 50.9824C140.556 51.0024 140.416 50.8224 140.476 50.3624C140.517 50.0918 140.651 49.8441 140.856 49.6624C141.13 49.4192 141.489 49.2936 141.856 49.3124C142.306 49.3699 142.735 49.5428 143.099 49.8143C143.463 50.0859 143.752 50.4469 143.936 50.8624C144.469 51.7744 144.765 52.8061 144.796 53.8624C144.876 56.0424 143.896 58.1624 142.366 58.7224C142.073 58.8214 141.762 58.8531 141.455 58.815C141.149 58.7769 140.855 58.67 140.596 58.5024C140.286 58.2724 140.216 58.0424 140.246 58.0124Z" fill="#EB996E"/>
<path d="M135.156 29.5024C133.94 30.7078 132.441 31.5881 130.796 32.0624C129.126 32.4024 127.096 31.6224 126.646 29.9824C126.446 29.2424 126.546 28.3524 125.986 27.8224C125.426 27.2924 124.266 27.5124 123.376 27.7024C121.813 27.9721 120.206 27.7035 118.816 26.9405C117.426 26.1775 116.337 24.9653 115.726 23.5024C115.046 24.7824 113.176 24.9124 111.886 24.2524C110.66 23.4511 109.552 22.4816 108.596 21.3724C107.596 20.3724 106.116 19.5424 104.706 19.8924C103.973 20.2274 103.205 20.4789 102.416 20.6424C100.986 20.6424 100.126 19.0624 99.7758 17.6424C99.4258 16.2224 99.0858 14.6424 97.7758 13.9824C96.4658 13.3224 95.1958 13.9824 93.9158 14.2624C92.6358 14.5424 90.9158 14.4424 90.4458 13.2024C90.357 12.8667 90.337 12.5165 90.3868 12.1728C90.4366 11.8292 90.5553 11.4991 90.7358 11.2024C91.48 9.80424 92.6764 8.6998 94.1295 8.06953C95.5825 7.43925 97.2064 7.3204 98.7358 7.7324C99.0891 5.884 99.9824 4.18179 101.303 2.84081C102.623 1.49983 104.311 0.580245 106.154 0.198223C107.997 -0.183799 109.911 -0.0111182 111.656 0.69445C113.4 1.40002 114.897 2.60682 115.956 4.1624C117.001 3.01082 118.309 2.12833 119.768 1.58978C121.226 1.05123 122.794 0.872518 124.337 1.0688C125.879 1.26508 127.352 1.83056 128.63 2.71728C129.907 3.60399 130.952 4.78578 131.676 6.1624C132.965 5.66825 134.371 5.56611 135.717 5.86884C137.064 6.17156 138.291 6.86562 139.244 7.86378C140.197 8.86193 140.834 10.1196 141.075 11.4787C141.315 12.8379 141.149 14.2377 140.596 15.5024C142.646 16.4124 144.506 18.1724 144.766 20.4024C145.026 22.6324 143.076 25.0724 140.856 24.7024C141.359 25.535 141.532 26.5264 141.339 27.4801C141.146 28.4339 140.602 29.2802 139.814 29.8515C139.026 30.4228 138.053 30.6772 137.086 30.5644C136.12 30.4516 135.231 29.9797 134.596 29.2424" fill="#263238"/>
<path d="M98.3058 11.0224C98.2946 11.0886 98.2946 11.1562 98.3058 11.2224C98.3058 11.3524 98.3657 11.5524 98.4357 11.7924C98.6549 12.5103 98.9929 13.1864 99.4357 13.7924C100.131 14.7574 101.037 15.5509 102.086 16.1124C103.471 16.8673 105.064 17.1548 106.626 16.9324L106.426 16.7024C106.306 17.2112 106.289 17.7388 106.377 18.254C106.465 18.7693 106.655 19.2618 106.936 19.7024C107.515 20.6242 108.226 21.4564 109.046 22.1724C109.446 22.5938 109.892 22.9694 110.376 23.2924C110.922 23.5891 111.534 23.7471 112.156 23.7524C112.802 23.7835 113.446 23.6547 114.03 23.3774C114.614 23.1 115.121 22.6827 115.506 22.1624L115.086 22.0924C115.348 23.1998 115.84 24.24 116.529 25.146C117.218 26.0519 118.089 26.8035 119.086 27.3524C120.187 28.0082 121.471 28.289 122.746 28.1524C123.941 27.982 125.098 27.6065 126.166 27.0424L125.866 26.9424C126.553 28.1937 127.543 29.2526 128.746 30.0224C129.3 30.4112 129.934 30.6713 130.602 30.7837C131.27 30.8962 131.955 30.8581 132.606 30.6724C133.723 30.3088 134.71 29.6251 135.442 28.706C136.174 27.7869 136.621 26.6729 136.726 25.5024L136.486 25.6424C137.685 26.1319 139.017 26.192 140.256 25.8124C141.179 25.5432 142.025 25.0602 142.726 24.4024C143.166 23.9908 143.529 23.503 143.796 22.9624C143.892 22.7785 143.966 22.5838 144.016 22.3824C143.659 23.0983 143.179 23.745 142.596 24.2924C141.902 24.9021 141.078 25.3436 140.186 25.5824C139.008 25.9161 137.751 25.8349 136.626 25.3524L136.416 25.2624V25.4924C136.295 26.5768 135.86 27.6024 135.166 28.4441C134.472 29.2858 133.547 29.9072 132.506 30.2324C131.913 30.3962 131.291 30.4255 130.686 30.3182C130.08 30.2109 129.506 29.9698 129.006 29.6124C127.868 28.879 126.933 27.8715 126.286 26.6824L126.186 26.4924L125.986 26.5924C124.962 27.1252 123.857 27.4834 122.716 27.6524C121.536 27.7734 120.35 27.5066 119.336 26.8924C118.392 26.3701 117.568 25.6549 116.919 24.7935C116.269 23.9321 115.808 22.9436 115.566 21.8924L115.446 21.3924L115.146 21.8124C114.807 22.2711 114.361 22.6396 113.847 22.8854C113.332 23.1313 112.765 23.247 112.196 23.2224C111.647 23.2204 111.108 23.0829 110.626 22.8224C110.169 22.5187 109.747 22.1667 109.366 21.7724C108.569 21.117 107.869 20.3528 107.286 19.5024C106.776 18.7122 106.596 17.7535 106.786 16.8324L106.846 16.5624H106.576C105.086 16.7973 103.56 16.5447 102.226 15.8424C101.2 15.3213 100.302 14.5804 99.5957 13.6724C99.0161 12.8701 98.5797 11.9735 98.3058 11.0224Z" fill="#455A64"/>
<path d="M141.716 30.4424C141.411 31.0991 140.995 31.698 140.486 32.2124C139.333 33.5204 137.983 34.6405 136.486 35.5324C134.987 36.4411 133.353 37.106 131.646 37.5024C130.953 37.7108 130.228 37.7921 129.506 37.7424C131.843 37.1544 134.098 36.2742 136.216 35.1224C138.238 33.7989 140.086 32.2266 141.716 30.4424Z" fill="white"/>
<path d="M142.456 35.9224C142.107 36.4927 141.668 37.0027 141.156 37.4324C138.812 39.6676 135.986 41.3338 132.896 42.3024C132.259 42.556 131.581 42.6915 130.896 42.7024C132.986 41.8943 135.023 40.9558 136.996 39.8924C138.893 38.6784 140.716 37.3527 142.456 35.9224Z" fill="white"/>
<path d="M106.956 97.8724L79.2956 105.632C76.0099 106.54 73.1209 108.518 71.0856 111.252L50.5356 140.062L57.0156 147.492L210.206 147.562C210.206 147.562 204.336 126.042 202.406 119.442C199.496 109.442 195.546 106.652 191.946 103.012C190.271 101.517 188.317 100.368 186.196 99.6324C179.836 98.2424 149.656 91.2324 143.916 91.3924C143.916 91.3924 138.006 105.452 124.146 105.322C110.286 105.192 106.956 97.8724 106.956 97.8724Z" fill="#455A64"/>
<path d="M171.136 123.592C171.236 123.592 171.536 122.292 172.466 120.342C173.719 117.824 175.366 115.521 177.346 113.522C179.349 111.528 181.488 109.673 183.746 107.972C184.709 107.297 185.622 106.552 186.476 105.742C185.418 106.279 184.413 106.915 183.476 107.642C181.121 109.258 178.921 111.089 176.906 113.112C174.874 115.15 173.234 117.543 172.066 120.172C171.721 120.971 171.444 121.798 171.236 122.642C171.146 122.951 171.113 123.272 171.136 123.592Z" fill="#263238"/>
<path d="M82.2157 140.572C82.359 139.462 82.3958 138.34 82.3257 137.222C82.3257 135.152 82.1957 132.302 81.9557 129.152C81.7157 126.002 81.3857 123.152 81.0957 121.152C80.9924 120.04 80.7882 118.938 80.4857 117.862C80.4527 118.979 80.5196 120.097 80.6857 121.202C80.8757 123.432 81.1157 126.202 81.3657 129.202C81.6157 132.202 81.7557 134.992 81.9157 137.202C81.9228 138.332 82.0231 139.459 82.2157 140.572Z" fill="#263238"/>
<g opacity="0.3">
<path opacity="0.3" d="M72.7157 144.662C75.3771 144.047 77.8463 142.787 79.9057 140.992C81.8457 139.082 82.9057 135.992 81.7157 133.562C83.6343 137.639 86.6899 141.074 90.5148 143.455C94.3397 145.836 98.771 147.061 103.276 146.982L65.0857 147.452C67.5032 146.209 70.0663 145.272 72.7157 144.662Z" fill="black"/>
</g>
<g opacity="0.3">
<path opacity="0.3" d="M168.196 147.492L168.836 132.642L158.406 147.472L168.196 147.492Z" fill="black"/>
</g>
<path d="M168.196 147.502C168.101 144.57 168.178 141.635 168.426 138.712C168.504 135.777 168.751 132.849 169.166 129.942C169.26 132.874 169.183 135.809 168.936 138.732C168.857 141.667 168.61 144.596 168.196 147.502Z" fill="#263238"/>
<path d="M144.146 134.562H226.956L231.686 129.832H282.036C283.669 129.832 285.236 130.481 286.392 131.637C287.547 132.792 288.196 134.359 288.196 135.992V144.312H138.596L138.416 140.622C138.377 139.844 138.495 139.066 138.765 138.335C139.035 137.603 139.45 136.934 139.986 136.368C140.521 135.802 141.166 135.35 141.881 135.039C142.596 134.729 143.366 134.567 144.146 134.562Z" fill="#0086D2"/>
<path d="M27.5956 266.232L28.7056 155.962C28.7346 152.873 29.9822 149.92 32.177 147.746C34.3718 145.572 37.3362 144.352 40.4256 144.352H293.816C296.908 144.352 299.876 145.575 302.071 147.753C304.267 149.932 305.512 152.89 305.536 155.982L306.366 266.232L318.026 314.392V331.602H309.766V380.892C309.76 389.543 306.32 397.837 300.201 403.952C294.083 410.067 285.786 413.502 277.136 413.502H51.8856C43.2316 413.502 34.932 410.065 28.8127 403.945C22.6934 397.826 19.2556 389.526 19.2556 380.872V329.502H10.9956V314.392L27.5956 266.232Z" fill="#0086D2"/>
<path d="M27.5957 266.232C27.5957 266.232 27.2457 267.302 26.5457 269.372L23.3857 278.612L11.1057 314.432C11.1057 319.172 11.1057 324.219 11.1057 329.572L10.9757 329.452H19.3657V329.502C19.3657 340.272 19.3657 352.162 19.3657 365.092C19.3657 368.326 19.3657 371.622 19.3657 374.982C19.262 378.396 19.3722 381.813 19.6957 385.212C20.1361 388.719 21.1816 392.123 22.7857 395.272C24.4155 398.544 26.5784 401.521 29.1857 404.082C34.7158 409.47 41.9908 412.701 49.6957 413.192C51.6957 413.332 53.6957 413.292 55.6957 413.302H74.1257H126.736H245.176H277.176C282.593 413.241 287.915 411.869 292.686 409.302L294.416 408.242L295.286 407.712L296.106 407.102L297.736 405.882L299.246 404.502L300.006 403.812L300.696 403.062L302.076 401.542L303.316 399.902L303.926 399.082C304.126 398.802 304.286 398.502 304.466 398.212L305.536 396.452C305.866 395.852 306.146 395.222 306.446 394.602C307.032 393.358 307.543 392.079 307.976 390.772C308.807 388.132 309.297 385.397 309.436 382.632C309.536 381.252 309.526 379.852 309.526 378.452V365.802C309.526 354.509 309.526 343.109 309.526 331.602V331.342H318.046L317.786 331.602V314.502C316.606 309.612 315.326 304.332 314.046 299.042C311.326 287.842 308.636 276.722 306.126 266.352V266.292C305.856 230.632 305.596 195.912 305.346 162.452C305.146 158.322 305.966 153.922 303.746 150.372C302.728 148.625 301.267 147.177 299.512 146.173C297.757 145.169 295.768 144.644 293.746 144.652H222.276L60.1557 144.502H43.3257C41.9657 144.502 40.5957 144.502 39.3257 144.562C38.0118 144.7 36.7306 145.059 35.5357 145.622C33.1711 146.734 31.2584 148.622 30.1157 150.972C29.5519 152.106 29.1834 153.326 29.0257 154.582C28.8857 155.832 28.9157 157.102 28.8957 158.352C28.8957 160.872 28.8957 163.352 28.8157 165.772C28.7624 170.646 28.7124 175.359 28.6657 179.912C28.4657 198.122 28.2957 213.782 28.1557 226.572C28.0157 239.362 27.8857 249.272 27.8057 255.992C27.8057 259.342 27.7257 261.902 27.7057 263.622C27.6857 265.342 27.7057 266.212 27.7057 266.212C27.7057 266.212 27.7057 265.332 27.7057 263.612C27.7057 261.892 27.7057 259.332 27.7057 255.972C27.7657 249.252 27.8457 239.342 27.9557 226.552C28.0657 213.762 28.2157 198.102 28.3857 179.892C28.4257 175.346 28.4691 170.636 28.5157 165.762C28.5157 163.332 28.5157 160.862 28.5857 158.352C28.5857 157.102 28.5857 155.832 28.7057 154.542C28.9625 152.571 29.7094 150.694 30.8781 149.086C32.0467 147.477 33.5999 146.186 35.3957 145.332C36.6243 144.746 37.9427 144.371 39.2957 144.222C40.6657 144.122 42.0057 144.222 43.3757 144.162H60.2057H222.326H293.696C295.279 144.151 296.849 144.452 298.316 145.05C299.782 145.648 301.115 146.53 302.239 147.645C303.363 148.761 304.255 150.088 304.864 151.549C305.472 153.011 305.786 154.579 305.786 156.162C305.786 158.242 305.786 160.332 305.836 162.422C306.086 195.882 306.356 230.602 306.626 266.252V266.192C309.146 276.572 311.836 287.692 314.546 298.882C315.826 304.182 317.106 309.462 318.296 314.352V331.882H309.776L310.036 331.622V378.502C310.036 379.902 310.036 381.302 309.946 382.712C309.805 385.521 309.307 388.3 308.466 390.982C308.025 392.31 307.505 393.609 306.906 394.872C306.596 395.492 306.316 396.132 305.986 396.752L304.886 398.502C304.706 398.802 304.536 399.102 304.336 399.392L303.716 400.222L302.456 401.892L301.056 403.432L300.356 404.202L299.586 404.892L298.056 406.292L296.396 407.502L295.566 408.122L294.686 408.662L292.916 409.732C288.069 412.327 282.663 413.7 277.166 413.732H245.166H126.726H74.1157H55.7157C53.7157 413.732 51.7157 413.732 49.7157 413.622C41.9242 413.124 34.5694 409.849 28.9857 404.392C26.3549 401.797 24.169 398.787 22.5157 395.482C20.9043 392.292 19.8524 388.849 19.4057 385.302C19.0864 381.889 18.9795 378.459 19.0857 375.032C19.0857 371.672 19.0857 368.372 19.0857 365.142C19.0857 352.212 19.0857 340.322 19.0857 329.552L19.2157 329.692H10.8757V329.502C10.8757 324.169 10.8757 319.122 10.8757 314.362C16.2857 298.762 20.4457 286.732 23.2657 278.602L26.4757 269.372C27.2157 267.292 27.5957 266.232 27.5957 266.232Z" fill="#263238"/>
<path d="M83.893 247.605C91.8122 239.011 91.2652 225.624 82.6712 217.705C74.0772 209.786 60.6906 210.333 52.7714 218.927C44.8522 227.521 45.3992 240.908 53.9932 248.827C62.5872 256.746 75.9738 256.199 83.893 247.605Z" fill="#E0E0E0"/>
<path d="M89.4956 233.262C89.4648 233.152 89.448 233.037 89.4456 232.922C89.4456 232.662 89.4456 232.332 89.3756 231.922C89.3505 231.379 89.287 230.837 89.1856 230.302C89.0814 229.57 88.9311 228.846 88.7356 228.132C88.236 226.16 87.4403 224.276 86.3756 222.542C84.9891 220.238 83.1728 218.222 81.0256 216.602C78.43 214.626 75.4047 213.29 72.1956 212.702C68.5125 212.023 64.7146 212.34 61.1956 213.622C60.2602 213.962 59.3482 214.363 58.4656 214.822C57.5749 215.312 56.7195 215.863 55.9056 216.472C55.0704 217.084 54.2785 217.752 53.5356 218.472C52.8193 219.237 52.1513 220.045 51.5356 220.892C50.2356 222.641 49.2229 224.585 48.5356 226.652C47.109 230.933 47.109 235.561 48.5356 239.842C49.2229 241.91 50.2356 243.854 51.5356 245.602C52.1457 246.457 52.814 247.269 53.5356 248.032C54.2836 248.747 55.0751 249.415 55.9056 250.032C56.7195 250.641 57.5749 251.193 58.4656 251.682C59.3482 252.142 60.2602 252.543 61.1956 252.882C65.7745 254.546 70.7892 254.566 75.381 252.938C79.9728 251.311 83.8561 248.138 86.3656 243.962C87.4287 242.228 88.2243 240.344 88.7256 238.372C88.9221 237.656 89.0724 236.928 89.1756 236.192C89.2781 235.658 89.3416 235.116 89.3656 234.572C89.3656 234.162 89.4156 233.822 89.4356 233.572C89.4367 233.457 89.4535 233.343 89.4856 233.232C89.4968 233.345 89.4968 233.459 89.4856 233.572C89.4856 233.832 89.4856 234.162 89.4856 234.572C89.4859 235.119 89.4391 235.664 89.3456 236.202C89.2675 236.949 89.1304 237.688 88.9356 238.412C88.4662 240.416 87.6904 242.335 86.6356 244.102C85.0964 246.709 83.0213 248.959 80.5475 250.704C78.0737 252.448 75.2576 253.648 72.2856 254.222C68.5288 254.926 64.6523 254.616 61.0556 253.322C60.097 252.976 59.1618 252.569 58.2556 252.102C57.3338 251.63 56.4451 251.095 55.5956 250.502C54.7421 249.865 53.9304 249.174 53.1656 248.432C52.4103 247.658 51.7086 246.833 51.0656 245.962C49.7329 244.173 48.6963 242.181 47.9956 240.062C46.5288 235.675 46.5288 230.93 47.9956 226.542C48.6942 224.423 49.7309 222.431 51.0656 220.642C51.7111 219.771 52.4126 218.943 53.1656 218.162C53.9305 217.424 54.7422 216.736 55.5956 216.102C56.4331 215.483 57.3118 214.922 58.2256 214.422C59.1298 213.952 60.0653 213.544 61.0256 213.202C64.6213 211.904 68.4991 211.593 72.2556 212.302C75.2244 212.868 78.0386 214.06 80.5111 215.798C82.9836 217.536 85.0578 219.781 86.5956 222.382C87.6504 224.149 88.4262 226.069 88.8956 228.072C89.0895 228.794 89.2266 229.529 89.3056 230.272C89.3991 230.814 89.446 231.363 89.4456 231.912C89.4456 232.332 89.4456 232.662 89.4456 232.912C89.4737 233.027 89.4905 233.144 89.4956 233.262Z" fill="#263238"/>
<g opacity="0.3">
<path opacity="0.3" d="M10.9956 314.392H318.026L306.366 266.242H27.6056L10.9956 314.392Z" fill="black"/>
</g>
<path d="M284.136 202.442H248.846C247.52 202.442 246.248 201.916 245.31 200.978C244.372 200.04 243.846 198.768 243.846 197.442V162.112C243.846 160.786 244.372 159.515 245.31 158.577C246.248 157.639 247.52 157.112 248.846 157.112H284.136C285.462 157.112 286.734 157.639 287.671 158.577C288.609 159.515 289.136 160.786 289.136 162.112V197.402C289.141 198.062 289.016 198.717 288.767 199.328C288.518 199.939 288.15 200.495 287.685 200.964C287.221 201.432 286.668 201.804 286.058 202.058C285.449 202.312 284.796 202.442 284.136 202.442ZM248.846 158.072C247.785 158.072 246.767 158.494 246.017 159.244C245.267 159.994 244.846 161.012 244.846 162.072V197.402C244.846 198.463 245.267 199.481 246.017 200.231C246.767 200.981 247.785 201.402 248.846 201.402H284.136C285.197 201.402 286.214 200.981 286.964 200.231C287.714 199.481 288.136 198.463 288.136 197.402V162.112C288.136 161.052 287.714 160.034 286.964 159.284C286.214 158.534 285.197 158.112 284.136 158.112L248.846 158.072Z" fill="#263238"/>
<path d="M286.124 184.367C288.659 173.531 281.93 162.691 271.094 160.156C260.259 157.62 249.419 164.349 246.883 175.185C244.348 186.02 251.077 196.86 261.912 199.396C272.748 201.931 283.588 195.202 286.124 184.367Z" fill="#263238"/>
<path d="M101.176 167.082H51.4557C47.6947 167.082 44.6458 170.131 44.6458 173.892V185.792C44.6458 189.553 47.6947 192.602 51.4557 192.602H101.176C104.937 192.602 107.986 189.553 107.986 185.792V173.892C107.986 170.131 104.937 167.082 101.176 167.082Z" fill="#FAFAFA"/>
<path d="M101.176 192.592C101.731 192.545 102.283 192.458 102.826 192.332C104.381 191.919 105.739 190.965 106.656 189.642C107.316 188.699 107.719 187.599 107.826 186.452C107.886 185.192 107.826 183.792 107.826 182.302C107.826 180.812 107.826 179.212 107.826 177.522C107.826 176.682 107.826 175.812 107.826 174.912C107.869 174.013 107.792 173.111 107.596 172.232C107.353 171.306 106.912 170.443 106.302 169.703C105.693 168.964 104.93 168.367 104.066 167.952C102.276 166.952 100.066 167.362 97.8757 167.292H83.7757H51.4657C50.0954 167.298 48.7609 167.73 47.6478 168.53C46.5348 169.329 45.6987 170.456 45.2558 171.752C44.9245 173.058 44.8063 174.409 44.9057 175.752V183.852C44.8055 185.14 44.9067 186.436 45.2057 187.692C45.5818 188.867 46.2798 189.912 47.2202 190.709C48.1607 191.506 49.3059 192.024 50.5257 192.202C51.1264 192.271 51.7315 192.295 52.3358 192.272H57.7457H64.5858H76.8757L94.6658 192.352H99.4957H100.756C100.899 192.337 101.043 192.337 101.186 192.352H100.756H99.4957L94.6658 192.402L76.8757 192.492H64.5858H52.3257C51.6979 192.515 51.0694 192.488 50.4458 192.412C49.1354 192.225 47.9042 191.672 46.8928 190.818C45.8814 189.964 45.1305 188.843 44.7258 187.582C44.5262 186.934 44.4152 186.261 44.3958 185.582C44.3958 184.922 44.3958 184.262 44.3958 183.582V173.762C44.414 173.038 44.5387 172.32 44.7657 171.632C45.2413 170.232 46.143 169.015 47.3444 168.153C48.5458 167.29 49.9868 166.825 51.4657 166.822H83.7757H97.8757H101.126C102.208 166.815 103.276 167.061 104.246 167.542C105.157 167.987 105.96 168.624 106.601 169.41C107.241 170.195 107.704 171.111 107.956 172.092C108.151 173.002 108.225 173.933 108.176 174.862C108.176 175.762 108.176 176.632 108.176 177.472C108.176 179.162 108.176 180.762 108.176 182.252C108.176 183.742 108.176 185.122 108.116 186.422C107.99 187.605 107.559 188.736 106.866 189.702C105.904 191.054 104.481 192.007 102.866 192.382C102.317 192.542 101.747 192.613 101.176 192.592Z" fill="#263238"/>
<path d="M171.246 263.972C201.588 263.972 226.186 239.375 226.186 209.032C226.186 178.69 201.588 154.092 171.246 154.092C140.903 154.092 116.306 178.69 116.306 209.032C116.306 239.375 140.903 263.972 171.246 263.972Z" fill="#263238"/>
<path d="M171.246 264.502C160.28 264.502 149.561 261.251 140.444 255.158C131.327 249.066 124.221 240.407 120.025 230.276C115.829 220.145 114.732 208.997 116.872 198.243C119.012 187.488 124.293 177.61 132.047 169.857C139.802 162.104 149.681 156.824 160.436 154.686C171.191 152.548 182.338 153.648 192.469 157.845C202.599 162.043 211.257 169.15 217.347 178.269C223.438 187.387 226.688 198.107 226.686 209.072C226.67 223.77 220.823 237.861 210.43 248.253C200.036 258.645 185.943 264.489 171.246 264.502ZM171.246 154.632C160.478 154.632 149.953 157.825 141 163.807C132.048 169.789 125.07 178.291 120.95 188.239C116.829 198.187 115.751 209.133 117.852 219.693C119.952 230.253 125.137 239.954 132.751 247.567C140.364 255.181 150.065 260.366 160.625 262.466C171.185 264.567 182.131 263.489 192.079 259.368C202.027 255.248 210.529 248.27 216.511 239.318C222.493 230.365 225.686 219.84 225.686 209.072C225.68 194.632 219.944 180.784 209.737 170.569C199.53 160.355 185.686 154.608 171.246 154.592V154.632Z" fill="#455A64"/>
<path d="M171.246 258.962C161.17 258.952 151.324 255.956 142.952 250.351C134.58 244.746 128.057 236.785 124.209 227.473C120.36 218.162 119.359 207.919 121.332 198.038C123.304 188.158 128.161 179.084 135.29 171.964C142.418 164.844 151.498 159.997 161.38 158.037C171.263 156.076 181.505 157.089 190.812 160.948C200.119 164.808 208.072 171.34 213.667 179.719C219.262 188.097 222.248 197.947 222.246 208.022C222.23 221.538 216.85 234.495 207.287 244.046C197.724 253.597 184.761 258.962 171.246 258.962ZM171.246 158.072C161.371 158.082 151.72 161.019 143.514 166.511C135.307 172.004 128.913 179.805 125.138 188.93C121.364 198.056 120.379 208.095 122.308 217.779C124.237 227.464 128.993 236.36 135.976 243.342C142.958 250.325 151.854 255.081 161.539 257.01C171.223 258.939 181.263 257.954 190.388 254.18C199.513 250.405 207.314 244.011 212.807 235.804C218.299 227.598 221.236 217.947 221.246 208.072C221.246 194.812 215.978 182.094 206.601 172.717C197.224 163.34 184.507 158.072 171.246 158.072Z" fill="#455A64"/>
<path d="M171.246 249.472C193.823 249.472 212.126 231.17 212.126 208.592C212.126 186.015 193.823 167.712 171.246 167.712C148.668 167.712 130.366 186.015 130.366 208.592C130.366 231.17 148.668 249.472 171.246 249.472Z" fill="#455A64"/>
<path d="M79.9654 243.959C85.8581 237.53 85.4238 227.542 78.9953 221.649C72.5669 215.757 62.5786 216.191 56.686 222.62C50.7933 229.048 51.2277 239.036 57.6561 244.929C64.0846 250.822 74.0728 250.387 79.9654 243.959Z" fill="#0086D2"/>
<path d="M84.1256 233.262C84.0142 231.973 83.8137 230.694 83.5256 229.432C83.1523 227.965 82.5589 226.562 81.7656 225.272C80.7248 223.559 79.3673 222.059 77.7656 220.852C75.8311 219.39 73.5811 218.4 71.1956 217.962C68.4592 217.466 65.6401 217.704 63.0256 218.652C61.6154 219.155 60.2901 219.87 59.0956 220.772C58.4792 221.236 57.8915 221.737 57.3356 222.272C56.7893 222.841 56.2815 223.446 55.8156 224.082C53.8536 226.741 52.795 229.958 52.795 233.262C52.795 236.567 53.8536 239.784 55.8156 242.442C56.2786 243.078 56.7865 243.68 57.3356 244.242C57.8867 244.783 58.4748 245.284 59.0956 245.742C60.2877 246.649 61.6136 247.364 63.0256 247.862C66.4302 249.098 70.1581 249.115 73.5736 247.909C76.9891 246.704 79.8808 244.351 81.7556 241.252C82.5478 239.962 83.1411 238.56 83.5156 237.092C83.8037 235.831 84.0042 234.551 84.1156 233.262C84.1156 233.262 84.1156 233.352 84.1156 233.512C84.1156 233.672 84.1156 233.962 84.1156 234.272C84.1163 234.681 84.0828 235.089 84.0156 235.492C83.9529 236.049 83.8526 236.6 83.7156 237.142C83.3649 238.641 82.7883 240.077 82.0056 241.402C80.8554 243.353 79.3042 245.038 77.4545 246.344C75.6048 247.651 73.4987 248.55 71.2756 248.982C68.4631 249.52 65.5575 249.289 62.8656 248.312C61.4058 247.802 60.0332 247.07 58.7956 246.142C58.1546 245.671 57.5465 245.157 56.9756 244.602C56.4094 244.017 55.8817 243.396 55.3956 242.742C53.3654 239.991 52.27 236.662 52.27 233.242C52.27 229.823 53.3654 226.494 55.3956 223.742C55.8753 223.09 56.3999 222.472 56.9656 221.892C57.539 221.338 58.1468 220.82 58.7856 220.342C60.0232 219.415 61.3958 218.683 62.8556 218.172C65.5494 217.204 68.4537 216.976 71.2656 217.512C73.4905 217.94 75.5986 218.837 77.449 220.144C79.2993 221.451 80.8494 223.138 81.9956 225.092C82.7798 226.417 83.3565 227.853 83.7056 229.352C83.8426 229.895 83.9429 230.446 84.0056 231.002C84.0728 231.406 84.1063 231.814 84.1056 232.222C84.1056 232.522 84.1056 232.772 84.1056 232.972C84.1056 233.172 84.1256 233.262 84.1256 233.262Z" fill="#263238"/>
<path d="M75.0656 221.832C74.1781 221.402 73.2627 221.031 72.3256 220.722C69.7427 219.948 66.9865 219.969 64.4156 220.782C62.5289 221.393 60.8047 222.423 59.3725 223.794C57.9403 225.166 56.8371 226.844 56.1456 228.702C55.7462 229.77 55.4906 230.887 55.3856 232.022C55.2797 233.208 55.3335 234.402 55.5456 235.572C55.9926 238.043 57.1456 240.332 58.8651 242.161C60.5847 243.991 62.7973 245.283 65.2356 245.882C67.5099 246.439 69.8915 246.38 72.1356 245.712C74.157 245.087 76.001 243.99 77.5156 242.512C78.8242 241.216 79.8463 239.659 80.5156 237.942C81.4907 235.428 81.6859 232.679 81.0756 230.052C80.9049 229.341 80.6844 228.643 80.4156 227.962C80.3046 227.73 80.211 227.489 80.1356 227.242C80.1759 227.297 80.2126 227.353 80.2456 227.412C80.3056 227.522 80.3956 227.692 80.5056 227.922C80.8282 228.59 81.0861 229.286 81.2756 230.002C81.9707 232.671 81.824 235.49 80.8556 238.072C80.1831 239.852 79.144 241.47 77.8056 242.822C76.2467 244.362 74.3446 245.511 72.2556 246.172C69.9302 246.881 67.457 246.95 65.0956 246.372C62.5549 245.764 60.2492 244.421 58.4656 242.512C56.6785 240.61 55.4803 238.231 55.0156 235.662C54.8069 234.444 54.7565 233.204 54.8656 231.972C55.2047 228.586 56.8122 225.453 59.3656 223.202C60.7866 221.935 62.465 220.99 64.2856 220.432C66.9235 219.626 69.7464 219.658 72.3656 220.522C73.0594 220.758 73.7291 221.059 74.3656 221.422L74.8656 221.712L75.0656 221.832Z" fill="#263238"/>
<path d="M306.366 266.232C306.366 266.382 243.956 266.502 166.996 266.502C90.0357 266.502 27.5957 266.382 27.5957 266.232C27.5957 266.082 89.9857 265.972 166.986 265.972C243.986 265.972 306.366 266.092 306.366 266.232Z" fill="#263238"/>
<path d="M314.976 331.662H314.206H311.956H303.306H271.496C244.636 331.562 207.496 331.222 166.556 330.752C125.616 330.282 88.4457 329.882 61.5557 329.702L29.7557 329.502L21.1057 329.442H18.8557H18.0857H18.8557H21.1057H29.7557H61.5657C88.4257 329.532 125.566 329.872 166.566 330.342C207.566 330.812 244.646 331.212 271.506 331.402L303.316 331.602L311.966 331.662H314.216H314.976Z" fill="#263238"/>
<path d="M284.286 375.372H44.7356V388.332H284.286V375.372Z" fill="#263238"/>
<path d="M50.0457 381.852C50.0457 381.852 50.4157 381.852 51.1557 381.852H54.4557H67.2557L115.026 381.782L278.656 381.672H278.826L278.886 381.832C285.396 397.162 292.176 413.152 299.126 429.532L299.276 429.892H280.516L32.5157 429.782H32.3057L32.3757 429.582L45.3757 394.422L48.8357 385.112C49.2257 384.112 49.5257 383.272 49.7257 382.722C49.9257 382.172 50.0357 381.932 50.0357 381.932C50.0357 381.932 49.9457 382.212 49.7557 382.762L48.8857 385.172L45.4957 394.502C42.4957 402.672 38.1557 414.592 32.6557 429.652L32.5257 429.462L280.526 429.342H298.896L298.656 429.702C291.706 413.322 284.936 397.332 278.436 382.002L278.666 382.152L115.176 382.042L67.3557 381.972H54.5157H51.1957L50.0457 381.852Z" fill="#263238"/>
<g opacity="0.3">
<path opacity="0.3" d="M197.446 227.502C196.946 222.362 192.446 220.502 188.216 219.962C179.306 218.712 169.216 221.262 161.896 216.062C159.561 214.344 157.776 211.984 156.761 209.268C155.745 206.553 155.542 203.601 156.176 200.772C157.176 196.482 160.176 191.772 157.266 188.152C156.7 187.48 155.999 186.935 155.208 186.552C154.417 186.17 153.554 185.958 152.676 185.932C151.007 185.888 149.35 186.23 147.836 186.932C144.562 188.377 141.901 190.925 140.316 194.132C136.627 201.725 135.952 210.432 138.426 218.502C139.937 223.533 142.559 228.16 146.098 232.04C149.638 235.921 154.005 238.956 158.876 240.922C163.776 242.813 169.03 243.613 174.271 243.268C179.512 242.922 184.615 241.439 189.226 238.922C192.696 237.012 195.966 234.412 197.136 230.432C197.422 229.484 197.527 228.49 197.446 227.502Z" fill="white"/>
</g>
<g opacity="0.3">
<path opacity="0.3" d="M174.966 180.422C174.968 181.252 174.723 182.063 174.264 182.754C173.804 183.445 173.15 183.983 172.384 184.302C171.618 184.62 170.774 184.704 169.961 184.542C169.147 184.381 168.399 183.982 167.813 183.395C167.226 182.809 166.827 182.061 166.666 181.247C166.504 180.434 166.588 179.59 166.907 178.824C167.225 178.058 167.764 177.404 168.454 176.944C169.145 176.485 169.956 176.24 170.786 176.242C171.894 176.242 172.958 176.683 173.741 177.467C174.525 178.251 174.966 179.314 174.966 180.422Z" fill="white"/>
</g>
<path d="M156.806 244.722C156.562 244.653 156.327 244.556 156.106 244.432C155.666 244.212 154.986 243.942 154.176 243.432C151.837 242.159 149.638 240.644 147.616 238.912C144.606 236.344 141.989 233.348 139.846 230.022C134.469 221.829 132.4 211.901 134.056 202.242C134.687 198.354 135.879 194.578 137.596 191.032C138.755 188.638 140.163 186.373 141.796 184.272C142.356 183.522 142.876 183.002 143.196 182.622C143.355 182.426 143.529 182.243 143.716 182.072C143.587 182.291 143.439 182.499 143.276 182.692C142.986 183.092 142.496 183.622 141.966 184.402C140.413 186.529 139.073 188.803 137.966 191.192C136.294 194.732 135.138 198.494 134.536 202.362C132.947 211.902 134.988 221.691 140.256 229.802C142.356 233.104 144.915 236.091 147.856 238.672C149.841 240.417 151.991 241.964 154.276 243.292C155.066 243.792 155.736 244.082 156.156 244.292C156.386 244.414 156.604 244.558 156.806 244.722Z" fill="white"/>
<path d="M173.766 247.382C172.365 247.56 170.947 247.56 169.546 247.382C168.131 247.388 166.721 247.223 165.346 246.892C166.75 246.714 168.171 246.714 169.576 246.892C170.987 246.888 172.394 247.052 173.766 247.382Z" fill="white"/>
<path d="M209.356 214.142C209.246 214.142 209.706 212.142 209.856 208.972C209.856 208.162 209.906 207.292 209.856 206.352C209.806 205.412 209.736 204.402 209.636 203.352C209.085 198.789 207.659 194.375 205.436 190.352C204.896 189.442 204.436 188.552 203.866 187.792C203.296 187.032 202.866 186.302 202.326 185.662C200.326 183.152 198.826 181.842 198.896 181.762C199.287 182.018 199.649 182.317 199.976 182.652C200.392 183.012 200.786 183.396 201.156 183.802C201.596 184.282 202.156 184.802 202.616 185.432C203.184 186.108 203.718 186.813 204.216 187.542C204.786 188.312 205.296 189.202 205.856 190.112C208.157 194.181 209.603 198.676 210.106 203.322C210.216 204.319 210.276 205.32 210.286 206.322C210.314 207.206 210.291 208.091 210.216 208.972C210.178 209.699 210.101 210.424 209.986 211.142C209.924 211.687 209.831 212.228 209.706 212.762C209.628 213.231 209.511 213.693 209.356 214.142Z" fill="white"/>
<g opacity="0.3">
<path opacity="0.3" d="M19.2556 329.542V343.202H309.766V331.602L19.2556 329.542Z" fill="black"/>
</g>
<path d="M279.726 381.852C279.726 381.992 228.046 382.112 164.326 382.112C100.606 382.112 48.9158 381.992 48.9158 381.852C48.9158 381.712 100.576 381.592 164.326 381.592C228.076 381.592 279.726 381.702 279.726 381.852Z" fill="#263238"/>
<path d="M277.266 173.972L294.986 178.862L281.896 182.062C275.206 183.132 272.216 186.002 271.006 189.732L266.916 222.732L261.916 189.732C261.299 188.195 260.365 186.805 259.174 185.654C257.983 184.503 256.563 183.616 255.006 183.052L238.006 178.902L255.946 173.822C257.427 173.214 258.768 172.309 259.887 171.164C261.007 170.019 261.881 168.657 262.456 167.162L266.926 129.822L270.136 166.352C270.657 168.086 271.571 169.676 272.808 170.997C274.045 172.319 275.571 173.337 277.266 173.972Z" fill="white"/>
<path d="M286.396 219.312L290.526 220.452L287.476 221.202C285.916 221.452 285.226 222.122 284.936 222.982L283.986 230.662L282.816 222.972C282.673 222.614 282.455 222.291 282.178 222.024C281.9 221.756 281.569 221.551 281.206 221.422L277.256 220.422L281.436 219.242C281.778 219.099 282.089 218.887 282.348 218.621C282.608 218.355 282.811 218.039 282.946 217.692L283.946 209.002L284.696 217.502C284.816 217.917 285.032 218.297 285.328 218.612C285.623 218.926 285.989 219.167 286.396 219.312Z" fill="white"/>
<path d="M225.186 134.682C225.186 134.682 221.606 129.812 219.846 128.882C218.086 127.952 215.646 127.992 214.586 128.952L213.516 129.952C213.516 129.952 207.956 127.462 205.276 129.382C205.276 129.382 199.986 126.882 197.456 129.742C197.456 129.742 193.376 127.092 191.656 129.402C189.936 131.712 190.106 135.632 190.946 137.642C191.786 139.652 193.336 146.522 194.556 146.642C194.556 146.642 197.806 146.982 198.246 145.232C198.686 143.482 198.856 142.622 198.856 142.622C198.856 142.622 200.106 148.842 201.596 149.152C203.086 149.462 205.946 149.292 206.046 146.562C206.046 146.562 207.436 148.622 208.796 148.022C210.156 147.422 211.796 146.432 211.676 144.742C211.556 143.052 211.506 141.372 211.506 141.372C211.506 141.372 212.246 143.832 213.506 143.292C214.766 142.752 215.966 142.872 216.656 140.792C217.346 138.712 219.056 134.732 219.056 134.732L225.186 134.682Z" fill="#FFBE9D"/>
<path d="M211.596 141.182C211.676 141.182 211.346 140.512 211.066 139.422C210.691 138.02 210.63 136.552 210.886 135.122C211.157 133.68 211.741 132.315 212.596 131.122C213.256 130.212 213.776 129.732 213.726 129.672C213.676 129.612 213.056 130.002 212.296 130.882C211.305 132.057 210.637 133.47 210.356 134.981C210.076 136.492 210.193 138.05 210.696 139.502C210.853 140.128 211.162 140.705 211.596 141.182Z" fill="#EB996E"/>
<path d="M204.936 129.362C204.577 130.138 204.337 130.965 204.226 131.812C203.841 133.838 203.714 135.905 203.846 137.962C203.988 140.005 204.391 142.022 205.046 143.962C205.257 144.786 205.594 145.572 206.046 146.292C205.21 143.551 204.644 140.734 204.356 137.882C204.268 135.03 204.463 132.176 204.936 129.362Z" fill="#EB996E"/>
<path d="M197.326 129.772C196.94 131.947 196.913 134.169 197.246 136.352C197.413 138.554 197.943 140.714 198.816 142.742C198.976 142.692 198.186 139.862 197.816 136.292C197.446 132.722 197.496 129.782 197.326 129.772Z" fill="#EB996E"/>
<path d="M175.446 131.172C175.58 130.89 175.775 130.641 176.017 130.444C176.259 130.247 176.542 130.106 176.846 130.032C177.55 129.881 178.281 129.9 178.976 130.088C179.672 130.276 180.313 130.627 180.846 131.112C182.026 132.161 183.038 133.386 183.846 134.742L175.966 134.692C176.026 133.502 175.006 132.292 175.446 131.172Z" fill="#FFBE9D"/>
<path d="M18.5157 202.212C22.8628 202.944 27.2456 203.445 31.6457 203.712L41.9657 210.712L48.5057 219.312C47.5857 221.192 43.2757 220.392 43.2757 220.392L37.1057 214.922L32.4457 213.922L34.4457 217.332L43.9457 223.852L46.2257 225.782C46.2257 225.782 52.3057 229.222 54.4557 230.782C56.8057 232.472 57.6757 233.882 56.9657 234.842C56.1057 235.982 53.8757 235.842 52.5757 235.242L41.0057 230.732C41.0057 230.732 36.0057 233.112 33.4257 232.922C30.8457 232.732 26.4257 231.922 26.4257 231.922L23.4257 233.702C23.1422 234.006 22.7658 234.206 22.3557 234.272C21.3772 234.496 20.3597 234.485 19.3864 234.24C18.4131 233.995 17.5117 233.523 16.7557 232.862L9.6657 226.862C8.1057 225.552 5.3457 221.632 2.9257 217.972C1.4448 215.749 0.494342 213.214 0.147587 210.565C-0.199168 207.916 0.0670449 205.222 0.925701 202.692C1.65053 200.707 2.80277 198.904 4.30095 197.413C5.79913 195.922 7.60666 194.778 9.5957 194.062L28.3357 168.642L28.2357 203.502" fill="#FFBE9D"/>
<path d="M30.0056 226.182C31.5616 227.461 33.3278 228.459 35.2256 229.132C37.0553 229.977 39.0177 230.498 41.0256 230.672C41.0256 230.512 38.4756 229.862 35.4356 228.612C32.3956 227.362 30.0956 226.042 30.0056 226.182Z" fill="#EB996E"/>
<path d="M23.1258 230.502C23.0358 230.662 24.4058 231.352 26.1258 231.802C27.1697 232.182 28.2755 232.361 29.3858 232.332C28.4058 231.82 27.3539 231.459 26.2658 231.262C25.2415 230.924 24.1913 230.67 23.1258 230.502Z" fill="#EB996E"/>
<path d="M48.7456 227.122C47.8443 226.418 46.9027 225.767 45.9256 225.172C44.1756 223.982 41.7856 222.312 39.2056 220.372C37.9156 219.372 36.6956 218.472 35.6056 217.602C34.6185 216.887 33.751 216.02 33.0356 215.032C32.4165 214.096 32.0957 212.995 32.1156 211.872C31.9759 212.158 31.9204 212.477 31.9556 212.792C31.9886 213.66 32.2471 214.505 32.7056 215.242C33.3956 216.305 34.2652 217.239 35.2756 218.002C36.3656 218.892 37.5756 219.852 38.8756 220.822C41.4656 222.762 43.8756 224.402 45.7156 225.502C46.662 226.154 47.6783 226.697 48.7456 227.122Z" fill="#EB996E"/>
<path d="M33.2656 213.882C33.2656 213.972 34.1056 214.112 35.3756 214.612C37.0289 215.28 38.5144 216.304 39.7256 217.612C40.3498 218.402 41.0498 219.129 41.8156 219.782C42.5031 220.303 43.3257 220.616 44.1856 220.682C44.9434 220.797 45.7177 220.732 46.4456 220.492C46.4456 220.392 45.5756 220.492 44.2356 220.282C43.4674 220.177 42.7419 219.866 42.1356 219.382C41.413 218.72 40.7443 218.001 40.1356 217.232C38.8722 215.855 37.2787 214.823 35.5056 214.232C34.7969 213.941 34.0294 213.821 33.2656 213.882Z" fill="#EB996E"/>
<path d="M30.5956 203.662C30.5956 203.492 25.9356 203.222 20.3456 202.282C14.7556 201.342 10.3456 200.172 10.2856 200.392C11.1718 200.767 12.0885 201.065 13.0256 201.282C14.7856 201.762 17.3056 202.352 20.1556 202.822C23.5943 203.485 27.0954 203.766 30.5956 203.662Z" fill="#EB996E"/>
</svg>
