<svg width="187" height="165" viewBox="0 0 187 165" fill="none" xmlns="http://www.w3.org/2000/svg">
<ellipse cx="67.1459" cy="73.7508" rx="64.8171" ry="73.7508" fill="#FFFCFC"/>
<path d="M95.095 83.0091V81.5705L132.84 51.505C133.117 51.3004 133.423 51.1937 133.734 51.1937C134.045 51.1937 134.351 51.3004 134.628 51.505L186.97 94.1931V95.6108C186.961 95.7705 186.922 95.9237 186.858 96.0547C186.794 96.1858 186.708 96.2899 186.607 96.3564L148.861 127.861L95.095 83.0091Z" fill="#002E74"/>
<path opacity="0.1" d="M186.97 95.6108V94.1931L186.331 93.668L148.854 126.427V127.866L186.599 96.3616C186.702 96.2962 186.791 96.1919 186.856 96.0597C186.921 95.9276 186.961 95.7725 186.97 95.6108Z" fill="black"/>
<path d="M95.095 81.5652L132.84 50.0611C133.117 49.8565 133.423 49.7498 133.734 49.7498C134.045 49.7498 134.351 49.8565 134.628 50.0611L186.599 93.4265C187.094 93.836 187.094 94.5081 186.599 94.9177L148.854 126.422L95.095 81.5652Z" fill="#002E74"/>
<path opacity="0.2" d="M148.854 127.866V126.427L95.095 81.5652V83.0039L148.854 127.866Z" fill="black"/>
<path d="M95.956 83.697L57.811 112.733L57.0154 114.513V115.952C57.0259 116.322 57.104 116.682 57.2418 116.995C57.3796 117.307 57.5722 117.562 57.8001 117.732L108.086 159.695C108.489 160.006 108.939 160.168 109.396 160.168C109.853 160.168 110.302 160.006 110.705 159.695L148.011 128.569V127.115L95.956 83.697Z" fill="#002E74"/>
<path opacity="0.1" d="M95.956 83.697L57.811 112.733L57.0154 114.513V115.952C57.0259 116.322 57.104 116.682 57.2418 116.995C57.3796 117.307 57.5722 117.562 57.8001 117.732L108.086 159.695C108.489 160.006 108.939 160.168 109.396 160.168C109.853 160.168 110.302 160.006 110.705 159.695L148.011 128.569V127.115L95.956 83.697Z" fill="black"/>
<path d="M109.398 158.729C108.94 158.737 108.489 158.577 108.086 158.262L57.8001 116.299C57.5658 116.14 57.3677 115.888 57.2289 115.572C57.0901 115.256 57.0164 114.89 57.0164 114.516C57.0164 114.142 57.0901 113.776 57.2289 113.46C57.3677 113.144 57.5658 112.892 57.8001 112.733L94.2776 82.2793L148.011 127.115L110.705 158.262C110.304 158.576 109.854 158.737 109.398 158.729V158.729Z" fill="#002E74"/>
<path d="M94.2775 78.0787L58.2141 108.17L57.8508 108.921V114.513C57.8602 114.673 57.8987 114.826 57.9626 114.957C58.0264 115.088 58.1132 115.192 58.2141 115.259L108.5 157.228C108.778 157.429 109.085 157.535 109.396 157.535C109.707 157.535 110.013 157.429 110.291 157.228L146.355 127.115V121.539L94.2775 78.0787Z" fill="#EBEBEB"/>
<path d="M146.358 121.539L145.908 121.917L140.037 126.81L138.947 127.729L110.295 151.63C110.018 151.835 109.711 151.942 109.399 151.942C109.088 151.942 108.781 151.835 108.504 151.63L58.2106 109.667C57.7202 109.252 57.7202 108.585 58.2106 108.17L58.6901 107.771L94.2922 78.0787L145.926 121.166L146.035 121.26L146.358 121.539Z" fill="#F0F0F0"/>
<path d="M109.397 151.945V157.537C109.086 157.548 108.778 157.442 108.504 157.228L58.2105 115.259C58.1096 115.192 58.0228 115.088 57.9589 114.957C57.8951 114.826 57.8565 114.673 57.8472 114.513V108.916C57.857 109.076 57.8957 109.23 57.9594 109.362C58.0232 109.493 58.1097 109.599 58.2105 109.667L108.504 151.63C108.778 151.846 109.086 151.955 109.397 151.945V151.945Z" fill="#E0E0E0"/>
<path d="M146.358 120.814L139.866 126.228L138.849 127.078L110.295 150.906C110.017 151.11 109.711 151.217 109.399 151.217C109.088 151.217 108.781 151.11 108.504 150.906L63.4563 113.327C63.053 113.006 62.6752 112.686 62.3228 112.381C60.5064 110.77 59.3875 109.326 58.69 107.792L58.6028 107.598C58.5487 107.48 58.5117 107.348 58.4938 107.21C58.4624 106.916 58.5101 106.616 58.627 106.372C58.744 106.128 58.9212 105.958 59.1223 105.897C60.302 105.399 61.4399 104.714 62.5154 103.854L62.5626 103.818L94.2774 77.3541L146.358 120.814Z" fill="#FAFAFA"/>
<path opacity="0.1" d="M139.623 120.137C139.162 120.525 139.162 121.15 139.623 121.539C139.881 121.732 140.168 121.833 140.458 121.833C140.749 121.833 141.036 121.732 141.294 121.539C141.759 121.15 141.759 120.525 141.294 120.137C141.036 119.943 140.749 119.843 140.458 119.843C140.168 119.843 139.881 119.943 139.623 120.137V120.137Z" fill="black"/>
<path d="M145.011 115.605C144.375 115.08 143.576 115.159 142.762 115.831C141.498 116.881 140.408 119.244 139.932 121.712C140.13 121.802 140.338 121.839 140.546 121.822C140.985 119.622 141.955 117.548 143.071 116.608C143.38 116.333 143.732 116.177 144.095 116.157C144.307 116.152 144.515 116.23 144.698 116.383C145.236 116.829 145.548 117.926 145.548 119.375C145.549 119.616 145.54 119.856 145.519 120.095L146.108 120.583C146.148 120.183 146.169 119.78 146.17 119.375C146.162 117.595 145.744 116.22 145.011 115.605Z" fill="#263238"/>
<path d="M146.049 121.05C146.049 121.119 146.031 121.187 146.02 121.26L145.911 121.166L146.049 121.05Z" fill="#263238"/>
<path opacity="0.1" d="M134.599 115.931C134.137 116.32 134.137 116.944 134.599 117.333C134.857 117.526 135.143 117.627 135.434 117.627C135.725 117.627 136.012 117.526 136.27 117.333C136.735 116.944 136.735 116.32 136.27 115.931C136.012 115.738 135.725 115.637 135.434 115.637C135.143 115.637 134.857 115.738 134.599 115.931V115.931Z" fill="black"/>
<path d="M139.986 111.4C139.347 110.875 138.551 110.948 137.734 111.625C136.473 112.676 135.383 115.038 134.907 117.506C135.106 117.596 135.314 117.634 135.521 117.616C135.961 115.416 136.927 113.342 138.046 112.403C138.355 112.126 138.708 111.968 139.071 111.946C139.282 111.944 139.491 112.023 139.674 112.177C140.211 112.623 140.524 113.715 140.524 115.17C140.523 115.41 140.514 115.65 140.495 115.889L141.08 116.377C141.122 115.978 141.142 115.574 141.141 115.17C141.127 113.39 140.713 112.014 139.986 111.4Z" fill="#263238"/>
<path opacity="0.1" d="M129.556 111.725C129.457 111.777 129.371 111.873 129.31 111.998C129.249 112.123 129.216 112.273 129.216 112.426C129.216 112.579 129.249 112.729 129.31 112.854C129.371 112.98 129.457 113.075 129.556 113.127C129.815 113.316 130.102 113.415 130.392 113.415C130.682 113.415 130.968 113.316 131.227 113.127C131.693 112.739 131.693 112.108 131.227 111.725C130.969 111.532 130.683 111.431 130.392 111.431C130.101 111.431 129.815 111.532 129.556 111.725V111.725Z" fill="black"/>
<path d="M134.929 107.194C134.294 106.669 133.494 106.742 132.681 107.42C131.42 108.47 130.326 110.833 129.851 113.3C130.05 113.39 130.259 113.427 130.468 113.411C130.904 111.211 131.874 109.137 132.989 108.197C133.299 107.919 133.653 107.762 134.017 107.74C134.229 107.738 134.437 107.818 134.621 107.971C135.158 108.417 135.467 109.509 135.467 110.964C135.468 111.204 135.458 111.445 135.438 111.683L136.026 112.171C136.067 111.772 136.087 111.368 136.088 110.964C136.088 109.184 135.667 107.808 134.929 107.194Z" fill="#263238"/>
<path opacity="0.1" d="M124.518 107.519C124.056 107.908 124.056 108.533 124.518 108.921C124.776 109.115 125.062 109.216 125.353 109.216C125.644 109.216 125.931 109.115 126.189 108.921C126.654 108.533 126.654 107.908 126.189 107.519C125.931 107.326 125.644 107.225 125.353 107.225C125.062 107.225 124.776 107.326 124.518 107.519V107.519Z" fill="black"/>
<path d="M129.89 102.988C129.255 102.463 128.456 102.536 127.642 103.214C126.378 104.264 125.288 106.627 124.812 109.095C125.011 109.185 125.221 109.222 125.429 109.205C125.865 107.005 126.835 104.931 127.951 103.991C128.259 103.716 128.612 103.56 128.975 103.539C129.188 103.536 129.397 103.613 129.582 103.765C130.119 104.211 130.428 105.309 130.428 106.758C130.429 106.998 130.42 107.239 130.399 107.477L130.988 107.966C131.028 107.566 131.048 107.162 131.049 106.758C131.049 104.978 130.628 103.602 129.89 102.988Z" fill="#263238"/>
<path opacity="0.1" d="M119.475 103.314C119.375 103.366 119.289 103.461 119.228 103.586C119.168 103.712 119.135 103.861 119.135 104.015C119.135 104.168 119.168 104.317 119.228 104.443C119.289 104.568 119.375 104.663 119.475 104.715C119.734 104.907 120.021 105.007 120.312 105.007C120.604 105.007 120.891 104.907 121.15 104.715C121.611 104.327 121.611 103.702 121.15 103.314C120.891 103.122 120.604 103.022 120.312 103.022C120.021 103.022 119.734 103.122 119.475 103.314V103.314Z" fill="black"/>
<path d="M124.852 98.7612C124.212 98.2361 123.417 98.3096 122.599 98.987C121.339 100.037 120.249 102.4 119.773 104.868C119.971 104.958 120.179 104.995 120.387 104.978C120.826 102.778 121.793 100.704 122.912 99.7641C123.22 99.4881 123.573 99.3325 123.936 99.3125C124.148 99.3086 124.356 99.3866 124.539 99.5383C125.077 99.9846 125.389 101.082 125.389 102.531C125.389 102.772 125.379 103.012 125.36 103.251L125.945 103.739C125.987 103.339 126.008 102.935 126.007 102.531C126.007 100.772 125.586 99.3965 124.852 98.7612Z" fill="#263238"/>
<path opacity="0.1" d="M114.436 99.1077C113.975 99.4963 113.975 100.121 114.436 100.51C114.695 100.703 114.981 100.804 115.272 100.804C115.563 100.804 115.849 100.703 116.107 100.51C116.572 100.121 116.572 99.4963 116.107 99.1077C115.849 98.9144 115.563 98.8135 115.272 98.8135C114.981 98.8135 114.695 98.9144 114.436 99.1077V99.1077Z" fill="black"/>
<path d="M119.809 94.5607C119.173 94.0356 118.356 94.1091 117.56 94.7864C116.296 95.8366 115.206 98.1994 114.73 100.667C114.93 100.757 115.139 100.795 115.348 100.777C115.784 98.5774 116.754 96.5034 117.869 95.5635C118.178 95.2882 118.531 95.1327 118.894 95.112C119.106 95.1082 119.316 95.1861 119.5 95.3378C120.038 95.7841 120.347 96.8815 120.347 98.3307C120.348 98.5711 120.338 98.8114 120.318 99.05L120.906 99.5383C120.946 99.1384 120.967 98.7348 120.968 98.3307C120.968 96.5664 120.547 95.1907 119.809 94.5607Z" fill="#263238"/>
<path opacity="0.1" d="M109.398 94.9019C108.936 95.2905 108.936 95.9153 109.398 96.3039C109.656 96.4972 109.942 96.5981 110.233 96.5981C110.524 96.5981 110.81 96.4972 111.069 96.3039C111.534 95.9153 111.534 95.2905 111.069 94.9019C110.81 94.7086 110.524 94.6077 110.233 94.6077C109.942 94.6077 109.656 94.7086 109.398 94.9019V94.9019Z" fill="black"/>
<path d="M114.771 90.3601C114.131 89.835 113.317 89.9085 112.518 90.5859C111.258 91.636 110.168 93.9988 109.692 96.4667C109.89 96.5568 110.098 96.5942 110.306 96.5769C110.745 94.3769 111.715 92.3029 112.831 91.363C113.14 91.0877 113.492 90.9321 113.855 90.9114C114.067 90.907 114.275 90.985 114.458 91.1372C114.996 91.5835 115.308 92.6809 115.308 94.1301C115.309 94.3705 115.3 94.6108 115.279 94.8494L115.864 95.3378C115.907 94.9382 115.929 94.5345 115.929 94.1301C115.929 92.3606 115.504 90.9849 114.771 90.3601Z" fill="#263238"/>
<path opacity="0.1" d="M104.355 90.6961C104.255 90.7483 104.169 90.8436 104.108 90.9691C104.048 91.0945 104.015 91.2439 104.015 91.3971C104.015 91.5503 104.048 91.6998 104.108 91.8252C104.169 91.9506 104.255 92.0459 104.355 92.0981C104.613 92.2914 104.9 92.3923 105.191 92.3923C105.481 92.3923 105.768 92.2914 106.026 92.0981C106.491 91.7095 106.491 91.0847 106.026 90.6961C105.768 90.5028 105.481 90.4019 105.191 90.4019C104.9 90.4019 104.613 90.5028 104.355 90.6961V90.6961Z" fill="black"/>
<path d="M109.728 86.1596C109.092 85.6345 108.275 85.708 107.479 86.3853C106.219 87.4355 105.125 89.7983 104.649 92.2661C104.849 92.3559 105.058 92.3932 105.267 92.3764C105.707 90.1763 106.673 88.1023 107.788 87.1624C108.098 86.8863 108.452 86.7307 108.816 86.7109C109.028 86.707 109.236 86.785 109.419 86.9367C109.957 87.383 110.266 88.4804 110.266 89.9296C110.267 90.17 110.257 90.4103 110.237 90.6489L110.825 91.1372C110.865 90.7373 110.886 90.3337 110.887 89.9296C110.887 88.1548 110.466 86.7791 109.728 86.1596Z" fill="#263238"/>
<path opacity="0.1" d="M99.3162 86.4903C98.8549 86.8789 98.8549 87.5037 99.3162 87.8923C99.5745 88.0856 99.861 88.1865 100.152 88.1865C100.443 88.1865 100.729 88.0856 100.987 87.8923C101.452 87.5037 101.452 86.8789 100.987 86.4903C100.729 86.297 100.443 86.1961 100.152 86.1961C99.861 86.1961 99.5745 86.297 99.3162 86.4903V86.4903Z" fill="black"/>
<path d="M104.689 81.959C104.054 81.4339 103.236 81.5074 102.441 82.1848C101.18 83.2349 100.087 85.5977 99.6106 88.0656C99.8102 88.1556 100.019 88.193 100.228 88.1758C100.664 85.9758 101.634 83.9018 102.749 82.9619C103.059 82.6843 103.413 82.5269 103.777 82.5051C103.989 82.503 104.197 82.5828 104.381 82.7361C104.918 83.1824 105.227 84.2745 105.227 85.729C105.228 85.9694 105.218 86.2097 105.198 86.4483L105.786 86.9367C105.827 86.5367 105.847 86.1331 105.848 85.729C105.837 83.949 105.427 82.5733 104.689 81.959Z" fill="#263238"/>
<path opacity="0.1" d="M94.2739 82.2845C94.1743 82.3367 94.0882 82.432 94.0273 82.5575C93.9665 82.6829 93.9338 82.8323 93.9338 82.9855C93.9338 83.1387 93.9665 83.2881 94.0273 83.4136C94.0882 83.539 94.1743 83.6343 94.2739 83.6865C94.5331 83.8782 94.8201 83.9781 95.1113 83.9781C95.4024 83.9781 95.6894 83.8782 95.9486 83.6865C96.41 83.2979 96.41 82.6731 95.9486 82.2845C95.6894 82.0928 95.4024 81.9929 95.1113 81.9929C94.8201 81.9929 94.5331 82.0928 94.2739 82.2845V82.2845Z" fill="black"/>
<path d="M99.6615 77.7585C99.0221 77.2334 98.2265 77.3069 97.4091 77.9842C96.1485 79.0344 95.055 81.3972 94.5828 83.865C94.7811 83.9551 94.9891 83.9925 95.1967 83.9753C95.6363 81.7752 96.6026 79.7012 97.7216 78.7613C98.0303 78.4854 98.3833 78.3298 98.746 78.3098C98.9574 78.3059 99.1656 78.3839 99.3491 78.5356C99.8867 78.9819 100.199 80.0793 100.199 81.5284C100.199 81.7688 100.189 82.0089 100.17 82.2478L100.755 82.7361C100.797 82.3364 100.818 81.9327 100.817 81.5284C100.806 79.7432 100.388 78.3675 99.6615 77.7585Z" fill="#263238"/>
<path d="M132.103 119.412L104.355 142.568" stroke="#EBEBEB" stroke-width="0.569223" stroke-miterlimit="10" stroke-linecap="round"/>
<path d="M128.742 116.608L100.998 139.764" stroke="#EBEBEB" stroke-width="0.569223" stroke-miterlimit="10" stroke-linecap="round"/>
<path d="M125.382 113.804L97.6379 136.96" stroke="#EBEBEB" stroke-width="0.569223" stroke-miterlimit="10" stroke-linecap="round"/>
<path d="M122.022 111.001L94.2776 134.156" stroke="#EBEBEB" stroke-width="0.569223" stroke-miterlimit="10" stroke-linecap="round"/>
<path d="M118.661 108.197L90.9172 131.352" stroke="#EBEBEB" stroke-width="0.569223" stroke-miterlimit="10" stroke-linecap="round"/>
<path d="M115.301 105.393L87.5566 128.548" stroke="#EBEBEB" stroke-width="0.569223" stroke-miterlimit="10" stroke-linecap="round"/>
<path d="M111.941 102.589L84.1965 125.739" stroke="#EBEBEB" stroke-width="0.569223" stroke-miterlimit="10" stroke-linecap="round"/>
<path d="M108.58 99.7851L80.8359 122.935" stroke="#EBEBEB" stroke-width="0.569223" stroke-miterlimit="10" stroke-linecap="round"/>
<path d="M105.22 96.9812L77.4756 120.132" stroke="#EBEBEB" stroke-width="0.569223" stroke-miterlimit="10" stroke-linecap="round"/>
<path d="M101.859 94.1773L74.1152 117.328" stroke="#EBEBEB" stroke-width="0.569223" stroke-miterlimit="10" stroke-linecap="round"/>
<path d="M98.4988 91.3735L70.7546 114.524" stroke="#EBEBEB" stroke-width="0.569223" stroke-miterlimit="10" stroke-linecap="round"/>
<path d="M95.1387 88.5696L67.3945 111.72" stroke="#EBEBEB" stroke-width="0.569223" stroke-miterlimit="10" stroke-linecap="round"/>
<path d="M91.7781 85.7657L64.0339 108.916" stroke="#EBEBEB" stroke-width="0.569223" stroke-miterlimit="10" stroke-linecap="round"/>
<path d="M90.0959 84.3743L138.823 125.02" stroke="#002E74" stroke-width="0.569223" stroke-miterlimit="10" stroke-linecap="round"/>
<path d="M137.116 120.84L107.77 145.372" stroke="#002E74" stroke-width="0.569223" stroke-miterlimit="10" stroke-linecap="round"/>
<g opacity="0.25">
<path opacity="0.25" d="M122.436 115.71C122.182 115.149 121.709 114.923 121.302 114.66C121.139 114.555 120.939 114.408 120.754 114.261C120.5 113.668 120.162 112.686 120.609 112.576C120.877 112.502 121.397 112.912 121.698 113.038C121.862 113.106 121.826 112.76 121.698 112.697C121.204 112.418 120.245 111.531 120.056 112.744C120.014 113.125 120.054 113.516 120.173 113.862C119.943 113.72 119.695 113.654 119.446 113.668C119.213 113.699 119.014 113.71 118.934 114.104C118.887 114.319 118.952 114.414 118.963 114.576C118.972 114.662 118.999 114.741 119.041 114.803C119.082 114.866 119.136 114.907 119.195 114.923C119.17 114.923 119.094 114.923 118.934 114.923C118.57 114.923 117.626 114.566 117.404 115.196C117.313 115.453 117.524 115.815 117.492 115.915C117.459 116.015 116.798 116.293 116.678 116.398C116.623 116.446 116.66 116.719 116.631 116.745C116.294 116.774 115.957 116.774 115.621 116.745C115.065 116.808 113.688 116.509 113.87 117.748C113.888 117.879 113.964 117.863 113.982 118.079C113.985 118.181 113.999 118.281 114.022 118.378C114.004 118.378 113.964 118.378 113.891 118.546C113.819 118.714 113.652 118.614 113.583 118.735C113.321 119.213 113.724 119.381 113.394 119.68C112.932 120.1 111.97 119.249 111.497 119.717C111.08 120.137 111.624 121.339 110.883 121.36C110.72 121.36 110.814 121.712 110.938 121.728C111.632 121.817 111.555 121.628 111.69 120.809C111.904 119.48 113.277 120.399 114.051 120.09C114.07 120.078 114.086 120.06 114.1 120.038C114.113 120.016 114.122 119.99 114.128 119.962C114.133 119.933 114.134 119.904 114.13 119.875C114.126 119.846 114.118 119.819 114.106 119.795C113.902 119.323 114.138 119.066 114.444 118.861C114.462 118.849 114.478 118.831 114.492 118.809C114.505 118.787 114.515 118.761 114.52 118.733C114.526 118.705 114.527 118.676 114.524 118.647C114.52 118.618 114.513 118.591 114.502 118.567C114.418 118.352 114.138 117.69 114.305 117.375C114.574 117.291 114.848 117.246 115.123 117.238C115.72 117.178 116.319 117.162 116.918 117.191C116.938 117.19 116.957 117.183 116.975 117.169C116.993 117.155 117.008 117.135 117.019 117.111C117.031 117.087 117.038 117.059 117.041 117.03C117.043 117.001 117.041 116.972 117.034 116.944C116.947 116.666 117.724 116.488 117.895 116.419C117.911 116.411 117.925 116.398 117.937 116.382C117.95 116.366 117.96 116.346 117.967 116.324C117.974 116.302 117.978 116.278 117.979 116.254C117.979 116.23 117.977 116.206 117.971 116.183C117.608 114.849 118.966 115.343 119.533 115.469C119.557 115.478 119.581 115.478 119.605 115.468C119.628 115.458 119.649 115.439 119.665 115.413C119.681 115.387 119.692 115.354 119.697 115.32C119.701 115.285 119.698 115.25 119.689 115.217C119.602 114.771 118.916 114.319 119.729 114.167C119.946 114.16 120.16 114.234 120.351 114.382C120.701 115.236 121.188 115.956 121.771 116.482C122.305 116.887 122.85 116.614 122.436 115.71ZM122.185 115.952C122.356 116.278 121.822 116.01 121.756 115.952C121.452 115.687 121.201 115.311 121.03 114.86C121.193 114.991 121.342 115.107 121.451 115.18C121.741 115.332 121.996 115.6 122.185 115.952V115.952Z" fill="#455A64"/>
<path opacity="0.25" d="M108.558 124.159C108.46 123.576 108.446 122.941 108.82 122.872C108.998 122.841 108.871 122.489 108.736 122.479C108.235 122.479 108.079 123.088 108.144 123.844C107.944 123.71 107.735 123.608 107.519 123.539C107.192 123.45 106.982 123.439 106.876 123.917C106.811 124.206 106.971 124.39 106.956 124.652C106.938 125.03 107.203 124.873 106.807 125.025C106.653 125.023 106.5 124.998 106.35 124.952C105.95 124.952 105.917 124.952 105.674 125.256C105.43 125.561 106.037 125.702 105.311 125.534C105.127 125.444 104.934 125.405 104.74 125.419C104.475 125.508 104.333 125.618 104.377 126.044C104.399 126.238 104.686 126.49 104.682 126.611C104.682 127.535 103.988 126.753 103.73 126.611C103.713 126.6 103.695 126.595 103.676 126.596C103.657 126.598 103.639 126.606 103.623 126.62C103.607 126.634 103.593 126.653 103.584 126.676C103.574 126.699 103.568 126.726 103.567 126.753C103.567 127.209 103.777 127.372 103.316 127.409C103.262 127.409 102.953 127.162 102.844 127.157C102.55 127.157 102.281 127.713 101.896 127.682C101.79 127.682 101.754 127.808 101.787 127.929C101.892 128.344 102.048 128.596 101.467 128.979C101.467 128.979 100.784 128.858 100.799 128.858C100.631 128.858 100.74 129.247 100.868 129.262C101.133 129.289 102.03 129.835 102.295 129.32C102.488 128.937 102.103 128.496 102.201 128.27C102.135 128.428 102.713 128.044 102.775 128.013C102.918 127.921 103.07 127.861 103.225 127.834C103.305 127.834 103.371 128.023 103.458 128.018C103.545 128.013 103.687 128.097 103.788 128.018C103.89 127.939 103.916 127.745 103.956 127.708C104.057 127.608 103.825 127.493 104.025 127.393C104.17 127.32 104.297 127.535 104.431 127.593C104.649 127.692 104.976 127.924 105.158 127.593C105.401 127.157 104.958 126.852 104.998 126.543C105.093 125.886 105.725 126.385 106.037 126.091C106.058 126.069 106.074 126.038 106.082 126.002C106.09 125.966 106.09 125.927 106.081 125.892C105.895 124.983 107.036 125.692 107.392 125.597C107.458 125.597 107.527 125.519 107.516 125.408C107.505 125.298 107.374 124.847 107.374 124.841C107.465 124.316 107.984 124.353 108.22 124.448C108.453 125.55 109.06 126.663 109.721 126.369C109.745 126.358 109.767 126.336 109.782 126.305C109.797 126.275 109.805 126.239 109.804 126.201C109.764 125.424 109.176 124.673 108.558 124.159ZM108.798 125.067C108.776 125.009 108.744 124.915 108.711 124.805C108.896 124.977 109.054 125.202 109.176 125.466C109.303 126.018 108.86 125.219 108.798 125.067Z" fill="#455A64"/>
<path opacity="0.25" d="M118.643 130.076C118.385 129.514 117.917 129.289 117.51 129.026C117.343 128.916 117.146 128.769 116.961 128.622C116.703 128.029 116.365 127.047 116.816 126.942C117.085 126.868 117.604 127.272 117.906 127.398C118.069 127.472 118.029 127.125 117.906 127.062C117.412 126.779 116.452 125.897 116.264 127.11C116.22 127.49 116.259 127.881 116.376 128.228C116.147 128.085 115.899 128.019 115.65 128.034C115.413 128.065 115.217 128.076 115.134 128.47C115.09 128.685 115.156 128.779 115.163 128.942C115.172 129.028 115.2 129.108 115.242 129.171C115.284 129.233 115.339 129.274 115.399 129.289C115.37 129.289 115.297 129.289 115.134 129.257C114.77 129.257 113.83 128.905 113.608 129.535C113.513 129.793 113.724 130.155 113.695 130.25C113.666 130.344 112.998 130.628 112.878 130.733C112.827 130.785 112.878 131.058 112.831 131.079C112.494 131.114 112.157 131.114 111.821 131.079C111.265 131.147 109.892 130.848 110.07 132.082C110.091 132.219 110.164 132.198 110.182 132.418C110.186 132.521 110.201 132.621 110.226 132.717C110.204 132.717 110.164 132.717 110.091 132.885C110.019 133.053 109.855 132.948 109.786 133.074C109.521 133.552 109.924 133.72 109.597 134.014C109.132 134.434 108.17 133.589 107.701 134.056C107.232 134.524 107.824 135.674 107.087 135.695C106.923 135.695 107.018 136.052 107.141 136.067C107.832 136.151 107.759 135.962 107.89 135.148C108.108 133.815 109.481 134.734 110.251 134.424C110.342 134.392 110.349 134.23 110.309 134.135C110.106 133.663 110.342 133.4 110.647 133.195C110.666 133.184 110.682 133.167 110.695 133.146C110.709 133.124 110.718 133.098 110.724 133.07C110.729 133.042 110.73 133.013 110.726 132.985C110.722 132.956 110.714 132.929 110.702 132.906C110.622 132.691 110.338 132.024 110.505 131.715C110.775 131.631 111.05 131.585 111.326 131.578C111.924 131.515 112.523 131.499 113.121 131.531C113.141 131.53 113.161 131.522 113.179 131.508C113.197 131.494 113.212 131.475 113.223 131.45C113.234 131.426 113.242 131.399 113.244 131.37C113.247 131.341 113.244 131.311 113.237 131.284C113.15 131.006 113.924 130.827 114.098 130.759C114.114 130.751 114.129 130.738 114.141 130.722C114.153 130.705 114.163 130.685 114.17 130.663C114.177 130.641 114.18 130.617 114.18 130.593C114.181 130.569 114.177 130.545 114.171 130.523C113.808 129.194 115.166 129.683 115.733 129.814C115.757 129.822 115.781 129.822 115.805 129.811C115.828 129.801 115.849 129.782 115.865 129.757C115.881 129.731 115.893 129.699 115.898 129.665C115.903 129.63 115.901 129.595 115.893 129.562C115.802 129.11 115.119 128.664 115.929 128.512C116.147 128.51 116.361 128.584 116.554 128.727C116.906 129.578 117.391 130.298 117.971 130.827C118.509 131.252 119.057 130.985 118.643 130.076ZM118.392 130.318C118.56 130.649 118.029 130.381 117.96 130.318C117.656 130.05 117.405 129.671 117.234 129.22C117.401 129.352 117.55 129.472 117.659 129.541C117.947 129.7 118.201 129.968 118.392 130.318V130.318Z" fill="#455A64"/>
<path opacity="0.25" d="M127.169 119.89C127.068 119.307 127.057 118.672 127.427 118.604C127.609 118.572 127.482 118.22 127.347 118.21C126.846 118.21 126.686 118.819 126.752 119.58C126.554 119.442 126.345 119.338 126.13 119.27C125.803 119.181 125.593 119.171 125.484 119.648C125.422 119.937 125.582 120.121 125.567 120.384C125.549 120.762 125.811 120.604 125.418 120.756C125.264 120.754 125.111 120.729 124.961 120.683C124.561 120.683 124.525 120.683 124.285 120.987C124.045 121.292 124.648 121.434 123.922 121.266C123.74 121.175 123.547 121.136 123.355 121.15C123.09 121.239 122.948 121.35 122.992 121.775C123.013 121.969 123.297 122.221 123.297 122.342C123.297 123.266 122.603 122.484 122.341 122.342C122.324 122.332 122.306 122.328 122.287 122.33C122.269 122.332 122.251 122.341 122.235 122.354C122.22 122.368 122.206 122.387 122.196 122.409C122.186 122.432 122.18 122.457 122.178 122.484C122.178 122.941 122.389 123.103 121.931 123.14C121.876 123.14 121.568 122.893 121.459 122.888C121.164 122.888 120.892 123.445 120.507 123.413C120.401 123.413 120.369 123.539 120.398 123.66C120.507 124.075 120.663 124.327 120.082 124.71C120.082 124.71 119.399 124.589 119.413 124.589C119.246 124.589 119.351 124.978 119.482 124.994C119.747 125.02 120.641 125.566 120.906 125.051C121.103 124.668 120.717 124.227 120.816 124.001C120.75 124.159 121.324 123.775 121.39 123.744C121.532 123.653 121.682 123.593 121.836 123.565C121.916 123.565 121.985 123.754 122.069 123.749C122.152 123.744 122.301 123.828 122.403 123.749C122.505 123.67 122.53 123.476 122.57 123.439C122.672 123.34 122.439 123.224 122.639 123.124C122.785 123.051 122.908 123.266 123.046 123.324C123.264 123.424 123.591 123.655 123.773 123.324C124.012 122.888 123.569 122.584 123.613 122.274C123.704 121.617 124.339 122.116 124.652 121.822C124.672 121.799 124.687 121.768 124.694 121.732C124.701 121.696 124.7 121.658 124.692 121.623C124.51 120.714 125.647 121.423 126.007 121.329C126.072 121.329 126.138 121.25 126.13 121.14C126.123 121.029 125.989 120.578 125.989 120.573C126.08 120.047 126.595 120.084 126.835 120.179C127.068 121.281 127.671 122.395 128.332 122.101C128.357 122.091 128.379 122.069 128.395 122.038C128.41 122.007 128.417 121.97 128.415 121.932C128.361 121.155 127.787 120.405 127.169 119.89ZM127.409 120.798C127.376 120.714 127.347 120.626 127.322 120.536C127.507 120.708 127.665 120.933 127.787 121.197C127.914 121.749 127.471 120.951 127.409 120.814V120.798Z" fill="#455A64"/>
<path opacity="0.25" d="M101.943 99.3335C101.685 98.7717 101.216 98.5512 100.809 98.2834C100.642 98.1731 100.446 98.0261 100.261 97.8791C100.003 97.2858 99.6651 96.3039 100.116 96.1989C100.381 96.1253 100.904 96.5349 101.205 96.6557C101.365 96.7292 101.329 96.3826 101.205 96.3196C100.711 96.0361 99.7523 95.154 99.5634 96.3669C99.5174 96.7475 99.5569 97.1394 99.676 97.4853C99.447 97.3423 99.1986 97.2759 98.9494 97.291C98.7133 97.3225 98.5171 97.333 98.4335 97.7268C98.3899 97.9421 98.4335 98.0366 98.4626 98.1994C98.4717 98.2857 98.4994 98.3657 98.5418 98.4279C98.5842 98.4901 98.6391 98.5314 98.6987 98.5459C98.6104 98.5385 98.5219 98.5385 98.4335 98.5459C98.0702 98.5459 97.1293 98.1889 96.9041 98.8189C96.8133 99.0762 97.024 99.4385 96.9949 99.533C96.9659 99.6276 96.2974 99.9111 96.1775 100.021C96.123 100.069 96.1775 100.342 96.1303 100.363C95.7941 100.398 95.4566 100.398 95.1204 100.363C94.5645 100.431 93.1913 100.132 93.3693 101.371C93.3911 101.502 93.4638 101.481 93.4819 101.702C93.4857 101.804 93.5005 101.905 93.5255 102.001C93.5037 102.001 93.4638 102.001 93.3911 102.169C93.3185 102.337 93.155 102.232 93.086 102.358C92.8208 102.836 93.224 103.004 92.8971 103.298C92.4321 103.718 91.4693 102.872 90.9971 103.34C90.5248 103.807 91.1242 104.957 90.3868 104.978C90.2233 104.978 90.3177 105.335 90.4412 105.351C91.1315 105.435 91.0552 105.246 91.1896 104.432C91.4076 103.104 92.7808 104.017 93.551 103.713C93.5701 103.702 93.5871 103.685 93.6008 103.663C93.6144 103.64 93.6243 103.614 93.6296 103.585C93.6349 103.557 93.6355 103.527 93.6313 103.498C93.6271 103.469 93.6183 103.442 93.6055 103.419C93.4057 102.946 93.6418 102.683 93.947 102.479C93.9654 102.468 93.9819 102.451 93.9952 102.429C94.0084 102.407 94.018 102.382 94.0233 102.354C94.0286 102.326 94.0293 102.296 94.0255 102.268C94.0218 102.24 94.0135 102.213 94.0014 102.19C93.9215 101.975 93.6382 101.308 93.8053 100.998C94.0753 100.914 94.3502 100.869 94.6263 100.861C95.2235 100.798 95.8226 100.783 96.4209 100.814C96.4411 100.814 96.4609 100.806 96.4786 100.792C96.4963 100.778 96.5114 100.758 96.5225 100.734C96.5336 100.71 96.5405 100.682 96.5424 100.653C96.5443 100.624 96.5413 100.594 96.5335 100.567C96.45 100.289 97.2238 100.111 97.3982 100.042C97.4294 100.025 97.4545 99.9901 97.4681 99.9458C97.4817 99.9016 97.4827 99.8514 97.4708 99.8061C97.1075 98.4724 98.4662 98.9607 99.033 99.092C99.0565 99.1006 99.0811 99.0998 99.1044 99.0897C99.1276 99.0797 99.1485 99.0607 99.1649 99.0349C99.1813 99.0091 99.1925 98.9773 99.1974 98.943C99.2023 98.9087 99.2007 98.8731 99.1928 98.84C99.102 98.3884 98.4154 97.9421 99.2291 97.7898C99.4464 97.7879 99.6607 97.8618 99.854 98.0051C100.205 98.8565 100.691 99.5761 101.271 100.105C101.808 100.51 102.357 100.242 101.943 99.3335ZM101.692 99.575C101.859 99.9058 101.329 99.6381 101.26 99.575C100.956 99.307 100.705 98.9287 100.533 98.4777C100.7 98.6089 100.849 98.7297 100.958 98.8032C101.247 98.9582 101.501 99.2252 101.692 99.575V99.575Z" fill="#455A64"/>
<path opacity="0.25" d="M88.0654 107.782C87.9637 107.204 87.9528 106.569 88.3233 106.501C88.5013 106.464 88.3742 106.112 88.2434 106.107C87.7384 106.107 87.5822 106.716 87.6476 107.472C87.4493 107.336 87.2409 107.234 87.0264 107.168C86.6994 107.078 86.4887 107.063 86.3797 107.546C86.3143 107.829 86.4742 108.018 86.4633 108.275C86.4633 108.659 86.7067 108.501 86.3107 108.648C86.1569 108.648 86.0036 108.625 85.853 108.58C85.7318 108.538 85.6051 108.545 85.4862 108.598C85.3673 108.652 85.2606 108.751 85.1773 108.885C84.9302 109.184 85.5405 109.331 84.814 109.163C84.6322 109.07 84.4396 109.031 84.2472 109.047C83.9784 109.137 83.8404 109.247 83.884 109.672C83.884 109.861 84.1891 110.118 84.1855 110.239C84.1855 111.163 83.4952 110.381 83.2337 110.239C83.2162 110.23 83.1977 110.227 83.1793 110.23C83.1609 110.233 83.1433 110.242 83.1276 110.256C83.1119 110.27 83.0986 110.289 83.0886 110.312C83.0787 110.334 83.0724 110.36 83.0702 110.386C83.0702 110.843 83.2809 111.001 82.8232 111.043C82.765 111.043 82.4599 110.791 82.3509 110.791C82.053 110.791 81.7842 111.347 81.3991 111.316C81.2937 111.316 81.2574 111.436 81.2901 111.562C81.3954 111.977 81.5517 112.229 80.974 112.613C80.974 112.613 80.2911 112.487 80.3056 112.487C80.1385 112.487 80.2438 112.88 80.3746 112.891C80.6362 112.922 81.5335 113.468 81.7987 112.949C81.9949 112.571 81.6098 112.129 81.7042 111.898C81.6425 112.061 82.2165 111.673 82.2782 111.641C82.422 111.552 82.5736 111.492 82.7287 111.463C82.8086 111.463 82.8777 111.652 82.9612 111.652C83.0448 111.652 83.1937 111.73 83.2954 111.652C83.3972 111.573 83.4189 111.384 83.4589 111.342C83.5643 111.247 83.3281 111.127 83.5279 111.032C83.7277 110.938 83.8004 111.169 83.9384 111.232C84.1528 111.331 84.4834 111.562 84.665 111.232C84.9048 110.796 84.4616 110.491 84.5015 110.181C84.596 109.525 85.2463 110.024 85.5405 109.73C85.5619 109.708 85.5777 109.677 85.5855 109.641C85.5934 109.605 85.5929 109.566 85.5841 109.53C85.4025 108.622 86.5396 109.331 86.8992 109.236C86.961 109.236 87.03 109.158 87.0227 109.047C87.0155 108.937 86.8774 108.485 86.8811 108.475C86.9683 107.95 87.4878 107.992 87.7275 108.086C87.9564 109.189 88.5631 110.302 89.2243 110.003C89.2489 109.993 89.2705 109.972 89.2857 109.943C89.3009 109.913 89.3087 109.877 89.3078 109.84C89.2715 109.053 88.6793 108.296 88.0654 107.782ZM88.3015 108.69C88.2704 108.607 88.2425 108.521 88.218 108.433C88.4028 108.603 88.5601 108.829 88.6793 109.095C88.8101 109.646 88.3669 108.848 88.3015 108.69V108.69Z" fill="#455A64"/>
<path opacity="0.25" d="M98.1465 113.705C97.8922 113.143 97.4199 112.917 97.0131 112.655C96.8496 112.544 96.6498 112.397 96.4645 112.25C96.2102 111.657 95.8687 110.675 96.3192 110.57C96.588 110.496 97.1075 110.901 97.409 111.027C97.5725 111.095 97.5362 110.754 97.409 110.685C96.915 110.407 95.9559 109.52 95.767 110.738C95.7229 111.119 95.7636 111.511 95.8832 111.856C95.6546 111.712 95.406 111.645 95.1567 111.662C94.9242 111.694 94.7244 111.699 94.6444 112.093C94.5972 112.313 94.6444 112.408 94.6735 112.57C94.6829 112.656 94.7103 112.735 94.7519 112.797C94.7935 112.859 94.8473 112.901 94.906 112.917C94.8195 112.897 94.732 112.887 94.6444 112.886C94.2812 112.886 93.3366 112.534 93.115 113.159C93.0242 113.421 93.2313 113.778 93.2022 113.878C93.1731 113.978 92.5047 114.256 92.3884 114.361C92.3339 114.408 92.3703 114.681 92.3412 114.708C92.0049 114.74 91.6676 114.74 91.3313 114.708C90.7754 114.776 89.3986 114.476 89.5802 115.71C89.5802 115.847 89.6747 115.826 89.6892 116.041C89.6952 116.145 89.7098 116.247 89.7328 116.346C89.711 116.346 89.6747 116.346 89.602 116.509C89.5294 116.671 89.3623 116.577 89.2932 116.703C89.0317 117.181 89.4349 117.343 89.1043 117.643C88.643 118.063 87.6803 117.212 87.208 117.685C86.7357 118.157 87.3351 119.302 86.594 119.323C86.4305 119.323 86.525 119.675 86.6485 119.69C87.3424 119.78 87.2661 119.591 87.3969 118.777C87.6149 117.443 88.9881 118.362 89.7619 118.052C89.7804 118.041 89.7969 118.024 89.8101 118.003C89.8233 117.981 89.833 117.955 89.8382 117.927C89.8435 117.899 89.8443 117.87 89.8405 117.842C89.8367 117.813 89.8284 117.786 89.8164 117.763C89.6129 117.291 89.8491 117.028 90.1542 116.824C90.1725 116.812 90.1889 116.795 90.2021 116.774C90.2153 116.752 90.2251 116.727 90.2306 116.699C90.2362 116.671 90.2374 116.642 90.2343 116.614C90.2311 116.586 90.2236 116.558 90.2124 116.535C90.1288 116.314 89.8491 115.653 90.0162 115.343C90.2851 115.26 90.5587 115.212 90.8336 115.201C91.4308 115.14 92.0299 115.126 92.6282 115.159C92.6484 115.158 92.6682 115.151 92.6859 115.137C92.7036 115.123 92.7188 115.103 92.7301 115.079C92.7415 115.055 92.7487 115.027 92.7512 114.998C92.7537 114.969 92.7514 114.94 92.7445 114.912C92.6573 114.634 93.4347 114.455 93.6054 114.387C93.6212 114.379 93.6357 114.366 93.6481 114.35C93.6605 114.334 93.6705 114.314 93.6776 114.292C93.6847 114.27 93.6887 114.246 93.6894 114.222C93.6901 114.198 93.6875 114.174 93.6817 114.151C93.3184 112.823 94.6735 113.311 95.2439 113.442C95.2671 113.45 95.2913 113.448 95.314 113.437C95.3367 113.427 95.357 113.408 95.3729 113.382C95.3888 113.356 95.3997 113.325 95.4044 113.291C95.4092 113.258 95.4077 113.223 95.4001 113.19C95.3129 112.739 94.6263 112.287 95.44 112.14C95.6561 112.139 95.8691 112.213 96.0613 112.355C96.4137 113.207 96.9004 113.927 97.4817 114.456C98.0157 114.881 98.5716 114.613 98.1465 113.705ZM97.8958 113.946C98.0666 114.272 97.5326 114.009 97.4672 113.946C97.1612 113.681 96.9103 113.302 96.7406 112.849C96.9041 112.98 97.053 113.096 97.162 113.169C97.4518 113.325 97.7059 113.594 97.8958 113.946V113.946Z" fill="#455A64"/>
<path opacity="0.25" d="M106.677 103.513C106.575 102.935 106.56 102.3 106.935 102.232C107.113 102.195 106.985 101.843 106.851 101.838C106.35 101.838 106.193 102.447 106.259 103.203C106.059 103.07 105.849 102.968 105.634 102.899C105.311 102.809 105.096 102.794 104.991 103.277C104.926 103.56 105.085 103.749 105.074 104.007C105.056 104.39 105.318 104.232 104.922 104.379C104.768 104.381 104.615 104.359 104.464 104.311C104.343 104.27 104.216 104.276 104.097 104.33C103.979 104.383 103.872 104.482 103.788 104.616C103.541 104.915 104.152 105.062 103.425 104.894C103.242 104.801 103.048 104.762 102.855 104.778C102.59 104.868 102.448 104.978 102.492 105.403C102.51 105.592 102.797 105.85 102.793 105.97C102.793 106.895 102.103 106.112 101.841 105.97C101.824 105.962 101.805 105.959 101.787 105.961C101.768 105.964 101.751 105.973 101.735 105.987C101.719 106.001 101.706 106.02 101.696 106.043C101.686 106.065 101.68 106.091 101.678 106.117C101.678 106.574 101.888 106.732 101.427 106.774C101.373 106.774 101.064 106.522 100.955 106.522C100.661 106.522 100.392 107.078 100.007 107.047C99.9013 107.047 99.8649 107.168 99.8976 107.294C100.003 107.708 100.159 107.96 99.578 108.344C99.578 108.344 98.895 108.218 98.9095 108.218C98.746 108.218 98.8514 108.611 98.9785 108.622C99.2437 108.653 100.141 109.2 100.406 108.685C100.602 108.302 100.217 107.861 100.312 107.635C100.25 107.798 100.824 107.409 100.886 107.378C101.029 107.288 101.181 107.23 101.336 107.204C101.416 107.204 101.482 107.388 101.569 107.388C101.656 107.388 101.798 107.467 101.899 107.388C102.001 107.309 102.027 107.12 102.066 107.078C102.168 106.984 101.936 106.863 102.135 106.768C102.281 106.695 102.408 106.905 102.542 106.968C102.76 107.068 103.087 107.299 103.269 106.968C103.512 106.532 103.069 106.228 103.109 105.918C103.204 105.262 103.836 105.76 104.148 105.466C104.169 105.444 104.185 105.413 104.193 105.377C104.201 105.341 104.2 105.302 104.192 105.267C104.006 104.358 105.147 105.067 105.507 104.973C105.569 104.973 105.638 104.894 105.627 104.784C105.616 104.673 105.485 104.222 105.485 104.211C105.576 103.686 106.095 103.728 106.331 103.823C106.564 104.926 107.171 106.039 107.832 105.739C107.856 105.729 107.877 105.708 107.892 105.678C107.908 105.649 107.916 105.613 107.915 105.577C107.879 104.784 107.291 104.012 106.677 103.513ZM106.913 104.421C106.88 104.338 106.851 104.252 106.826 104.164C107.011 104.335 107.17 104.56 107.291 104.826C107.418 105.377 106.974 104.579 106.927 104.421H106.913Z" fill="#455A64"/>
<path opacity="0.25" d="M100.254 123.592C99.9994 123.03 99.5271 122.804 99.1202 122.542C98.9531 122.431 98.7569 122.284 98.5717 122.137C98.3174 121.544 97.9759 120.562 98.4263 120.457C98.6952 120.384 99.2147 120.788 99.5162 120.914C99.6797 120.982 99.6434 120.641 99.5162 120.578C99.0221 120.294 98.0631 119.407 97.8741 120.625C97.8305 121.006 97.8698 121.397 97.9868 121.743C97.7584 121.598 97.5096 121.531 97.2602 121.549C97.0277 121.581 96.8279 121.586 96.748 121.985C96.7007 122.2 96.7661 122.295 96.777 122.458C96.7864 122.543 96.8138 122.622 96.8554 122.684C96.897 122.746 96.9508 122.788 97.0095 122.804C96.9228 122.787 96.8355 122.777 96.748 122.773C96.3847 122.773 95.4401 122.421 95.2185 123.051C95.1277 123.308 95.3348 123.67 95.3057 123.765C95.2766 123.859 94.6082 124.143 94.492 124.248C94.4375 124.295 94.4738 124.568 94.4447 124.595C94.1085 124.629 93.771 124.629 93.4348 124.595C92.879 124.663 91.5021 124.364 91.6837 125.597C91.7019 125.734 91.7782 125.713 91.7927 125.934C91.799 126.035 91.8136 126.136 91.8363 126.233C91.8145 126.233 91.7782 126.233 91.7055 126.401C91.6329 126.569 91.4658 126.464 91.3968 126.59C91.1352 127.068 91.5384 127.236 91.2078 127.53C90.7465 127.95 89.7838 127.099 89.3115 127.572C88.8937 127.987 89.4386 129.189 88.6975 129.21C88.5341 129.21 88.6285 129.562 88.752 129.577C89.4459 129.667 89.3696 129.478 89.5004 128.664C89.7184 127.33 91.0916 128.249 91.8654 127.939C91.9526 127.908 91.9598 127.745 91.9199 127.65C91.7164 127.178 91.9526 126.915 92.2577 126.711C92.2761 126.699 92.2924 126.682 92.3056 126.661C92.3189 126.639 92.3286 126.614 92.3342 126.586C92.3397 126.559 92.341 126.529 92.3378 126.501C92.3346 126.473 92.3271 126.446 92.3159 126.422C92.2323 126.207 91.9526 125.54 92.1197 125.23C92.3886 125.147 92.6622 125.1 92.9371 125.088C93.5343 125.027 94.1334 125.013 94.7317 125.046C94.7519 125.045 94.7717 125.038 94.7894 125.024C94.8071 125.01 94.8223 124.99 94.8336 124.966C94.845 124.942 94.8522 124.914 94.8547 124.885C94.8572 124.856 94.8549 124.827 94.848 124.799C94.7608 124.521 95.5382 124.343 95.709 124.274C95.725 124.267 95.7399 124.254 95.7525 124.238C95.7652 124.222 95.7754 124.202 95.7826 124.18C95.7897 124.158 95.7937 124.134 95.7941 124.109C95.7946 124.085 95.7916 124.061 95.7853 124.038C95.422 122.71 96.777 123.198 97.3474 123.329C97.3706 123.337 97.3948 123.335 97.4175 123.324C97.4402 123.314 97.4605 123.295 97.4764 123.269C97.4923 123.243 97.5032 123.212 97.508 123.178C97.5127 123.145 97.5112 123.11 97.5036 123.077C97.4164 122.626 96.7298 122.174 97.5436 122.027C97.7596 122.026 97.9726 122.1 98.1648 122.242C98.5172 123.094 99.0039 123.814 99.5852 124.343C100.123 124.768 100.668 124.49 100.254 123.592ZM100.003 123.833C100.174 124.164 99.6397 123.896 99.5743 123.833C99.2684 123.568 99.0174 123.189 98.8478 122.736C99.0112 122.867 99.1602 122.988 99.2692 123.056C99.559 123.212 99.8131 123.481 100.003 123.833V123.833Z" fill="#455A64"/>
<path opacity="0.25" d="M107.011 114.308C106.909 113.726 106.898 113.09 107.269 113.022C107.447 112.991 107.32 112.639 107.185 112.628C106.684 112.628 106.528 113.237 106.593 113.993C106.393 113.86 106.183 113.758 105.968 113.689C105.645 113.6 105.434 113.589 105.325 114.067C105.26 114.356 105.42 114.54 105.409 114.802C105.409 115.18 105.652 115.023 105.256 115.175C105.102 115.172 104.949 115.148 104.798 115.101C104.677 115.061 104.551 115.068 104.432 115.121C104.313 115.175 104.207 115.273 104.123 115.406C103.876 115.71 104.486 115.852 103.759 115.684C103.576 115.593 103.383 115.554 103.189 115.569C102.924 115.658 102.782 115.768 102.826 116.193C102.844 116.388 103.131 116.64 103.127 116.761C103.127 117.685 102.437 116.902 102.176 116.761C102.158 116.751 102.14 116.747 102.122 116.749C102.103 116.751 102.085 116.759 102.069 116.773C102.054 116.787 102.04 116.805 102.03 116.828C102.02 116.85 102.014 116.876 102.012 116.902C102.012 117.359 102.223 117.522 101.761 117.559C101.707 117.559 101.398 117.312 101.293 117.307C100.995 117.307 100.726 117.863 100.341 117.832C100.236 117.832 100.199 117.958 100.232 118.078C100.337 118.493 100.493 118.745 99.9122 119.129C99.9122 119.129 99.2293 119.008 99.2474 119.008C99.0803 119.008 99.1857 119.396 99.3128 119.412C99.578 119.438 100.475 119.984 100.741 119.47C100.937 119.087 100.552 118.646 100.646 118.42C100.584 118.577 101.158 118.194 101.22 118.162C101.363 118.071 101.515 118.011 101.671 117.984C101.75 117.984 101.816 118.173 101.903 118.168C101.99 118.162 102.136 118.246 102.237 118.168C102.339 118.089 102.361 117.895 102.401 117.858C102.502 117.758 102.27 117.643 102.47 117.543C102.615 117.469 102.742 117.685 102.877 117.742C103.095 117.842 103.422 118.073 103.603 117.742C103.843 117.307 103.4 117.002 103.44 116.692C103.534 116.036 104.166 116.535 104.479 116.241C104.5 116.219 104.516 116.188 104.524 116.152C104.532 116.116 104.531 116.077 104.522 116.041C104.337 115.133 105.478 115.842 105.837 115.747C105.899 115.747 105.968 115.668 105.957 115.558C105.946 115.448 105.816 114.996 105.816 114.991C105.906 114.466 106.426 114.503 106.666 114.597C106.895 115.7 107.501 116.813 108.162 116.519C108.187 116.508 108.208 116.485 108.224 116.455C108.239 116.425 108.246 116.388 108.246 116.351C108.213 115.563 107.625 114.823 107.011 114.308ZM107.247 115.217C107.225 115.159 107.192 115.065 107.16 114.954C107.345 115.125 107.504 115.35 107.625 115.616C107.752 116.167 107.309 115.369 107.247 115.217V115.217Z" fill="#455A64"/>
<path opacity="0.25" d="M114.745 106.784C114.756 106.712 114.756 106.636 114.745 106.564C114.636 105.997 114.186 106.422 114.109 106.769C114.033 107.115 114.204 107.241 114.189 107.498C114.189 107.876 114.436 107.724 114.04 107.871C113.887 107.868 113.734 107.845 113.583 107.803C113.183 107.777 113.147 107.803 112.907 108.107C112.667 108.412 113.27 108.548 112.544 108.38C112.36 108.292 112.167 108.254 111.973 108.27C111.708 108.354 111.566 108.464 111.61 108.895C111.632 109.084 111.919 109.341 111.915 109.462C111.915 110.381 111.221 109.604 110.963 109.462C110.946 109.452 110.927 109.448 110.908 109.451C110.889 109.453 110.871 109.462 110.855 109.476C110.839 109.49 110.825 109.51 110.815 109.533C110.805 109.556 110.798 109.582 110.796 109.609C110.796 110.061 111.007 110.223 110.549 110.265C110.495 110.265 110.186 110.013 110.077 110.013C109.783 110.013 109.514 110.565 109.129 110.538C109.023 110.538 108.987 110.659 109.016 110.785C109.125 111.2 109.281 111.452 108.7 111.809C108.7 111.809 108.017 111.688 108.032 111.688C107.865 111.688 107.974 112.082 108.101 112.093C108.366 112.124 109.263 112.67 109.528 112.15C109.721 111.772 109.336 111.331 109.434 111.1C109.369 111.263 109.946 110.875 110.008 110.843C110.151 110.755 110.301 110.695 110.455 110.665C110.538 110.665 110.604 110.854 110.687 110.854C110.771 110.854 110.92 110.932 111.022 110.854C111.123 110.775 111.149 110.586 111.189 110.544C111.29 110.449 111.058 110.328 111.258 110.229C111.458 110.129 111.53 110.37 111.665 110.433C111.883 110.533 112.21 110.764 112.391 110.433C112.635 109.998 112.188 109.693 112.231 109.383C112.326 108.727 112.958 109.226 113.27 108.932C113.291 108.909 113.306 108.878 113.313 108.842C113.32 108.806 113.319 108.767 113.31 108.732C113.129 107.824 114.269 108.533 114.625 108.438C114.691 108.438 114.76 108.359 114.749 108.249C114.674 107.869 114.656 107.469 114.698 107.078C114.719 106.982 114.734 106.884 114.745 106.784V106.784Z" fill="#455A64"/>
</g>
<path d="M78.0328 41.5744H43.9297C40.5361 41.5744 37.7852 44.5205 37.7852 48.1547V140.46C37.7852 144.094 40.5361 147.04 43.9297 147.04H78.0328C81.4264 147.04 84.1773 144.094 84.1773 140.46V48.1547C84.1773 44.5205 81.4264 41.5744 78.0328 41.5744Z" fill="#263238" stroke="#263238" stroke-miterlimit="10"/>
<path d="M82.5611 48.9126V139.702C82.5611 141.213 82.0006 142.662 81.003 143.73C80.0054 144.799 78.6523 145.399 77.2414 145.399H44.7258C44.4858 145.399 44.2461 145.381 44.0085 145.345C42.7364 145.159 41.5703 144.485 40.7253 143.45C39.8803 142.415 39.4134 141.087 39.4109 139.712V48.9126C39.4115 47.4014 39.9725 45.9524 40.9705 44.8841C41.9685 43.8158 43.3219 43.2157 44.7329 43.2157H45.6654C48.5894 43.2157 51.5206 43.2745 54.4422 43.2157C54.4422 43.2361 54.4231 43.2745 54.4303 43.3053C55.2288 43.1721 56.472 43.5408 57.0602 44.1579C57.9783 45.1411 59.0518 46.4853 60.4528 46.6415C61.9184 46.8028 63.0828 45.5328 64.0391 44.524C65.1102 43.3898 66.5399 43.2182 67.9888 43.2182H77.2558C78.6637 43.2223 80.0128 43.8239 81.0072 44.8913C82.0017 45.9587 82.5605 47.4047 82.5611 48.9126V48.9126Z" fill="#002E74"/>
<path opacity="0.3" d="M82.5611 48.9126V60.4882C77.9109 66.4872 66.5878 74.2119 53.713 81.4246C46.7437 85.3318 42.2537 89.0137 39.4014 91.9376V63.9626C39.803 63.3533 40.2382 62.7311 40.7068 62.0961C46.3396 54.484 60.001 49.6013 69.6361 43.2157H77.2367C77.9357 43.215 78.6279 43.3618 79.2739 43.6478C79.9199 43.9338 80.5069 44.3534 81.0013 44.8824C81.4958 45.4115 81.8881 46.0398 82.1557 46.7313C82.4234 47.4228 82.5611 48.164 82.5611 48.9126V48.9126Z" fill="white"/>
<path opacity="0.3" d="M82.5611 82.6306V118C77.9109 123.999 66.5878 131.724 53.713 138.936C50.3271 140.801 47.0796 142.941 43.999 145.337C42.7269 145.151 41.5608 144.478 40.7158 143.443C39.8708 142.407 39.4039 141.08 39.4014 139.705V121.474C39.803 120.865 40.2382 120.243 40.7068 119.608C48.5966 108.939 72.2661 103.628 78.5277 92.0298C80.2085 88.924 81.5952 85.383 82.5611 82.6306Z" fill="white"/>
<path d="M60.7063 45.4586C61.2239 45.4586 61.6435 45.0092 61.6435 44.4549C61.6435 43.9006 61.2239 43.4512 60.7063 43.4512C60.1887 43.4512 59.769 43.9006 59.769 44.4549C59.769 45.0092 60.1887 45.4586 60.7063 45.4586Z" fill="#7D7D7D" stroke="white" stroke-miterlimit="10"/>
<path d="M84.1582 71.9153V58.7881C84.3808 58.7881 84.5942 58.8827 84.7516 59.0513C84.909 59.2198 84.9974 59.4484 84.9974 59.6868V71.014C84.9974 71.2526 84.909 71.4814 84.7517 71.6504C84.5944 71.8193 84.381 71.9146 84.1582 71.9153V71.9153Z" fill="#263238" stroke="#263238" stroke-miterlimit="10"/>
<path d="M84.1582 83.2271V76.6776C84.3808 76.6776 84.5942 76.7723 84.7516 76.9408C84.909 77.1094 84.9974 77.338 84.9974 77.5763V82.3284C84.9974 82.4465 84.9757 82.5633 84.9335 82.6724C84.8913 82.7814 84.8295 82.8805 84.7516 82.9639C84.6737 83.0474 84.5812 83.1136 84.4793 83.1587C84.3775 83.2039 84.2684 83.2271 84.1582 83.2271Z" fill="#263238" stroke="#263238" stroke-miterlimit="10"/>
<path d="M77.3491 99.0581H45.4384C43.937 99.0581 42.72 100.362 42.72 101.969C42.72 103.577 43.937 104.881 45.4384 104.881H77.3491C78.8505 104.881 80.0675 103.577 80.0675 101.969C80.0675 100.362 78.8505 99.0581 77.3491 99.0581Z" fill="white" stroke="#263238" stroke-miterlimit="10"/>
<path d="M46.6795 118.143C48.3404 117.738 49.3804 115.968 49.0025 114.19C48.6245 112.411 46.9717 111.297 45.3108 111.702C43.6499 112.107 42.6099 113.877 42.9878 115.655C43.3658 117.434 45.0186 118.548 46.6795 118.143Z" fill="white" stroke="#263238" stroke-miterlimit="10"/>
<path d="M58.2286 117.263C59.4331 115.973 59.4331 113.882 58.2286 112.592C57.0242 111.302 55.0714 111.302 53.8669 112.592C52.6624 113.882 52.6624 115.973 53.8669 117.263C55.0714 118.553 57.0242 118.553 58.2286 117.263Z" fill="white" stroke="#263238" stroke-miterlimit="10"/>
<path d="M66.8211 118.138C68.4783 117.716 69.5028 115.936 69.1092 114.161C68.7156 112.386 67.053 111.289 65.3958 111.71C63.7385 112.132 62.7141 113.912 63.1077 115.687C63.5013 117.462 65.1638 118.559 66.8211 118.138Z" fill="white" stroke="#263238" stroke-miterlimit="10"/>
<path d="M79.0147 116.174C79.6613 114.487 78.908 112.557 77.3322 111.865C75.7563 111.172 73.9546 111.979 73.308 113.667C72.6614 115.354 73.4147 117.284 74.9905 117.976C76.5664 118.669 78.3681 117.862 79.0147 116.174Z" fill="white" stroke="#263238" stroke-miterlimit="10"/>
<path d="M46.681 132.702C48.3419 132.298 49.3819 130.527 49.0039 128.749C48.626 126.97 46.9731 125.856 45.3123 126.261C43.6514 126.666 42.6113 128.436 42.9893 130.215C43.3672 131.993 45.0201 133.107 46.681 132.702Z" fill="white" stroke="#263238" stroke-miterlimit="10"/>
<path d="M58.2301 131.821C59.4345 130.531 59.4345 128.44 58.2301 127.15C57.0256 125.86 55.0728 125.86 53.8684 127.15C52.6639 128.44 52.6639 130.531 53.8684 131.821C55.0728 133.111 57.0256 133.111 58.2301 131.821Z" fill="white" stroke="#263238" stroke-miterlimit="10"/>
<path d="M66.823 132.696C68.4803 132.275 69.5047 130.494 69.1111 128.72C68.7175 126.945 67.055 125.848 65.3977 126.269C63.7404 126.691 62.716 128.471 63.1096 130.246C63.5032 132.021 65.1658 133.118 66.823 132.696Z" fill="white" stroke="#263238" stroke-miterlimit="10"/>
<path d="M79.0154 130.731C79.662 129.044 78.9087 127.114 77.3329 126.422C75.7571 125.729 73.9554 126.536 73.3088 128.224C72.6621 129.911 73.4154 131.841 74.9913 132.533C76.5671 133.226 78.3688 132.419 79.0154 130.731Z" fill="white" stroke="#263238" stroke-miterlimit="10"/>
<path d="M61.395 83.8903C67.8757 83.8903 73.1293 78.2641 73.1293 71.3238C73.1293 64.3835 67.8757 58.7573 61.395 58.7573C54.9143 58.7573 49.6606 64.3835 49.6606 71.3238C49.6606 78.2641 54.9143 83.8903 61.395 83.8903Z" stroke="white" stroke-miterlimit="10"/>
<path d="M56.3669 73.6794V69.1603C56.3291 69.2101 56.2807 69.2496 56.2258 69.2755C56.1488 69.3156 56.0688 69.349 55.9867 69.3753L55.7477 69.4547C55.7039 69.4713 55.6591 69.485 55.6138 69.4957V69.1219C55.6803 69.1018 55.7457 69.0778 55.8098 69.0502C55.888 69.0155 55.9632 68.9735 56.0346 68.9247C56.1115 68.873 56.185 68.8157 56.2545 68.7532C56.3258 68.6904 56.3893 68.6181 56.4434 68.5381H56.7949V73.6794H56.3669Z" fill="#263238"/>
<path d="M58.5426 73.6794V69.1603C58.5043 69.2107 58.4551 69.2502 58.3992 69.2755C58.3224 69.3162 58.2424 69.3496 58.1601 69.3753L57.921 69.4547C57.8771 69.4709 57.8324 69.4846 57.7871 69.4957V69.1219C57.8421 69.1065 57.9067 69.0809 57.9832 69.0502C58.0614 69.0155 58.1366 68.9735 58.2079 68.9247C58.2848 68.873 58.3583 68.8157 58.4279 68.7532C58.4992 68.6904 58.5627 68.6181 58.6167 68.5381H58.9658V73.6794H58.5426Z" fill="#263238"/>
<path d="M60.1301 71.0012V70.3201H60.594V71.0012H60.1301ZM60.1301 73.157V72.4785H60.594V73.157H60.1301Z" fill="#263238"/>
<path d="M62.2771 73.7434C62.0639 73.7526 61.8523 73.6995 61.6651 73.5898C61.5084 73.4901 61.3866 73.338 61.3184 73.157C61.2429 72.9455 61.2064 72.7203 61.2108 72.4939V72.3659H61.6244V72.4734C61.6252 72.6341 61.6485 72.7938 61.6938 72.9471C61.7286 73.0704 61.7999 73.1782 61.897 73.2543C62.0103 73.3313 62.1431 73.3689 62.2771 73.3619C62.4115 73.3672 62.5443 73.3307 62.6597 73.2569C62.7748 73.1753 62.8594 73.0529 62.8988 72.9112C62.9571 72.7082 62.9837 72.4963 62.9777 72.2839C62.9866 72.0174 62.9314 71.7529 62.8175 71.5158C62.76 71.4142 62.6778 71.3312 62.5797 71.2757C62.4816 71.2202 62.3712 71.1944 62.2604 71.2009H62.1433V70.7451H62.2604C62.3631 70.7562 62.4669 70.7409 62.5629 70.7004C62.659 70.6598 62.7446 70.5953 62.8127 70.5121C62.9399 70.2887 62.9977 70.0279 62.9777 69.7671C62.9863 69.5401 62.9385 69.3148 62.839 69.1142C62.7839 69.0253 62.707 68.9544 62.6167 68.9093C62.5265 68.8641 62.4264 68.8464 62.3274 68.8581C62.23 68.8486 62.1318 68.8634 62.0406 68.9011C61.9494 68.9388 61.8675 68.9986 61.8014 69.0758C61.6778 69.2756 61.6167 69.5123 61.6268 69.7517V69.8413H61.206V69.721C61.2009 69.4962 61.2375 69.2725 61.3136 69.063C61.385 68.8814 61.5113 68.7308 61.6723 68.6354C61.8697 68.5252 62.0906 68.4723 62.313 68.4817C62.5308 68.4722 62.7466 68.5299 62.9346 68.6482C63.0952 68.7558 63.2205 68.9141 63.2933 69.1014C63.3749 69.3113 63.4148 69.5371 63.4104 69.7645C63.426 70.0566 63.3603 70.3471 63.2215 70.5992C63.1078 70.7859 62.9315 70.9188 62.729 70.9705C62.8533 71.0085 62.9673 71.0778 63.0613 71.1727C63.174 71.2913 63.2598 71.4358 63.3124 71.5952C63.3827 71.8124 63.4159 72.0414 63.4104 72.2711C63.4146 72.5322 63.3765 72.7921 63.298 73.0393C63.2308 73.2477 63.1025 73.4273 62.9322 73.5513C62.737 73.6848 62.5086 73.7518 62.2771 73.7434V73.7434Z" fill="#263238"/>
<path d="M65.1509 73.7383C64.9347 73.7487 64.7201 73.6937 64.5317 73.5795C64.3723 73.4679 64.2526 73.3019 64.1922 73.1084C64.1151 72.8654 64.0787 72.6097 64.0846 72.3531H64.5174C64.5151 72.5349 64.5336 72.7163 64.5723 72.8933C64.6 73.0375 64.6762 73.1657 64.7864 73.2535C64.8967 73.3413 65.0332 73.3826 65.1701 73.3696C65.2451 73.3753 65.3205 73.3647 65.3916 73.3383C65.4627 73.3119 65.5281 73.2703 65.5837 73.2159C65.6893 73.0929 65.7577 72.9385 65.7797 72.773C65.8184 72.5363 65.836 72.2963 65.8323 72.0561C65.8387 71.8043 65.8178 71.5525 65.7702 71.3059C65.7458 71.1509 65.6733 71.0093 65.5646 70.9039C65.4523 70.8147 65.3144 70.7704 65.1748 70.7784C65.0529 70.7785 64.9334 70.8158 64.8306 70.886C64.7173 70.9685 64.6226 71.0769 64.5532 71.2035H64.1922V68.5381H66.0571V68.9759H64.5771L64.5532 70.7682C64.6323 70.6676 64.73 70.5857 64.8401 70.5275C64.979 70.4544 65.1326 70.4192 65.2872 70.4251C65.4925 70.4146 65.6948 70.4817 65.8586 70.6146C66.0126 70.7568 66.122 70.9463 66.1718 71.1574C66.2388 71.434 66.2701 71.7191 66.2651 72.0049C66.2675 72.2537 66.2483 72.5023 66.2077 72.7474C66.1759 72.9406 66.1102 73.1257 66.014 73.2928C65.9301 73.4368 65.8111 73.5537 65.6698 73.6307C65.5071 73.7099 65.3294 73.7467 65.1509 73.7383Z" fill="#263238"/>
<path d="M78.1907 45.3382H74.1262V47.7245H78.1907V45.3382Z" stroke="#263238" stroke-width="0.821067" stroke-linecap="round" stroke-linejoin="round"/>
<path d="M77.2965 45.3382H74.1262V47.7245H77.2965V45.3382Z" fill="#263238" stroke="#263238" stroke-width="0.725073" stroke-linecap="round" stroke-linejoin="round"/>
<path d="M78.7526 46.0039H78.1812V47.0563H78.7526V46.0039Z" fill="#263238" stroke="#263238" stroke-width="0.725073" stroke-linecap="round" stroke-linejoin="round"/>
<path d="M42.971 46.0782H42.2251V47.4454H42.971V46.0782Z" fill="#263238" stroke="#263238" stroke-width="0.883086" stroke-linecap="round" stroke-linejoin="round"/>
<path d="M44.1424 45.5968H43.3965V47.4454H44.1424V45.5968Z" fill="#263238" stroke="#263238" stroke-width="0.883086" stroke-linecap="round" stroke-linejoin="round"/>
<path d="M45.3141 45.0284H44.5681V47.4455H45.3141V45.0284Z" fill="#263238" stroke="#263238" stroke-width="0.883086" stroke-linecap="round" stroke-linejoin="round"/>
<path d="M75.8836 102.612C75.7396 102.612 75.6016 102.551 75.4998 102.442C75.398 102.333 75.3408 102.185 75.3408 102.031V100.19C75.3408 100.036 75.398 99.8879 75.4998 99.7789C75.6016 99.6699 75.7396 99.6086 75.8836 99.6086C76.0275 99.6086 76.1655 99.6699 76.2673 99.7789C76.3691 99.8879 76.4263 100.036 76.4263 100.19V102.033C76.4256 102.187 76.3682 102.334 76.2665 102.443C76.1648 102.551 76.0271 102.612 75.8836 102.612V102.612Z" fill="#263238"/>
<path d="M75.8858 103.029C75.6321 103.029 75.3889 102.921 75.2095 102.729C75.0302 102.537 74.9294 102.277 74.9294 102.005V101.137C74.9294 101.123 74.9321 101.109 74.9371 101.096C74.9422 101.084 74.9496 101.072 74.959 101.062C74.9684 101.052 74.9794 101.045 74.9916 101.039C75.0038 101.034 75.0168 101.032 75.0299 101.032C75.0427 101.032 75.0555 101.035 75.0674 101.04C75.0793 101.045 75.0901 101.053 75.0992 101.063C75.1083 101.073 75.1155 101.084 75.1204 101.097C75.1253 101.11 75.1279 101.123 75.1279 101.137V102.003C75.1388 102.211 75.2238 102.407 75.3654 102.55C75.507 102.694 75.6945 102.774 75.8894 102.774C76.0843 102.774 76.2717 102.694 76.4134 102.55C76.555 102.407 76.6399 102.211 76.6509 102.003V101.137C76.6509 101.109 76.6612 101.083 76.6796 101.063C76.698 101.043 76.7229 101.032 76.7489 101.032C76.762 101.032 76.775 101.034 76.7871 101.039C76.7993 101.045 76.8104 101.052 76.8197 101.062C76.8291 101.072 76.8365 101.084 76.8416 101.096C76.8467 101.109 76.8493 101.123 76.8493 101.137V102.003C76.8496 102.138 76.8249 102.272 76.7765 102.397C76.7281 102.522 76.6571 102.636 76.5675 102.731C76.4779 102.827 76.3715 102.902 76.2545 102.953C76.1375 103.005 76.0122 103.03 75.8858 103.029Z" fill="#263238"/>
<path d="M75.8859 104.135C75.8603 104.135 75.836 104.123 75.8181 104.104C75.8002 104.084 75.7903 104.058 75.7903 104.03V102.924C75.788 102.909 75.7889 102.893 75.7929 102.878C75.7968 102.863 75.8038 102.85 75.8132 102.838C75.8226 102.826 75.8343 102.817 75.8475 102.81C75.8607 102.804 75.875 102.8 75.8895 102.8C75.904 102.8 75.9183 102.804 75.9315 102.81C75.9446 102.817 75.9563 102.826 75.9657 102.838C75.9752 102.85 75.9821 102.863 75.9861 102.878C75.99 102.893 75.9909 102.909 75.9887 102.924V104.03C75.9887 104.045 75.986 104.059 75.9808 104.072C75.9756 104.085 75.9679 104.097 75.9583 104.107C75.9487 104.116 75.9373 104.124 75.9249 104.129C75.9124 104.134 75.8992 104.136 75.8859 104.135V104.135Z" fill="#263238"/>
<path d="M76.548 104.192H75.2259C75.2128 104.192 75.1998 104.19 75.1877 104.184C75.1755 104.179 75.1644 104.172 75.155 104.162C75.1457 104.152 75.1382 104.14 75.1332 104.128C75.1281 104.115 75.1255 104.101 75.1255 104.087C75.1255 104.058 75.1361 104.031 75.1549 104.011C75.1737 103.991 75.1993 103.979 75.2259 103.979H76.548C76.5747 103.979 76.6002 103.991 76.619 104.011C76.6379 104.031 76.6485 104.058 76.6485 104.087C76.6485 104.101 76.6459 104.115 76.6408 104.128C76.6357 104.14 76.6283 104.152 76.6189 104.162C76.6096 104.172 76.5985 104.179 76.5863 104.184C76.5741 104.19 76.5611 104.192 76.548 104.192V104.192Z" fill="#263238"/>
<path d="M38.1724 116.815C38.1724 116.815 38.2776 117.393 38.3804 117.421C38.4832 117.45 39.4921 117.393 39.516 117.117C39.5399 116.84 38.9996 116.674 38.9996 116.674L38.1724 116.815Z" fill="white" stroke="#263238" stroke-linejoin="round"/>
</svg>
