<svg width="187" height="165" viewBox="0 0 187 165" fill="none" xmlns="http://www.w3.org/2000/svg">
<ellipse cx="68.5617" cy="82.1" rx="68.5617" ry="82.1" fill="#FFFCFC"/>
<path d="M186.894 16.6103H115.857V118.507H186.894V16.6103Z" fill="white"/>
<path d="M186.894 118.507C186.894 117.827 186.862 76.8044 186.818 16.6103L186.894 16.6844H115.864L115.946 16.6006C115.946 54.785 115.946 90.0953 115.93 118.498L115.864 118.43L186.9 118.498L115.864 118.565H115.775V118.498C115.775 90.0953 115.775 54.785 115.775 16.6006V16.5233H115.864H186.894H186.97V16.6006C186.926 76.8044 186.894 117.827 186.894 118.507Z" fill="#263238"/>
<path d="M148.845 84.2634H122.76C121.589 84.2634 120.64 85.2284 120.64 86.4189V89.177C120.64 90.3675 121.589 91.3325 122.76 91.3325H148.845C150.016 91.3325 150.965 90.3675 150.965 89.177V86.4189C150.965 85.2284 150.016 84.2634 148.845 84.2634Z" fill="#F5F5F5"/>
<path d="M180.488 84.2634H155.076C153.905 84.2634 152.956 85.2284 152.956 86.4189V89.177C152.956 90.3675 153.905 91.3325 155.076 91.3325H180.488C181.66 91.3325 182.609 90.3675 182.609 89.177V86.4189C182.609 85.2284 181.66 84.2634 180.488 84.2634Z" fill="#F5F5F5"/>
<path d="M180.907 98.7497H122.618C121.447 98.7497 120.497 99.7147 120.497 100.905V103.663C120.497 104.854 121.447 105.819 122.618 105.819H180.907C182.078 105.819 183.027 104.854 183.027 103.663V100.905C183.027 99.7147 182.078 98.7497 180.907 98.7497Z" fill="#F5F5F5"/>
<path d="M134.563 81.4183C134.563 81.4634 131.635 81.5021 128.018 81.5021C124.402 81.5021 121.474 81.4634 121.474 81.4183C121.474 81.3732 124.402 81.3346 128.018 81.3346C131.635 81.3346 134.563 81.3732 134.563 81.4183Z" fill="#263238"/>
<path d="M165.535 81.4183C165.535 81.4634 163.228 81.5021 160.382 81.5021C157.535 81.5021 155.225 81.4634 155.225 81.4183C155.225 81.3732 157.532 81.3346 160.382 81.3346C163.231 81.3346 165.535 81.3732 165.535 81.4183Z" fill="#263238"/>
<path d="M142.874 95.8337C142.874 95.8788 138.119 95.9175 132.256 95.9175C126.392 95.9175 121.638 95.8788 121.638 95.8337C121.638 95.7886 126.392 95.7499 132.256 95.7499C138.119 95.7499 142.874 95.7886 142.874 95.8337Z" fill="#263238"/>
<path d="M180.964 68.2144H121.445C120.305 68.2144 119.382 69.1535 119.382 70.312V73.8433C119.382 75.0018 120.305 75.9409 121.445 75.9409H180.964C182.103 75.9409 183.027 75.0018 183.027 73.8433V70.312C183.027 69.1535 182.103 68.2144 180.964 68.2144Z" fill="#E0E0E0"/>
<path d="M164.762 72.0776C164.762 72.126 159.114 72.1614 152.151 72.1614C145.187 72.1614 139.536 72.126 139.536 72.0776C139.536 72.0293 145.184 71.9939 152.151 71.9939C159.117 71.9939 164.762 72.0325 164.762 72.0776Z" fill="#263238"/>
<path d="M180.964 21.2371H121.445C120.305 21.2371 119.382 22.1762 119.382 23.3347V26.866C119.382 28.0244 120.305 28.9636 121.445 28.9636H180.964C182.103 28.9636 183.027 28.0244 183.027 26.866V23.3347C183.027 22.1762 182.103 21.2371 180.964 21.2371Z" fill="#E0E0E0"/>
<path d="M164.762 25.1003C164.762 25.1454 159.114 25.1841 152.151 25.1841C145.187 25.1841 139.536 25.1454 139.536 25.1003C139.536 25.0552 145.184 25.0166 152.151 25.0166C159.117 25.0166 164.762 25.052 164.762 25.1003Z" fill="#263238"/>
<path d="M186.894 30.8323C186.894 30.8807 170.977 30.9193 151.345 30.9193C131.714 30.9193 115.791 30.8807 115.791 30.8323C115.791 30.784 131.708 30.7486 151.345 30.7486C170.983 30.7486 186.894 30.7872 186.894 30.8323Z" fill="#EBEBEB"/>
<path d="M186.894 65.0149C186.894 65.0633 170.977 65.0987 151.345 65.0987C131.714 65.0987 115.791 65.0633 115.791 65.0149C115.791 64.9666 131.708 64.9312 151.345 64.9312C170.983 64.9312 186.894 64.9698 186.894 65.0149Z" fill="#EBEBEB"/>
<path d="M148.845 38.5813H122.76C121.589 38.5813 120.64 39.5464 120.64 40.7369V43.495C120.64 44.6854 121.589 45.6505 122.76 45.6505H148.845C150.016 45.6505 150.965 44.6854 150.965 43.495V40.7369C150.965 39.5464 150.016 38.5813 148.845 38.5813Z" fill="#F5F5F5"/>
<path d="M180.488 38.5813H155.076C153.905 38.5813 152.956 39.5464 152.956 40.7369V43.495C152.956 44.6854 153.905 45.6505 155.076 45.6505H180.488C181.66 45.6505 182.609 44.6854 182.609 43.495V40.7369C182.609 39.5464 181.66 38.5813 180.488 38.5813Z" fill="#F5F5F5"/>
<path d="M180.907 53.0676H122.618C121.447 53.0676 120.497 54.0327 120.497 55.2232V57.9812C120.497 59.1717 121.447 60.1368 122.618 60.1368H180.907C182.078 60.1368 183.027 59.1717 183.027 57.9812V55.2232C183.027 54.0327 182.078 53.0676 180.907 53.0676Z" fill="#F5F5F5"/>
<path d="M134.563 35.7363C134.563 35.7814 131.635 35.8201 128.018 35.8201C124.402 35.8201 121.474 35.7814 121.474 35.7363C121.474 35.6912 124.402 35.6525 128.018 35.6525C131.635 35.6525 134.563 35.6912 134.563 35.7363Z" fill="#263238"/>
<path d="M165.535 35.7363C165.535 35.7814 163.228 35.8201 160.382 35.8201C157.535 35.8201 155.225 35.7814 155.225 35.7363C155.225 35.6912 157.532 35.6525 160.382 35.6525C163.231 35.6525 165.535 35.6912 165.535 35.7363Z" fill="#263238"/>
<path d="M142.874 50.1517C142.874 50.1968 138.119 50.2354 132.256 50.2354C126.392 50.2354 121.638 50.1968 121.638 50.1517C121.638 50.1066 126.392 50.0679 132.256 50.0679C138.119 50.0679 142.874 50.1066 142.874 50.1517Z" fill="#263238"/>
<path d="M180.834 110.114C180.834 110.162 176.197 110.198 170.476 110.198C164.755 110.198 160.122 110.162 160.122 110.114C160.122 110.065 164.755 110.03 170.476 110.03C176.197 110.03 180.834 110.069 180.834 110.114Z" fill="#263238"/>
<path d="M146.309 42.857C146.149 42.9106 145.984 42.9526 145.818 42.9826C144.573 43.2155 143.288 43.0288 142.157 42.451C141.947 42.3401 141.757 42.1929 141.596 42.016C141.42 41.8258 141.302 41.5872 141.257 41.3297C141.228 41.1924 141.227 41.0505 141.255 40.9129C141.283 40.7753 141.339 40.6452 141.419 40.5307C141.513 40.4123 141.639 40.3247 141.781 40.2789C141.924 40.233 142.077 40.231 142.221 40.2729C142.297 40.2954 142.367 40.3336 142.428 40.3852C142.488 40.4368 142.537 40.5006 142.572 40.5726C142.642 40.7185 142.664 40.8837 142.633 41.043C142.567 41.3554 142.415 41.6425 142.195 41.871C141.763 42.3644 141.219 42.7436 140.611 42.9762C139.956 43.2278 139.245 43.2924 138.557 43.1631C138.191 43.0997 137.846 42.9459 137.552 42.7152C137.394 42.5973 137.266 42.4416 137.181 42.2618C137.096 42.0819 137.056 41.8836 137.064 41.6842C137.085 41.4794 137.16 41.2843 137.283 41.1203C137.403 40.9453 137.58 40.8196 137.783 40.7659C137.891 40.7443 138.002 40.7514 138.106 40.7864C138.21 40.8214 138.303 40.8832 138.376 40.9657C138.515 41.1318 138.591 41.3435 138.588 41.5617C138.592 41.7751 138.542 41.9859 138.443 42.1739C138.336 42.3592 138.188 42.5169 138.012 42.6347C137.66 42.8487 137.277 43.0042 136.877 43.0954C136.107 43.3177 135.267 43.5594 134.411 43.3628C133.982 43.2683 133.589 43.0515 133.276 42.7378C133.115 42.578 132.987 42.3858 132.902 42.1734C132.817 41.961 132.776 41.733 132.782 41.5037C132.785 41.3564 132.818 41.2112 132.877 41.0768C132.936 40.9423 133.022 40.8213 133.128 40.7208C133.244 40.627 133.385 40.5688 133.533 40.5528C133.681 40.5369 133.831 40.5638 133.964 40.6306C134.102 40.6935 134.213 40.8043 134.278 40.9431C134.342 41.0819 134.356 41.2396 134.316 41.3877C134.231 41.6609 134.056 41.8962 133.822 42.0547C132.971 42.6479 131.993 43.0257 130.969 43.1566C130.471 43.244 129.959 43.1985 129.483 43.0245C129.248 42.9281 129.042 42.773 128.882 42.5735C128.722 42.3741 128.615 42.1369 128.57 41.8839C128.532 41.6304 128.588 41.3716 128.728 41.1579C128.867 40.9441 129.08 40.7906 129.324 40.7272C129.448 40.7029 129.577 40.7127 129.696 40.7558C129.815 40.7989 129.921 40.8735 130.002 40.9721C130.152 41.163 130.235 41.3985 130.24 41.6423C130.251 41.878 130.201 42.1124 130.094 42.3221C129.981 42.5196 129.828 42.69 129.644 42.8215C129.289 43.0575 128.895 43.2256 128.481 43.3177C127.705 43.5272 126.896 43.6754 126.161 43.4015C125.814 43.2741 125.509 43.051 125.28 42.7571C125.058 42.4757 124.946 42.1216 124.963 41.7615C124.997 41.4279 125.147 41.1179 125.388 40.8883C125.497 40.7773 125.631 40.6956 125.779 40.6506C125.927 40.6056 126.083 40.5987 126.234 40.6306H126.266V40.6628C126.276 41.2951 126.049 41.9077 125.632 42.3769C125.335 42.73 124.951 42.9958 124.519 43.147C124.253 43.2406 123.97 43.2779 123.689 43.2565C123.499 43.2275 123.404 43.2017 123.404 43.2017C123.773 43.263 124.151 43.2275 124.503 43.0986C124.922 42.9433 125.292 42.6789 125.578 42.3318C125.97 41.8711 126.178 41.278 126.161 40.6692L126.196 40.7111C126.06 40.6856 125.92 40.6943 125.788 40.7364C125.656 40.7785 125.536 40.8528 125.438 40.9528C125.219 41.1669 125.083 41.4539 125.055 41.7615C125.007 42.4059 125.518 43.0503 126.183 43.2823C126.849 43.5143 127.657 43.3951 128.427 43.1824C128.825 43.0923 129.203 42.9296 129.543 42.7023C129.708 42.5829 129.846 42.4291 129.949 42.2512C130.043 42.0644 130.087 41.8553 130.075 41.6455C130.071 41.436 130 41.2336 129.873 41.0688C129.808 40.9898 129.724 40.9299 129.63 40.8954C129.535 40.8608 129.433 40.8528 129.334 40.8722C129.127 40.9291 128.948 41.0614 128.831 41.2438C128.714 41.4263 128.667 41.6461 128.7 41.8614C128.742 42.0865 128.84 42.2971 128.983 42.4739C129.126 42.6507 129.311 42.788 129.521 42.8731C129.972 43.0359 130.457 43.077 130.928 42.9923C131.924 42.8637 132.875 42.4947 133.701 41.9162C133.904 41.78 134.057 41.5795 134.135 41.3458C134.165 41.2346 134.155 41.116 134.106 41.0119C134.057 40.9077 133.973 40.825 133.869 40.7788C133.764 40.7278 133.648 40.7071 133.532 40.719C133.416 40.731 133.306 40.775 133.213 40.8464C133.124 40.9319 133.052 41.0347 133.003 41.1487C132.953 41.2627 132.927 41.3856 132.925 41.5102C132.92 41.7157 132.958 41.92 133.035 42.1102C133.111 42.3004 133.226 42.4724 133.372 42.6153C133.661 42.9061 134.026 43.1072 134.424 43.1953C135.223 43.3822 136.043 43.1566 136.81 42.9343C137.193 42.8464 137.56 42.6986 137.898 42.4961C138.054 42.3938 138.186 42.256 138.281 42.0934C138.367 41.9299 138.41 41.747 138.408 41.5617C138.411 41.3818 138.35 41.2068 138.237 41.0688C138.182 41.0062 138.113 40.9593 138.035 40.9328C137.957 40.9062 137.873 40.9009 137.793 40.9173C137.629 40.9742 137.486 41.0782 137.379 41.2166C137.273 41.3551 137.209 41.522 137.194 41.6971C137.191 41.8719 137.231 42.0448 137.309 42.2004C137.388 42.3561 137.503 42.4897 137.644 42.5896C137.923 42.8065 138.249 42.9514 138.595 43.0116C139.258 43.1359 139.941 43.0747 140.573 42.8344C141.165 42.6154 141.695 42.2513 142.116 41.7744C142.32 41.5649 142.463 41.3015 142.528 41.014C142.565 40.8857 142.553 40.7479 142.494 40.6283C142.436 40.5088 142.334 40.4163 142.211 40.3696C142.09 40.3325 141.96 40.3333 141.839 40.3718C141.719 40.4103 141.612 40.4847 141.533 40.5854C141.462 40.6869 141.411 40.8022 141.386 40.9241C141.36 41.0461 141.36 41.1721 141.384 41.2943C141.435 41.5243 141.538 41.7393 141.684 41.9225C141.831 42.1057 142.016 42.2524 142.227 42.3511C142.902 42.7091 143.64 42.9281 144.398 42.9955C144.878 43.0349 145.361 43.0176 145.837 42.944L146.208 42.8731C146.241 42.8656 146.275 42.8603 146.309 42.857Z" fill="#970000"/>
<path d="M177.316 42.4736C177.19 42.5542 177.056 42.6211 176.917 42.6733C176.519 42.8382 176.096 42.9288 175.668 42.9408C174.986 42.9657 174.31 42.8055 173.709 42.4768C173.323 42.2826 172.995 41.988 172.758 41.6229C172.627 41.4153 172.567 41.1696 172.587 40.9238C172.601 40.7936 172.641 40.6676 172.704 40.5535C172.767 40.4394 172.852 40.3396 172.955 40.26C173.065 40.1728 173.202 40.1272 173.341 40.1311C173.485 40.1361 173.621 40.1946 173.725 40.2955C173.824 40.4001 173.898 40.5259 173.942 40.6637C173.987 40.8014 174 40.9476 173.982 41.0913C173.931 41.3821 173.791 41.6493 173.582 41.8549C173.377 42.0652 173.144 42.2462 172.891 42.393C172.362 42.71 171.77 42.9027 171.158 42.9569C170.503 43.0334 169.84 42.9089 169.256 42.5992C168.95 42.4322 168.696 42.1824 168.521 41.8775C168.433 41.7179 168.376 41.543 168.353 41.362C168.335 41.0806 168.407 40.801 168.557 40.5639C168.707 40.3268 168.927 40.1447 169.186 40.0441C169.28 40.0143 169.379 40.004 169.477 40.014C169.575 40.024 169.67 40.054 169.757 40.1021C169.927 40.1994 170.061 40.3512 170.137 40.5339C170.212 40.714 170.247 40.9086 170.24 41.104C170.233 41.2994 170.184 41.4909 170.096 41.6648C169.916 42.0049 169.657 42.2948 169.342 42.509C168.713 42.9514 167.977 43.21 167.213 43.2565C166.45 43.3031 165.688 43.136 165.012 42.7732C164.678 42.601 164.376 42.3722 164.118 42.0966C163.846 41.8217 163.688 41.4519 163.675 41.0623C163.678 40.866 163.738 40.6749 163.846 40.5121C163.954 40.3492 164.106 40.2214 164.283 40.144C164.376 40.1067 164.477 40.0933 164.577 40.1051C164.676 40.1169 164.771 40.1535 164.854 40.2117C165.01 40.326 165.122 40.4925 165.171 40.6821C165.215 40.8611 165.219 41.0481 165.182 41.2289C165.146 41.4097 165.069 41.5797 164.958 41.7261C164.753 42.0025 164.506 42.244 164.226 42.4413C163.719 42.8223 163.139 43.09 162.524 43.2266C161.908 43.3632 161.271 43.3657 160.654 43.234C160.081 43.1286 159.565 42.8148 159.203 42.3511C159.034 42.1251 158.94 41.8513 158.933 41.5682C158.926 41.2976 158.991 41.03 159.123 40.7949C159.184 40.6797 159.268 40.5783 159.369 40.4969C159.469 40.4155 159.585 40.3557 159.71 40.3212C159.829 40.2939 159.953 40.2939 160.073 40.3212C160.192 40.3485 160.304 40.4024 160.401 40.4791C160.573 40.6179 160.707 40.7999 160.789 41.0073C160.871 41.2146 160.899 41.4401 160.87 41.6616C160.805 42.0425 160.605 42.3861 160.309 42.6282C160.068 42.8318 159.785 42.9773 159.481 43.0535C159.066 43.1485 158.638 43.1757 158.214 43.1341L157.897 43.1051C157.86 43.1098 157.823 43.1098 157.786 43.1051C157.823 43.1008 157.86 43.1008 157.897 43.1051H158.229C158.655 43.1329 159.082 43.096 159.497 42.9955C159.789 42.915 160.06 42.7697 160.29 42.5702C160.562 42.3264 160.737 41.9893 160.781 41.6229C160.805 41.4196 160.777 41.2133 160.701 41.0239C160.624 40.8344 160.501 40.6679 160.344 40.5403C160.258 40.4749 160.16 40.4292 160.055 40.4064C159.951 40.3835 159.842 40.3842 159.738 40.4082C159.63 40.4414 159.529 40.4961 159.441 40.5691C159.354 40.6421 159.281 40.732 159.228 40.8335C159.103 41.0518 159.044 41.3025 159.058 41.5545C159.072 41.8065 159.159 42.0488 159.307 42.2512C159.654 42.6854 160.144 42.9782 160.686 43.0761C161.283 43.204 161.901 43.2017 162.497 43.0696C163.094 42.9374 163.656 42.6783 164.147 42.3092C164.411 42.1187 164.644 41.8871 164.838 41.6229C164.935 41.4959 165.002 41.3481 165.035 41.1906C165.067 41.0332 165.064 40.8703 165.025 40.7143C164.988 40.5617 164.899 40.4271 164.774 40.3341C164.713 40.2904 164.643 40.2628 164.568 40.2538C164.494 40.2448 164.419 40.2547 164.35 40.2826C164.202 40.3488 164.077 40.4565 163.987 40.5929C163.898 40.7293 163.849 40.8888 163.846 41.0526C163.862 41.3992 164.005 41.727 164.248 41.9709C164.495 42.2325 164.783 42.4504 165.101 42.6153C165.752 42.9588 166.482 43.118 167.215 43.0761C167.947 43.0329 168.654 42.7842 169.256 42.3576C169.553 42.1658 169.799 41.9024 169.972 41.5907C170.049 41.4387 170.092 41.2715 170.1 41.1007C170.107 40.93 170.077 40.7597 170.013 40.6016C169.959 40.4498 169.851 40.3241 169.71 40.2495C169.569 40.175 169.406 40.1569 169.253 40.1988C169.029 40.2885 168.839 40.4476 168.709 40.6535C168.579 40.8595 168.517 41.1017 168.53 41.3458C168.551 41.5056 168.601 41.6598 168.679 41.8002C168.839 42.081 169.073 42.3108 169.354 42.4639C169.908 42.7593 170.536 42.8804 171.158 42.8119C171.746 42.7579 172.315 42.5719 172.825 42.2674C173.068 42.1288 173.292 41.9576 173.49 41.7583C173.68 41.5728 173.809 41.3318 173.858 41.0688C173.875 40.9448 173.865 40.8184 173.827 40.6991C173.79 40.5798 173.727 40.4705 173.642 40.3792C173.56 40.299 173.453 40.2518 173.339 40.2465C173.225 40.2411 173.113 40.278 173.024 40.3502C172.937 40.421 172.864 40.5087 172.809 40.6082C172.755 40.7077 172.72 40.8171 172.707 40.9302C172.69 41.156 172.743 41.3817 172.86 41.5746C173.088 41.924 173.401 42.2071 173.769 42.3962C174.35 42.7248 175.006 42.8915 175.671 42.8795C176.093 42.8717 176.51 42.7933 176.907 42.6475C177.18 42.5444 177.31 42.4639 177.316 42.4736Z" fill="#970000"/>
<path d="M147.85 56.7053C147.812 56.73 147.771 56.7505 147.729 56.7665L147.365 56.9341C147.048 57.0791 146.569 57.2917 145.945 57.5301C145.185 57.8283 144.397 58.0442 143.593 58.1746C143.089 58.2495 142.581 58.2807 142.072 58.268C141.497 58.2792 140.925 58.192 140.379 58.0102C140.073 57.9044 139.796 57.7254 139.572 57.4882C139.348 57.251 139.184 56.9627 139.092 56.6473C139.046 56.476 139.033 56.2969 139.054 56.1205C139.076 55.944 139.132 55.7738 139.219 55.6195C139.307 55.4554 139.432 55.3152 139.584 55.2109C139.737 55.1066 139.911 55.0411 140.094 55.0202C140.287 55.0168 140.476 55.0717 140.638 55.1778C140.8 55.2839 140.927 55.4365 141.004 55.6163C141.177 55.9733 141.205 56.3851 141.083 56.7633C140.95 57.1395 140.722 57.4731 140.42 57.7299C140.119 57.9898 139.784 58.2066 139.425 58.3743C138.685 58.7656 137.829 58.8676 137.02 58.6611C136.601 58.5298 136.225 58.2864 135.93 57.9565C135.636 57.6266 135.434 57.2222 135.346 56.7859C135.308 56.5609 135.308 56.331 135.346 56.106C135.377 55.8697 135.471 55.6467 135.619 55.4616C135.689 55.3611 135.78 55.2772 135.885 55.2155C135.99 55.1538 136.107 55.1158 136.227 55.104C136.356 55.1015 136.481 55.1404 136.587 55.215C136.692 55.2897 136.772 55.3963 136.814 55.5196C136.874 55.7515 136.885 55.994 136.844 56.2304C136.804 56.4669 136.713 56.6915 136.579 56.889C136.345 57.294 136.045 57.6557 135.692 57.9587C134.997 58.5633 134.109 58.8891 133.194 58.8749C132.279 58.8607 131.401 58.5073 130.725 57.8814C130.4 57.5741 130.178 57.1705 130.091 56.7279C130.048 56.5046 130.062 56.2737 130.132 56.0577C130.21 55.8458 130.337 55.6565 130.503 55.5067C130.668 55.3535 130.875 55.2556 131.096 55.2264C131.209 55.2098 131.325 55.2188 131.434 55.2528C131.544 55.2868 131.645 55.3449 131.73 55.4229C131.878 55.5807 131.983 55.7758 132.032 55.9881C132.082 56.2005 132.075 56.4225 132.012 56.6312C131.888 57.023 131.661 57.3728 131.356 57.6429C131.074 57.9094 130.765 58.1438 130.434 58.3421C129.8 58.7231 129.095 58.9666 128.364 59.0574C127.681 59.149 126.986 59.0863 126.329 58.8737C126.017 58.7673 125.731 58.5924 125.492 58.3614C125.261 58.1379 125.103 57.8478 125.039 57.5301C124.97 57.2272 124.999 56.9098 125.122 56.6248C125.18 56.4873 125.272 56.3671 125.388 56.2753C125.504 56.1835 125.642 56.1231 125.787 56.0996C125.924 56.0784 126.063 56.0867 126.196 56.1239C126.33 56.1611 126.454 56.2264 126.56 56.3154C126.661 56.4009 126.737 56.5126 126.78 56.6387C126.823 56.7647 126.832 56.9002 126.805 57.0307C126.752 57.2687 126.624 57.4826 126.44 57.6397C126.278 57.7837 126.098 57.9051 125.904 58.0006C125.57 58.1689 125.221 58.3048 124.862 58.4065C124.367 58.5507 123.855 58.6276 123.34 58.6353C123.161 58.6418 122.982 58.6342 122.805 58.6128H122.941C123.033 58.6128 123.166 58.6128 123.34 58.6128C123.85 58.5894 124.354 58.5028 124.843 58.355C125.196 58.2471 125.54 58.108 125.87 57.9393C126.056 57.8454 126.228 57.7261 126.383 57.5849C126.545 57.437 126.656 57.2406 126.7 57.0243C126.723 56.9097 126.714 56.791 126.676 56.6809C126.637 56.5708 126.57 56.4735 126.481 56.3992C126.384 56.3216 126.273 56.2651 126.153 56.2329C126.034 56.2008 125.909 56.1938 125.787 56.2123C125.659 56.2345 125.539 56.2892 125.437 56.3715C125.336 56.4538 125.257 56.5609 125.207 56.6828C125.097 56.945 125.072 57.2365 125.137 57.514C125.215 57.8122 125.368 58.0844 125.582 58.3033C125.795 58.5222 126.062 58.6801 126.354 58.761C126.992 58.9651 127.667 59.0224 128.329 58.9285C129.417 58.79 130.435 58.305 131.235 57.543C131.522 57.2918 131.735 56.9652 131.85 56.599C131.905 56.4179 131.911 56.2253 131.869 56.0408C131.827 55.8563 131.737 55.6865 131.609 55.5486C131.461 55.4333 131.275 55.3786 131.088 55.3953C130.902 55.412 130.728 55.4988 130.602 55.6388C130.459 55.7706 130.351 55.9353 130.285 56.1189C130.224 56.3092 130.212 56.5122 130.25 56.7085C130.335 57.1178 130.545 57.4896 130.849 57.7718C131.497 58.3697 132.338 58.7065 133.213 58.719C134.089 58.7315 134.938 58.4187 135.603 57.8395C135.944 57.5498 136.232 57.202 136.455 56.8116C136.571 56.6271 136.654 56.4231 136.7 56.2091C136.751 56.0041 136.744 55.7886 136.68 55.5873C136.651 55.4948 136.594 55.414 136.518 55.3562C136.441 55.2983 136.348 55.2665 136.253 55.2651C136.155 55.277 136.062 55.3096 135.978 55.3607C135.894 55.4117 135.821 55.4801 135.765 55.5615C135.646 55.7313 135.563 55.9245 135.522 56.1287C135.481 56.333 135.483 56.5436 135.527 56.7472C135.61 57.1537 135.798 57.5304 136.072 57.838C136.346 58.1457 136.696 58.3731 137.086 58.4968C137.858 58.6939 138.674 58.5976 139.381 58.2261C140.072 57.8878 140.734 57.398 140.966 56.6989C141.077 56.3571 141.052 55.9846 140.896 55.6614C140.833 55.506 140.725 55.3733 140.588 55.2803C140.45 55.1873 140.288 55.1382 140.123 55.1394C139.962 55.1585 139.808 55.2164 139.674 55.3083C139.54 55.4003 139.43 55.5235 139.352 55.6678C139.273 55.8067 139.221 55.9603 139.201 56.1197C139.181 56.2791 139.193 56.441 139.235 56.5958C139.32 56.8929 139.473 57.165 139.683 57.3892C139.892 57.6135 140.152 57.7834 140.439 57.8846C140.972 58.0667 141.532 58.1561 142.094 58.1488C142.597 58.1655 143.101 58.1385 143.599 58.0682C144.398 57.9496 145.183 57.7477 145.942 57.4657C146.575 57.2369 147.045 57.034 147.371 56.9019L147.742 56.7472L147.85 56.7053Z" fill="#970000"/>
<path d="M62.489 54.9744L62.1308 86.3062C62.0706 91.6324 62.9834 99.4723 70.7517 99.1937C77.4772 98.3994 79.2616 91.4949 79.3092 86.5228C79.3345 84.164 79.3599 82.1972 79.3757 81.9565C79.3757 81.9565 86.7352 81.3031 87.3564 73.4152C87.6575 69.6053 87.6733 61.7002 87.6385 54.548C87.6107 50.8437 86.2985 47.2865 83.9628 44.5843C81.6271 41.8821 78.4392 40.233 75.0336 39.9653L74.33 39.9068C66.7297 39.7899 62.3907 46.7254 62.489 54.9744Z" fill="#FFBE9D"/>
<path d="M79.3789 81.9564C79.3789 81.9564 74.7737 81.8842 70.1115 78.1741C70.1115 78.1741 72.0321 84.1227 79.3409 83.9852L79.3789 81.9564Z" fill="#EB996E"/>
<path d="M75.211 57.7802C75.0684 57.9418 74.2285 57.206 73.0083 57.1716C71.788 57.1372 70.8816 57.7837 70.7548 57.6152C70.6914 57.5395 70.8404 57.2473 71.2397 56.9447C71.7736 56.5563 72.4071 56.3613 73.0495 56.3876C73.685 56.4052 74.2979 56.6465 74.7958 57.0753C75.1635 57.4089 75.2839 57.7115 75.211 57.7802Z" fill="#263238"/>
<path d="M75.1761 60.5139C75.159 60.7917 75.0429 61.0515 74.8525 61.2382C74.662 61.425 74.4121 61.524 74.1555 61.5145C73.9034 61.5145 73.6615 61.4058 73.4832 61.2123C73.3049 61.0189 73.2047 60.7565 73.2047 60.4829C73.221 60.2054 73.3364 59.9456 73.5264 59.7588C73.7163 59.572 73.9659 59.4728 74.2221 59.4823C74.3472 59.4819 74.4712 59.5082 74.5869 59.5599C74.7027 59.6115 74.8079 59.6874 74.8965 59.7832C74.9851 59.8791 75.0554 59.9929 75.1034 60.1183C75.1514 60.2437 75.1761 60.3781 75.1761 60.5139Z" fill="#263238"/>
<path d="M78.2791 66.9714C78.2791 66.9026 78.9827 66.827 80.1173 66.7616C80.4057 66.7616 80.6815 66.7101 80.7512 66.5037C80.7976 66.1864 80.7533 65.8612 80.6244 65.5719L79.9113 63.1374C78.9605 59.6989 78.3044 56.8587 78.4312 56.8175C78.558 56.7762 79.4327 59.5442 80.3772 63.0068C80.6054 63.8595 80.8209 64.6676 81.0111 65.4447C81.0967 65.8057 81.2552 66.2184 81.0777 66.6722C81.0292 66.7786 80.9588 66.8715 80.872 66.9436C80.7852 67.0157 80.6842 67.0653 80.5769 67.0883C80.4162 67.1221 80.2522 67.1337 80.0888 67.1227C78.9668 67.0917 78.2791 67.0436 78.2791 66.9714Z" fill="#263238"/>
<path d="M74.6944 52.8219C74.5771 53.1176 73.6009 52.8941 72.4346 52.9594C71.2682 53.0248 70.3047 53.3033 70.1716 53.0248C70.1114 52.8872 70.2921 52.619 70.6882 52.3577C71.2108 52.0343 71.7984 51.8549 72.3997 51.835C72.9971 51.8008 73.5929 51.9284 74.1334 52.2064C74.5454 52.4196 74.7451 52.674 74.6944 52.8219Z" fill="#263238"/>
<path d="M86.2597 55.2598C86.1329 55.5005 85.1821 55.2357 84.0411 55.1979C82.9001 55.1601 81.9334 55.3183 81.8225 55.0673C81.7718 54.9503 81.962 54.7234 82.3613 54.5446C82.9029 54.3113 83.4844 54.207 84.0665 54.2386C84.6539 54.2583 85.2307 54.413 85.7589 54.6925C86.1329 54.916 86.3168 55.1463 86.2597 55.2598Z" fill="#263238"/>
<path d="M62.6918 60.8681C62.5713 60.7993 57.7982 58.8668 57.5953 64.2756C57.3925 69.6844 62.4319 68.7938 62.4541 68.6391C62.4763 68.4844 62.6918 60.8681 62.6918 60.8681Z" fill="#FFBE9D"/>
<path d="M61.0087 66.5209C60.9866 66.5037 60.9168 66.5828 60.7679 66.6482C60.5642 66.7351 60.3377 66.7351 60.134 66.6482C59.6142 66.4143 59.2053 65.4894 59.218 64.5128C59.2233 64.0487 59.324 63.5918 59.5128 63.1753C59.5661 63.0091 59.6561 62.8595 59.7748 62.7397C59.8936 62.6198 60.0376 62.5333 60.1942 62.4875C60.2945 62.4626 60.3998 62.4769 60.4914 62.5278C60.5829 62.5788 60.655 62.6631 60.695 62.7661C60.7584 62.9208 60.7203 63.0274 60.7489 63.0377C60.7774 63.048 60.8598 62.9517 60.8249 62.7282C60.8029 62.5945 60.7391 62.4731 60.6443 62.3844C60.511 62.2658 60.3406 62.2078 60.1688 62.2228C59.9603 62.2567 59.7634 62.3482 59.5969 62.4885C59.4304 62.6288 59.2999 62.8132 59.218 63.024C58.9901 63.4831 58.8673 63.9949 58.8599 64.5163C58.8599 65.6097 59.3289 66.6516 60.0389 66.9232C60.1716 66.9704 60.3122 66.9853 60.4508 66.9669C60.5894 66.9485 60.7225 66.8972 60.8408 66.8166C60.9929 66.6516 61.0246 66.5312 61.0087 66.5209Z" fill="#EB996E"/>
<path d="M77.0873 70.7194C77.1412 70.5818 76.165 70.2655 75.4772 69.2683C75.1911 68.8331 74.9589 68.3592 74.7863 67.8585C74.6405 67.4631 74.5295 67.219 74.4693 67.2362C74.4091 67.2534 74.4281 67.5181 74.5105 67.9479C74.614 68.5187 74.8303 69.0583 75.1444 69.5296C75.4701 70.0007 75.9086 70.3658 76.4122 70.5853C76.8147 70.7538 77.0714 70.7641 77.0873 70.7194Z" fill="#263238"/>
<path d="M86.3168 58.2788C86.171 58.437 85.3311 57.7046 84.0982 57.6702C82.8653 57.6358 81.9715 58.2823 81.8415 58.1138C81.7781 58.0381 81.9303 57.7459 82.3265 57.4433C82.8603 57.0549 83.4939 56.8599 84.1362 56.8862C84.7727 56.9038 85.3866 57.1451 85.8857 57.5739C86.2661 57.9075 86.3865 58.2066 86.3168 58.2788Z" fill="#263238"/>
<path d="M86.117 60.899C86.0999 61.1769 85.9838 61.4366 85.7934 61.6233C85.6029 61.8101 85.353 61.9091 85.0965 61.8996C84.8443 61.8996 84.6024 61.7909 84.4241 61.5974C84.2458 61.404 84.1456 61.1416 84.1456 60.868C84.1628 60.5902 84.2788 60.3304 84.4693 60.1437C84.6597 59.9569 84.9096 59.8579 85.1662 59.8674C85.4184 59.8674 85.6602 59.9761 85.8385 60.1696C86.0168 60.363 86.117 60.6254 86.117 60.899Z" fill="#263238"/>
<path d="M92.7127 44.0743C92.2174 43.2014 91.4492 42.551 90.5485 42.2416C89.6477 41.9323 88.6745 41.9848 87.8064 42.3894C88.0293 41.1375 87.8688 39.8409 87.3493 38.6971C86.8298 37.5534 85.9799 36.6253 84.929 36.0543C83.8782 35.4833 82.6841 35.3007 81.5287 35.5344C80.3733 35.768 79.3201 36.4052 78.5294 37.3486C78.4666 37.014 78.3381 36.6981 78.1527 36.4222C77.9673 36.1463 77.7293 35.917 77.455 35.7497C76.9052 35.4172 76.2952 35.2189 75.6674 35.1686C74.1797 34.9895 72.6747 35.2369 71.3027 35.8862C69.9307 36.5354 68.7396 37.5637 67.8484 38.8684C66.3987 38.6818 64.9289 38.8674 63.5575 39.4103C62.1861 39.9533 60.9515 40.8383 59.9534 41.994C57.6111 44.8102 57.1674 51.333 59.7347 56.9688L60.3369 60.5001C61.1419 60.5001 61.8772 60.562 62.3748 61.0434C63.0499 61.7002 63.351 62.938 64.4698 62.4704C65.0403 62.2297 65.5601 60.9334 65.7376 60.3041C67.0033 56.1059 67.4227 51.6615 66.9673 47.2721C67.7665 46.3485 68.7221 45.6002 69.7818 45.0681L69.6962 45.154C71.7278 44.3872 74.0257 43.6342 75.9527 44.6692C77.4487 45.4704 78.3298 47.1552 79.4391 48.4963C80.4713 49.7366 81.7243 50.7373 83.1225 51.4382C84.5208 52.1391 86.0354 52.5256 87.575 52.5743C87.6828 54.7956 87.5116 57.935 87.6194 60.1391L89.3721 56.6043C89.5082 56.3501 89.6319 56.0884 89.7429 55.8203L89.781 55.7378C90.0979 55.4592 90.3324 54.9503 90.8649 54.2902C91.3735 53.6414 91.7084 52.8537 91.833 52.0128C91.9576 51.1719 91.8673 50.31 91.5717 49.5209C92.3335 48.9134 92.8682 48.0285 93.0777 47.0283C93.2873 46.028 93.1577 44.9794 92.7127 44.0743Z" fill="#263238"/>
<path d="M89.7303 44.1568C89.7303 44.1568 89.7493 44.1947 89.7683 44.2738C89.7941 44.3864 89.8089 44.5016 89.8127 44.6176C89.8289 45.0605 89.7289 45.4993 89.5243 45.883C89.3793 46.1478 89.1902 46.381 88.9665 46.5707C88.7007 46.7914 88.3878 46.9357 88.0568 46.9902C87.6722 47.0559 87.2783 47.0122 86.9139 46.8633C86.5495 46.7144 86.2269 46.4655 85.9777 46.1409L86.1013 46.0274C86.2214 46.17 86.3143 46.337 86.3747 46.5188C86.4351 46.7006 86.4617 46.8935 86.4531 47.0865C86.4493 47.3445 86.398 47.5991 86.3022 47.8353C86.2064 48.0715 86.0681 48.2845 85.8953 48.4619C85.5673 48.778 85.1535 48.9699 84.7162 49.0086C83.9892 49.0661 83.2661 48.8499 82.6688 48.3965C82.2707 48.1034 81.9031 47.7645 81.5722 47.3856C81.4453 47.2542 81.3286 47.1116 81.2235 46.9592C81.363 47.0746 81.4943 47.201 81.6165 47.3375C81.9612 47.6908 82.3346 48.0096 82.7322 48.2899C83.3118 48.7103 84.0055 48.9054 84.7004 48.8435C85.1034 48.8037 85.4843 48.6255 85.7875 48.3346C86.0976 48.0092 86.2774 47.5647 86.2883 47.0968C86.3 46.752 86.1861 46.416 85.9713 46.1615L86.0949 46.0446C86.3259 46.3463 86.6244 46.5786 86.9617 46.7195C87.2991 46.8604 87.6642 46.905 88.022 46.8492C88.3109 46.8019 88.5863 46.6846 88.8277 46.506C89.0691 46.3274 89.2704 46.0921 89.4165 45.8176C89.6187 45.4528 89.728 45.0364 89.7335 44.6107C89.7588 44.3219 89.7176 44.1603 89.7303 44.1568Z" fill="#455A64"/>
<path d="M83.4928 38.2289C83.4928 38.2289 83.5308 38.2289 83.6005 38.2804C83.6967 38.3409 83.7889 38.4087 83.8763 38.4833C84.2073 38.7603 84.467 39.125 84.6306 39.5424C84.7515 39.8577 84.7992 40.2004 84.7693 40.5404C84.7395 40.8803 84.6331 41.2071 84.4595 41.492C84.2496 41.8402 83.9236 42.0867 83.5498 42.1797C83.3508 42.2265 83.1451 42.229 82.9452 42.187C82.7452 42.145 82.5552 42.0595 82.3867 41.9356C82.2825 41.8501 82.1897 41.7494 82.1109 41.6364L82.2535 41.547C82.3255 41.7416 82.3592 41.9504 82.3527 42.16C82.3461 42.3696 82.2994 42.5754 82.2155 42.7643C82.0694 43.1164 81.8135 43.4013 81.4929 43.5689C81.2268 43.703 80.9369 43.7725 80.6435 43.7725C80.35 43.7725 80.0601 43.703 79.794 43.5689C79.4435 43.3932 79.1313 43.1389 78.8781 42.8227C78.7794 42.7135 78.6971 42.5882 78.634 42.4513C78.634 42.4513 78.7355 42.5717 78.9225 42.7746C79.1842 43.0656 79.4952 43.2991 79.8384 43.4623C80.0895 43.5791 80.3607 43.6367 80.6338 43.6314C80.907 43.6261 81.1761 43.5579 81.4231 43.4313C81.705 43.2724 81.9286 43.0141 82.057 42.6989C82.1296 42.5319 82.1698 42.3506 82.1753 42.1661C82.1807 41.9816 82.1513 41.7978 82.0887 41.6261L81.8225 40.9625L82.2313 41.5401C82.2983 41.6375 82.3785 41.7232 82.4691 41.7946C82.6186 41.9052 82.7873 41.9817 82.9649 42.0196C83.1425 42.0574 83.3253 42.0557 83.5023 42.0147C83.8346 41.9364 84.1264 41.7221 84.3168 41.4164C84.4805 41.1538 84.583 40.852 84.6156 40.537C84.6481 40.222 84.6098 39.9031 84.5038 39.6077C84.3562 39.2028 84.1215 38.842 83.8192 38.5555C83.6227 38.3286 83.4833 38.2426 83.4928 38.2289Z" fill="#455A64"/>
<path d="M125.821 77.6686L114.3 87.2071C114.138 87.3415 114.004 87.5104 113.905 87.7032C113.806 87.896 113.744 88.1088 113.724 88.3284C113.703 88.548 113.725 88.7698 113.786 88.9803C113.847 89.1907 113.948 89.3853 114.081 89.5521V89.5521C114.33 89.8648 114.681 90.0616 115.06 90.1019C115.439 90.1422 115.818 90.0229 116.119 89.7688L127.529 80.1409L129.073 76.8365L125.821 77.6686Z" fill="#970000"/>
<path opacity="0.5" d="M127.596 77.2113L128.41 78.2428L127.529 80.1409C127.423 80.153 127.316 80.1388 127.216 80.0992C127.116 80.0597 127.025 79.9959 126.951 79.9126C126.877 79.8294 126.822 79.729 126.789 79.619C126.756 79.5089 126.747 79.3923 126.762 79.2778C126.658 79.2935 126.552 79.2807 126.453 79.2407C126.355 79.2008 126.267 79.1348 126.198 79.0489C126.128 78.9629 126.08 78.8596 126.057 78.7483C126.034 78.637 126.036 78.5212 126.065 78.4113C126.065 78.4113 125.466 78.3529 125.805 77.6686L127.596 77.2113Z" fill="white"/>
<path d="M114.3 87.1968L116.189 89.7L116.823 89.167L115.013 86.6088L114.3 87.1968Z" fill="#263238"/>
<path d="M113.46 111.091L113.045 111.008L121.52 94.9368L120.176 90.3017C120.176 90.3017 118.623 83.7032 119.916 82.0183C119.916 82.0183 122.746 78.401 123.665 78.4526C124.585 78.5042 125.317 78.7002 125.501 79.4498C125.501 79.4498 127.063 79.2503 127.475 79.7936C127.751 80.1694 127.997 80.5697 128.21 80.9902C128.21 80.9902 129.909 80.8389 130.369 82.4344C130.369 82.4344 131.976 83.3318 132.115 84.6247C132.255 85.9176 131.798 91.9488 131.288 93.4927C130.778 95.0365 128.898 98.2756 128.35 103.059C127.802 107.842 125.856 110.947 124.128 117.934L119.441 119.945L113.46 111.091Z" fill="#FFBE9D"/>
<path d="M125.421 79.3466C125.456 79.3982 124.873 79.8177 124.433 80.5913C123.992 81.365 123.887 82.1077 123.827 82.0974C123.833 81.5252 123.984 80.9658 124.263 80.4806C124.543 79.9953 124.94 79.603 125.412 79.3466H125.421Z" fill="#EB996E"/>
<path d="M128.119 80.9902C128.15 81.0452 127.592 81.4097 127.152 82.1043C126.711 82.7989 126.572 83.4797 126.518 83.4797C126.464 83.4797 126.518 82.7267 126.997 81.9942C127.256 81.5323 127.651 81.1786 128.119 80.9902V80.9902Z" fill="#EB996E"/>
<path d="M130.28 82.3931C130.315 82.4413 129.893 82.8436 129.507 83.4488C129.12 84.0539 128.911 84.6213 128.857 84.6007C128.905 84.1354 129.076 83.6949 129.348 83.3318C129.568 82.927 129.892 82.6007 130.28 82.3931V82.3931Z" fill="#EB996E"/>
<path d="M122.334 82.9158C122.027 82.8072 121.707 82.7481 121.384 82.7404C121.066 82.794 120.759 82.8995 120.471 83.0533C120.455 83.0533 120.515 82.9227 120.67 82.7989C120.877 82.6436 121.118 82.552 121.369 82.5339C121.619 82.5157 121.87 82.5716 122.093 82.6957C122.258 82.7954 122.334 82.8952 122.334 82.9158Z" fill="#EB996E"/>
<path d="M125.7 85.2093C125.508 84.8717 125.272 84.566 125 84.3015C124.521 83.8958 124.001 83.8717 124.008 83.8098C124.014 83.7479 124.138 83.7514 124.35 83.7789C124.629 83.8253 124.892 83.947 125.117 84.1326C125.341 84.3182 125.519 84.5619 125.634 84.8414C125.716 85.058 125.722 85.2024 125.7 85.2093Z" fill="#EB996E"/>
<path d="M129.057 85.9864C129.016 86.0311 128.645 85.5772 128.014 85.3984C127.628 85.3178 127.233 85.2969 126.841 85.3365C126.841 85.3124 126.952 85.2299 127.177 85.1715C127.471 85.1043 127.775 85.1136 128.065 85.1985C128.355 85.2833 128.622 85.4414 128.844 85.6597C129.009 85.8316 129.073 85.9726 129.057 85.9864Z" fill="#EB996E"/>
<path d="M43.5452 103.519C43.5452 103.519 38.3442 135.525 38.6009 138.52C38.8576 141.515 40.2331 146.274 43.355 147.089C45.3379 147.57 47.3941 147.57 49.377 147.089L45.6339 107.776L43.5452 103.519Z" fill="#970000"/>
<path d="M58.7553 87.0076C58.7553 87.0076 52.5368 91.8216 51.1486 93.2141C45.3992 99.1112 44.198 101.525 43.5419 103.53C42.8859 105.534 47.5354 151.851 47.5354 151.851L48.4863 159.949L92.1199 160.069V118.707L85.5687 89.5934L81.534 88.3487L80.7195 84.8792C80.7195 84.8792 75.7086 80.863 67.4427 80.753C64.9071 80.7151 61.3003 81.8017 59.2909 83.5038L58.7553 87.0076Z" fill="#970000"/>
<path d="M58.7332 163.793C58.7332 163.793 52.5399 163.479 51.1573 163.389C45.4311 163.005 44.2348 162.848 43.5814 162.717C42.9279 162.587 47.5587 159.571 47.5587 159.571L48.5057 159.044L91.963 159.036V161.729L85.4382 163.624L81.4199 163.705L80.6086 163.931C80.6086 163.931 75.618 164.193 67.3855 164.2C64.8602 164.202 61.2679 164.132 59.2666 164.021L58.7332 163.793Z" fill="#970000"/>
<path d="M80.6751 89.7137C80.6751 89.7137 85.1598 89.4971 85.556 89.5934C86.9379 89.9372 90.7317 93.7196 95.0643 98.3685C99.1846 102.804 107.305 112.037 107.305 112.037C107.305 112.037 108.763 110.441 110.427 112.573L116.832 102.464C116.832 102.464 126.454 103.743 127.95 111.621C127.95 111.621 125.003 117.727 122.588 122.091C122.588 122.091 113.653 138.18 106.595 135.264C100.148 132.595 92.0629 125.485 90.925 123.965L81.4167 116.617C81.4167 116.617 74.913 103.165 77.7877 96.4395L80.6751 89.7137Z" fill="#970000"/>
<path d="M81.5215 88.3486C81.4438 88.3411 81.3673 88.3237 81.2933 88.2971L80.6594 88.1114C80.0984 87.9567 79.2807 87.7435 78.2601 87.5337C75.598 86.9997 72.9086 86.6403 70.2066 86.4575C67.5061 86.2494 64.7952 86.2586 62.096 86.485C61.0596 86.5812 60.2292 86.7222 59.6587 86.8288L59.0026 86.9698C58.9274 86.9934 58.8495 87.005 58.7712 87.0042C58.8425 86.9705 58.9169 86.9451 58.9931 86.9285L59.6428 86.7497C60.4484 86.5611 61.2632 86.4222 62.0833 86.3337C64.7886 86.0647 67.5096 86.0359 70.2193 86.2477C72.9267 86.429 75.6196 86.8104 78.2791 87.3893C79.2997 87.6197 80.1143 87.8535 80.6752 88.0357L81.3091 88.2592C81.3829 88.2801 81.4541 88.3101 81.5215 88.3486V88.3486Z" fill="#263238"/>
<path d="M64.5268 85.9417C64.4729 85.9417 64.3303 85.1577 64.2099 84.1709C64.0894 83.184 64.0229 82.3828 64.0768 82.3725C64.243 82.9481 64.3493 83.5421 64.3937 84.1433C64.5205 85.144 64.5807 85.9348 64.5268 85.9417Z" fill="#263238"/>
<path d="M66.1559 85.7904C65.7226 84.6548 65.6425 83.3969 65.9277 82.2075C65.9848 82.2075 65.8992 83.0189 65.9626 84.0058C66.026 84.9926 66.2098 85.7732 66.1559 85.7904Z" fill="#263238"/>
<g opacity="0.3">
<path opacity="0.3" d="M58.8978 86.9698C65.7248 88.2799 72.6469 86.9698 79.8732 87.9085C72.9004 86.3406 65.6297 85.5978 58.8978 86.9698" fill="black"/>
</g>
<g opacity="0.3">
<path opacity="0.3" d="M46.9016 147.151C43.0602 137.389 43.5166 126.358 44.0491 115.764L46.9016 147.151Z" fill="black"/>
</g>
<path d="M43.5451 110.496C43.5555 110.537 43.5619 110.578 43.5641 110.62C43.5641 110.713 43.5895 110.833 43.6053 110.981C43.637 111.325 43.6846 111.782 43.7416 112.38C43.8525 113.608 44.0142 115.362 44.2107 117.538C44.6005 121.878 45.133 127.878 45.7701 134.497C46.4071 141.116 47.0378 147.103 47.5513 151.428C47.8017 153.591 48.0172 155.341 48.1852 156.548C48.2581 157.143 48.3151 157.611 48.3531 157.941C48.3722 158.092 48.3848 158.212 48.3943 158.305C48.3978 158.346 48.3978 158.388 48.3943 158.429C48.3815 158.39 48.373 158.35 48.369 158.309L48.3088 157.948C48.2612 157.604 48.1915 157.153 48.1059 156.572C47.9316 155.365 47.6939 153.619 47.4245 151.459C46.8825 147.137 46.2233 141.144 45.5862 134.528C44.9492 127.912 44.4389 121.905 44.0839 117.562C43.9128 115.399 43.767 113.642 43.6751 112.404C43.6338 111.806 43.599 111.339 43.5768 111.005C43.5768 110.854 43.5768 110.733 43.5546 110.637C43.5461 110.591 43.5429 110.543 43.5451 110.496Z" fill="#263238"/>
<path d="M73.0843 105.259C72.9921 105.275 72.8987 105.28 72.8054 105.276H71.9972C71.2999 105.276 70.2857 105.276 69.0369 105.314C66.5362 105.376 63.0847 105.576 59.2972 106.06C55.5098 106.545 52.1089 107.247 49.6653 107.838C48.4419 108.124 47.4467 108.371 46.7779 108.553L45.9919 108.753C45.9016 108.78 45.8094 108.798 45.7162 108.808C45.8021 108.767 45.8912 108.735 45.9824 108.712L46.7589 108.474C47.434 108.268 48.4165 108 49.6368 107.694C56.001 106.107 62.504 105.266 69.0338 105.187C70.3015 105.187 71.2999 105.187 72.0004 105.215L72.8054 105.249C72.8985 105.244 72.9917 105.248 73.0843 105.259V105.259Z" fill="#263238"/>
<path d="M56.3306 115.623C56.2768 115.623 56.3782 111.191 56.5525 105.727C56.7268 100.263 56.917 95.8309 56.9709 95.8343C57.0248 95.8377 56.9233 100.267 56.7458 105.734C56.5684 111.201 56.3814 115.626 56.3306 115.623Z" fill="#263238"/>
<path d="M78.6278 115.076C78.5685 114.987 78.5145 114.894 78.4661 114.798C78.3541 114.594 78.2083 114.322 78.0287 113.983L76.4187 110.981C75.604 109.502 74.9277 107.939 74.3997 106.315C74.1071 105.344 73.9053 104.345 73.7975 103.33C73.7055 102.239 73.7055 101.141 73.7975 100.05C73.9314 97.9353 74.4189 95.8648 75.2365 93.9396C75.6121 93.1061 76.0908 92.3322 76.6595 91.6393C77.1598 91.042 77.7336 90.5225 78.3647 90.0954C79.2737 89.4614 80.314 89.0832 81.3915 88.9951C81.7836 88.9596 82.1783 88.9839 82.5642 89.0673C82.1757 89.0448 81.7864 89.0448 81.3978 89.0673C80.3406 89.1829 79.3249 89.5746 78.4376 90.2089C77.8222 90.637 77.2635 91.1541 76.7768 91.7459C76.2248 92.4313 75.761 93.1947 75.3981 94.0153C74.5978 95.9222 74.12 97.9698 73.9877 100.06C73.8989 101.137 73.8989 102.219 73.9877 103.296C74.0926 104.296 74.288 105.283 74.5709 106.243C75.0889 107.859 75.7479 109.418 76.5391 110.898L78.0953 113.931L78.5042 114.767C78.5539 114.866 78.5952 114.969 78.6278 115.076Z" fill="#263238"/>
<g opacity="0.3">
<path opacity="0.3" d="M46.423 108.77C49.1804 108.615 51.9221 108.223 54.6223 107.597C54.2892 108.892 54.1343 110.232 54.1628 111.576C55.019 110.529 55.6425 109.283 55.9852 107.934C56.0833 108.668 56.3173 109.373 56.6729 110.007C57.0286 110.64 57.4987 111.189 58.0548 111.621C58.3265 110.29 58.3887 108.919 58.2387 107.566C62.3188 107.035 66.3715 106.307 70.3966 105.383C62.2495 105.169 54.1182 106.266 46.2677 108.639" fill="black"/>
</g>
<path d="M98.8803 130.831C98.8136 130.8 98.7507 130.76 98.6933 130.711L98.1704 130.333C97.7203 129.989 97.0737 129.518 96.2687 128.909C94.684 127.699 92.4939 125.997 90.1137 124.071C87.7334 122.146 85.6067 120.358 84.0917 119.048C83.331 118.394 82.7162 117.858 82.2946 117.483L81.8129 117.05C81.7538 117.003 81.6996 116.948 81.6512 116.888C81.716 116.927 81.7775 116.972 81.8351 117.022L82.3358 117.428L84.1646 118.948C85.7081 120.234 87.8443 122.001 90.2246 123.927C92.6048 125.853 94.7601 127.568 96.3448 128.813L98.2084 130.285L98.7123 130.687C98.7718 130.73 98.828 130.779 98.8803 130.831V130.831Z" fill="#263238"/>
<path d="M109.527 120.282C109.498 120.282 109.527 119.759 109.46 118.931C109.316 116.758 108.713 114.651 107.698 112.772C107.308 112.054 107.023 111.638 107.045 111.617C107.131 111.698 107.206 111.79 107.27 111.892C107.458 112.154 107.634 112.426 107.796 112.707C108.882 114.574 109.497 116.718 109.577 118.924C109.594 119.255 109.594 119.587 109.577 119.918C109.575 120.041 109.558 120.164 109.527 120.282V120.282Z" fill="#263238"/>
<path d="M111.492 119.502C111.501 119.147 111.527 118.794 111.571 118.443C111.63 117.595 111.615 116.743 111.526 115.898C111.436 115.053 111.272 114.219 111.035 113.409C110.855 112.783 110.718 112.408 110.737 112.394C110.792 112.47 110.836 112.555 110.867 112.645C110.972 112.88 111.065 113.121 111.146 113.367C111.691 114.994 111.875 116.738 111.685 118.456C111.647 118.783 111.606 119.048 111.568 119.226C111.554 119.322 111.529 119.414 111.492 119.502V119.502Z" fill="#263238"/>
<path d="M126.375 115.076C126.375 115.076 126.375 115.011 126.302 114.946C126.248 114.908 126.203 114.856 126.172 114.794C126.138 114.722 126.112 114.636 126.068 114.554C125.982 114.378 125.77 114.248 125.618 113.993C125.453 113.711 125.325 113.405 125.238 113.085C125.021 112.268 124.65 111.509 124.147 110.857C123.846 110.478 123.518 110.124 123.168 109.798C122.796 109.441 122.401 109.114 121.986 108.818C121.584 108.5 121.16 108.216 120.718 107.969L119.45 107.302C119.051 107.095 118.677 106.882 118.312 106.714L117.298 106.243C117.147 106.18 117 106.108 116.858 106.026C116.721 105.94 116.61 105.844 116.496 105.775L116.179 105.586C116.078 105.527 115.992 105.448 115.916 105.397C115.761 105.29 115.625 105.232 115.536 105.18C115.447 105.129 115.403 105.101 115.406 105.094C115.455 105.106 115.503 105.125 115.549 105.149C115.687 105.201 115.821 105.265 115.951 105.338C116.143 105.47 116.345 105.585 116.553 105.682C116.677 105.748 116.794 105.844 116.921 105.919C117.048 105.995 117.206 106.05 117.358 106.122L118.379 106.569C118.743 106.731 119.124 106.944 119.529 107.147L120.797 107.804C121.245 108.053 121.674 108.341 122.081 108.663C122.503 108.962 122.904 109.295 123.279 109.661C123.634 109.993 123.965 110.355 124.268 110.744C124.777 111.415 125.146 112.197 125.352 113.037C125.431 113.35 125.547 113.65 125.697 113.931C125.83 114.172 126.036 114.313 126.125 114.512C126.172 114.609 126.192 114.698 126.22 114.763C126.246 114.821 126.282 114.873 126.328 114.915C126.407 115.004 126.379 115.083 126.375 115.076Z" fill="#263238"/>
<path d="M85.7146 159.271C85.6702 159.271 85.6322 150.572 85.6322 139.84C85.6322 129.109 85.6702 120.409 85.7146 120.409C85.759 120.409 85.797 129.109 85.797 139.84C85.797 150.572 85.7622 159.271 85.7146 159.271Z" fill="#263238"/>
</svg>
