<svg width="516" height="430" viewBox="0 0 516 430" fill="none" xmlns="http://www.w3.org/2000/svg">
<path d="M169.38 1.06995H26.7401C12.5463 1.06995 1.04004 12.5762 1.04004 26.7699V387.28C1.04004 401.474 12.5463 412.98 26.7401 412.98H169.38C183.574 412.98 195.08 401.474 195.08 387.28V26.7699C195.08 12.5762 183.574 1.06995 169.38 1.06995Z" fill="#263238" stroke="#263238" stroke-miterlimit="10"/>
<path d="M188.32 29.73V384.32C188.32 390.221 185.976 395.88 181.803 400.053C177.63 404.226 171.971 406.57 166.07 406.57H30.0699C29.0662 406.57 28.0638 406.5 27.0699 406.36C21.7492 405.631 16.8717 403.002 13.3374 398.959C9.80312 394.916 7.85049 389.73 7.83984 384.36V29.73C7.8425 23.828 10.1889 18.1686 14.3632 13.9962C18.5375 9.82385 24.1979 7.47998 30.0999 7.47998H33.9998C46.2298 7.47998 58.4899 7.70998 70.7099 7.47998C70.7099 7.55998 70.6299 7.70998 70.6599 7.82998C73.9998 7.30998 79.1999 8.74998 81.6599 11.16C85.4998 15 89.9899 20.25 95.8499 20.86C101.98 21.49 106.85 16.53 110.85 12.59C115.33 8.15998 121.31 7.48998 127.37 7.48998H166.13C172.019 7.50586 177.661 9.85569 181.821 14.0245C185.98 18.1933 188.317 23.841 188.32 29.73Z" fill="#002E74"/>
<path opacity="0.3" d="M188.32 29.73V74.94C168.87 98.37 121.51 128.54 67.6598 156.71C38.5098 171.97 19.7298 186.35 7.7998 197.77V88.51C9.4798 86.13 11.2998 83.7 13.2598 81.22C36.8198 51.49 93.9598 32.42 134.26 7.47999H166.05C168.973 7.47736 171.869 8.05094 174.571 9.16793C177.272 10.2849 179.728 11.9234 181.796 13.9898C183.864 16.0562 185.505 18.5099 186.624 21.2107C187.744 23.9115 188.32 26.8064 188.32 29.73Z" fill="white"/>
<path opacity="0.3" d="M188.32 161.42V299.56C168.87 322.99 121.51 353.16 67.6598 381.33C53.4978 388.613 39.9146 396.971 27.0298 406.33C21.7092 405.601 16.8317 402.972 13.2974 398.929C9.76307 394.885 7.81045 389.7 7.7998 384.33V313.13C9.4798 310.75 11.2998 308.32 13.2598 305.84C46.2598 264.17 145.26 243.43 171.45 198.13C178.48 186 184.28 172.17 188.32 161.42Z" fill="white"/>
<path d="M96.9102 16.2399C99.0752 16.2399 100.83 14.4849 100.83 12.3199C100.83 10.1549 99.0752 8.3999 96.9102 8.3999C94.7453 8.3999 92.9902 10.1549 92.9902 12.3199C92.9902 14.4849 94.7453 16.2399 96.9102 16.2399Z" fill="#7D7D7D" stroke="white" stroke-miterlimit="10"/>
<path d="M195 119.57V68.2999C195.931 68.2999 196.824 68.6697 197.482 69.328C198.14 69.9862 198.51 70.879 198.51 71.8099V116.05C198.51 116.982 198.141 117.876 197.483 118.535C196.825 119.195 195.932 119.567 195 119.57Z" fill="#263238" stroke="#263238" stroke-miterlimit="10"/>
<path d="M195 163.75V138.17C195.931 138.17 196.824 138.54 197.482 139.198C198.14 139.856 198.51 140.749 198.51 141.68V160.24C198.51 160.701 198.419 161.157 198.243 161.583C198.066 162.009 197.808 162.396 197.482 162.722C197.156 163.048 196.769 163.306 196.343 163.483C195.917 163.659 195.461 163.75 195 163.75Z" fill="#263238" stroke="#263238" stroke-miterlimit="10"/>
<path d="M166.52 225.58H33.0502C26.7707 225.58 21.6802 230.67 21.6802 236.95C21.6802 243.229 26.7707 248.32 33.0502 248.32H166.52C172.8 248.32 177.89 243.229 177.89 236.95C177.89 230.67 172.8 225.58 166.52 225.58Z" fill="white" stroke="#263238" stroke-miterlimit="10"/>
<path d="M38.2416 300.119C45.1885 298.538 49.5385 291.625 47.9577 284.678C46.3768 277.731 39.4638 273.381 32.5169 274.962C25.57 276.543 21.22 283.456 22.8008 290.403C24.3817 297.35 31.2948 301.7 38.2416 300.119Z" fill="white" stroke="#263238" stroke-miterlimit="10"/>
<path d="M86.5467 296.682C91.5844 291.645 91.5844 283.477 86.5467 278.439C81.5089 273.401 73.3411 273.401 68.3033 278.439C63.2656 283.477 63.2656 291.645 68.3033 296.682C73.3411 301.72 81.5089 301.72 86.5467 296.682Z" fill="white" stroke="#263238" stroke-miterlimit="10"/>
<path d="M122.486 300.097C129.417 298.451 133.702 291.497 132.056 284.565C130.409 277.634 123.456 273.349 116.524 274.995C109.592 276.641 105.308 283.595 106.954 290.527C108.6 297.459 115.554 301.743 122.486 300.097Z" fill="white" stroke="#263238" stroke-miterlimit="10"/>
<path d="M173.486 292.429C176.191 285.838 173.04 278.302 166.449 275.598C159.858 272.893 152.322 276.044 149.618 282.635C146.913 289.226 150.064 296.762 156.655 299.467C163.246 302.171 170.782 299.02 173.486 292.429Z" fill="white" stroke="#263238" stroke-miterlimit="10"/>
<path d="M38.248 356.982C45.1949 355.401 49.5449 348.488 47.964 341.541C46.3832 334.594 39.4701 330.244 32.5232 331.825C25.5764 333.405 21.2264 340.319 22.8072 347.265C24.388 354.212 31.3011 358.562 38.248 356.982Z" fill="white" stroke="#263238" stroke-miterlimit="10"/>
<path d="M86.5525 353.538C91.5903 348.501 91.5903 340.333 86.5526 335.295C81.5148 330.257 73.3469 330.257 68.3092 335.295C63.2714 340.333 63.2714 348.501 68.3092 353.538C73.347 358.576 81.5148 358.576 86.5525 353.538Z" fill="white" stroke="#263238" stroke-miterlimit="10"/>
<path d="M122.494 356.958C129.426 355.312 133.71 348.358 132.064 341.427C130.418 334.495 123.464 330.21 116.532 331.856C109.601 333.503 105.316 340.456 106.962 347.388C108.608 354.32 115.562 358.604 122.494 356.958Z" fill="white" stroke="#263238" stroke-miterlimit="10"/>
<path d="M173.49 349.284C176.194 342.693 173.044 335.158 166.453 332.453C159.861 329.748 152.326 332.899 149.621 339.49C146.917 346.081 150.067 353.617 156.658 356.322C163.25 359.026 170.785 355.876 173.49 349.284Z" fill="white" stroke="#263238" stroke-miterlimit="10"/>
<path d="M99.79 166.34C126.896 166.34 148.87 144.366 148.87 117.26C148.87 90.1538 126.896 68.1799 99.79 68.1799C72.6838 68.1799 50.71 90.1538 50.71 117.26C50.71 144.366 72.6838 166.34 99.79 166.34Z" stroke="white" stroke-miterlimit="10"/>
<path d="M78.7599 126.46V108.81C78.6017 109.005 78.3995 109.159 78.1699 109.26C77.8475 109.417 77.5131 109.547 77.1699 109.65L76.1699 109.96C75.9866 110.025 75.7996 110.078 75.6099 110.12V108.66C75.8881 108.581 76.1618 108.488 76.4299 108.38C76.757 108.245 77.0716 108.081 77.3699 107.89C77.6915 107.688 77.9989 107.464 78.2899 107.22C78.5881 106.975 78.8536 106.693 79.0799 106.38H80.5499V126.46H78.7599Z" fill="#263238"/>
<path d="M87.8602 126.46V108.81C87.7001 109.007 87.494 109.161 87.2602 109.26C86.9389 109.419 86.6043 109.549 86.2602 109.65L85.2602 109.96C85.0765 110.023 84.8896 110.077 84.7002 110.12V108.66C84.9302 108.6 85.2002 108.5 85.5202 108.38C85.8474 108.245 86.1619 108.081 86.4602 107.89C86.7819 107.688 87.0893 107.464 87.3802 107.22C87.6785 106.975 87.944 106.693 88.1702 106.38H89.6302V126.46H87.8602Z" fill="#263238"/>
<path d="M94.5 116V113.34H96.44V116H94.5ZM94.5 124.42V121.77H96.44V124.42H94.5Z" fill="#263238"/>
<path d="M103.48 126.71C102.588 126.746 101.703 126.539 100.92 126.11C100.265 125.721 99.7552 125.127 99.47 124.42C99.1542 123.594 99.0014 122.714 99.02 121.83V121.33H100.75V121.75C100.753 122.378 100.851 123.001 101.04 123.6C101.186 124.082 101.484 124.503 101.89 124.8C102.364 125.101 102.919 125.247 103.48 125.22C104.042 125.241 104.597 125.098 105.08 124.81C105.561 124.491 105.915 124.013 106.08 123.46C106.324 122.667 106.435 121.839 106.41 121.01C106.447 119.969 106.217 118.936 105.74 118.01C105.5 117.613 105.156 117.289 104.745 117.072C104.335 116.856 103.873 116.755 103.41 116.78H102.92V115H103.41C103.84 115.043 104.274 114.983 104.675 114.825C105.077 114.667 105.435 114.415 105.72 114.09C106.252 113.217 106.494 112.199 106.41 111.18C106.446 110.294 106.246 109.413 105.83 108.63C105.599 108.283 105.278 108.006 104.9 107.83C104.523 107.653 104.104 107.584 103.69 107.63C103.283 107.593 102.872 107.65 102.491 107.798C102.109 107.945 101.767 108.179 101.49 108.48C100.973 109.26 100.718 110.185 100.76 111.12V111.47H99V111C98.9786 110.122 99.1315 109.248 99.45 108.43C99.7486 107.721 100.277 107.133 100.95 106.76C101.776 106.33 102.7 106.123 103.63 106.16C104.541 106.123 105.444 106.348 106.23 106.81C106.901 107.23 107.426 107.849 107.73 108.58C108.071 109.4 108.238 110.282 108.22 111.17C108.285 112.311 108.01 113.446 107.43 114.43C106.954 115.159 106.217 115.678 105.37 115.88C105.89 116.028 106.367 116.299 106.76 116.67C107.231 117.133 107.59 117.697 107.81 118.32C108.104 119.168 108.243 120.063 108.22 120.96C108.237 121.98 108.078 122.995 107.75 123.96C107.469 124.774 106.932 125.475 106.22 125.96C105.404 126.481 104.448 126.743 103.48 126.71Z" fill="#263238"/>
<path d="M115.5 126.69C114.596 126.731 113.698 126.516 112.91 126.07C112.243 125.634 111.743 124.986 111.49 124.23C111.168 123.281 111.015 122.282 111.04 121.28H112.85C112.841 121.99 112.918 122.699 113.08 123.39C113.196 123.953 113.515 124.454 113.976 124.797C114.437 125.14 115.008 125.301 115.58 125.25C115.894 125.272 116.209 125.231 116.507 125.128C116.804 125.025 117.078 124.862 117.31 124.65C117.752 124.169 118.038 123.566 118.13 122.92C118.292 121.996 118.366 121.058 118.35 120.12C118.377 119.136 118.29 118.153 118.09 117.19C117.988 116.585 117.685 116.032 117.23 115.62C116.761 115.272 116.184 115.098 115.6 115.13C115.09 115.13 114.59 115.276 114.16 115.55C113.687 115.872 113.29 116.296 113 116.79H111.49V106.38H119.29V108.09H113.1L113 115.09C113.331 114.697 113.74 114.377 114.2 114.15C114.781 113.864 115.423 113.727 116.07 113.75C116.929 113.709 117.775 113.971 118.46 114.49C119.104 115.045 119.562 115.785 119.77 116.61C120.05 117.69 120.181 118.804 120.16 119.92C120.17 120.892 120.09 121.863 119.92 122.82C119.787 123.575 119.512 124.297 119.11 124.95C118.759 125.513 118.261 125.969 117.67 126.27C116.99 126.579 116.247 126.723 115.5 126.69Z" fill="#263238"/>
<path d="M170.04 15.7699H153.04V25.0899H170.04V15.7699Z" stroke="#263238" stroke-width="0.821067" stroke-linecap="round" stroke-linejoin="round"/>
<path d="M166.3 15.7699H153.04V25.0899H166.3V15.7699Z" fill="#263238" stroke="#263238" stroke-width="0.725073" stroke-linecap="round" stroke-linejoin="round"/>
<path d="M172.39 18.37H170V22.48H172.39V18.37Z" fill="#263238" stroke="#263238" stroke-width="0.725073" stroke-linecap="round" stroke-linejoin="round"/>
<path d="M22.7299 18.6599H19.6099V23.9999H22.7299V18.6599Z" fill="#263238" stroke="#263238" stroke-width="0.883086" stroke-linecap="round" stroke-linejoin="round"/>
<path d="M27.6303 16.7799H24.5103V23.9999H27.6303V16.7799Z" fill="#263238" stroke="#263238" stroke-width="0.883086" stroke-linecap="round" stroke-linejoin="round"/>
<path d="M32.5302 14.5599H29.4102V23.9999H32.5302V14.5599Z" fill="#263238" stroke="#263238" stroke-width="0.883086" stroke-linecap="round" stroke-linejoin="round"/>
<path d="M160.39 239.46C159.788 239.46 159.211 239.221 158.785 238.795C158.359 238.369 158.12 237.792 158.12 237.19V230C158.12 229.398 158.359 228.821 158.785 228.395C159.211 227.969 159.788 227.73 160.39 227.73C160.992 227.73 161.57 227.969 161.995 228.395C162.421 228.821 162.66 229.398 162.66 230V237.2C162.657 237.8 162.417 238.375 161.992 238.799C161.566 239.222 160.99 239.46 160.39 239.46Z" fill="#263238"/>
<path d="M160.4 241.09C159.339 241.09 158.322 240.668 157.571 239.918C156.821 239.168 156.4 238.151 156.4 237.09V233.7C156.4 233.645 156.411 233.591 156.432 233.541C156.453 233.49 156.484 233.445 156.523 233.406C156.563 233.368 156.609 233.338 156.66 233.318C156.711 233.298 156.765 233.289 156.82 233.29C156.874 233.29 156.927 233.301 156.977 233.321C157.027 233.342 157.072 233.372 157.11 233.41C157.148 233.448 157.178 233.493 157.199 233.543C157.219 233.593 157.23 233.646 157.23 233.7V237.08C157.276 237.894 157.631 238.659 158.223 239.219C158.816 239.779 159.6 240.091 160.415 240.091C161.23 240.091 162.014 239.779 162.607 239.219C163.199 238.659 163.554 237.894 163.6 237.08V233.7C163.6 233.591 163.643 233.487 163.72 233.41C163.797 233.333 163.901 233.29 164.01 233.29C164.065 233.289 164.119 233.298 164.17 233.318C164.221 233.338 164.267 233.368 164.306 233.406C164.345 233.445 164.377 233.49 164.398 233.541C164.419 233.591 164.43 233.645 164.43 233.7V237.08C164.431 237.609 164.328 238.132 164.125 238.621C163.923 239.109 163.626 239.553 163.251 239.925C162.877 240.298 162.432 240.593 161.942 240.793C161.453 240.993 160.929 241.094 160.4 241.09Z" fill="#263238"/>
<path d="M160.4 245.41C160.293 245.407 160.191 245.363 160.117 245.286C160.042 245.21 160 245.107 160 245V240.68C159.991 240.62 159.995 240.559 160.011 240.501C160.028 240.442 160.057 240.388 160.096 240.342C160.136 240.296 160.184 240.259 160.24 240.234C160.295 240.208 160.355 240.195 160.415 240.195C160.476 240.195 160.536 240.208 160.591 240.234C160.646 240.259 160.695 240.296 160.734 240.342C160.774 240.388 160.803 240.442 160.819 240.501C160.836 240.559 160.839 240.62 160.83 240.68V245C160.83 245.056 160.819 245.11 160.797 245.162C160.775 245.213 160.743 245.259 160.703 245.297C160.663 245.335 160.615 245.365 160.563 245.385C160.511 245.404 160.456 245.413 160.4 245.41Z" fill="#263238"/>
<path d="M163.17 245.63H157.64C157.586 245.631 157.531 245.622 157.48 245.602C157.429 245.582 157.383 245.552 157.344 245.513C157.305 245.475 157.274 245.43 157.252 245.379C157.231 245.329 157.22 245.275 157.22 245.22C157.22 245.109 157.264 245.002 157.343 244.923C157.422 244.844 157.529 244.8 157.64 244.8H163.17C163.282 244.8 163.388 244.844 163.467 244.923C163.546 245.002 163.59 245.109 163.59 245.22C163.59 245.275 163.579 245.329 163.558 245.379C163.537 245.43 163.506 245.475 163.467 245.513C163.427 245.552 163.381 245.582 163.33 245.602C163.279 245.622 163.225 245.631 163.17 245.63Z" fill="#263238"/>
<path d="M2.66016 294.93C2.66016 294.93 3.10015 297.19 3.53015 297.3C3.96015 297.41 8.18015 297.19 8.28015 296.11C8.38015 295.03 6.12015 294.38 6.12015 294.38L2.66016 294.93Z" fill="white" stroke="#263238" stroke-linejoin="round"/>
<path d="M217.833 216V212.027L340.02 129C340.915 128.435 341.907 128.14 342.913 128.14C343.919 128.14 344.91 128.435 345.806 129L515.244 246.885V250.8C515.214 251.241 515.089 251.664 514.882 252.026C514.676 252.388 514.394 252.675 514.068 252.859L391.882 339.859L217.833 216Z" fill="#002E74"/>
<path opacity="0.1" d="M515.244 250.8V246.885L513.175 245.435L391.858 335.901V339.874L514.045 252.874C514.377 252.693 514.664 252.405 514.875 252.04C515.087 251.675 515.214 251.247 515.244 250.8Z" fill="black"/>
<path d="M217.833 212.013L340.02 125.013C340.915 124.447 341.907 124.153 342.913 124.153C343.919 124.153 344.91 124.447 345.806 125.013L514.044 244.768C515.644 245.899 515.644 247.755 514.044 248.886L391.858 335.886L217.833 212.013Z" fill="#002E74"/>
<path opacity="0.2" d="M391.858 339.873V335.9L217.833 212.012V215.985L391.858 339.873Z" fill="black"/>
<path d="M220.621 217.899L97.1409 298.084L94.5654 303V306.973C94.5993 307.996 94.8522 308.989 95.2984 309.853C95.7445 310.716 96.368 311.418 97.1056 311.888L259.888 427.772C261.193 428.629 262.648 429.077 264.127 429.077C265.606 429.077 267.061 428.629 268.366 427.772L389.13 341.816V337.8L220.621 217.899Z" fill="#002E74"/>
<path opacity="0.1" d="M220.621 217.899L97.1409 298.084L94.5654 303V306.973C94.5993 307.996 94.8522 308.989 95.2984 309.853C95.7445 310.716 96.368 311.418 97.1056 311.888L259.888 427.772C261.193 428.629 262.648 429.077 264.127 429.077C265.606 429.077 267.061 428.629 268.366 427.772L389.13 341.816V337.8L220.621 217.899Z" fill="black"/>
<path d="M264.133 425.104C262.652 425.127 261.19 424.683 259.887 423.814L97.1054 307.93C96.347 307.491 95.7056 306.795 95.2563 305.924C94.807 305.052 94.5684 304.04 94.5684 303.007C94.5684 301.974 94.807 300.963 95.2563 300.091C95.7056 299.219 96.347 298.523 97.1054 298.084L215.188 213.984L389.13 337.8L268.366 423.814C267.067 424.681 265.61 425.126 264.133 425.104Z" fill="#002E74"/>
<path d="M215.188 202.385L98.446 285.484L97.27 287.558V303C97.3002 303.441 97.4251 303.864 97.6318 304.226C97.8384 304.588 98.1195 304.875 98.446 305.059L261.228 420.958C262.127 421.515 263.12 421.805 264.127 421.805C265.133 421.805 266.126 421.515 267.026 420.958L383.767 337.8V322.401L215.188 202.385Z" fill="#EBEBEB"/>
<path d="M383.779 322.401L382.321 323.445L363.317 336.959L359.789 339.497L267.037 405.501C266.14 406.066 265.146 406.36 264.139 406.36C263.131 406.36 262.137 406.066 261.24 405.501L98.4344 289.617C96.8468 288.471 96.8468 286.63 98.4344 285.484L99.9867 284.382L215.235 202.385L382.38 321.372L382.732 321.633L383.779 322.401Z" fill="#F0F0F0"/>
<path d="M264.133 406.37V421.813C263.124 421.844 262.127 421.549 261.24 420.957L98.4343 305.059C98.1077 304.875 97.8267 304.588 97.62 304.226C97.4134 303.864 97.2885 303.441 97.2583 303V287.543C97.2901 287.985 97.4154 288.409 97.6217 288.773C97.8281 289.137 98.1083 289.428 98.4343 289.616L261.24 405.5C262.126 406.096 263.123 406.396 264.133 406.37Z" fill="#E0E0E0"/>
<path d="M383.779 320.4L362.764 335.35L359.471 337.699L267.038 403.5C266.14 404.065 265.147 404.359 264.139 404.359C263.131 404.359 262.137 404.065 261.24 403.5L115.416 299.723C114.111 298.839 112.887 297.954 111.747 297.113C105.867 292.662 102.245 288.674 99.9868 284.44L99.7045 283.904C99.5296 283.579 99.4096 283.214 99.3517 282.831C99.2503 282.02 99.4046 281.193 99.7831 280.518C100.162 279.844 100.735 279.374 101.386 279.206C105.205 277.831 108.889 275.939 112.37 273.565L112.523 273.464L215.188 200.384L383.779 320.4Z" fill="#FAFAFA"/>
<path opacity="0.1" d="M361.976 318.529C360.483 319.602 360.483 321.328 361.976 322.401C362.812 322.935 363.74 323.214 364.681 323.214C365.622 323.214 366.55 322.935 367.386 322.401C368.891 321.328 368.891 319.602 367.386 318.529C366.55 317.996 365.622 317.717 364.681 317.717C363.74 317.717 362.812 317.996 361.976 318.529Z" fill="black"/>
<path d="M379.416 306.016C377.358 304.566 374.771 304.783 372.137 306.639C368.044 309.539 364.516 316.064 362.976 322.879C363.618 323.128 364.291 323.232 364.963 323.184C366.386 317.108 369.526 311.381 373.136 308.785C374.136 308.025 375.279 307.596 376.453 307.538C377.137 307.526 377.811 307.742 378.405 308.162C380.145 309.394 381.157 312.425 381.157 316.427C381.16 317.091 381.129 317.755 381.062 318.413L382.968 319.762C383.098 318.657 383.164 317.543 383.167 316.427C383.144 311.511 381.792 307.712 379.416 306.016Z" fill="#263238"/>
<path d="M382.779 321.052C382.779 321.241 382.721 321.429 382.685 321.633L382.333 321.372L382.779 321.052Z" fill="#263238"/>
<path opacity="0.1" d="M345.712 306.915C344.218 307.988 344.218 309.714 345.712 310.787C346.548 311.32 347.475 311.599 348.417 311.599C349.358 311.599 350.286 311.32 351.121 310.787C352.627 309.714 352.627 307.988 351.121 306.915C350.286 306.381 349.358 306.102 348.417 306.102C347.475 306.102 346.548 306.381 345.712 306.915Z" fill="black"/>
<path d="M363.152 294.402C361.082 292.952 358.507 293.155 355.861 295.025C351.78 297.925 348.252 304.45 346.711 311.265C347.354 311.514 348.027 311.617 348.699 311.57C350.122 305.494 353.25 299.767 356.872 297.171C357.871 296.407 359.013 295.972 360.188 295.91C360.874 295.904 361.548 296.124 362.141 296.548C363.881 297.78 364.892 300.796 364.892 304.813C364.89 305.476 364.859 306.14 364.798 306.799L366.692 308.148C366.828 307.044 366.894 305.929 366.892 304.813C366.845 299.897 365.504 296.098 363.152 294.402Z" fill="#263238"/>
<path opacity="0.1" d="M329.389 295.3C329.066 295.445 328.788 295.708 328.591 296.054C328.394 296.4 328.288 296.813 328.288 297.236C328.288 297.659 328.394 298.072 328.591 298.418C328.788 298.765 329.066 299.028 329.389 299.172C330.228 299.694 331.154 299.967 332.094 299.967C333.033 299.967 333.96 299.694 334.799 299.172C336.304 298.099 336.304 296.359 334.799 295.3C333.963 294.767 333.035 294.488 332.094 294.488C331.152 294.488 330.225 294.767 329.389 295.3Z" fill="black"/>
<path d="M346.782 282.787C344.724 281.337 342.137 281.54 339.503 283.41C335.422 286.31 331.882 292.835 330.342 299.65C330.988 299.898 331.665 300.001 332.341 299.955C333.752 293.879 336.892 288.152 340.502 285.556C341.505 284.79 342.652 284.355 343.831 284.295C344.516 284.289 345.19 284.51 345.783 284.933C347.523 286.165 348.523 289.181 348.523 293.198C348.527 293.862 348.495 294.526 348.429 295.184L350.334 296.533C350.464 295.428 350.531 294.314 350.534 293.198C350.534 288.282 349.17 284.483 346.782 282.787Z" fill="#263238"/>
<path opacity="0.1" d="M313.078 283.686C311.585 284.759 311.585 286.485 313.078 287.558C313.914 288.091 314.842 288.37 315.783 288.37C316.724 288.37 317.652 288.091 318.488 287.558C319.993 286.485 319.993 284.759 318.488 283.686C317.652 283.152 316.724 282.873 315.783 282.873C314.842 282.873 313.914 283.152 313.078 283.686Z" fill="black"/>
<path d="M330.471 271.172C328.413 269.722 325.826 269.925 323.192 271.796C319.099 274.696 315.571 281.221 314.031 288.036C314.677 288.286 315.354 288.389 316.03 288.34C317.441 282.265 320.581 276.537 324.191 273.942C325.191 273.182 326.334 272.752 327.508 272.695C328.196 272.684 328.873 272.9 329.472 273.318C331.212 274.551 332.212 277.581 332.212 281.583C332.216 282.247 332.184 282.911 332.118 283.57L334.023 284.918C334.153 283.814 334.22 282.7 334.223 281.583C334.223 276.668 332.858 272.869 330.471 271.172Z" fill="#263238"/>
<path opacity="0.1" d="M296.755 272.071C296.433 272.216 296.154 272.479 295.957 272.825C295.76 273.171 295.654 273.584 295.654 274.007C295.654 274.43 295.76 274.843 295.957 275.189C296.154 275.536 296.433 275.799 296.755 275.943C297.594 276.472 298.523 276.748 299.466 276.748C300.408 276.748 301.337 276.472 302.176 275.943C303.67 274.87 303.67 273.144 302.176 272.071C301.337 271.542 300.408 271.266 299.466 271.266C298.523 271.266 297.594 271.542 296.755 272.071Z" fill="black"/>
<path d="M314.16 259.5C312.09 258.05 309.515 258.253 306.869 260.123C302.788 263.023 299.26 269.548 297.719 276.363C298.361 276.612 299.035 276.716 299.707 276.668C301.13 270.592 304.258 264.865 307.88 262.269C308.879 261.507 310.022 261.078 311.196 261.022C311.88 261.012 312.554 261.227 313.148 261.646C314.889 262.878 315.9 265.909 315.9 269.911C315.898 270.575 315.867 271.238 315.806 271.897L317.7 273.246C317.835 272.142 317.902 271.027 317.899 269.911C317.899 265.053 316.535 261.254 314.16 259.5Z" fill="#263238"/>
<path opacity="0.1" d="M280.444 260.457C278.95 261.53 278.95 263.255 280.444 264.328C281.28 264.862 282.207 265.141 283.149 265.141C284.09 265.141 285.018 264.862 285.854 264.328C287.359 263.255 287.359 261.53 285.854 260.457C285.018 259.923 284.09 259.644 283.149 259.644C282.207 259.644 281.28 259.923 280.444 260.457Z" fill="black"/>
<path d="M297.837 247.9C295.779 246.45 293.133 246.653 290.558 248.523C286.465 251.423 282.937 257.948 281.396 264.763C282.043 265.012 282.72 265.115 283.396 265.068C284.807 258.992 287.947 253.265 291.557 250.669C292.557 249.909 293.699 249.48 294.873 249.422C295.561 249.412 296.239 249.627 296.837 250.046C298.578 251.279 299.577 254.309 299.577 258.311C299.581 258.975 299.55 259.639 299.483 260.297L301.388 261.646C301.519 260.541 301.585 259.427 301.588 258.311C301.588 253.439 300.224 249.64 297.837 247.9Z" fill="#263238"/>
<path opacity="0.1" d="M264.133 248.842C262.639 249.915 262.639 251.641 264.133 252.714C264.969 253.248 265.896 253.527 266.838 253.527C267.779 253.527 268.707 253.248 269.542 252.714C271.048 251.641 271.048 249.915 269.542 248.842C268.707 248.309 267.779 248.03 266.838 248.03C265.896 248.03 264.969 248.309 264.133 248.842Z" fill="black"/>
<path d="M281.526 236.3C279.456 234.85 276.822 235.053 274.235 236.924C270.154 239.824 266.626 246.349 265.085 253.164C265.728 253.412 266.401 253.516 267.073 253.468C268.496 247.393 271.636 241.665 275.246 239.07C276.246 238.309 277.388 237.88 278.562 237.823C279.247 237.81 279.921 238.026 280.515 238.446C282.255 239.679 283.266 242.709 283.266 246.711C283.27 247.375 283.239 248.039 283.172 248.698L285.066 250.046C285.206 248.943 285.276 247.828 285.277 246.711C285.277 241.825 283.901 238.026 281.526 236.3Z" fill="#263238"/>
<path opacity="0.1" d="M247.81 237.228C247.487 237.372 247.209 237.635 247.012 237.982C246.815 238.328 246.709 238.741 246.709 239.164C246.709 239.587 246.815 240 247.012 240.346C247.209 240.692 247.487 240.955 247.81 241.099C248.646 241.633 249.573 241.912 250.515 241.912C251.456 241.912 252.384 241.633 253.219 241.099C254.725 240.026 254.725 238.301 253.219 237.228C252.384 236.694 251.456 236.415 250.515 236.415C249.573 236.415 248.646 236.694 247.81 237.228Z" fill="black"/>
<path d="M265.203 224.7C263.145 223.25 260.499 223.453 257.924 225.324C253.843 228.224 250.303 234.749 248.763 241.564C249.409 241.811 250.086 241.915 250.762 241.868C252.185 235.793 255.313 230.065 258.923 227.47C259.927 226.707 261.073 226.277 262.251 226.223C262.936 226.212 263.61 226.427 264.204 226.846C265.944 228.079 266.944 231.109 266.944 235.111C266.948 235.775 266.916 236.439 266.85 237.098L268.755 238.446C268.885 237.342 268.952 236.227 268.955 235.111C268.955 230.21 267.59 226.411 265.203 224.7Z" fill="#263238"/>
<path opacity="0.1" d="M231.499 225.614C230.006 226.687 230.006 228.412 231.499 229.485C232.335 230.019 233.262 230.298 234.204 230.298C235.145 230.298 236.073 230.019 236.909 229.485C238.414 228.412 238.414 226.687 236.909 225.614C236.073 225.08 235.145 224.801 234.204 224.801C233.262 224.801 232.335 225.08 231.499 225.614Z" fill="black"/>
<path d="M248.892 213.1C246.834 211.65 244.188 211.853 241.613 213.723C237.532 216.623 233.992 223.148 232.452 229.963C233.098 230.212 233.775 230.315 234.451 230.268C235.862 224.192 239.002 218.465 242.612 215.869C243.615 215.103 244.761 214.668 245.94 214.608C246.626 214.602 247.3 214.823 247.893 215.246C249.633 216.478 250.633 219.494 250.633 223.511C250.636 224.175 250.605 224.839 250.539 225.497L252.444 226.846C252.574 225.741 252.64 224.627 252.644 223.511C252.608 218.595 251.279 214.796 248.892 213.1Z" fill="#263238"/>
<path opacity="0.1" d="M215.176 213.999C214.853 214.143 214.575 214.406 214.378 214.753C214.181 215.099 214.075 215.512 214.075 215.935C214.075 216.358 214.181 216.771 214.378 217.117C214.575 217.463 214.853 217.726 215.176 217.871C216.015 218.4 216.944 218.676 217.887 218.676C218.829 218.676 219.758 218.4 220.597 217.871C222.091 216.798 222.091 215.072 220.597 213.999C219.758 213.47 218.829 213.194 217.887 213.194C216.944 213.194 216.015 213.47 215.176 213.999Z" fill="black"/>
<path d="M232.616 201.5C230.546 200.05 227.971 200.253 225.325 202.124C221.244 205.024 217.705 211.549 216.176 218.364C216.818 218.613 217.491 218.716 218.163 218.668C219.586 212.593 222.714 206.865 226.336 204.27C227.336 203.507 228.478 203.078 229.653 203.023C230.337 203.012 231.011 203.227 231.605 203.646C233.345 204.879 234.357 207.909 234.357 211.911C234.355 212.575 234.323 213.238 234.263 213.898L236.156 215.246C236.292 214.142 236.359 213.027 236.356 211.911C236.321 206.981 234.968 203.182 232.616 201.5Z" fill="#263238"/>
<path d="M337.633 316.528L247.81 380.473" stroke="#EBEBEB" stroke-width="0.569223" stroke-miterlimit="10" stroke-linecap="round"/>
<path d="M326.755 308.786L236.944 372.731" stroke="#EBEBEB" stroke-width="0.569223" stroke-miterlimit="10" stroke-linecap="round"/>
<path d="M315.877 301.042L226.066 364.987" stroke="#EBEBEB" stroke-width="0.569223" stroke-miterlimit="10" stroke-linecap="round"/>
<path d="M304.999 293.3L215.188 357.245" stroke="#EBEBEB" stroke-width="0.569223" stroke-miterlimit="10" stroke-linecap="round"/>
<path d="M294.121 285.557L204.31 349.502" stroke="#EBEBEB" stroke-width="0.569223" stroke-miterlimit="10" stroke-linecap="round"/>
<path d="M283.243 277.813L193.432 341.758" stroke="#EBEBEB" stroke-width="0.569223" stroke-miterlimit="10" stroke-linecap="round"/>
<path d="M272.365 270.071L182.554 334.001" stroke="#EBEBEB" stroke-width="0.569223" stroke-miterlimit="10" stroke-linecap="round"/>
<path d="M261.487 262.328L171.676 326.258" stroke="#EBEBEB" stroke-width="0.569223" stroke-miterlimit="10" stroke-linecap="round"/>
<path d="M250.609 254.584L160.798 318.515" stroke="#EBEBEB" stroke-width="0.569223" stroke-miterlimit="10" stroke-linecap="round"/>
<path d="M239.731 246.841L149.92 310.772" stroke="#EBEBEB" stroke-width="0.569223" stroke-miterlimit="10" stroke-linecap="round"/>
<path d="M228.853 239.099L139.042 303.029" stroke="#EBEBEB" stroke-width="0.569223" stroke-miterlimit="10" stroke-linecap="round"/>
<path d="M217.975 231.355L128.164 295.286" stroke="#EBEBEB" stroke-width="0.569223" stroke-miterlimit="10" stroke-linecap="round"/>
<path d="M207.097 223.613L117.286 287.543" stroke="#EBEBEB" stroke-width="0.569223" stroke-miterlimit="10" stroke-linecap="round"/>
<path d="M201.652 219.77L359.389 332.015" stroke="#002E74" stroke-width="0.569223" stroke-miterlimit="10" stroke-linecap="round"/>
<path d="M353.862 320.472L258.864 388.216" stroke="#002E74" stroke-width="0.569223" stroke-miterlimit="10" stroke-linecap="round"/>
<g opacity="0.25">
<path opacity="0.25" d="M306.34 306.306C305.516 304.755 303.988 304.131 302.671 303.406C302.141 303.116 301.495 302.71 300.895 302.304C300.072 300.665 298.978 297.954 300.424 297.65C301.295 297.447 302.976 298.578 303.952 298.926C304.482 299.114 304.364 298.157 303.952 297.983C302.353 297.215 299.248 294.764 298.637 298.114C298.499 299.166 298.631 300.246 299.013 301.202C298.271 300.81 297.468 300.626 296.661 300.666C295.909 300.753 295.262 300.782 295.003 301.869C294.85 302.464 295.062 302.725 295.097 303.174C295.126 303.41 295.214 303.63 295.349 303.801C295.484 303.973 295.659 304.088 295.85 304.131C295.767 304.131 295.52 304.131 295.003 304.131C293.827 304.131 290.769 303.145 290.052 304.885C289.758 305.595 290.44 306.596 290.334 306.872C290.228 307.147 288.088 307.916 287.7 308.206C287.524 308.336 287.641 309.09 287.547 309.163C286.458 309.244 285.367 309.244 284.278 309.163C282.479 309.337 278.022 308.51 278.61 311.932C278.668 312.295 278.915 312.251 278.974 312.846C278.984 313.127 279.028 313.406 279.104 313.672C279.045 313.672 278.915 313.672 278.68 314.136C278.445 314.6 277.904 314.325 277.681 314.658C276.834 315.978 278.139 316.441 277.069 317.268C275.576 318.428 272.459 316.079 270.93 317.37C269.578 318.53 271.342 321.85 268.943 321.908C268.414 321.908 268.719 322.879 269.119 322.923C271.365 323.169 271.118 322.647 271.554 320.385C272.247 316.717 276.693 319.254 279.198 318.399C279.258 318.367 279.311 318.318 279.354 318.257C279.397 318.196 279.428 318.124 279.445 318.046C279.462 317.967 279.464 317.886 279.452 317.806C279.44 317.727 279.413 317.652 279.374 317.587C278.715 316.282 279.48 315.572 280.468 315.006C280.527 314.973 280.58 314.925 280.623 314.864C280.666 314.803 280.697 314.732 280.715 314.654C280.733 314.577 280.737 314.495 280.727 314.416C280.717 314.336 280.692 314.261 280.656 314.194C280.385 313.6 279.48 311.773 280.021 310.903C280.891 310.672 281.777 310.545 282.667 310.526C284.6 310.359 286.539 310.315 288.476 310.395C288.542 310.393 288.606 310.372 288.663 310.333C288.72 310.295 288.769 310.24 288.806 310.173C288.843 310.107 288.866 310.03 288.874 309.95C288.882 309.87 288.875 309.789 288.853 309.714C288.57 308.945 291.087 308.452 291.64 308.264C291.691 308.241 291.738 308.206 291.778 308.161C291.818 308.116 291.85 308.061 291.873 308.001C291.896 307.94 291.909 307.874 291.912 307.807C291.914 307.741 291.905 307.674 291.887 307.611C290.711 303.928 295.109 305.291 296.943 305.639C297.019 305.665 297.1 305.664 297.175 305.636C297.251 305.609 297.318 305.556 297.371 305.484C297.424 305.412 297.459 305.323 297.472 305.227C297.486 305.132 297.478 305.033 297.449 304.943C297.167 303.711 294.944 302.464 297.578 302.043C298.279 302.024 298.972 302.228 299.589 302.638C300.725 304.995 302.302 306.984 304.188 308.438C305.916 309.554 307.68 308.8 306.34 306.306ZM305.528 306.973C306.081 307.872 304.352 307.132 304.141 306.973C303.154 306.243 302.342 305.202 301.789 303.957C302.318 304.32 302.8 304.638 303.153 304.841C304.092 305.261 304.915 306 305.528 306.973Z" fill="#455A64"/>
<path opacity="0.25" d="M261.417 329.636C261.099 328.027 261.052 326.272 262.263 326.084C262.84 325.997 262.428 325.025 261.993 324.996C260.37 324.996 259.864 326.678 260.076 328.766C259.428 328.398 258.75 328.116 258.053 327.925C256.995 327.679 256.313 327.65 255.972 328.969C255.76 329.767 256.277 330.274 256.23 330.999C256.172 332.043 257.03 331.608 255.748 332.029C255.25 332.022 254.754 331.954 254.266 331.826C252.973 331.826 252.867 331.826 252.079 332.667C251.291 333.508 253.255 333.899 250.903 333.435C250.31 333.185 249.683 333.077 249.057 333.116C248.198 333.363 247.74 333.667 247.881 334.842C247.951 335.378 248.88 336.074 248.869 336.408C248.869 338.96 246.622 336.799 245.788 336.408C245.732 336.377 245.672 336.364 245.611 336.368C245.551 336.373 245.492 336.395 245.44 336.434C245.388 336.472 245.345 336.525 245.313 336.589C245.281 336.653 245.263 336.725 245.258 336.799C245.258 338.061 245.94 338.51 244.447 338.612C244.27 338.612 243.271 337.93 242.918 337.916C241.966 337.916 241.095 339.453 239.849 339.366C239.508 339.366 239.39 339.714 239.496 340.047C239.837 341.193 240.343 341.889 238.461 342.947C238.461 342.947 236.25 342.614 236.297 342.614C235.756 342.614 236.109 343.687 236.521 343.73C237.379 343.803 240.284 345.311 241.142 343.89C241.766 342.831 240.519 341.613 240.837 340.99C240.625 341.425 242.495 340.366 242.695 340.279C243.158 340.027 243.65 339.861 244.153 339.786C244.412 339.786 244.623 340.308 244.906 340.294C245.188 340.279 245.646 340.511 245.976 340.294C246.305 340.076 246.387 339.54 246.517 339.438C246.846 339.163 246.093 338.844 246.74 338.568C247.21 338.365 247.622 338.96 248.057 339.119C248.763 339.395 249.821 340.033 250.409 339.119C251.197 337.916 249.762 337.075 249.892 336.219C250.198 334.407 252.244 335.784 253.255 334.972C253.324 334.912 253.375 334.826 253.401 334.726C253.426 334.627 253.425 334.52 253.396 334.421C252.796 331.913 256.489 333.87 257.642 333.609C257.853 333.609 258.077 333.392 258.041 333.087C258.006 332.783 257.583 331.536 257.583 331.521C257.877 330.071 259.558 330.173 260.323 330.434C261.076 333.479 263.039 336.553 265.18 335.741C265.259 335.71 265.329 335.648 265.377 335.564C265.426 335.481 265.452 335.38 265.45 335.277C265.321 333.131 263.416 331.057 261.417 329.636ZM262.193 332.145C262.122 331.985 262.016 331.724 261.91 331.42C262.509 331.895 263.021 332.517 263.416 333.247C263.827 334.769 262.393 332.565 262.193 332.145Z" fill="#455A64"/>
<path opacity="0.25" d="M294.062 345.978C293.227 344.426 291.71 343.803 290.393 343.078C289.852 342.773 289.217 342.367 288.617 341.961C287.783 340.323 286.689 337.611 288.147 337.321C289.017 337.118 290.699 338.235 291.675 338.583C292.204 338.786 292.075 337.829 291.675 337.655C290.076 336.872 286.971 334.436 286.36 337.785C286.217 338.837 286.345 339.916 286.724 340.874C285.983 340.479 285.179 340.296 284.372 340.337C283.608 340.424 282.973 340.453 282.702 341.541C282.561 342.135 282.773 342.396 282.796 342.846C282.826 343.084 282.916 343.305 283.053 343.477C283.19 343.649 283.368 343.763 283.561 343.803C283.467 343.803 283.231 343.803 282.702 343.716C281.526 343.716 278.48 342.744 277.763 344.484C277.457 345.195 278.139 346.195 278.045 346.456C277.951 346.717 275.787 347.5 275.399 347.79C275.235 347.935 275.399 348.689 275.246 348.747C274.158 348.844 273.065 348.844 271.977 348.747C270.178 348.936 265.733 348.109 266.309 351.517C266.379 351.894 266.615 351.836 266.673 352.445C266.686 352.728 266.733 353.007 266.814 353.271C266.744 353.271 266.615 353.271 266.379 353.735C266.144 354.199 265.615 353.909 265.391 354.257C264.533 355.577 265.838 356.041 264.78 356.853C263.275 358.013 260.158 355.678 258.641 356.969C257.124 358.259 259.041 361.435 256.654 361.493C256.125 361.493 256.43 362.479 256.83 362.522C259.065 362.754 258.829 362.232 259.253 359.985C259.958 356.302 264.404 358.839 266.897 357.984C267.191 357.897 267.214 357.447 267.085 357.186C266.426 355.881 267.191 355.156 268.179 354.591C268.238 354.561 268.292 354.514 268.335 354.454C268.378 354.394 268.409 354.323 268.426 354.246C268.443 354.169 268.445 354.088 268.433 354.009C268.421 353.931 268.394 353.857 268.355 353.793C268.096 353.199 267.179 351.357 267.72 350.502C268.594 350.271 269.484 350.145 270.378 350.125C272.311 349.951 274.25 349.907 276.187 349.994C276.253 349.992 276.317 349.971 276.374 349.933C276.431 349.894 276.48 349.839 276.517 349.773C276.554 349.706 276.577 349.63 276.585 349.55C276.593 349.47 276.586 349.389 276.563 349.313C276.281 348.544 278.786 348.051 279.351 347.863C279.402 347.841 279.448 347.806 279.488 347.76C279.528 347.715 279.56 347.66 279.582 347.599C279.604 347.538 279.615 347.472 279.616 347.405C279.617 347.338 279.606 347.272 279.586 347.21C278.41 343.542 282.808 344.89 284.643 345.253C284.719 345.277 284.799 345.274 284.874 345.247C284.949 345.219 285.017 345.167 285.07 345.095C285.123 345.024 285.159 344.936 285.175 344.841C285.191 344.747 285.186 344.648 285.16 344.557C284.866 343.31 282.655 342.077 285.278 341.657C285.981 341.652 286.675 341.856 287.3 342.251C288.438 344.603 290.009 346.59 291.887 348.051C293.627 349.226 295.403 348.486 294.062 345.978ZM293.251 346.645C293.792 347.558 292.075 346.819 291.851 346.645C290.867 345.905 290.056 344.86 289.499 343.614C290.04 343.977 290.523 344.31 290.875 344.499C291.809 344.938 292.63 345.679 293.251 346.645Z" fill="#455A64"/>
<path opacity="0.25" d="M321.663 317.848C321.333 316.238 321.298 314.484 322.498 314.296C323.086 314.209 322.674 313.237 322.239 313.208C320.616 313.208 320.099 314.89 320.31 316.992C319.669 316.612 318.994 316.324 318.299 316.137C317.241 315.89 316.559 315.861 316.206 317.181C316.006 317.978 316.524 318.486 316.477 319.211C316.418 320.255 317.264 319.82 315.994 320.24C315.496 320.234 315 320.166 314.513 320.037C313.219 320.037 313.101 320.037 312.325 320.878C311.549 321.719 313.501 322.111 311.149 321.647C310.56 321.396 309.937 321.288 309.315 321.328C308.456 321.574 307.998 321.879 308.139 323.053C308.209 323.59 309.127 324.286 309.127 324.619C309.127 327.171 306.88 325.011 306.034 324.619C305.978 324.592 305.918 324.581 305.859 324.587C305.799 324.593 305.742 324.616 305.69 324.654C305.639 324.692 305.596 324.744 305.564 324.806C305.531 324.867 305.511 324.938 305.504 325.011C305.504 326.272 306.187 326.722 304.705 326.823C304.528 326.823 303.529 326.142 303.176 326.127C302.223 326.127 301.341 327.664 300.095 327.577C299.754 327.577 299.648 327.925 299.742 328.259C300.095 329.404 300.601 330.1 298.719 331.159C298.719 331.159 296.508 330.825 296.555 330.825C296.014 330.825 296.355 331.898 296.779 331.942C297.637 332.014 300.53 333.522 301.388 332.101C302.024 331.043 300.777 329.825 301.094 329.201C300.883 329.636 302.741 328.578 302.953 328.491C303.413 328.24 303.9 328.074 304.399 327.998C304.658 327.998 304.881 328.52 305.152 328.505C305.422 328.491 305.904 328.723 306.234 328.505C306.563 328.288 306.645 327.751 306.775 327.65C307.104 327.374 306.351 327.055 306.998 326.78C307.468 326.577 307.868 327.171 308.315 327.331C309.021 327.606 310.079 328.244 310.667 327.331C311.443 326.127 310.009 325.286 310.15 324.431C310.444 322.618 312.502 323.996 313.513 323.184C313.579 323.12 313.626 323.033 313.649 322.934C313.673 322.835 313.67 322.73 313.642 322.633C313.054 320.124 316.735 322.082 317.9 321.821C318.111 321.821 318.323 321.603 318.299 321.299C318.276 320.994 317.841 319.747 317.841 319.733C318.135 318.283 319.805 318.384 320.581 318.645C321.333 321.69 323.286 324.764 325.426 323.952C325.508 323.926 325.579 323.865 325.629 323.78C325.678 323.696 325.702 323.592 325.696 323.488C325.52 321.342 323.662 319.269 321.663 317.848ZM322.439 320.356C322.331 320.123 322.237 319.881 322.157 319.631C322.755 320.107 323.267 320.729 323.662 321.458C324.074 322.981 322.639 320.777 322.439 320.4V320.356Z" fill="#455A64"/>
<path opacity="0.25" d="M240.001 261.08C239.166 259.529 237.649 258.92 236.332 258.18C235.791 257.876 235.156 257.47 234.556 257.064C233.722 255.425 232.628 252.714 234.086 252.424C234.945 252.221 236.638 253.352 237.614 253.685C238.132 253.888 238.014 252.931 237.614 252.757C236.015 251.974 232.91 249.538 232.299 252.888C232.15 253.939 232.278 255.021 232.663 255.976C231.922 255.582 231.118 255.398 230.311 255.44C229.547 255.527 228.912 255.556 228.641 256.643C228.5 257.238 228.641 257.499 228.735 257.948C228.765 258.187 228.855 258.408 228.992 258.58C229.129 258.751 229.307 258.865 229.5 258.905C229.214 258.885 228.927 258.885 228.641 258.905C227.465 258.905 224.419 257.919 223.69 259.659C223.396 260.37 224.078 261.37 223.984 261.631C223.89 261.892 221.726 262.675 221.338 262.98C221.162 263.11 221.338 263.864 221.185 263.922C220.097 264.019 219.004 264.019 217.916 263.922C216.117 264.111 211.672 263.284 212.248 266.706C212.318 267.069 212.554 267.011 212.612 267.62C212.625 267.903 212.672 268.182 212.753 268.446C212.683 268.446 212.554 268.446 212.318 268.91C212.083 269.374 211.554 269.084 211.33 269.432C210.472 270.752 211.777 271.216 210.719 272.028C209.214 273.188 206.097 270.853 204.568 272.144C203.04 273.434 204.98 276.61 202.593 276.668C202.064 276.668 202.369 277.654 202.769 277.697C205.004 277.929 204.757 277.407 205.192 275.16C205.897 271.491 210.343 274.014 212.836 273.173C212.898 273.144 212.953 273.096 212.997 273.035C213.041 272.974 213.073 272.901 213.09 272.822C213.108 272.743 213.109 272.661 213.096 272.58C213.082 272.5 213.054 272.425 213.012 272.361C212.365 271.056 213.13 270.331 214.118 269.766C214.177 269.736 214.231 269.689 214.274 269.629C214.317 269.569 214.348 269.498 214.365 269.421C214.382 269.344 214.384 269.263 214.372 269.184C214.36 269.106 214.333 269.032 214.294 268.968C214.035 268.374 213.118 266.532 213.659 265.677C214.533 265.446 215.423 265.32 216.317 265.3C218.25 265.126 220.189 265.082 222.126 265.169C222.191 265.168 222.256 265.148 222.313 265.109C222.37 265.071 222.419 265.015 222.455 264.948C222.491 264.881 222.513 264.804 222.519 264.723C222.526 264.643 222.516 264.562 222.491 264.488C222.22 263.719 224.725 263.226 225.29 263.038C225.391 262.989 225.472 262.894 225.516 262.771C225.56 262.649 225.563 262.51 225.525 262.385C224.349 258.702 228.747 260.051 230.582 260.413C230.658 260.437 230.738 260.435 230.813 260.407C230.888 260.379 230.956 260.327 231.009 260.256C231.062 260.184 231.098 260.097 231.114 260.002C231.13 259.907 231.125 259.809 231.099 259.717C230.805 258.47 228.582 257.238 231.217 256.817C231.92 256.812 232.614 257.016 233.239 257.412C234.377 259.763 235.948 261.75 237.826 263.212C239.566 264.328 241.342 263.589 240.001 261.08ZM239.19 261.747C239.731 262.661 238.014 261.921 237.79 261.747C236.806 261.007 235.995 259.962 235.438 258.717C235.979 259.079 236.462 259.413 236.814 259.616C237.75 260.044 238.572 260.781 239.19 261.747Z" fill="#455A64"/>
<path opacity="0.25" d="M195.078 284.411C194.749 282.816 194.714 281.061 195.913 280.873C196.489 280.771 196.078 279.8 195.655 279.785C194.02 279.785 193.514 281.467 193.726 283.555C193.084 283.181 192.409 282.898 191.715 282.714C190.657 282.468 189.974 282.424 189.622 283.758C189.41 284.541 189.927 285.063 189.892 285.774C189.892 286.832 190.68 286.397 189.398 286.803C188.9 286.802 188.404 286.738 187.916 286.615C187.524 286.5 187.114 286.518 186.729 286.666C186.344 286.814 185.999 287.087 185.729 287.456C184.929 288.282 186.905 288.688 184.553 288.224C183.965 287.969 183.341 287.861 182.719 287.905C181.848 288.152 181.401 288.456 181.543 289.631C181.543 290.153 182.53 290.863 182.519 291.197C182.519 293.749 180.284 291.588 179.437 291.197C179.381 291.172 179.321 291.164 179.261 291.172C179.202 291.18 179.145 291.205 179.094 291.244C179.043 291.283 179 291.335 178.968 291.397C178.936 291.459 178.915 291.53 178.908 291.603C178.908 292.864 179.59 293.299 178.109 293.415C177.92 293.415 176.933 292.719 176.58 292.719C175.615 292.719 174.745 294.256 173.499 294.169C173.158 294.169 173.04 294.503 173.146 294.851C173.487 295.996 173.993 296.692 172.123 297.751C172.123 297.751 169.912 297.403 169.959 297.403C169.418 297.403 169.759 298.49 170.182 298.519C171.029 298.606 173.934 300.114 174.792 298.679C175.427 297.635 174.181 296.417 174.487 295.779C174.287 296.228 176.145 295.155 176.345 295.068C176.81 294.822 177.301 294.657 177.803 294.575C178.062 294.575 178.285 295.097 178.555 295.097C178.826 295.097 179.308 295.315 179.637 295.097C179.967 294.88 180.037 294.358 180.167 294.242C180.508 293.981 179.743 293.647 180.39 293.386C181.037 293.125 181.272 293.763 181.719 293.937C182.413 294.213 183.483 294.851 184.071 293.937C184.847 292.734 183.412 291.893 183.542 291.037C183.847 289.225 185.953 290.602 186.905 289.79C186.974 289.73 187.025 289.644 187.051 289.544C187.076 289.445 187.075 289.338 187.046 289.239C186.458 286.731 190.139 288.688 191.303 288.427C191.503 288.427 191.727 288.21 191.703 287.905C191.68 287.601 191.233 286.354 191.245 286.325C191.527 284.875 193.208 284.991 193.985 285.252C194.725 288.297 196.689 291.371 198.83 290.544C198.909 290.518 198.979 290.46 199.029 290.378C199.078 290.296 199.103 290.197 199.1 290.095C198.983 287.92 197.066 285.832 195.078 284.411ZM195.843 286.919C195.742 286.689 195.652 286.452 195.572 286.209C196.17 286.679 196.68 287.302 197.066 288.036C197.489 289.558 196.054 287.354 195.843 286.919Z" fill="#455A64"/>
<path opacity="0.25" d="M227.712 300.767C226.889 299.215 225.36 298.592 224.043 297.867C223.514 297.562 222.867 297.156 222.267 296.75C221.444 295.112 220.339 292.4 221.797 292.11C222.667 291.907 224.349 293.024 225.325 293.372C225.854 293.56 225.737 292.618 225.325 292.429C223.726 291.661 220.621 289.21 220.009 292.574C219.867 293.627 219.999 294.708 220.386 295.663C219.646 295.264 218.841 295.08 218.034 295.126C217.281 295.213 216.634 295.228 216.376 296.315C216.223 296.924 216.376 297.185 216.47 297.635C216.5 297.871 216.589 298.089 216.723 298.26C216.858 298.431 217.032 298.547 217.222 298.592C216.942 298.537 216.659 298.508 216.376 298.505C215.2 298.505 212.142 297.533 211.425 299.259C211.131 299.984 211.801 300.97 211.707 301.245C211.613 301.521 209.449 302.289 209.073 302.579C208.896 302.71 209.014 303.464 208.92 303.536C207.831 303.626 206.739 303.626 205.65 303.536C203.851 303.725 199.394 302.898 199.982 306.306C199.982 306.683 200.288 306.625 200.335 307.219C200.354 307.506 200.402 307.788 200.476 308.06C200.406 308.06 200.288 308.06 200.053 308.51C199.818 308.959 199.277 308.699 199.053 309.047C198.206 310.366 199.512 310.815 198.442 311.642C196.948 312.802 193.832 310.453 192.303 311.758C190.774 313.063 192.714 316.224 190.315 316.282C189.786 316.282 190.092 317.253 190.492 317.297C192.738 317.543 192.491 317.021 192.914 314.774C193.62 311.091 198.065 313.628 200.57 312.773C200.63 312.743 200.683 312.696 200.726 312.636C200.769 312.576 200.8 312.505 200.817 312.428C200.834 312.351 200.837 312.27 200.825 312.191C200.812 312.113 200.786 312.039 200.747 311.975C200.088 310.67 200.852 309.945 201.84 309.38C201.9 309.349 201.953 309.302 201.995 309.242C202.038 309.183 202.07 309.113 202.088 309.036C202.106 308.96 202.11 308.88 202.099 308.801C202.089 308.723 202.065 308.648 202.028 308.582C201.758 307.973 200.852 306.146 201.393 305.291C202.264 305.062 203.15 304.931 204.039 304.899C205.973 304.73 207.912 304.692 209.849 304.783C209.914 304.781 209.978 304.76 210.036 304.722C210.093 304.683 210.142 304.628 210.179 304.562C210.216 304.495 210.239 304.419 210.247 304.339C210.255 304.259 210.248 304.178 210.225 304.102C209.943 303.333 212.46 302.84 213.012 302.652C213.063 302.629 213.11 302.594 213.15 302.549C213.19 302.504 213.223 302.45 213.246 302.389C213.269 302.328 213.282 302.263 213.284 302.196C213.286 302.129 213.278 302.062 213.259 301.999C212.083 298.331 216.47 299.679 218.316 300.042C218.391 300.062 218.47 300.058 218.543 300.029C218.616 299.999 218.682 299.947 218.734 299.876C218.785 299.805 218.82 299.719 218.836 299.626C218.851 299.533 218.846 299.436 218.822 299.346C218.539 298.099 216.317 296.852 218.951 296.446C219.65 296.443 220.34 296.646 220.962 297.04C222.103 299.393 223.678 301.381 225.56 302.84C227.289 304.015 229.088 303.275 227.712 300.767ZM226.901 301.434C227.454 302.333 225.725 301.608 225.513 301.434C224.523 300.702 223.71 299.656 223.161 298.403C223.69 298.766 224.172 299.085 224.525 299.288C225.463 299.717 226.286 300.46 226.901 301.434Z" fill="#455A64"/>
<path opacity="0.25" d="M255.325 272.622C254.995 271.027 254.948 269.273 256.16 269.084C256.736 268.983 256.324 268.011 255.889 267.997C254.266 267.997 253.761 269.679 253.972 271.767C253.324 271.398 252.646 271.116 251.949 270.926C250.903 270.679 250.209 270.636 249.868 271.97C249.656 272.753 250.174 273.275 250.138 273.985C250.08 275.044 250.926 274.609 249.644 275.015C249.146 275.02 248.649 274.957 248.163 274.826C247.77 274.712 247.36 274.729 246.976 274.877C246.591 275.025 246.245 275.298 245.975 275.667C245.176 276.494 247.151 276.9 244.799 276.436C244.207 276.179 243.58 276.07 242.953 276.117C242.095 276.363 241.636 276.668 241.777 277.842C241.836 278.364 242.765 279.075 242.753 279.409C242.753 281.961 240.519 279.8 239.672 279.409C239.616 279.384 239.555 279.376 239.496 279.384C239.437 279.392 239.379 279.416 239.329 279.455C239.278 279.494 239.235 279.547 239.203 279.609C239.17 279.671 239.15 279.741 239.143 279.814C239.143 281.076 239.825 281.511 238.331 281.627C238.155 281.627 237.155 280.931 236.803 280.931C235.85 280.931 234.98 282.468 233.733 282.381C233.392 282.381 233.275 282.714 233.38 283.062C233.721 284.208 234.227 284.904 232.346 285.962C232.346 285.962 230.135 285.615 230.182 285.615C229.652 285.615 229.994 286.702 230.405 286.731C231.264 286.818 234.168 288.326 235.027 286.905C235.662 285.846 234.415 284.628 234.721 284.005C234.521 284.454 236.379 283.381 236.579 283.294C237.043 283.047 237.535 282.886 238.037 282.816C238.296 282.816 238.508 283.323 238.79 283.323C239.072 283.323 239.531 283.541 239.86 283.323C240.189 283.106 240.272 282.584 240.401 282.468C240.73 282.207 239.978 281.873 240.625 281.612C241.095 281.409 241.507 281.989 241.942 282.163C242.647 282.439 243.706 283.077 244.294 282.163C245.082 280.96 243.647 280.119 243.776 279.263C244.082 277.451 246.128 278.828 247.14 278.016C247.209 277.956 247.26 277.87 247.285 277.77C247.311 277.671 247.309 277.564 247.281 277.466C246.681 274.957 250.374 276.914 251.538 276.653C251.738 276.653 251.961 276.436 251.926 276.131C251.891 275.827 251.467 274.58 251.467 274.551C251.761 273.101 253.443 273.217 254.207 273.478C254.96 276.523 256.924 279.597 259.064 278.77C259.143 278.742 259.212 278.683 259.261 278.602C259.309 278.521 259.335 278.422 259.335 278.321C259.217 276.131 257.312 274 255.325 272.622ZM256.089 275.131C255.983 274.901 255.889 274.664 255.807 274.42C256.408 274.891 256.921 275.514 257.312 276.247C257.724 277.77 256.289 275.566 256.136 275.131H256.089Z" fill="#455A64"/>
<path opacity="0.25" d="M234.533 328.07C233.71 326.519 232.181 325.895 230.864 325.17C230.323 324.866 229.688 324.46 229.088 324.054C228.265 322.415 227.16 319.704 228.618 319.414C229.488 319.211 231.17 320.327 232.146 320.675C232.675 320.864 232.557 319.921 232.146 319.747C230.546 318.964 227.442 316.514 226.83 319.878C226.689 320.929 226.816 322.009 227.195 322.966C226.456 322.564 225.65 322.38 224.843 322.43C224.09 322.517 223.443 322.531 223.185 323.633C223.032 324.228 223.243 324.489 223.279 324.938C223.309 325.174 223.398 325.392 223.532 325.564C223.667 325.735 223.841 325.851 224.031 325.895C223.751 325.849 223.468 325.82 223.185 325.808C222.009 325.808 218.951 324.837 218.234 326.577C217.94 327.287 218.61 328.288 218.516 328.549C218.422 328.81 216.258 329.593 215.882 329.883C215.705 330.013 215.823 330.767 215.729 330.84C214.64 330.936 213.548 330.936 212.46 330.84C210.66 331.028 206.203 330.202 206.791 333.609C206.85 333.986 207.097 333.928 207.144 334.537C207.164 334.819 207.212 335.096 207.285 335.364C207.215 335.364 207.097 335.364 206.862 335.828C206.627 336.292 206.086 336.002 205.862 336.35C205.015 337.669 206.321 338.133 205.251 338.945C203.757 340.105 200.641 337.756 199.112 339.061C197.76 340.207 199.524 343.527 197.125 343.585C196.595 343.585 196.901 344.557 197.301 344.6C199.547 344.847 199.3 344.325 199.723 342.077C200.429 338.394 204.874 340.932 207.379 340.076C207.661 339.989 207.685 339.54 207.556 339.279C206.897 337.974 207.661 337.249 208.649 336.683C208.709 336.652 208.762 336.605 208.804 336.546C208.847 336.486 208.879 336.416 208.897 336.34C208.915 336.263 208.919 336.183 208.908 336.105C208.898 336.026 208.874 335.951 208.837 335.886C208.567 335.291 207.661 333.45 208.202 332.594C209.073 332.365 209.959 332.234 210.848 332.203C212.782 332.034 214.721 331.995 216.658 332.087C216.723 332.085 216.787 332.064 216.845 332.025C216.902 331.987 216.951 331.932 216.988 331.865C217.025 331.799 217.048 331.722 217.056 331.642C217.064 331.562 217.057 331.481 217.034 331.405C216.752 330.637 219.269 330.144 219.821 329.955C219.873 329.935 219.921 329.901 219.962 329.856C220.003 329.811 220.036 329.756 220.06 329.695C220.083 329.634 220.095 329.568 220.097 329.5C220.098 329.433 220.089 329.366 220.068 329.303C218.892 325.634 223.279 326.983 225.125 327.345C225.2 327.366 225.279 327.361 225.352 327.332C225.425 327.303 225.491 327.25 225.543 327.179C225.594 327.109 225.629 327.022 225.645 326.929C225.66 326.836 225.655 326.739 225.631 326.649C225.349 325.402 223.126 324.155 225.76 323.749C226.459 323.746 227.149 323.95 227.771 324.344C228.912 326.697 230.487 328.684 232.369 330.144C234.11 331.318 235.874 330.55 234.533 328.07ZM233.722 328.737C234.274 329.651 232.546 328.911 232.334 328.737C231.344 328.006 230.531 326.959 229.982 325.707C230.511 326.069 230.993 326.403 231.346 326.591C232.284 327.021 233.107 327.764 233.722 328.737Z" fill="#455A64"/>
<path opacity="0.25" d="M256.407 302.434C256.077 300.825 256.042 299.07 257.242 298.882C257.818 298.795 257.406 297.823 256.971 297.794C255.348 297.794 254.842 299.476 255.054 301.564C254.406 301.196 253.728 300.914 253.031 300.723C251.985 300.477 251.303 300.448 250.95 301.767C250.738 302.565 251.256 303.072 251.22 303.797C251.22 304.841 252.008 304.406 250.726 304.827C250.228 304.82 249.732 304.752 249.245 304.624C248.852 304.512 248.443 304.531 248.059 304.679C247.674 304.827 247.329 305.098 247.057 305.465C246.258 306.306 248.233 306.697 245.881 306.233C245.288 305.983 244.661 305.875 244.035 305.914C243.177 306.161 242.718 306.465 242.859 307.64C242.918 308.176 243.847 308.872 243.835 309.206C243.835 311.758 241.601 309.597 240.754 309.206C240.699 309.179 240.639 309.168 240.579 309.174C240.52 309.179 240.462 309.202 240.411 309.24C240.36 309.278 240.316 309.33 240.284 309.392C240.252 309.454 240.231 309.524 240.225 309.597C240.225 310.859 240.907 311.308 239.413 311.41C239.237 311.41 238.237 310.728 237.896 310.714C236.932 310.714 236.062 312.251 234.815 312.164C234.474 312.164 234.357 312.512 234.462 312.845C234.803 313.991 235.309 314.687 233.428 315.745C233.428 315.745 231.217 315.412 231.275 315.412C230.734 315.412 231.075 316.485 231.487 316.528C232.346 316.601 235.25 318.109 236.109 316.688C236.744 315.629 235.497 314.411 235.803 313.788C235.603 314.223 237.461 313.164 237.661 313.077C238.125 312.825 238.616 312.659 239.119 312.584C239.378 312.584 239.59 313.106 239.872 313.092C240.154 313.077 240.625 313.309 240.954 313.092C241.283 312.874 241.354 312.338 241.483 312.236C241.812 311.961 241.06 311.642 241.707 311.366C242.177 311.163 242.589 311.758 243.024 311.917C243.729 312.193 244.788 312.831 245.376 311.917C246.152 310.714 244.717 309.873 244.846 309.017C245.152 307.205 247.198 308.582 248.21 307.77C248.279 307.71 248.33 307.624 248.355 307.524C248.381 307.425 248.379 307.318 248.351 307.219C247.751 304.711 251.444 306.668 252.608 306.407C252.808 306.407 253.031 306.19 252.996 305.885C252.961 305.581 252.538 304.334 252.538 304.319C252.832 302.869 254.513 302.971 255.289 303.232C256.03 306.277 257.994 309.351 260.134 308.539C260.214 308.508 260.283 308.446 260.332 308.362C260.381 308.279 260.406 308.178 260.405 308.075C260.299 305.9 258.394 303.855 256.407 302.434ZM257.171 304.943C257.1 304.783 256.995 304.522 256.889 304.218C257.49 304.689 258.003 305.312 258.394 306.045C258.806 307.567 257.371 305.363 257.171 304.943Z" fill="#455A64"/>
<path opacity="0.25" d="M281.444 281.656C281.479 281.455 281.479 281.248 281.444 281.047C281.091 279.481 279.633 280.656 279.386 281.613C279.139 282.57 279.692 282.918 279.644 283.628C279.644 284.672 280.444 284.252 279.162 284.658C278.665 284.649 278.169 284.585 277.681 284.469C276.387 284.397 276.269 284.469 275.493 285.31C274.717 286.151 276.669 286.528 274.317 286.064C273.723 285.819 273.096 285.716 272.471 285.759C271.612 285.991 271.154 286.296 271.295 287.485C271.365 288.007 272.294 288.718 272.283 289.051C272.283 291.589 270.037 289.443 269.202 289.051C269.145 289.024 269.083 289.013 269.022 289.02C268.961 289.027 268.902 289.051 268.85 289.09C268.798 289.129 268.754 289.183 268.721 289.246C268.688 289.31 268.667 289.382 268.661 289.457C268.661 290.704 269.343 291.154 267.861 291.27C267.685 291.27 266.685 290.574 266.332 290.574C265.38 290.574 264.509 292.096 263.263 292.024C262.922 292.024 262.804 292.357 262.898 292.705C263.251 293.851 263.757 294.547 261.875 295.533C261.875 295.533 259.664 295.199 259.711 295.199C259.17 295.199 259.523 296.287 259.935 296.316C260.793 296.403 263.698 297.911 264.556 296.475C265.18 295.431 263.933 294.213 264.251 293.575C264.039 294.025 265.909 292.952 266.109 292.865C266.571 292.621 267.057 292.455 267.555 292.372C267.826 292.372 268.037 292.894 268.308 292.894C268.578 292.894 269.06 293.111 269.39 292.894C269.719 292.676 269.801 292.154 269.931 292.038C270.26 291.777 269.507 291.444 270.154 291.168C270.801 290.893 271.036 291.56 271.471 291.734C272.177 292.009 273.235 292.647 273.823 291.734C274.611 290.53 273.165 289.689 273.306 288.834C273.612 287.021 275.658 288.399 276.669 287.587C276.736 287.524 276.785 287.437 276.808 287.338C276.832 287.238 276.828 287.132 276.799 287.036C276.211 284.527 279.903 286.485 281.056 286.224C281.267 286.224 281.491 286.006 281.456 285.702C281.212 284.651 281.156 283.548 281.291 282.468C281.357 282.202 281.408 281.931 281.444 281.656Z" fill="#455A64"/>
</g>
</svg>
