<svg width="232" height="341" viewBox="0 0 232 341" fill="none" xmlns="http://www.w3.org/2000/svg">
<path d="M7.09674 164.343L3.78356 166.715C2.33465 167.759 -0.688745 171.128 0.151625 172.247C0.991995 173.367 5.16486 171.555 6.61377 170.52L9.92698 168.139C9.68841 167.941 9.46559 167.725 9.26047 167.493L8.97067 167.152C8.70021 166.829 8.4877 166.526 8.36212 166.364C7.86481 165.741 7.44339 165.063 7.10641 164.343" fill="#E0E0E0"/>
<path opacity="0.15" d="M7.09674 164.343L3.78356 166.715C2.33465 167.759 -0.688745 171.128 0.151625 172.247C0.991995 173.367 5.16486 171.555 6.61377 170.52L9.92698 168.139C9.68841 167.941 9.46559 167.725 9.26047 167.493L8.97067 167.152C8.70021 166.829 8.4877 166.526 8.36212 166.364C7.86481 165.741 7.44339 165.063 7.10641 164.343" fill="black"/>
<path d="M1.7937 172.57C1.03061 172.693 0.422067 172.636 0.151603 172.276C-0.118861 171.915 -0.00294414 171.384 0.306157 170.757C0.337688 171.172 0.496865 171.567 0.762554 171.891C1.02824 172.215 1.38787 172.451 1.7937 172.57Z" fill="#263238"/>
<path d="M25.131 139.531C26.5895 138.449 28.7629 138.326 31.342 139.455C36.4132 141.647 41.0014 147.862 41.5713 153.299C41.8514 155.993 41.1173 157.986 39.6394 159.039H39.5911C34.4523 162.692 18.6495 170.35 10.4486 170.226C9.96207 170.182 9.48931 170.043 9.05764 169.818C8.05997 169.315 7.19712 168.588 6.53919 167.696C5.88126 166.805 5.44683 165.773 5.27115 164.685C5.21881 164.266 5.2617 163.842 5.39673 163.442C7.75363 155.737 20.0598 143.155 25.131 139.531Z" fill="#0E6500"/>
<path d="M28.3091 135.707L29.729 137.604C30.6733 137.724 31.5945 137.979 32.4626 138.363C37.6691 140.631 42.4022 146.97 43.0107 152.539C43.1255 153.468 43.0962 154.409 42.9238 155.329L44.3341 157.227L40.1998 158.935C39.3029 159.242 38.351 159.365 37.4036 159.295C36.4562 159.224 35.5338 158.963 34.6939 158.527C29.4779 156.268 24.7544 149.93 24.1362 144.36C23.9688 143.441 23.9965 142.498 24.2176 141.59C24.4386 140.683 24.8483 139.829 25.4209 139.084L28.3091 135.707Z" fill="#0E6500"/>
<path opacity="0.15" d="M28.3091 135.707L29.729 137.604C30.6733 137.724 31.5945 137.979 32.4626 138.363C37.6691 140.631 42.4022 146.97 43.0107 152.539C43.1255 153.468 43.0962 154.409 42.9238 155.329L44.3341 157.227L40.1998 158.935C39.3029 159.242 38.351 159.365 37.4036 159.295C36.4562 159.224 35.5338 158.963 34.6939 158.527C29.4779 156.268 24.7544 149.93 24.1362 144.36C23.9688 143.441 23.9965 142.498 24.2176 141.59C24.4386 140.683 24.8483 139.829 25.4209 139.084L28.3091 135.707Z" fill="black"/>
<path d="M116.094 77.3138C121.764 79.7714 126.893 86.6601 127.56 92.7044C127.888 95.7217 127.048 97.961 125.406 99.1376L45.3676 156.667C43.7351 157.844 41.3009 157.957 38.4707 156.733C32.8103 154.276 27.6811 147.387 27.0146 141.343C26.6862 138.326 27.5266 136.086 29.159 134.91L109.207 77.3803C110.839 76.2037 113.264 76.0898 116.094 77.3138Z" fill="#0E6500"/>
<path opacity="0.5" d="M116.094 77.3138C121.764 79.7714 126.893 86.6601 127.56 92.7044C127.888 95.7217 127.048 97.961 125.406 99.1376L45.3676 156.667C43.7351 157.844 41.3009 157.957 38.4707 156.733C32.8103 154.276 27.6811 147.387 27.0146 141.343C26.6862 138.326 27.5266 136.086 29.159 134.91L109.207 77.3803C110.839 76.2037 113.264 76.0898 116.094 77.3138Z" fill="white"/>
<path d="M118.518 99.204C112.858 96.7465 107.729 89.8578 107.053 83.8135C106.724 80.7962 107.565 78.5568 109.207 77.3803C110.849 76.2037 113.264 76.0898 116.094 77.3138C121.764 79.7714 126.893 86.6601 127.56 92.7043C127.888 95.7217 127.048 97.961 125.406 99.1376C123.764 100.314 121.349 100.456 118.518 99.204Z" fill="#0E6500"/>
<path d="M121.049 71.9338C127.579 74.7804 133.51 82.7224 134.273 89.6965C134.659 93.1788 133.684 95.7692 131.8 97.1261L124.971 102.032C123.087 103.389 120.286 103.521 117.012 102.098C110.482 99.2515 104.561 91.319 103.788 84.3449C103.401 80.8531 104.377 78.2722 106.27 76.9154L113.09 71.9908C114.983 70.6529 117.784 70.52 121.049 71.9338Z" fill="#0E6500"/>
<path opacity="0.35" d="M121.049 71.9338C127.579 74.7804 133.51 82.7224 134.273 89.6965C134.659 93.1788 133.684 95.7692 131.8 97.1261L124.971 102.032C123.087 103.389 120.286 103.521 117.012 102.098C110.482 99.2515 104.561 91.319 103.788 84.3449C103.401 80.8531 104.377 78.2722 106.27 76.9154L113.09 71.9908C114.983 70.6529 117.784 70.52 121.049 71.9338Z" fill="white"/>
<path d="M123.841 97.1926C117.302 94.346 111.38 86.4135 110.608 79.4394C110.231 75.9476 111.206 73.3667 113.09 72.0098C114.974 70.653 117.785 70.5201 121.049 71.9339C127.579 74.7805 133.51 82.7224 134.273 89.6966C134.66 93.1789 133.684 95.7693 131.8 97.1261C129.917 98.483 127.096 98.6158 123.841 97.1926Z" fill="#0E6500"/>
<path d="M210.95 7.69588C217.306 10.4476 223.063 18.1808 223.816 24.9651C224.193 28.362 223.237 30.8765 221.401 32.1954L132.66 95.9778C130.825 97.2967 128.101 97.4295 124.932 96.0442C118.567 93.2925 112.81 85.6067 112.056 78.7749C111.689 75.378 112.636 72.873 114.471 71.5446L203.212 7.7623C205.038 6.44339 207.772 6.31055 210.95 7.69588Z" fill="#0E6500"/>
<path opacity="0.35" d="M210.95 7.69588C217.306 10.4476 223.063 18.1808 223.816 24.9651C224.193 28.362 223.237 30.8765 221.401 32.1954L132.66 95.9778C130.825 97.2967 128.101 97.4295 124.932 96.0442C118.567 93.2925 112.81 85.6067 112.056 78.7749C111.689 75.378 112.636 72.873 114.471 71.5446L203.212 7.7623C205.038 6.44339 207.772 6.31055 210.95 7.69588Z" fill="white"/>
<path d="M203.203 7.76249C204.82 6.40197 206.706 5.38437 208.742 4.77351C210.779 4.16264 212.922 3.9717 215.037 4.21265C217.152 4.45361 219.193 5.12126 221.033 6.17374C222.873 7.22621 224.472 8.64081 225.729 10.3288C226.986 12.0168 227.875 13.9418 228.339 15.983C228.804 18.0242 228.833 20.1377 228.427 22.1908C228.021 24.2439 227.187 26.1924 225.978 27.914C224.769 29.6357 223.211 31.0933 221.401 32.1956C219.566 33.5145 216.842 33.6379 213.674 32.262C207.318 29.5104 201.551 21.8246 200.807 14.9928C200.431 11.5959 201.377 9.08141 203.212 7.76249H203.203Z" fill="#0E6500"/>
<path d="M210.969 51.3435L210.563 48.0605L200.508 43.8855L143.305 86.4608C141.962 87.4666 141.373 88.6242 141.508 89.668C141.585 90.2183 141.846 92.3627 141.914 92.932C142.031 93.4822 142.297 93.9915 142.682 94.4069C143.068 94.8224 143.559 95.1289 144.106 95.2947C145.72 95.832 147.441 95.9875 149.128 95.7484C150.815 95.5093 152.42 94.8825 153.814 93.9188L210.969 51.3435Z" fill="#263238"/>
<path d="M143.662 89.7437C141.092 91.6415 141.266 94.1464 144.058 95.2946C145.672 95.8319 147.392 95.9873 149.079 95.7483C150.766 95.5092 152.372 94.8823 153.766 93.9187L210.969 51.3434L200.865 47.1589L143.662 89.7437Z" fill="#37474F"/>
<path d="M199.503 36.4749L200.865 47.159L210.969 51.3435L209.607 40.6593L199.503 36.4749Z" fill="#455A64"/>
<path d="M199.503 36.4749L197.32 38.1069L198.682 48.7911L200.865 47.159L199.503 36.4749Z" fill="#263238"/>
<path d="M223.487 5.90278C224.013 5.52522 224.609 5.25309 225.242 5.10193C225.875 4.95077 226.532 4.92353 227.176 5.02177C227.819 5.12001 228.437 5.34181 228.993 5.6745C229.549 6.00719 230.034 6.44426 230.418 6.96075C230.802 7.47725 231.079 8.06305 231.233 8.68471C231.387 9.30637 231.415 9.95172 231.315 10.5839C231.215 11.2161 230.989 11.8227 230.65 12.3692C230.312 12.9157 229.867 13.3913 229.341 13.7688L225.313 16.6723C224.934 16.8881 224.505 17.0018 224.067 17.0018C223.629 17.0018 223.199 16.8881 222.821 16.6723C221.733 16.1324 220.79 15.3471 220.07 14.3807C219.349 13.4143 218.872 12.2942 218.677 11.112C218.583 10.6906 218.605 10.2522 218.741 9.84199C218.877 9.43175 219.121 9.06444 219.45 8.77782L223.478 5.8838L223.487 5.90278Z" fill="#455A64"/>
<path d="M218.677 11.1309C218.582 10.7095 218.604 10.2709 218.74 9.86043C218.876 9.45 219.121 9.08275 219.45 8.79673L223.478 5.9027C224.158 5.41301 224.955 5.1027 225.792 5.00137C226.629 4.90004 227.478 5.01108 228.259 5.3239C226.897 4.9918 224.985 6.38663 222.753 7.9902C220.522 9.59378 219.527 11.4251 221.788 14.7651C223.449 17.2036 225.004 16.7672 225.729 16.3497L225.284 16.6723C224.906 16.8881 224.476 17.0017 224.038 17.0017C223.601 17.0017 223.171 16.8881 222.792 16.6723C221.712 16.1307 220.776 15.3469 220.061 14.3842C219.346 13.4215 218.872 12.307 218.677 11.1309Z" fill="#37474F"/>
<path d="M67.9706 328.885C67.1592 328.809 67.1399 330.782 67.6518 331.684C69.0911 334.369 73.1094 337.254 78.992 338.525C84.8746 339.797 96.379 338.278 99.8757 338.146C103.372 338.013 109.39 339.759 112.868 340.309C119.195 341.315 123.493 339.588 125.599 337.595C125.944 337.191 126.199 336.721 126.349 336.214C126.499 335.708 126.539 335.176 126.468 334.654C126.41 332.291 126.198 331.807 125.927 331.807L67.9706 328.885Z" fill="#37474F"/>
<path d="M125.242 324.937C125.853 327.742 126.042 330.619 125.802 333.477C125.068 335.232 123.107 336.238 121.532 336.722C117.398 337.994 113.341 337.747 108.782 336.789C105.848 336.055 102.826 335.716 99.7986 335.783C96.1957 335.973 88.2556 336.732 84.643 336.817C81.2677 336.85 77.9212 336.205 74.8097 334.919C72.4238 333.828 68.8015 331.418 67.9998 329.596C67.2173 325.345 67.6617 322.821 70.1538 321.379C72.6459 319.937 76.5483 319.557 81.7451 319.168C83.3003 319.054 85.2612 318.969 86.1015 318.884C89.2505 318.542 92.187 318.305 94.5729 318.163C96.6079 318.176 98.6207 317.745 100.465 316.901C101.309 316.524 101.992 315.869 102.397 315.05C102.899 313.959 102.89 312.374 103.856 312.289C103.856 312.289 121.668 315.259 123.107 315.411C124.778 315.601 123.696 317.935 125.242 324.937Z" fill="#455A64"/>
<path d="M84.7296 318.742C84.1851 319.156 83.7372 319.68 83.4159 320.279C83.0567 320.919 82.7808 321.601 82.5949 322.309C82.363 323.201 83.4835 323.381 83.9182 322.357C84.2429 321.5 84.671 320.684 85.1933 319.928C85.5687 319.403 86.1132 319.019 86.7388 318.836L87.6468 318.751C87.4053 318.087 85.4154 318.296 84.7296 318.742Z" fill="#FAFAFA"/>
<path d="M92.7664 317.831C92.4667 317.793 92.1623 317.818 91.8728 317.902C91.5834 317.987 91.3152 318.131 91.0856 318.324C90.5041 318.818 90.0701 319.457 89.8299 320.174C89.5151 321.032 89.276 321.914 89.1151 322.812C89.0475 323.391 90.4191 323.372 90.5737 322.746C90.76 321.93 90.9921 321.126 91.2692 320.336C91.4237 319.937 92.1385 318.438 93.0852 318.286H93.5198C93.5198 318.087 93.2494 317.954 93.0562 317.907C92.9624 317.872 92.8653 317.846 92.7664 317.831Z" fill="#FAFAFA"/>
<path d="M97.4802 317.688C97.0727 317.763 96.7041 317.974 96.437 318.286C96.1161 318.705 95.868 319.173 95.7029 319.671C95.4149 320.593 95.2748 321.554 95.2876 322.518C95.2876 323.258 96.6302 323.059 96.6785 322.565C96.8234 321.009 96.8234 319.984 97.5768 318.855C97.87 318.362 98.2769 317.942 98.765 317.631C98.765 317.498 98.5235 317.489 98.3882 317.508C98.0821 317.55 97.7789 317.61 97.4802 317.688Z" fill="#FAFAFA"/>
<path d="M124.913 296.586C124.913 296.586 123.377 312.716 122.981 316.398C122.856 317.584 120.566 318.068 119.388 318.571C117.919 319.107 116.551 319.88 115.341 320.857C112.346 323.78 110.096 324.463 108.289 319.339C107.922 318.295 107.236 317.84 105.865 318.087C104.872 318.424 103.822 318.569 102.774 318.514C102.619 318.409 102.716 318.172 102.822 318.02C103.291 317.459 103.631 316.804 103.819 316.102C104.008 315.399 104.04 314.665 103.913 313.95C103.402 307.365 103.121 300.761 102.735 294.166L124.913 296.586Z" fill="#FFA8A7"/>
<path d="M192.336 283.662C190.211 280.332 186.907 271.384 184.193 261.895L164.101 271.052C164.101 271.052 176.359 292.98 177.808 294.973C180.107 298.218 192.336 283.662 192.336 283.662Z" fill="#FFA8A7"/>
<path d="M198.943 290.76C198.943 290.57 199.02 288.995 198.943 288.805C198.499 287.116 197.436 286.651 196.045 285.712C194.671 284.803 193.41 283.739 192.288 282.543C191.824 281.926 191.737 281.594 191.032 281.318C189.824 280.835 187.873 280.797 185.487 282.03C181.566 284.051 180.368 286.49 180.59 289.128C180.764 291.149 180.938 293.872 179.131 295.02C178.378 295.513 176.572 293.046 176.572 293.046C175.461 294.878 177.644 296.671 178.504 300.391C178.978 302.445 179.015 304.574 178.61 306.644C178.214 309.898 177.76 309.889 175.992 310.116C174.476 310.316 170.196 310.031 167.55 311.824C163.937 314.301 164.903 317.603 164.903 317.603C165.367 318.855 169.298 324.938 183.642 322.67C187.806 322.006 196.557 315.582 196.422 314.975C196.349 314.363 196.349 313.745 196.422 313.134C196.47 311.691 196.538 310.287 196.605 308.807C196.555 307.43 196.636 306.051 196.847 304.689C197.118 303.569 197.295 302.43 197.378 301.282C197.655 298.392 197.929 295.498 198.199 292.6C198.315 291.775 199.059 291.585 198.943 290.76Z" fill="#455A64"/>
<path d="M200.749 290.228C202.169 291.566 201.309 295.475 199.407 300.163C198.566 302.231 197.001 305.856 197.475 309.651C197.948 313.447 198.016 315.25 197.011 317.034C195.456 319.823 187.11 323.391 182.193 324.511C185.163 320.416 186.897 315.581 187.197 310.562C187.69 302.165 188.337 296.756 192.249 293.037C197.175 288.255 200.749 290.228 200.749 290.228Z" fill="black"/>
<path d="M164.903 317.603C164.903 317.603 167.801 322.897 178.88 322.727C183.256 322.66 185.593 320.563 185.7 314.035C185.825 306.178 186.472 298.237 189.061 294.327C191.65 290.418 195.823 288.53 198.972 288.805C199.721 289.03 200.355 289.525 200.749 290.19C200.749 290.19 197.552 289.156 192.568 293.217C188.887 296.215 187.902 302.478 187.95 310.297C187.95 313.646 188.182 317.441 187.187 319.975C186.73 321.094 186.013 322.093 185.092 322.89C184.171 323.688 183.072 324.262 181.884 324.567C175.847 326.237 167.588 323.486 165.463 320.981C165.113 320.497 164.881 319.941 164.783 319.356C164.686 318.77 164.727 318.17 164.903 317.603Z" fill="#37474F"/>
<path d="M178.233 308.684C177.787 309.002 177.472 309.466 177.344 309.993C177.292 310.663 177.428 311.335 177.736 311.935C178.044 312.536 178.513 313.042 179.093 313.399C179.759 313.817 180.339 313.665 179.276 312.289C178.593 311.206 178.232 309.958 178.233 308.684Z" fill="#FAFAFA"/>
<path d="M178.832 304.613C178.832 304.613 178.484 304.841 178.397 305.932C178.349 306.52 179.276 308.883 180.445 309.443C181.614 310.003 180.976 308.684 180.445 308.029C179.655 307.022 179.104 305.855 178.832 304.613Z" fill="#FAFAFA"/>
<path d="M178.446 300.125C178.446 300.125 178.059 300.22 178.446 301.728C178.991 302.673 179.845 303.409 180.87 303.816C181.623 303.901 181.991 303.531 181.063 302.867C180.348 302.355 178.581 300.846 178.446 300.125Z" fill="#FAFAFA"/>
<path d="M169.598 281.48C169.598 281.48 159.716 264.609 144.889 238.99C142.609 235.395 141.031 231.415 140.233 227.252C139.267 222.983 134.07 201.472 134.07 201.472L128.584 236.447C129.376 240.185 130.515 245.935 130.515 250.243C130.515 256.022 129.772 264.789 128.11 276.688C125.57 294.868 124.391 304.556 124.391 304.556C123.078 305.505 121.494 306.776 112.346 306.653C107.806 306.587 103.034 304.11 103.034 304.11C103.034 304.11 101.431 285.19 100.764 272.001C100.146 259.827 99.1319 246.068 98.6007 238.724C97.6347 224.928 97.2966 218.978 97.1518 197.25C97.0069 174.705 98.7552 141.542 98.7552 141.542H163.358C163.358 141.542 168.139 149.465 166.825 168.879C167.337 187.856 169.057 222.508 169.057 222.508C173.442 227.499 176.514 233.581 179.527 244.389C182.879 256.401 184.917 263.366 187.583 272.143C182.348 272.001 171.529 277.893 169.598 281.48Z" fill="#0E6500"/>
<path opacity="0.2" d="M134.022 201.633L137.615 176.574C137.615 176.574 146.058 175.938 156.21 167.645C156.21 167.645 154.867 175.065 140.474 180.142L137.026 204.385L139.653 224.909C139.653 224.909 134.08 202.108 134.022 201.633Z" fill="black"/>
<path d="M122.16 52.1879L125.802 67.8346L145.323 64.988L142.947 48.0793L122.16 52.1879Z" fill="#FFA8A7"/>
<path d="M109.371 26.9388C107.624 29.9941 106.094 33.1646 104.792 36.4274L108.569 38.2398L109.371 26.9388Z" fill="#F28F8F"/>
<path d="M118.528 8.98643C111.67 9.33751 109.506 16.1124 108.598 30.8102C107.719 45.0431 109.564 49.1611 111.389 51.1253C115.63 53.4974 119.986 53.9719 125.946 52.4822C130.486 51.3625 142.01 48.1269 146.965 41.0958C152.761 32.8028 154.557 21.407 148.656 16.5773C140.358 9.70757 122.16 8.79666 118.528 8.98643Z" fill="#FFA8A7"/>
<path d="M113.428 41.371C113.35 41.3902 113.277 41.4258 113.215 41.4753C113.173 41.5236 113.135 41.5743 113.099 41.6272C113.013 41.7319 112.92 41.8302 112.819 41.9213C112.616 42.1244 112.389 42.3028 112.143 42.4527C111.679 42.7109 111.177 42.8966 110.656 43.003C110.636 43.0083 110.618 43.0192 110.604 43.0344C110.59 43.0496 110.581 43.0683 110.578 43.0884C110.566 43.1103 110.56 43.1348 110.56 43.1596C110.56 43.1844 110.566 43.2088 110.578 43.2307C110.665 43.3351 110.858 43.3161 110.974 43.3067C111.119 43.3007 111.262 43.2751 111.399 43.2307C111.709 43.1617 112.007 43.0532 112.288 42.9081C112.554 42.7657 112.801 42.5904 113.022 42.3863C113.138 42.2916 113.244 42.1868 113.341 42.0731C113.389 42.0217 113.434 41.9679 113.476 41.9118C113.546 41.8116 113.58 41.6915 113.573 41.5702C113.573 41.5133 113.573 41.3425 113.428 41.371Z" fill="#B16668"/>
<path d="M111.39 51.1158C112.423 52.1975 118.721 53.9623 122.488 53.6492L121.909 51.0588C118.421 51.5388 114.883 51.5579 111.39 51.1158Z" fill="#F28F8F"/>
<path d="M117.891 19.0823C117.808 20.2286 118.088 21.372 118.692 22.3558C119.549 23.6973 120.875 24.6857 122.421 25.136C121.412 26.9538 120.85 28.9781 120.779 31.0474C120.701 31.7019 120.829 32.3642 121.146 32.9451C121.245 33.1525 121.402 33.3279 121.598 33.4507C121.795 33.5736 122.023 33.6388 122.257 33.6388C122.49 33.6388 122.718 33.5736 122.915 33.4507C123.111 33.3279 123.268 33.1525 123.367 32.9451C123.889 31.8539 124.537 30.8255 125.299 29.8803C126.271 28.7889 127.62 28.0892 129.086 27.9162C134.582 27.4702 134.418 34.71 132.148 37.585C128.439 42.2819 125.541 39.1886 125.541 39.1886C125.541 39.1886 123.532 46.4948 128.748 49.7399C128.748 49.7399 137.19 51.8464 143.082 48.9714C146.946 43.3351 151.447 39.72 153.872 35.0041C159.668 23.8266 157.514 14.746 152.307 12.668C151.728 8.07551 147.526 5.15302 143.44 3.60637C137.876 1.49991 132.38 3.18887 126.642 3.05603C123.699 2.98804 120.813 2.25077 118.209 0.902126C117.05 0.304345 115.64 -0.407302 114.548 0.285366C114.127 0.587752 113.807 1.00755 113.631 1.49041C113.277 2.3238 113.123 3.2254 113.178 4.12651C113.233 5.02762 113.497 5.90445 113.949 6.69017C112.472 5.58949 109.796 6.02596 108.25 7.18357C106.029 8.86305 105.633 10.8841 106.318 13.7402C106.811 15.4956 110.192 21.1508 117.891 19.0823Z" fill="#263238"/>
<path d="M151.979 13.7781L157.282 10.8746C156.89 10.1838 156.234 9.67429 155.46 9.45808C154.686 9.24188 153.856 9.33672 153.152 9.72175C152.449 10.1068 151.93 10.7505 151.71 11.5112C151.49 12.2719 151.587 13.0873 151.979 13.7781Z" fill="#263238"/>
<path d="M149.902 58.0994C159.098 58.0994 162.594 60.1299 165.415 63.375C168.235 66.6201 181.952 88.1403 185.506 98.3595C187.187 103.199 186.724 105.001 182.512 109.926C178.301 114.851 162.42 130.981 162.42 130.981L154.49 119.206L164.584 104.669L151.244 81.1756L149.902 58.0994Z" fill="#455A64"/>
<path d="M158.827 60.0825C164.497 62.8152 168.226 70.3587 167.444 81.707C166.729 92.2014 166.062 98.7106 164.671 109.784C163.957 116.693 163.766 123.645 164.101 130.583C164.422 136.085 165.035 141.568 165.937 147.008C165.937 147.008 160.083 156.638 139.856 158.394C115.427 160.519 98.195 152.701 98.195 152.701C98.195 152.701 98.6297 145.983 98.591 137.234C98.591 129.349 98.0211 119.813 98.3012 112.042C98.9291 94.213 99.1416 79.4013 101.199 73.0439C102.754 69.5331 103.991 67.9391 108.077 66.4493C110.916 65.4246 123.619 61.9707 128.632 60.908C145.323 57.3783 152.896 57.2359 158.827 60.0825Z" fill="#37474F"/>
<path d="M118.808 63.3274C121.368 63.9632 122.672 65.4339 126.487 66.2784C132.294 67.5932 138.37 67.1601 143.923 65.0354C147.535 63.5362 148.472 61.2399 148.472 61.2399C148.472 61.2399 146.357 55.3286 145.574 54.1804C145.367 53.8608 145.082 53.5971 144.744 53.4132C144.407 53.2293 144.028 53.131 143.642 53.1272L143.855 54.6359C143.855 54.6359 144.473 55.803 139.025 57.1504C133.577 58.4977 125.946 58.1751 123.348 57.416L123.02 56.0307C121.677 56.3818 120.866 57.4635 119.339 59.5035C118.285 60.9127 117.317 62.383 116.442 63.9062L118.808 63.3274Z" fill="#455A64"/>
<path d="M42.7208 133.306C37.2052 134.255 34.5393 135.972 31.8733 136.152C30.6071 136.271 29.3304 136.223 28.0771 136.01L24.9861 139.682C24.9861 139.682 23.5178 131.256 25.2179 128.163C26.9179 125.07 28.1157 127.062 29.2265 125.165C30.3374 123.267 30.1925 121.844 32.4142 121.217C34.6358 120.591 34.2495 118.608 37.6206 118.21C40.9918 117.811 54.119 120.553 54.119 120.553L42.7208 133.306Z" fill="#FFA8A7"/>
<path d="M109.603 65.9558C101.875 67.1419 97.4413 69.0586 91.0757 80.8814C84.4204 93.2165 74.7126 109.471 74.7126 109.471L45.6184 116.435C38.8568 117.004 32.9549 129.719 38.8568 135.052C38.8568 135.052 64.8504 133.932 73.2154 133.591C87.5597 133.012 87.7046 132.044 93.5003 124.377C99.2959 116.71 110.385 97.1638 110.385 97.1638C110.385 97.1638 122.43 77.5034 109.603 65.9558Z" fill="#455A64"/>
</svg>
