<svg width="272" height="331" viewBox="0 0 272 331" fill="none" xmlns="http://www.w3.org/2000/svg">
<path d="M69.483 52.6781L68.4416 135.774C68.2665 149.9 70.9206 170.693 93.5074 169.954C113.062 167.848 118.251 149.536 118.389 136.349C118.463 130.093 118.536 124.877 118.582 124.238C118.582 124.238 139.981 122.506 141.787 101.586C142.662 91.4813 142.708 70.5158 142.607 51.5473C142.526 41.7229 138.711 32.2887 131.92 25.1221C125.128 17.9555 115.86 13.5819 105.957 12.8718L103.912 12.7168C81.8131 12.4067 69.1973 30.8006 69.483 52.6781Z" fill="#FFBE9D"/>
<path d="M118.592 124.238C118.592 124.238 105.202 124.047 91.6459 114.207C91.6459 114.207 97.2304 129.984 118.481 129.619L118.592 124.238Z" fill="#EB996E"/>
<path d="M106.473 60.1196C106.059 60.5482 103.617 58.5966 100.069 58.5054C96.5208 58.4142 93.8852 60.1287 93.5166 59.6818C93.3323 59.4812 93.7654 58.7061 94.9266 57.9035C96.4788 56.8734 98.3209 56.3562 100.189 56.4262C102.036 56.4727 103.819 57.1129 105.266 58.2501C106.335 59.1347 106.685 59.9372 106.473 60.1196Z" fill="#263238"/>
<path d="M106.372 67.3696C106.322 68.1065 105.985 68.7955 105.431 69.2907C104.877 69.7859 104.151 70.0487 103.405 70.0233C102.672 70.0233 101.968 69.7351 101.45 69.222C100.931 68.709 100.64 68.0131 100.64 67.2875C100.688 66.5513 101.023 65.8624 101.575 65.367C102.128 64.8715 102.853 64.6085 103.598 64.6337C103.962 64.6325 104.323 64.7024 104.659 64.8394C104.996 64.9763 105.301 65.1777 105.559 65.4318C105.817 65.686 106.021 65.988 106.161 66.3205C106.3 66.653 106.372 67.0095 106.372 67.3696Z" fill="#263238"/>
<path d="M115.394 84.4959C115.394 84.3135 117.44 84.1128 120.739 83.9396C121.577 83.9396 122.379 83.8028 122.582 83.2556C122.717 82.4139 122.588 81.5515 122.213 80.7842L120.14 74.3277C117.375 65.2082 115.468 57.6756 115.836 57.5661C116.205 57.4567 118.748 64.7979 121.494 73.9811C122.158 76.2428 122.785 78.3858 123.338 80.4468C123.586 81.4044 124.047 82.4987 123.531 83.7025C123.39 83.9846 123.186 84.2308 122.933 84.4222C122.681 84.6135 122.387 84.7448 122.075 84.8059C121.608 84.8957 121.131 84.9263 120.656 84.8971C117.394 84.815 115.394 84.6874 115.394 84.4959Z" fill="#263238"/>
<path d="M104.971 46.9694C104.63 47.7536 101.792 47.1609 98.4008 47.3341C95.0096 47.5074 92.2081 48.2461 91.8211 47.5074C91.646 47.1426 92.1712 46.4313 93.3232 45.7382C94.8425 44.8806 96.5511 44.4047 98.2995 44.3521C100.036 44.2613 101.769 44.5998 103.34 45.337C104.538 45.9024 105.119 46.5772 104.971 46.9694Z" fill="#263238"/>
<path d="M138.598 53.435C138.23 54.0734 135.465 53.3712 132.147 53.2709C128.83 53.1706 126.019 53.5901 125.697 52.9244C125.549 52.6143 126.102 52.0124 127.263 51.5382C128.838 50.9195 130.529 50.6427 132.221 50.7266C133.929 50.7789 135.606 51.1892 137.142 51.9303C138.23 52.5231 138.764 53.1341 138.598 53.435Z" fill="#263238"/>
<path d="M70.0727 68.3089C69.7225 68.1265 55.8442 63.0014 55.2544 77.3463C54.6646 91.6911 69.3171 89.3292 69.3816 88.9188C69.4461 88.5085 70.0727 68.3089 70.0727 68.3089Z" fill="#FFBE9D"/>
<path d="M65.1793 83.3012C65.1148 83.2556 64.912 83.4653 64.4789 83.6386C63.8867 83.8693 63.2281 83.8693 62.6358 83.6386C61.1245 83.0185 59.9357 80.5653 59.9726 77.9754C59.988 76.7446 60.2808 75.5326 60.8296 74.428C60.9847 73.9872 61.2462 73.5906 61.5916 73.2727C61.9369 72.9548 62.3555 72.7253 62.8109 72.6041C63.1027 72.538 63.4086 72.5758 63.6749 72.7109C63.9413 72.846 64.1509 73.0698 64.267 73.3427C64.4513 73.7531 64.3407 74.0358 64.4236 74.0632C64.5066 74.0905 64.7462 73.8352 64.6448 73.2424C64.5807 72.8878 64.3953 72.5658 64.1195 72.3305C63.7322 72.0159 63.2367 71.8623 62.7372 71.9019C62.131 71.9918 61.5583 72.2345 61.0742 72.6066C60.59 72.9787 60.2107 73.4677 59.9726 74.0267C59.3099 75.2443 58.9528 76.6017 58.9313 77.9845C58.9313 80.8845 60.2951 83.6477 62.3594 84.3681C62.7451 84.4933 63.154 84.5329 63.557 84.484C63.9599 84.4352 64.3471 84.2991 64.6909 84.0854C65.1332 83.6477 65.2254 83.3285 65.1793 83.3012Z" fill="#EB996E"/>
<path d="M111.929 94.4361C112.086 94.0713 109.247 93.2323 107.248 90.5877C106.416 89.4335 105.74 88.1765 105.239 86.8487C104.815 85.7999 104.492 85.1525 104.317 85.1981C104.142 85.2437 104.197 85.9459 104.437 87.0858C104.738 88.5994 105.367 90.0306 106.28 91.2807C107.227 92.5301 108.502 93.4984 109.966 94.0804C111.136 94.5273 111.883 94.5546 111.929 94.4361Z" fill="#263238"/>
<path d="M138.764 61.4418C138.34 61.8613 135.898 59.9189 132.313 59.8277C128.729 59.7365 126.13 61.4509 125.752 61.0041C125.568 60.8035 126.01 60.0283 127.162 59.2258C128.714 58.1957 130.556 57.6785 132.424 57.7485C134.275 57.795 136.06 58.435 137.511 59.5723C138.617 60.4569 138.967 61.2503 138.764 61.4418Z" fill="#263238"/>
<path d="M138.183 68.3908C138.134 69.1278 137.796 69.8167 137.242 70.3119C136.689 70.8072 135.962 71.0699 135.216 71.0446C134.483 71.0446 133.78 70.7563 133.261 70.2433C132.743 69.7302 132.452 69.0343 132.452 68.3087C132.501 67.5718 132.839 66.8829 133.393 66.3876C133.946 65.8924 134.673 65.6297 135.419 65.655C136.152 65.655 136.855 65.9432 137.374 66.4563C137.892 66.9694 138.183 67.6652 138.183 68.3908Z" fill="#263238"/>
<path d="M157.361 23.7695C155.921 21.4545 153.687 19.7293 151.068 18.9089C148.449 18.0885 145.619 18.2277 143.095 19.301C143.743 15.9807 143.277 12.5418 141.766 9.50842C140.256 6.47505 137.785 4.01358 134.729 2.4992C131.674 0.984818 128.202 0.500593 124.842 1.12032C121.483 1.74005 118.421 3.42975 116.122 5.93187C115.939 5.04462 115.566 4.2067 115.026 3.475C114.487 2.74331 113.796 2.13498 112.998 1.69133C111.399 0.809557 109.626 0.283599 107.8 0.150145C103.475 -0.324742 99.099 0.331479 95.1097 2.05331C91.1205 3.77514 87.6574 6.50233 85.0662 9.96266C80.8511 9.46765 76.5775 9.95997 72.59 11.3999C68.6026 12.8398 65.0129 15.1871 62.1107 18.2522C55.3005 25.721 54.0104 43.0206 61.4748 57.9674L63.2257 67.333C65.5664 67.333 67.7044 67.4972 69.1512 68.7739C71.1141 70.5157 71.9895 73.7987 75.2426 72.5585C76.9013 71.9201 78.4127 68.4821 78.9287 66.8132C82.6088 55.6788 83.8282 43.8919 82.5043 32.2506C84.828 29.8008 87.6063 27.8162 90.6875 26.405L90.4387 26.633C96.3458 24.5994 103.027 22.6022 108.63 25.3471C112.98 27.472 115.541 31.9405 118.767 35.4971C121.768 38.7866 125.411 41.4408 129.477 43.2996C133.542 45.1584 137.946 46.1834 142.423 46.3127C142.736 52.2039 142.238 60.5299 142.552 66.3755L147.648 57.0007C148.043 56.3266 148.403 55.6326 148.726 54.9215L148.836 54.7026C149.758 53.9639 150.44 52.6143 151.988 50.8633C153.467 49.1427 154.441 47.0536 154.803 44.8234C155.165 42.5932 154.903 40.3073 154.043 38.2147C156.258 36.6035 157.813 34.2566 158.422 31.6038C159.031 28.951 158.655 26.1698 157.361 23.7695Z" fill="#263238"/>
<path d="M148.689 23.9884C148.689 23.9884 148.744 24.0887 148.8 24.2985C148.875 24.5972 148.918 24.9028 148.929 25.2104C148.976 26.3851 148.685 27.5488 148.09 28.5664C147.669 29.2688 147.119 29.8873 146.468 30.3903C145.695 30.9756 144.786 31.3583 143.823 31.5028C142.705 31.6771 141.56 31.5611 140.5 31.1663C139.441 30.7715 138.503 30.1113 137.778 29.2503L138.138 28.9494C138.487 29.3277 138.757 29.7706 138.933 30.2526C139.108 30.7347 139.186 31.2464 139.16 31.7582C139.149 32.4425 139 33.1177 138.722 33.7441C138.443 34.3706 138.041 34.9356 137.539 35.4059C136.585 36.2445 135.382 36.7534 134.11 36.8559C131.996 37.0084 129.894 36.4352 128.157 35.2327C127 34.4552 125.931 33.5563 124.969 32.5516C124.6 32.203 124.261 31.8248 123.955 31.4207C124.361 31.7266 124.743 32.0619 125.098 32.4239C126.1 33.361 127.186 34.2065 128.342 34.95C130.027 36.0649 132.044 36.5823 134.064 36.4182C135.236 36.3126 136.344 35.8398 137.225 35.0685C138.127 34.2055 138.65 33.0265 138.681 31.7855C138.715 30.871 138.384 29.98 137.76 29.305L138.119 28.995C138.791 29.795 139.658 30.4113 140.639 30.7849C141.62 31.1585 142.682 31.277 143.722 31.1289C144.562 31.0034 145.363 30.6923 146.065 30.2187C146.767 29.745 147.352 29.1211 147.777 28.3931C148.365 27.4255 148.683 26.321 148.698 25.1922C148.772 24.4261 148.652 23.9975 148.689 23.9884Z" fill="#455A64"/>
<path d="M130.553 8.26648C130.553 8.26648 130.664 8.26648 130.867 8.40327C131.146 8.56377 131.414 8.74357 131.668 8.94132C132.631 9.67596 133.386 10.6432 133.862 11.7501C134.213 12.5863 134.352 13.4953 134.265 14.3969C134.178 15.2986 133.869 16.1653 133.364 16.9208C132.754 17.8442 131.806 18.4979 130.719 18.7447C130.141 18.8688 129.542 18.8753 128.961 18.764C128.38 18.6527 127.827 18.4259 127.337 18.0972C127.034 17.8705 126.765 17.6035 126.535 17.3038L126.95 17.0667C127.159 17.5829 127.257 18.1366 127.238 18.6924C127.219 19.2482 127.084 19.794 126.84 20.295C126.415 21.2289 125.671 21.9846 124.738 22.429C123.965 22.7847 123.122 22.969 122.269 22.969C121.416 22.969 120.573 22.7847 119.799 22.429C118.78 21.9632 117.872 21.2887 117.136 20.4501C116.849 20.1603 116.609 19.828 116.426 19.4651C116.426 19.4651 116.721 19.7843 117.265 20.3224C118.026 21.0942 118.93 21.7135 119.928 22.1463C120.658 22.4561 121.446 22.609 122.241 22.5948C123.035 22.5807 123.817 22.3998 124.536 22.0642C125.355 21.6428 126.005 20.9577 126.379 20.1217C126.59 19.6789 126.707 19.1979 126.723 18.7086C126.738 18.2192 126.653 17.7318 126.471 17.2765L125.697 15.5164L126.886 17.0485C127.08 17.3066 127.313 17.5341 127.577 17.7233C128.012 18.0167 128.502 18.2197 129.018 18.32C129.535 18.4204 130.066 18.4159 130.581 18.307C131.547 18.0993 132.396 17.531 132.949 16.7202C133.425 16.0238 133.723 15.2235 133.818 14.388C133.913 13.5526 133.801 12.7068 133.493 11.9234C133.064 10.8494 132.381 9.89262 131.502 9.13283C130.931 8.53095 130.526 8.30296 130.553 8.26648Z" fill="#455A64"/>
<path d="M253.625 112.866L220.127 138.164C219.658 138.52 219.267 138.968 218.979 139.479C218.691 139.991 218.512 140.555 218.452 141.138C218.393 141.72 218.454 142.308 218.633 142.867C218.811 143.425 219.103 143.941 219.491 144.383C220.216 145.212 221.235 145.734 222.338 145.841C223.44 145.948 224.542 145.632 225.416 144.958L258.592 119.423L263.079 110.659L253.625 112.866Z" fill="#970000"/>
<path opacity="0.5" d="M258.785 111.653L261.153 114.389L258.592 119.423C258.283 119.455 257.972 119.418 257.681 119.313C257.39 119.208 257.127 119.038 256.912 118.818C256.696 118.597 256.535 118.331 256.44 118.039C256.344 117.747 256.318 117.438 256.361 117.134C256.059 117.176 255.75 117.142 255.463 117.036C255.177 116.93 254.922 116.755 254.721 116.527C254.519 116.299 254.379 116.025 254.311 115.73C254.244 115.435 254.252 115.127 254.334 114.836C254.334 114.836 252.592 114.681 253.578 112.866L258.785 111.653Z" fill="white"/>
<path d="M220.127 138.136L225.619 144.775L227.462 143.362L222.2 136.577L220.127 138.136Z" fill="#263238"/>
<path d="M217.684 201.507L216.477 201.289L241.119 158.664L237.212 146.371C237.212 146.371 232.696 128.871 236.456 124.403C236.456 124.403 244.685 114.809 247.358 114.946C250.03 115.083 252.159 115.602 252.694 117.59C252.694 117.59 257.237 117.062 258.435 118.502C259.236 119.499 259.951 120.561 260.573 121.676C260.573 121.676 265.512 121.275 266.848 125.506C266.848 125.506 271.521 127.886 271.926 131.315C272.332 134.744 271.005 150.74 269.521 154.834C268.037 158.929 262.572 167.519 260.978 180.204C259.384 192.89 253.726 201.124 248.703 219.655L235.074 224.99L217.684 201.507Z" fill="#FFBE9D"/>
<path d="M252.463 117.317C252.565 117.453 250.869 118.566 249.588 120.618C248.307 122.67 248.003 124.64 247.828 124.612C247.845 123.095 248.284 121.611 249.096 120.324C249.909 119.037 251.065 117.997 252.436 117.317H252.463Z" fill="#EB996E"/>
<path d="M260.305 121.676C260.398 121.822 258.776 122.788 257.495 124.63C256.214 126.473 255.808 128.278 255.652 128.278C255.495 128.278 255.652 126.281 257.043 124.339C257.797 123.114 258.947 122.175 260.305 121.676Z" fill="#EB996E"/>
<path d="M266.591 125.396C266.692 125.524 265.466 126.591 264.342 128.196C263.218 129.801 262.61 131.306 262.453 131.251C262.593 130.017 263.089 128.849 263.881 127.886C264.52 126.812 265.461 125.947 266.591 125.396Z" fill="#EB996E"/>
<path d="M243.488 126.783C242.594 126.494 241.663 126.338 240.723 126.317C239.801 126.459 238.906 126.739 238.069 127.147C238.023 127.147 238.198 126.801 238.649 126.472C239.25 126.061 239.951 125.818 240.68 125.77C241.409 125.721 242.137 125.87 242.787 126.199C243.266 126.463 243.488 126.728 243.488 126.783Z" fill="#EB996E"/>
<path d="M253.274 132.865C252.716 131.97 252.03 131.159 251.238 130.458C249.846 129.382 248.335 129.318 248.353 129.154C248.372 128.989 248.731 128.999 249.348 129.072C250.159 129.195 250.926 129.517 251.578 130.01C252.23 130.502 252.746 131.148 253.081 131.889C253.32 132.464 253.339 132.847 253.274 132.865Z" fill="#EB996E"/>
<path d="M263.033 134.926C262.914 135.045 261.835 133.841 260.001 133.367C258.878 133.153 257.73 133.098 256.592 133.203C256.592 133.139 256.914 132.92 257.569 132.765C258.423 132.587 259.307 132.611 260.149 132.837C260.992 133.062 261.769 133.481 262.416 134.06C262.895 134.516 263.079 134.89 263.033 134.926Z" fill="#EB996E"/>
<path d="M14.4027 181.426C14.4027 181.426 -0.719693 266.31 0.0267514 274.253C0.773196 282.196 4.77267 294.817 13.8498 296.979C19.6151 298.254 25.5937 298.254 31.359 296.979L20.4757 192.716L14.4027 181.426Z" fill="#970000"/>
<path d="M58.6273 137.635C58.6273 137.635 40.5467 150.402 36.5104 154.095C19.7937 169.735 16.3011 176.137 14.3935 181.454C12.486 186.77 26.0049 309.609 26.0049 309.609L28.7695 331.085L155.637 331.405V221.707L136.589 144.493L124.858 141.191L122.49 131.99C122.49 131.99 107.92 121.338 83.8866 121.046C76.5143 120.946 66.0272 123.828 60.1847 128.342L58.6273 137.635Z" fill="#970000"/>
<path d="M122.361 144.812C122.361 144.812 135.4 144.237 136.552 144.493C140.57 145.405 151.601 155.436 164.199 167.765C176.178 179.53 199.788 204.015 199.788 204.015C199.788 204.015 204.027 199.784 208.865 205.438L227.49 178.627C227.49 178.627 255.467 182.019 259.817 202.912C259.817 202.912 251.247 219.108 244.225 230.68C244.225 230.68 218.247 273.35 197.724 265.617C178.98 258.54 155.472 239.681 152.163 235.651L124.517 216.162C124.517 216.162 105.607 180.487 113.966 162.649L122.361 144.812Z" fill="#970000"/>
<path d="M124.821 141.191C124.595 141.171 124.373 141.125 124.158 141.055L122.315 140.562C120.683 140.152 118.306 139.586 115.339 139.03C107.598 137.614 99.7785 136.661 91.9223 136.176C84.0705 135.624 76.1883 135.648 68.3401 136.249C65.3267 136.504 62.9123 136.878 61.2535 137.161L59.3459 137.535C59.1274 137.597 58.9007 137.628 58.6732 137.626C58.8804 137.536 59.0967 137.469 59.3183 137.425L61.2074 136.951C63.5497 136.451 65.9188 136.082 68.3033 135.847C76.1691 135.134 84.0807 135.058 91.9591 135.619C99.8312 136.1 107.661 137.112 115.394 138.647C118.361 139.258 120.729 139.878 122.361 140.362L124.204 140.954C124.418 141.01 124.625 141.089 124.821 141.191Z" fill="#263238"/>
<path d="M75.4085 134.808C75.2518 134.808 74.8371 132.729 74.4869 130.111C74.1367 127.494 73.9432 125.369 74.0999 125.342C74.5833 126.868 74.8924 128.444 75.0214 130.038C75.39 132.692 75.5651 134.79 75.4085 134.808Z" fill="#263238"/>
<path d="M80.1453 134.407C78.8855 131.395 78.6526 128.059 79.4818 124.904C79.6477 124.904 79.3988 127.056 79.5831 129.674C79.7675 132.291 80.3019 134.361 80.1453 134.407Z" fill="#263238"/>
<g opacity="0.3">
<path opacity="0.3" d="M59.042 137.535C78.8919 141.009 99.0183 137.535 120.029 140.024C99.7555 135.866 78.6154 133.896 59.042 137.535Z" fill="black"/>
</g>
<g opacity="0.3">
<path opacity="0.3" d="M24.1618 297.143C12.9928 271.253 14.3198 241.998 15.868 213.901L24.1618 297.143Z" fill="black"/>
</g>
<path d="M14.4027 199.93C14.4329 200.037 14.4515 200.147 14.458 200.258C14.458 200.504 14.5317 200.823 14.5778 201.216C14.67 202.127 14.8082 203.34 14.9741 204.927C15.2966 208.183 15.7666 212.834 16.3379 218.606C17.4714 230.115 19.0196 246.028 20.8719 263.583C22.7242 281.138 24.558 297.015 26.0509 308.487C26.7789 314.224 27.4056 318.865 27.894 322.066C28.106 323.644 28.2718 324.884 28.3824 325.76C28.4377 326.161 28.4746 326.48 28.5022 326.726C28.5122 326.836 28.5122 326.945 28.5022 327.055C28.4648 326.952 28.4401 326.844 28.4285 326.735L28.2534 325.778C28.1152 324.866 27.9124 323.671 27.6636 322.13C27.1568 318.929 26.4656 314.297 25.6823 308.57C24.1065 297.106 22.1897 281.211 20.3374 263.665C18.4851 246.12 17.0014 230.188 15.9693 218.67C15.4717 212.934 15.0478 208.274 14.7805 204.991C14.6607 203.404 14.5594 202.164 14.4949 201.279C14.4949 200.878 14.4949 200.559 14.4304 200.304C14.4056 200.181 14.3963 200.055 14.4027 199.93Z" fill="#263238"/>
<path d="M100.29 186.041C100.022 186.082 99.7501 186.097 99.479 186.086H97.129C95.1016 186.086 92.1527 186.086 88.5219 186.187C81.251 186.351 71.2154 186.88 60.2031 188.166C49.1907 189.452 39.3026 191.312 32.1976 192.88C28.6404 193.637 25.7468 194.294 23.8024 194.777L21.5169 195.306C21.2543 195.377 20.9861 195.426 20.7152 195.452C20.9649 195.344 21.224 195.259 21.4893 195.197L23.7471 194.568C25.7099 194.02 28.5667 193.309 32.1146 192.497C50.619 188.288 69.5269 186.06 88.5127 185.849C92.1988 185.849 95.1017 185.849 97.1383 185.922L99.479 186.014C99.7496 186.001 100.021 186.01 100.29 186.041Z" fill="#263238"/>
<path d="M51.5775 213.527C51.4208 213.527 51.7157 201.772 52.2226 187.281C52.7294 172.79 53.2824 161.035 53.439 161.044C53.5957 161.054 53.3008 172.799 52.7847 187.299C52.2687 201.799 51.725 213.536 51.5775 213.527Z" fill="#263238"/>
<path d="M116.408 212.077C116.235 211.841 116.078 211.594 115.938 211.338C115.612 210.797 115.188 210.076 114.666 209.177L109.985 201.215C107.616 197.294 105.649 193.149 104.114 188.84C103.264 186.267 102.677 183.615 102.364 180.925C102.096 178.031 102.096 175.119 102.364 172.225C102.753 166.616 104.17 161.125 106.547 156.019C107.639 153.809 109.031 151.756 110.685 149.919C112.139 148.335 113.808 146.957 115.643 145.824C118.286 144.142 121.31 143.14 124.444 142.906C125.584 142.812 126.731 142.876 127.853 143.097C126.724 143.038 125.592 143.038 124.462 143.097C121.388 143.404 118.435 144.443 115.855 146.125C114.066 147.26 112.441 148.632 111.026 150.201C109.421 152.019 108.072 154.044 107.017 156.22C104.69 161.278 103.301 166.708 102.916 172.252C102.658 175.107 102.658 177.979 102.916 180.833C103.222 183.487 103.789 186.105 104.612 188.649C106.118 192.936 108.034 197.07 110.335 200.997L114.86 209.04L116.048 211.256C116.193 211.518 116.313 211.793 116.408 212.077Z" fill="#263238"/>
<g opacity="0.3">
<path opacity="0.3" d="M22.7703 195.352C30.7876 194.941 38.7593 193.901 46.6104 192.242C45.6417 195.675 45.1915 199.23 45.2742 202.793C47.7638 200.018 49.5766 196.714 50.573 193.136C50.8584 195.083 51.5385 196.952 52.5727 198.632C53.6068 200.312 54.9735 201.768 56.5907 202.912C57.3806 199.383 57.5613 195.748 57.1252 192.16C68.9884 190.75 80.7718 188.819 92.4753 186.369C68.787 185.801 45.1445 188.712 22.3187 195.005" fill="black"/>
</g>
<path d="M175.294 253.862C175.1 253.779 174.917 253.672 174.75 253.543L173.23 252.54C171.921 251.628 170.041 250.379 167.7 248.764C163.093 245.554 156.725 241.04 149.804 235.933C142.884 230.826 136.7 226.084 132.295 222.61C130.083 220.877 128.296 219.454 127.07 218.46L125.669 217.311C125.497 217.186 125.34 217.042 125.199 216.883C125.388 216.986 125.566 217.105 125.734 217.238L127.19 218.315L132.507 222.345C136.995 225.756 143.206 230.443 150.127 235.55C157.048 240.657 163.314 245.208 167.922 248.509L173.34 252.412L174.806 253.479C174.979 253.594 175.142 253.722 175.294 253.862Z" fill="#263238"/>
<path d="M206.248 225.884C206.165 225.884 206.248 224.497 206.055 222.3C205.637 216.538 203.884 210.949 200.931 205.967C199.797 204.061 198.968 202.957 199.033 202.903C199.282 203.116 199.502 203.362 199.687 203.632C200.234 204.326 200.745 205.047 201.217 205.793C204.375 210.744 206.161 216.431 206.396 222.281C206.445 223.159 206.445 224.039 206.396 224.917C206.39 225.244 206.34 225.569 206.248 225.884Z" fill="#263238"/>
<path d="M211.962 223.814C211.988 222.874 212.065 221.936 212.192 221.005C212.364 218.756 212.321 216.497 212.063 214.256C211.801 212.015 211.323 209.804 210.635 207.654C210.11 205.994 209.713 205 209.769 204.964C209.928 205.165 210.055 205.39 210.146 205.629C210.451 206.253 210.722 206.892 210.957 207.544C212.541 211.86 213.078 216.483 212.524 221.041C212.413 221.908 212.294 222.61 212.183 223.084C212.144 223.336 212.07 223.582 211.962 223.814Z" fill="#263238"/>
<path d="M255.237 212.077C255.237 212.077 255.237 211.904 255.025 211.73C254.866 211.631 254.736 211.493 254.647 211.329C254.546 211.137 254.472 210.909 254.343 210.691C254.095 210.226 253.477 209.879 253.035 209.204C252.556 208.456 252.184 207.646 251.929 206.797C251.3 204.63 250.22 202.617 248.759 200.887C247.882 199.882 246.93 198.943 245.911 198.078C244.829 197.132 243.681 196.264 242.474 195.479C241.305 194.636 240.073 193.883 238.788 193.227L235.102 191.458C233.941 190.911 232.853 190.345 231.793 189.898L228.844 188.649C228.406 188.483 227.978 188.291 227.563 188.074C227.167 187.846 226.845 187.591 226.513 187.409L225.591 186.907C225.297 186.752 225.048 186.542 224.827 186.406C224.375 186.123 223.979 185.968 223.721 185.831C223.463 185.694 223.334 185.621 223.343 185.603C223.486 185.635 223.626 185.684 223.758 185.749C224.16 185.888 224.551 186.055 224.928 186.251C225.487 186.599 226.072 186.904 226.679 187.162C227.038 187.336 227.379 187.591 227.748 187.792C228.116 187.992 228.577 188.138 229.02 188.33L231.987 189.515C233.047 189.944 234.152 190.509 235.332 191.047L239.018 192.789C240.321 193.451 241.569 194.213 242.75 195.069C243.979 195.861 245.143 196.745 246.234 197.714C247.267 198.594 248.229 199.555 249.109 200.586C250.589 202.367 251.663 204.441 252.261 206.669C252.492 207.498 252.829 208.295 253.265 209.04C253.652 209.678 254.251 210.052 254.509 210.581C254.647 210.837 254.703 211.074 254.786 211.247C254.86 211.401 254.967 211.538 255.099 211.648C255.329 211.885 255.246 212.095 255.237 212.077Z" fill="#263238"/>
<path d="M137.013 329.289C136.884 329.289 136.774 306.217 136.774 277.755C136.774 249.293 136.884 226.221 137.013 226.221C137.142 226.221 137.253 249.293 137.253 277.755C137.253 306.217 137.151 329.289 137.013 329.289Z" fill="#263238"/>
</svg>
