<svg width="228" height="159" viewBox="0 0 228 159" fill="none" xmlns="http://www.w3.org/2000/svg">
<ellipse cx="83.5" cy="79.5" rx="83.5" ry="79.5" fill="#FFFCFC"/>
<path d="M227.615 16.0842H141.1V114.754H227.615V16.0842Z" fill="white"/>
<path d="M227.615 114.754C227.615 114.096 227.576 74.3721 227.522 16.0842L227.615 16.156H141.108L141.208 16.0749C141.208 53.05 141.208 87.2421 141.189 114.745L141.108 114.679L227.622 114.745L141.108 114.81H141V114.745C141 87.2421 141 53.05 141 16.0749V16H141.108H227.615H227.707V16.0749C227.653 74.3721 227.615 114.096 227.615 114.754Z" fill="#263238"/>
<path d="M181.275 81.5949H149.507C148.081 81.5949 146.925 82.5294 146.925 83.6821V86.3529C146.925 87.5056 148.081 88.4402 149.507 88.4402H181.275C182.701 88.4402 183.858 87.5056 183.858 86.3529V83.6821C183.858 82.5294 182.701 81.5949 181.275 81.5949Z" fill="#F5F5F5"/>
<path d="M219.813 81.5949H188.864C187.438 81.5949 186.282 82.5294 186.282 83.6821V86.3529C186.282 87.5056 187.438 88.4402 188.864 88.4402H219.813C221.24 88.4402 222.396 87.5056 222.396 86.3529V83.6821C222.396 82.5294 221.24 81.5949 219.813 81.5949Z" fill="#F5F5F5"/>
<path d="M220.323 95.6224H149.334C147.907 95.6224 146.751 96.5569 146.751 97.7097V100.38C146.751 101.533 147.907 102.468 149.334 102.468H220.323C221.749 102.468 222.905 101.533 222.905 100.38V97.7097C222.905 96.5569 221.749 95.6224 220.323 95.6224Z" fill="#F5F5F5"/>
<path d="M163.882 78.8399C163.882 78.8836 160.315 78.921 155.911 78.921C151.507 78.921 147.94 78.8836 147.94 78.8399C147.94 78.7962 151.507 78.7588 155.911 78.7588C160.315 78.7588 163.882 78.7962 163.882 78.8399Z" fill="#263238"/>
<path d="M201.602 78.8399C201.602 78.8836 198.792 78.921 195.326 78.921C191.859 78.921 189.045 78.8836 189.045 78.8399C189.045 78.7962 191.855 78.7588 195.326 78.7588C198.796 78.7588 201.602 78.7962 201.602 78.8399Z" fill="#263238"/>
<path d="M174.003 92.7988C174.003 92.8425 168.213 92.8799 161.072 92.8799C153.931 92.8799 148.141 92.8425 148.141 92.7988C148.141 92.7551 153.931 92.7177 161.072 92.7177C168.213 92.7177 174.003 92.7551 174.003 92.7988Z" fill="#263238"/>
<path d="M220.392 66.0542H147.906C146.518 66.0542 145.393 66.9635 145.393 68.0853V71.5048C145.393 72.6266 146.518 73.5359 147.906 73.5359H220.392C221.78 73.5359 222.905 72.6266 222.905 71.5048V68.0853C222.905 66.9635 221.78 66.0542 220.392 66.0542Z" fill="#E0E0E0"/>
<path d="M200.66 69.795C200.66 69.8418 193.782 69.8762 185.301 69.8762C176.821 69.8762 169.938 69.8418 169.938 69.795C169.938 69.7482 176.817 69.7139 185.301 69.7139C193.786 69.7139 200.66 69.7514 200.66 69.795Z" fill="#263238"/>
<path d="M220.392 20.5646H147.906C146.518 20.5646 145.393 21.4739 145.393 22.5957V26.0152C145.393 27.137 146.518 28.0463 147.906 28.0463H220.392C221.78 28.0463 222.905 27.137 222.905 26.0152V22.5957C222.905 21.4739 221.78 20.5646 220.392 20.5646Z" fill="#E0E0E0"/>
<path d="M200.66 24.3054C200.66 24.3491 193.782 24.3866 185.301 24.3866C176.821 24.3866 169.938 24.3491 169.938 24.3054C169.938 24.2618 176.817 24.2243 185.301 24.2243C193.786 24.2243 200.66 24.2586 200.66 24.3054Z" fill="#263238"/>
<path d="M227.615 29.8559C227.615 29.9027 208.23 29.9402 184.321 29.9402C160.412 29.9402 141.019 29.9027 141.019 29.8559C141.019 29.8091 160.404 29.7748 184.321 29.7748C208.237 29.7748 227.615 29.8122 227.615 29.8559Z" fill="#EBEBEB"/>
<path d="M227.615 62.956C227.615 63.0028 208.23 63.0371 184.321 63.0371C160.412 63.0371 141.019 63.0028 141.019 62.956C141.019 62.9092 160.404 62.8749 184.321 62.8749C208.237 62.8749 227.615 62.9123 227.615 62.956Z" fill="#EBEBEB"/>
<path d="M181.275 37.3595H149.507C148.081 37.3595 146.925 38.294 146.925 39.4468V42.1175C146.925 43.2703 148.081 44.2048 149.507 44.2048H181.275C182.701 44.2048 183.858 43.2703 183.858 42.1175V39.4468C183.858 38.294 182.701 37.3595 181.275 37.3595Z" fill="#F5F5F5"/>
<path d="M219.813 37.3595H188.864C187.438 37.3595 186.282 38.294 186.282 39.4468V42.1175C186.282 43.2703 187.438 44.2048 188.864 44.2048H219.813C221.24 44.2048 222.396 43.2703 222.396 42.1175V39.4468C222.396 38.294 221.24 37.3595 219.813 37.3595Z" fill="#F5F5F5"/>
<path d="M220.323 51.387H149.334C147.907 51.387 146.751 52.3215 146.751 53.4743V56.145C146.751 57.2978 147.907 58.2323 149.334 58.2323H220.323C221.749 58.2323 222.905 57.2978 222.905 56.145V53.4743C222.905 52.3215 221.749 51.387 220.323 51.387Z" fill="#F5F5F5"/>
<path d="M163.882 34.6046C163.882 34.6482 160.315 34.6857 155.911 34.6857C151.507 34.6857 147.94 34.6482 147.94 34.6046C147.94 34.5609 151.507 34.5234 155.911 34.5234C160.315 34.5234 163.882 34.5609 163.882 34.6046Z" fill="#263238"/>
<path d="M201.602 34.6046C201.602 34.6482 198.792 34.6857 195.326 34.6857C191.859 34.6857 189.045 34.6482 189.045 34.6046C189.045 34.5609 191.855 34.5234 195.326 34.5234C198.796 34.5234 201.602 34.5609 201.602 34.6046Z" fill="#263238"/>
<path d="M174.003 48.5634C174.003 48.6071 168.213 48.6445 161.072 48.6445C153.931 48.6445 148.141 48.6071 148.141 48.5634C148.141 48.5198 153.931 48.4823 161.072 48.4823C168.213 48.4823 174.003 48.5198 174.003 48.5634Z" fill="#263238"/>
<path d="M220.234 106.627C220.234 106.673 214.587 106.708 207.62 106.708C200.652 106.708 195.009 106.673 195.009 106.627C195.009 106.58 200.652 106.546 207.62 106.546C214.587 106.546 220.234 106.583 220.234 106.627Z" fill="#263238"/>
<path d="M178.187 41.4998C177.992 41.5517 177.792 41.5924 177.589 41.6214C176.073 41.8469 174.508 41.6662 173.131 41.1066C172.874 40.9993 172.643 40.8567 172.447 40.6854C172.232 40.5012 172.089 40.2702 172.034 40.0209C171.999 39.8879 171.998 39.7505 172.032 39.6172C172.066 39.484 172.134 39.358 172.231 39.2471C172.346 39.1325 172.499 39.0477 172.673 39.0033C172.847 38.9589 173.033 38.9569 173.208 38.9975C173.3 39.0193 173.386 39.0563 173.46 39.1062C173.534 39.1562 173.594 39.218 173.636 39.2877C173.722 39.429 173.747 39.589 173.71 39.7432C173.629 40.0457 173.444 40.3237 173.177 40.545C172.65 41.0228 171.988 41.39 171.247 41.6152C170.449 41.8588 169.584 41.9214 168.746 41.7962C168.3 41.7348 167.88 41.5859 167.522 41.3625C167.329 41.2483 167.174 41.0975 167.07 40.9234C166.967 40.7493 166.918 40.5572 166.928 40.3641C166.953 40.1658 167.045 39.9769 167.194 39.8181C167.34 39.6486 167.556 39.5269 167.804 39.4749C167.935 39.454 168.07 39.4609 168.196 39.4948C168.323 39.5287 168.436 39.5885 168.526 39.6683C168.695 39.8292 168.787 40.0342 168.784 40.2455C168.789 40.4521 168.728 40.6563 168.607 40.8383C168.477 41.0177 168.297 41.1704 168.082 41.2845C167.653 41.4917 167.187 41.6423 166.7 41.7306C165.762 41.9459 164.739 42.1799 163.697 41.9896C163.174 41.898 162.695 41.6881 162.315 41.3843C162.118 41.2296 161.963 41.0435 161.859 40.8378C161.755 40.6322 161.706 40.4114 161.713 40.1894C161.717 40.0467 161.756 39.9061 161.828 39.7759C161.901 39.6457 162.004 39.5285 162.133 39.4312C162.276 39.3404 162.447 39.284 162.627 39.2686C162.808 39.2531 162.99 39.2792 163.153 39.3438C163.32 39.4048 163.456 39.5121 163.534 39.6465C163.613 39.7809 163.629 39.9336 163.581 40.077C163.477 40.3415 163.265 40.5694 162.979 40.7229C161.943 41.2973 160.752 41.6631 159.505 41.7899C158.898 41.8745 158.274 41.8304 157.694 41.662C157.409 41.5686 157.157 41.4184 156.963 41.2253C156.769 41.0322 156.638 40.8025 156.583 40.5575C156.537 40.312 156.605 40.0614 156.775 39.8544C156.945 39.6475 157.204 39.4989 157.501 39.4374C157.653 39.4139 157.809 39.4234 157.954 39.4651C158.1 39.5068 158.228 39.5791 158.328 39.6746C158.509 39.8595 158.611 40.0874 158.617 40.3235C158.63 40.5517 158.569 40.7788 158.439 40.9818C158.302 41.1731 158.115 41.338 157.891 41.4654C157.459 41.6939 156.979 41.8567 156.475 41.9459C155.529 42.1487 154.545 42.2922 153.649 42.027C153.227 41.9037 152.855 41.6876 152.576 41.403C152.306 41.1306 152.169 40.7876 152.19 40.439C152.231 40.116 152.415 39.8157 152.707 39.5934C152.84 39.4859 153.004 39.4068 153.184 39.3632C153.364 39.3197 153.554 39.313 153.738 39.3438H153.777V39.375C153.789 39.9874 153.513 40.5806 153.005 41.0349C152.643 41.3767 152.176 41.6342 151.65 41.7806C151.325 41.8712 150.981 41.9073 150.638 41.8866C150.407 41.8586 150.291 41.8336 150.291 41.8336C150.741 41.8929 151.202 41.8586 151.63 41.7338C152.14 41.5834 152.591 41.3273 152.939 40.9912C153.416 40.545 153.669 39.9708 153.649 39.3813L153.692 39.4218C153.526 39.3972 153.355 39.4056 153.194 39.4464C153.034 39.4871 152.888 39.559 152.769 39.6558C152.502 39.8632 152.337 40.1411 152.302 40.439C152.244 41.063 152.866 41.687 153.676 41.9116C154.487 42.1362 155.471 42.0208 156.409 41.8149C156.893 41.7276 157.353 41.5701 157.768 41.35C157.969 41.2344 158.137 41.0855 158.262 40.9132C158.377 40.7322 158.43 40.5298 158.416 40.3266C158.411 40.1238 158.324 39.9277 158.169 39.7682C158.091 39.6917 157.989 39.6337 157.873 39.6003C157.758 39.5668 157.634 39.559 157.513 39.5778C157.261 39.6329 157.043 39.761 156.901 39.9377C156.759 40.1144 156.702 40.3272 156.741 40.5357C156.793 40.7537 156.911 40.9576 157.086 41.1288C157.261 41.3 157.486 41.433 157.741 41.5154C158.29 41.673 158.881 41.7128 159.455 41.6308C160.667 41.5063 161.825 41.149 162.832 40.5887C163.079 40.4569 163.265 40.2627 163.361 40.0365C163.398 39.9287 163.385 39.8139 163.325 39.7131C163.266 39.6122 163.163 39.5321 163.037 39.4874C162.909 39.438 162.767 39.418 162.626 39.4295C162.485 39.4411 162.351 39.4838 162.238 39.5529C162.129 39.6357 162.042 39.7352 161.982 39.8456C161.921 39.9559 161.889 40.0749 161.886 40.1956C161.881 40.3947 161.927 40.5925 162.02 40.7766C162.114 40.9608 162.254 41.1273 162.431 41.2658C162.783 41.5473 163.228 41.742 163.712 41.8274C164.685 42.0083 165.685 41.7899 166.619 41.5746C167.085 41.4895 167.531 41.3464 167.943 41.1503C168.134 41.0513 168.294 40.9178 168.41 40.7603C168.514 40.602 168.567 40.4249 168.564 40.2455C168.568 40.0713 168.494 39.9018 168.356 39.7682C168.29 39.7076 168.205 39.6622 168.11 39.6365C168.015 39.6107 167.913 39.6056 167.815 39.6215C167.616 39.6766 167.441 39.7773 167.312 39.9114C167.182 40.0454 167.104 40.2071 167.086 40.3766C167.083 40.5459 167.131 40.7133 167.226 40.864C167.322 41.0147 167.462 41.1441 167.634 41.2408C167.973 41.4509 168.371 41.5912 168.792 41.6495C169.599 41.7699 170.432 41.7105 171.201 41.4779C171.922 41.2658 172.568 40.9133 173.08 40.4514C173.329 40.2486 173.503 39.9936 173.582 39.7151C173.628 39.5909 173.613 39.4575 173.541 39.3417C173.47 39.2259 173.346 39.1364 173.196 39.0911C173.048 39.0553 172.891 39.056 172.744 39.0933C172.596 39.1305 172.466 39.2026 172.37 39.3002C172.283 39.3984 172.222 39.51 172.191 39.6281C172.16 39.7462 172.159 39.8682 172.189 39.9866C172.252 40.2093 172.377 40.4174 172.555 40.5949C172.733 40.7723 172.959 40.9143 173.216 41.0099C174.038 41.3565 174.936 41.5686 175.86 41.6339C176.444 41.6721 177.032 41.6553 177.612 41.584L178.064 41.5154C178.104 41.5081 178.146 41.5029 178.187 41.4998Z" fill="#970000"/>
<path d="M215.95 41.1285C215.796 41.2066 215.633 41.2714 215.463 41.3219C214.98 41.4816 214.465 41.5693 213.942 41.5809C213.112 41.605 212.289 41.4499 211.557 41.1316C211.087 40.9436 210.688 40.6583 210.399 40.3048C210.239 40.1037 210.166 39.8658 210.191 39.6278C210.207 39.5017 210.256 39.3797 210.333 39.2692C210.41 39.1588 210.514 39.0621 210.638 38.985C210.773 38.9005 210.939 38.8564 211.109 38.8602C211.284 38.865 211.45 38.9217 211.576 39.0194C211.697 39.1206 211.787 39.2425 211.841 39.3759C211.895 39.5093 211.912 39.6508 211.889 39.79C211.827 40.0716 211.657 40.3303 211.403 40.5294C211.152 40.733 210.869 40.9083 210.561 41.0505C209.916 41.3574 209.195 41.544 208.45 41.5965C207.652 41.6706 206.846 41.55 206.134 41.2502C205.761 41.0884 205.451 40.8465 205.238 40.5513C205.132 40.3967 205.062 40.2274 205.034 40.0521C205.012 39.7797 205.099 39.5089 205.282 39.2793C205.464 39.0497 205.733 38.8733 206.049 38.776C206.163 38.7471 206.284 38.7372 206.403 38.7468C206.523 38.7565 206.638 38.7855 206.744 38.8322C206.951 38.9264 207.114 39.0734 207.207 39.2502C207.298 39.4246 207.341 39.6131 207.332 39.8023C207.323 39.9915 207.263 40.1769 207.157 40.3454C206.938 40.6746 206.622 40.9554 206.238 41.1628C205.472 41.5912 204.575 41.8416 203.646 41.8867C202.716 41.9318 201.789 41.7699 200.965 41.4186C200.559 41.2519 200.191 41.0303 199.877 40.7634C199.546 40.4972 199.352 40.1391 199.336 39.7619C199.341 39.5718 199.413 39.3868 199.545 39.2291C199.676 39.0714 199.861 38.9477 200.077 38.8727C200.191 38.8366 200.314 38.8236 200.435 38.8351C200.556 38.8465 200.672 38.8819 200.772 38.9382C200.963 39.0489 201.099 39.2101 201.158 39.3938C201.212 39.5671 201.217 39.7481 201.172 39.9232C201.128 40.0983 201.034 40.2629 200.899 40.4046C200.65 40.6724 200.349 40.9062 200.008 41.0973C199.391 41.4662 198.684 41.7254 197.934 41.8577C197.185 41.9899 196.409 41.9924 195.658 41.8648C194.959 41.7628 194.331 41.4589 193.89 41.0099C193.685 40.7911 193.57 40.526 193.562 40.2518C193.552 39.9897 193.633 39.7307 193.793 39.503C193.868 39.3914 193.969 39.2933 194.092 39.2144C194.215 39.1356 194.356 39.0777 194.507 39.0443C194.653 39.0179 194.804 39.0179 194.949 39.0443C195.095 39.0707 195.231 39.123 195.349 39.1972C195.559 39.3316 195.722 39.5079 195.822 39.7086C195.922 39.9094 195.956 40.1277 195.92 40.3422C195.841 40.711 195.598 41.0438 195.237 41.2782C194.944 41.4754 194.599 41.6162 194.229 41.6901C193.723 41.7821 193.202 41.8084 192.685 41.7681L192.299 41.74C192.255 41.7445 192.209 41.7445 192.164 41.74C192.209 41.7359 192.255 41.7359 192.299 41.74H192.705C193.223 41.7669 193.743 41.7312 194.249 41.6339C194.604 41.5559 194.934 41.4153 195.214 41.2221C195.546 40.986 195.758 40.6595 195.812 40.3048C195.841 40.1079 195.807 39.9082 195.714 39.7247C195.621 39.5412 195.471 39.38 195.279 39.2565C195.175 39.1931 195.056 39.1488 194.928 39.1267C194.801 39.1046 194.669 39.1053 194.542 39.1286C194.41 39.1607 194.287 39.2136 194.18 39.2843C194.074 39.355 193.985 39.442 193.921 39.5404C193.769 39.7517 193.697 39.9945 193.714 40.2385C193.731 40.4826 193.836 40.7172 194.017 40.9132C194.44 41.3336 195.036 41.6171 195.696 41.7119C196.424 41.8358 197.176 41.8336 197.902 41.7056C198.629 41.5776 199.313 41.3267 199.911 40.9694C200.233 40.7849 200.517 40.5606 200.753 40.3048C200.871 40.1818 200.953 40.0386 200.993 39.8862C201.032 39.7337 201.028 39.5759 200.981 39.425C200.935 39.2771 200.828 39.1468 200.676 39.0568C200.601 39.0144 200.515 38.9877 200.425 38.979C200.335 38.9703 200.243 38.9799 200.158 39.0069C199.979 39.071 199.826 39.1753 199.717 39.3074C199.608 39.4395 199.548 39.5939 199.545 39.7526C199.564 40.0882 199.739 40.4056 200.035 40.6418C200.335 40.8951 200.686 41.106 201.073 41.2658C201.866 41.5984 202.756 41.7525 203.648 41.7119C204.54 41.6701 205.4 41.4293 206.134 41.0162C206.496 40.8304 206.795 40.5754 207.006 40.2736C207.1 40.1264 207.152 39.9645 207.161 39.7991C207.17 39.6338 207.134 39.4689 207.056 39.3158C206.99 39.1688 206.859 39.0471 206.687 38.9749C206.515 38.9027 206.317 38.8851 206.13 38.9258C205.857 39.0126 205.626 39.1667 205.468 39.3661C205.31 39.5655 205.233 39.8001 205.25 40.0365C205.275 40.1911 205.337 40.3405 205.431 40.4764C205.626 40.7483 205.911 40.9709 206.253 41.1191C206.928 41.4052 207.692 41.5225 208.45 41.4561C209.166 41.4038 209.86 41.2237 210.48 40.9288C210.776 40.7947 211.049 40.6289 211.291 40.4358C211.522 40.2563 211.679 40.0229 211.738 39.7682C211.759 39.6481 211.746 39.5258 211.701 39.4102C211.655 39.2947 211.579 39.1888 211.476 39.1005C211.376 39.0228 211.245 38.9771 211.106 38.9719C210.968 38.9667 210.832 39.0025 210.723 39.0724C210.616 39.1409 210.527 39.2258 210.461 39.3222C210.395 39.4185 210.353 39.5245 210.337 39.634C210.315 39.8526 210.38 40.0712 210.522 40.258C210.8 40.5963 211.182 40.8705 211.63 41.0536C212.338 41.3717 213.137 41.5332 213.946 41.5216C214.46 41.514 214.969 41.4381 215.452 41.297C215.784 41.1971 215.942 41.1191 215.95 41.1285Z" fill="#970000"/>
<path d="M180.063 54.9095C180.017 54.9334 179.968 54.9533 179.917 54.9688L179.473 55.131C179.087 55.2714 178.504 55.4774 177.743 55.7082C176.818 55.9969 175.858 56.2061 174.879 56.3322C174.266 56.4048 173.646 56.435 173.026 56.4227C172.327 56.4336 171.63 56.3492 170.965 56.1731C170.592 56.0707 170.255 55.8973 169.983 55.6676C169.71 55.438 169.509 55.1587 169.398 54.8534C169.341 54.6875 169.325 54.5141 169.352 54.3432C169.378 54.1724 169.447 54.0075 169.552 53.8581C169.659 53.6992 169.812 53.5635 169.997 53.4624C170.183 53.3614 170.396 53.298 170.618 53.2778C170.852 53.2745 171.083 53.3276 171.28 53.4304C171.477 53.5331 171.632 53.6809 171.726 53.855C171.936 54.2007 171.971 54.5995 171.822 54.9657C171.661 55.3299 171.382 55.653 171.015 55.9017C170.648 56.1533 170.241 56.3632 169.803 56.5257C168.902 56.9046 167.859 57.0034 166.874 56.8034C166.364 56.6762 165.905 56.4405 165.547 56.1211C165.188 55.8016 164.943 55.4101 164.836 54.9875C164.789 54.7697 164.789 54.547 164.836 54.3292C164.873 54.1004 164.988 53.8844 165.167 53.7052C165.253 53.6079 165.364 53.5267 165.491 53.4669C165.619 53.4071 165.762 53.3703 165.909 53.3589C166.065 53.3565 166.218 53.3941 166.346 53.4664C166.475 53.5387 166.571 53.642 166.623 53.7614C166.697 53.9859 166.709 54.2208 166.66 54.4497C166.611 54.6786 166.5 54.8962 166.337 55.0874C166.052 55.4796 165.686 55.8299 165.256 56.1232C164.41 56.7087 163.328 57.0242 162.214 57.0104C161.101 56.9966 160.031 56.6545 159.208 56.0483C158.812 55.7508 158.542 55.36 158.436 54.9314C158.383 54.7152 158.4 54.4916 158.486 54.2824C158.58 54.0772 158.735 53.894 158.937 53.7489C159.138 53.6005 159.39 53.5057 159.659 53.4774C159.797 53.4614 159.938 53.4701 160.072 53.503C160.205 53.5359 160.328 53.5921 160.431 53.6678C160.612 53.8205 160.739 54.0094 160.8 54.2151C160.86 54.4207 160.851 54.6357 160.775 54.8378C160.624 55.2171 160.348 55.5559 159.976 55.8174C159.633 56.0755 159.256 56.3025 158.853 56.4945C158.08 56.8634 157.222 57.0992 156.332 57.1871C155.5 57.2758 154.654 57.2151 153.854 57.0093C153.473 56.9062 153.125 56.7369 152.835 56.5132C152.553 56.2967 152.361 56.0158 152.283 55.7082C152.199 55.4149 152.234 55.1075 152.383 54.8315C152.454 54.6984 152.566 54.5821 152.708 54.4932C152.849 54.4043 153.017 54.3457 153.194 54.323C153.36 54.3025 153.53 54.3105 153.692 54.3466C153.854 54.3826 154.006 54.4458 154.136 54.532C154.258 54.6148 154.351 54.723 154.403 54.845C154.455 54.967 154.466 55.0983 154.433 55.2246C154.368 55.4551 154.213 55.6622 153.989 55.8143C153.792 55.9538 153.572 56.0713 153.337 56.1638C152.93 56.3267 152.504 56.4584 152.067 56.5569C151.464 56.6965 150.841 56.771 150.214 56.7784C149.996 56.7847 149.778 56.7774 149.562 56.7566H149.728C149.839 56.7566 150.002 56.7566 150.214 56.7566C150.834 56.7339 151.448 56.6501 152.044 56.507C152.474 56.4025 152.893 56.2678 153.294 56.1045C153.521 56.0135 153.731 55.898 153.919 55.7613C154.116 55.618 154.251 55.4279 154.305 55.2184C154.333 55.1075 154.323 54.9925 154.276 54.8859C154.229 54.7793 154.147 54.685 154.039 54.6131C153.921 54.538 153.785 54.4832 153.64 54.4521C153.494 54.421 153.343 54.4142 153.194 54.4322C153.038 54.4536 152.891 54.5066 152.768 54.5863C152.644 54.666 152.548 54.7697 152.487 54.8877C152.353 55.1417 152.323 55.4239 152.402 55.6926C152.497 55.9814 152.683 56.245 152.943 56.4569C153.204 56.6689 153.528 56.8217 153.885 56.9001C154.661 57.0978 155.483 57.1532 156.29 57.0623C157.615 56.9282 158.854 56.4586 159.829 55.7207C160.178 55.4775 160.437 55.1611 160.578 54.8066C160.645 54.6312 160.652 54.4447 160.601 54.266C160.549 54.0874 160.44 53.923 160.285 53.7894C160.103 53.6778 159.877 53.6249 159.65 53.641C159.423 53.6572 159.211 53.7413 159.057 53.8768C158.884 54.0044 158.752 54.1639 158.671 54.3417C158.597 54.526 158.582 54.7225 158.629 54.9126C158.733 55.309 158.988 55.669 159.358 55.9422C160.148 56.5212 161.172 56.8474 162.238 56.8594C163.304 56.8715 164.339 56.5687 165.148 56.0078C165.563 55.7273 165.915 55.3905 166.187 55.0125C166.328 54.8338 166.428 54.6362 166.484 54.429C166.546 54.2305 166.538 54.0219 166.461 53.8269C166.425 53.7373 166.356 53.6591 166.262 53.6031C166.169 53.5471 166.056 53.5163 165.939 53.5149C165.821 53.5265 165.707 53.558 165.605 53.6075C165.502 53.6569 165.414 53.7231 165.345 53.8019C165.2 53.9663 165.1 54.1535 165.05 54.3512C165 54.549 165.002 54.753 165.056 54.9501C165.156 55.3438 165.386 55.7085 165.719 56.0064C166.053 56.3043 166.48 56.5245 166.955 56.6442C167.895 56.8351 168.888 56.7419 169.749 56.3822C170.591 56.0546 171.398 55.5803 171.679 54.9033C171.815 54.5723 171.784 54.2116 171.594 53.8986C171.518 53.7482 171.387 53.6197 171.219 53.5296C171.051 53.4396 170.854 53.3921 170.653 53.3932C170.457 53.4117 170.27 53.4678 170.107 53.5568C169.943 53.6458 169.809 53.7652 169.715 53.9049C169.618 54.0393 169.555 54.1881 169.531 54.3425C169.506 54.4968 169.52 54.6536 169.572 54.8034C169.675 55.0911 169.862 55.3546 170.117 55.5718C170.372 55.789 170.688 55.9534 171.039 56.0514C171.688 56.2278 172.369 56.3143 173.053 56.3073C173.666 56.3235 174.28 56.2974 174.887 56.2293C175.86 56.1144 176.816 55.9189 177.74 55.6458C178.512 55.4243 179.083 55.2278 179.48 55.0998L179.932 54.9501L180.063 54.9095Z" fill="#970000"/>
<path d="M76.1041 53.2334L75.6679 83.573C75.5946 88.7306 76.7062 96.3221 86.1671 96.0524C94.358 95.2833 96.5312 88.5974 96.5891 83.7827C96.62 81.4986 96.6508 79.5941 96.6701 79.361C96.6701 79.361 105.633 78.7284 106.39 71.0902C106.756 67.401 106.776 59.7462 106.733 52.8206C106.699 49.2336 105.101 45.789 102.257 43.1724C99.412 40.5558 95.5296 38.9589 91.3819 38.6996L90.525 38.643C81.2687 38.5298 75.9844 45.2457 76.1041 53.2334Z" fill="#FFBE9D"/>
<path d="M96.674 79.361C96.674 79.361 91.0654 79.2911 85.3873 75.6984C85.3873 75.6984 87.7265 81.4586 96.6277 81.3255L96.674 79.361Z" fill="#EB996E"/>
<path d="M91.5981 55.9504C91.4244 56.1069 90.4015 55.3944 88.9154 55.3611C87.4293 55.3278 86.3253 55.9537 86.1709 55.7906C86.0937 55.7173 86.2752 55.4343 86.7615 55.1413C87.4117 54.7652 88.1833 54.5764 88.9656 54.6019C89.7395 54.6189 90.4861 54.8526 91.0924 55.2678C91.5402 55.5908 91.6869 55.8838 91.5981 55.9504Z" fill="#263238"/>
<path d="M91.5556 58.5975C91.5347 58.8665 91.3934 59.1181 91.1614 59.2989C90.9295 59.4797 90.6251 59.5756 90.3127 59.5664C90.0055 59.5664 89.711 59.4612 89.4938 59.2738C89.2767 59.0865 89.1547 58.8324 89.1547 58.5675C89.1746 58.2987 89.3151 58.0472 89.5464 57.8663C89.7777 57.6854 90.0817 57.5894 90.3937 57.5986C90.5461 57.5981 90.6971 57.6237 90.8381 57.6737C90.979 57.7237 91.1071 57.7972 91.2151 57.89C91.323 57.9828 91.4086 58.093 91.4671 58.2144C91.5255 58.3359 91.5556 58.466 91.5556 58.5975Z" fill="#263238"/>
<path d="M95.3346 64.8505C95.3346 64.7839 96.1915 64.7106 97.5734 64.6474C97.9247 64.6474 98.2605 64.5974 98.3454 64.3977C98.4019 64.0903 98.348 63.7755 98.191 63.4953L97.3225 61.138C96.1645 57.8083 95.3655 55.0581 95.5199 55.0181C95.6743 54.9782 96.7396 57.6585 97.8899 61.0114C98.1678 61.8372 98.4303 62.6197 98.6619 63.3721C98.7661 63.7218 98.9591 64.1213 98.743 64.5608C98.6839 64.6638 98.5982 64.7537 98.4925 64.8236C98.3867 64.8934 98.2638 64.9414 98.1331 64.9637C97.9374 64.9965 97.7376 65.0077 97.5387 64.997C96.1722 64.967 95.3346 64.9204 95.3346 64.8505Z" fill="#263238"/>
<path d="M90.9689 51.1491C90.8261 51.4354 89.6372 51.219 88.2167 51.2823C86.7963 51.3455 85.6228 51.6152 85.4607 51.3455C85.3874 51.2123 85.6074 50.9526 86.0899 50.6996C86.7263 50.3865 87.442 50.2127 88.1743 50.1935C88.9018 50.1603 89.6274 50.2839 90.2857 50.5531C90.7875 50.7595 91.0307 51.0059 90.9689 51.1491Z" fill="#263238"/>
<path d="M105.054 53.5098C104.9 53.7429 103.742 53.4865 102.352 53.4499C100.962 53.4133 99.7852 53.5664 99.6501 53.3234C99.5883 53.2101 99.8199 52.9904 100.306 52.8173C100.966 52.5914 101.674 52.4903 102.383 52.5209C103.098 52.54 103.801 52.6898 104.444 52.9604C104.9 53.1769 105.124 53.3999 105.054 53.5098Z" fill="#263238"/>
<path d="M76.3511 58.9404C76.2044 58.8738 70.3913 57.0026 70.1442 62.2401C69.8972 67.4776 76.0346 66.6152 76.0616 66.4654C76.0886 66.3155 76.3511 58.9404 76.3511 58.9404Z" fill="#FFBE9D"/>
<path d="M74.3014 64.4143C74.2744 64.3976 74.1895 64.4742 74.008 64.5375C73.76 64.6217 73.4841 64.6217 73.236 64.5375C72.603 64.3111 72.1051 63.4154 72.1205 62.4698C72.1269 62.0204 72.2496 61.5779 72.4795 61.1746C72.5444 61.0136 72.654 60.8688 72.7986 60.7528C72.9433 60.6367 73.1186 60.5529 73.3094 60.5086C73.4316 60.4845 73.5597 60.4983 73.6713 60.5477C73.7828 60.597 73.8706 60.6787 73.9193 60.7783C73.9965 60.9282 73.9501 61.0314 73.9849 61.0414C74.0196 61.0514 74.12 60.9581 74.0775 60.7417C74.0507 60.6122 73.973 60.4947 73.8575 60.4088C73.6953 60.2939 73.4877 60.2378 73.2785 60.2523C73.0246 60.2851 72.7847 60.3737 72.5819 60.5096C72.3791 60.6454 72.2202 60.824 72.1205 61.0281C71.8429 61.4726 71.6933 61.9682 71.6843 62.4731C71.6843 63.5319 72.2556 64.5408 73.1202 64.8039C73.2818 64.8496 73.4531 64.864 73.6219 64.8462C73.7907 64.8283 73.9528 64.7786 74.0968 64.7006C74.2821 64.5408 74.3207 64.4243 74.3014 64.4143Z" fill="#EB996E"/>
<path d="M93.8832 68.4798C93.9488 68.3466 92.7599 68.0403 91.9223 67.0747C91.5739 66.6533 91.291 66.1943 91.0808 65.7095C90.9032 65.3266 90.7681 65.0902 90.6948 65.1069C90.6214 65.1235 90.6446 65.3799 90.745 65.7961C90.871 66.3488 91.1344 66.8713 91.517 67.3277C91.9135 67.7839 92.4476 68.1374 93.061 68.3499C93.5512 68.5131 93.8639 68.5231 93.8832 68.4798Z" fill="#263238"/>
<path d="M105.123 56.4332C104.946 56.5864 103.923 55.8772 102.421 55.8439C100.92 55.8106 99.8314 56.4365 99.6732 56.2734C99.596 56.2001 99.7812 55.9171 100.264 55.6241C100.914 55.248 101.686 55.0592 102.468 55.0847C103.243 55.1017 103.991 55.3354 104.599 55.7506C105.062 56.0736 105.208 56.3633 105.123 56.4332Z" fill="#263238"/>
<path d="M104.88 58.9704C104.859 59.2395 104.718 59.491 104.486 59.6718C104.254 59.8526 103.95 59.9485 103.637 59.9393C103.33 59.9393 103.036 59.8341 102.819 59.6467C102.601 59.4594 102.479 59.2053 102.479 58.9404C102.5 58.6713 102.642 58.4198 102.874 58.239C103.105 58.0582 103.41 57.9623 103.722 57.9715C104.029 57.9715 104.324 58.0767 104.541 58.2641C104.758 58.4514 104.88 58.7055 104.88 58.9704Z" fill="#263238"/>
<path d="M112.913 42.6785C112.31 41.8333 111.374 41.2034 110.277 40.9039C109.18 40.6044 107.995 40.6552 106.938 41.047C107.209 39.8348 107.014 38.5792 106.381 37.4716C105.748 36.3641 104.713 35.4654 103.433 34.9125C102.154 34.3596 100.699 34.1828 99.2922 34.409C97.8851 34.6353 96.6023 35.2522 95.6395 36.1658C95.5629 35.8419 95.4064 35.5359 95.1806 35.2688C94.9548 35.0016 94.665 34.7795 94.3309 34.6175C93.6613 34.2956 92.9184 34.1035 92.1539 34.0548C90.342 33.8814 88.5091 34.121 86.8382 34.7497C85.1672 35.3783 83.7166 36.3741 82.6313 37.6375C80.8657 37.4568 79.0756 37.6365 77.4054 38.1622C75.7352 38.688 74.2316 39.545 73.016 40.6641C70.1635 43.3911 69.6231 49.7074 72.7497 55.1646L73.4831 58.5842C74.4635 58.5842 75.359 58.6441 75.965 59.1102C76.7872 59.7462 77.1539 60.9449 78.5165 60.492C79.2113 60.2589 79.8443 59.0037 80.0605 58.3944C81.602 54.3291 82.1127 50.0255 81.5582 45.7751C82.5315 44.8807 83.6952 44.1561 84.9859 43.6408L84.8816 43.724C87.3559 42.9815 90.1544 42.2523 92.5013 43.2546C94.3232 44.0304 95.3963 45.6619 96.7473 46.9604C98.0044 48.1615 99.5304 49.1306 101.233 49.8092C102.936 50.4879 104.781 50.8621 106.656 50.9094C106.787 53.0603 106.579 56.1003 106.71 58.2345L108.845 54.8117C109.01 54.5656 109.161 54.3122 109.296 54.0525L109.342 53.9726C109.728 53.7029 110.014 53.2101 110.663 52.5709C111.282 51.9426 111.69 51.1799 111.842 50.3656C111.993 49.5513 111.883 48.7167 111.523 47.9527C112.451 47.3644 113.102 46.5075 113.358 45.539C113.613 44.5704 113.455 43.5549 112.913 42.6785Z" fill="#263238"/>
<path d="M109.281 42.7585C109.281 42.7585 109.304 42.7951 109.327 42.8717C109.358 42.9807 109.377 43.0923 109.381 43.2046C109.401 43.6335 109.279 44.0584 109.03 44.4299C108.853 44.6864 108.623 44.9122 108.351 45.0959C108.027 45.3096 107.646 45.4493 107.243 45.5021C106.774 45.5657 106.295 45.5233 105.851 45.3792C105.407 45.235 105.014 44.994 104.711 44.6796L104.861 44.5698C105.007 44.7079 105.121 44.8696 105.194 45.0456C105.268 45.2216 105.3 45.4084 105.29 45.5953C105.285 45.8451 105.222 46.0917 105.106 46.3204C104.989 46.5491 104.821 46.7554 104.61 46.9271C104.211 47.2333 103.707 47.4191 103.174 47.4566C102.289 47.5122 101.408 47.3029 100.681 46.8639C100.196 46.58 99.7481 46.2518 99.3451 45.885C99.1906 45.7577 99.0486 45.6196 98.9205 45.4721C99.0904 45.5838 99.2504 45.7062 99.3992 45.8384C99.8189 46.1805 100.274 46.4892 100.758 46.7607C101.464 47.1677 102.309 47.3567 103.155 47.2967C103.646 47.2582 104.11 47.0855 104.479 46.8039C104.857 46.4888 105.076 46.0584 105.089 45.6053C105.103 45.2714 104.964 44.9461 104.703 44.6996L104.853 44.5864C105.135 44.8785 105.498 45.1035 105.909 45.24C106.32 45.3764 106.764 45.4196 107.2 45.3655C107.552 45.3197 107.888 45.2061 108.182 45.0332C108.476 44.8603 108.721 44.6325 108.899 44.3667C109.145 44.0134 109.278 43.6101 109.285 43.198C109.316 42.9183 109.265 42.7618 109.281 42.7585Z" fill="#455A64"/>
<path d="M101.684 37.0182C101.684 37.0182 101.731 37.0182 101.815 37.0681C101.933 37.1267 102.045 37.1924 102.151 37.2646C102.554 37.5328 102.871 37.886 103.07 38.2901C103.217 38.5954 103.275 38.9273 103.239 39.2565C103.203 39.5857 103.073 39.9021 102.862 40.178C102.606 40.5152 102.209 40.7538 101.754 40.8439C101.511 40.8892 101.261 40.8916 101.017 40.851C100.774 40.8103 100.542 40.7275 100.337 40.6075C100.21 40.5247 100.097 40.4273 100.001 40.3178L100.175 40.2313C100.263 40.4197 100.304 40.6219 100.296 40.8248C100.288 41.0278 100.231 41.227 100.129 41.41C99.9508 41.7509 99.6391 42.0268 99.2486 42.1891C98.9245 42.319 98.5714 42.3863 98.2141 42.3863C97.8567 42.3863 97.5037 42.319 97.1796 42.1891C96.7527 42.019 96.3725 41.7728 96.0641 41.4666C95.9439 41.3608 95.8436 41.2395 95.7668 41.107C95.7668 41.107 95.8904 41.2235 96.1181 41.4199C96.4368 41.7018 96.8156 41.9279 97.2336 42.0859C97.5395 42.199 97.8697 42.2548 98.2024 42.2497C98.5351 42.2445 98.8627 42.1784 99.1636 42.0559C99.5069 41.902 99.7792 41.6519 99.9356 41.3467C100.024 41.185 100.073 41.0094 100.08 40.8307C100.086 40.6521 100.05 40.4741 99.9742 40.3079L99.65 39.6652L100.148 40.2246C100.23 40.3188 100.327 40.4019 100.437 40.471C100.62 40.5781 100.825 40.6522 101.041 40.6889C101.258 40.7255 101.48 40.7239 101.696 40.6841C102.101 40.6083 102.456 40.4008 102.688 40.1047C102.887 39.8505 103.012 39.5583 103.052 39.2532C103.091 38.9482 103.045 38.6394 102.916 38.3534C102.736 37.9613 102.45 37.6119 102.082 37.3345C101.842 37.1147 101.673 37.0315 101.684 37.0182Z" fill="#455A64"/>
<path d="M153.235 75.209L139.203 84.4453C139.007 84.5755 138.843 84.739 138.723 84.9257C138.602 85.1125 138.527 85.3185 138.502 85.5311C138.477 85.7438 138.503 85.9586 138.578 86.1624C138.653 86.3662 138.775 86.5546 138.937 86.7161C139.241 87.0189 139.668 87.2094 140.13 87.2485C140.591 87.2875 141.053 87.172 141.419 86.9259L155.315 77.603L157.195 74.4032L153.235 75.209Z" fill="#970000"/>
<path opacity="0.5" d="M155.396 74.7661L156.388 75.765L155.315 77.6029C155.186 77.6147 155.056 77.6009 154.934 77.5626C154.812 77.5243 154.701 77.4625 154.611 77.3819C154.521 77.3013 154.454 77.2041 154.414 77.0975C154.374 76.991 154.363 76.878 154.381 76.7672C154.254 76.7823 154.125 76.77 154.005 76.7313C153.885 76.6926 153.778 76.6287 153.694 76.5455C153.609 76.4623 153.551 76.3623 153.522 76.2545C153.494 76.1467 153.497 76.0345 153.532 75.9281C153.532 75.9281 152.802 75.8715 153.215 75.2089L155.396 74.7661Z" fill="white"/>
<path d="M139.203 84.4353L141.504 86.8593L142.276 86.3432L140.072 83.866L139.203 84.4353Z" fill="#263238"/>
<path d="M138.181 107.573L137.675 107.493L147.997 91.9303L146.36 87.442C146.36 87.442 144.469 81.0524 146.043 79.4209C146.043 79.4209 149.49 75.9182 150.61 75.9681C151.729 76.018 152.621 76.2078 152.845 76.9337C152.845 76.9337 154.748 76.7406 155.249 77.2667C155.585 77.6306 155.885 78.0182 156.145 78.4254C156.145 78.4254 158.214 78.2789 158.774 79.8238C158.774 79.8238 160.731 80.6928 160.901 81.9448C161.07 83.1967 160.515 89.0369 159.893 90.5319C159.272 92.0269 156.983 95.1634 156.315 99.7949C155.647 104.426 153.277 107.433 151.173 114.199L145.464 116.147L138.181 107.573Z" fill="#FFBE9D"/>
<path d="M152.748 76.8338C152.791 76.8837 152.08 77.29 151.544 78.0391C151.007 78.7883 150.88 79.5075 150.807 79.4975C150.814 78.9434 150.998 78.4017 151.338 77.9319C151.678 77.462 152.162 77.0821 152.737 76.8338H152.748Z" fill="#EB996E"/>
<path d="M156.033 78.4254C156.072 78.4786 155.392 78.8316 154.856 79.5042C154.319 80.1767 154.149 80.836 154.084 80.836C154.018 80.836 154.084 80.1068 154.667 79.3976C154.983 78.9503 155.464 78.6078 156.033 78.4254Z" fill="#EB996E"/>
<path d="M158.666 79.7838C158.708 79.8305 158.195 80.22 157.724 80.806C157.253 81.3921 156.998 81.9414 156.932 81.9215C156.991 81.4709 157.199 81.0444 157.531 80.6928C157.798 80.3008 158.193 79.9848 158.666 79.7838Z" fill="#EB996E"/>
<path d="M148.989 80.2899C148.614 80.1848 148.224 80.1276 147.831 80.1201C147.444 80.172 147.07 80.2742 146.719 80.4231C146.7 80.4231 146.773 80.2966 146.962 80.1767C147.213 80.0264 147.507 79.9377 147.813 79.9201C148.118 79.9025 148.423 79.9567 148.695 80.0769C148.896 80.1734 148.989 80.27 148.989 80.2899Z" fill="#EB996E"/>
<path d="M153.088 82.5108C152.854 82.184 152.567 81.8879 152.235 81.6318C151.652 81.2389 151.019 81.2156 151.027 81.1557C151.034 81.0957 151.185 81.0991 151.444 81.1257C151.783 81.1707 152.104 81.2885 152.377 81.4682C152.65 81.648 152.867 81.8839 153.007 82.1545C153.107 82.3643 153.115 82.5041 153.088 82.5108Z" fill="#EB996E"/>
<path d="M157.176 83.2633C157.125 83.3066 156.674 82.8671 155.906 82.6939C155.435 82.6159 154.954 82.5957 154.478 82.634C154.478 82.6107 154.613 82.5308 154.887 82.4742C155.244 82.4092 155.615 82.4182 155.968 82.5003C156.321 82.5825 156.646 82.7356 156.917 82.947C157.118 83.1135 157.195 83.25 157.176 83.2633Z" fill="#EB996E"/>
<path d="M53.0328 100.241C53.0328 100.241 46.6985 131.233 47.0112 134.133C47.3239 137.033 48.9991 141.642 52.8012 142.431C55.2161 142.896 57.7203 142.896 60.1352 142.431L55.5765 104.363L53.0328 100.241Z" fill="#970000"/>
<path d="M71.5569 84.2522C71.5569 84.2522 63.9836 88.9137 62.2929 90.2622C55.2909 95.9725 53.8279 98.3099 53.0289 100.251C52.2299 102.192 57.8925 147.042 57.8925 147.042L59.0505 154.883L112.191 155V114.948L104.213 86.7561L99.2987 85.5508L98.3067 82.1912C98.3067 82.1912 92.204 78.3022 82.1372 78.1956C79.0492 78.159 74.6565 79.2112 72.2092 80.8593L71.5569 84.2522Z" fill="#970000"/>
<path d="M71.53 158.606C71.53 158.606 63.9873 158.302 62.3035 158.214C55.3298 157.843 53.8727 157.691 53.0769 157.564C52.2811 157.438 57.9209 154.518 57.9209 154.518L59.0742 154.008L112 154V156.607L104.054 158.443L99.1597 158.521L98.1717 158.74C98.1717 158.74 92.0937 158.993 82.0675 159C78.992 159.002 74.6171 158.934 72.1797 158.827L71.53 158.606Z" fill="#970000"/>
<path d="M98.2527 86.8726C98.2527 86.8726 103.715 86.6628 104.197 86.7561C105.88 87.089 110.5 90.7516 115.777 95.2533C120.795 99.5485 130.684 108.489 130.684 108.489C130.684 108.489 132.46 106.944 134.486 109.008L142.288 99.2189C142.288 99.2189 154.007 100.457 155.828 108.086C155.828 108.086 152.239 113.999 149.297 118.224C149.297 118.224 138.416 133.804 129.82 130.98C121.969 128.396 112.122 121.511 110.736 120.039L99.1559 112.924C99.1559 112.924 91.2352 99.8981 94.7362 93.3854L98.2527 86.8726Z" fill="#970000"/>
<path d="M99.2834 85.5508C99.1888 85.5434 99.0956 85.5266 99.0055 85.5008L98.2335 85.321C97.5502 85.1712 96.5544 84.9647 95.3114 84.7616C92.0693 84.2446 88.7939 83.8965 85.5032 83.7195C82.2143 83.518 78.9127 83.5269 75.6254 83.7461C74.3632 83.8393 73.3519 83.9758 72.6571 84.0791L71.8581 84.2156C71.7665 84.2384 71.6716 84.2496 71.5763 84.2489C71.6631 84.2163 71.7537 84.1917 71.8465 84.1756L72.6378 84.0025C73.6189 83.8198 74.6112 83.6853 75.61 83.5996C78.9047 83.3391 82.2186 83.3113 85.5186 83.5163C88.8159 83.6919 92.0955 84.0612 95.3346 84.6218C96.5775 84.8449 97.5695 85.0713 98.2528 85.2478L99.0248 85.4642C99.1145 85.4843 99.2013 85.5134 99.2834 85.5508Z" fill="#263238"/>
<path d="M78.586 83.22C78.5204 83.22 78.3467 82.4609 78.2 81.5053C78.0534 80.5497 77.9723 79.7739 78.0379 79.7639C78.2404 80.3212 78.3699 80.8964 78.4239 81.4786C78.5783 82.4476 78.6517 83.2134 78.586 83.22Z" fill="#263238"/>
<path d="M80.5701 83.0735C80.0424 81.9739 79.9448 80.7558 80.2921 79.604C80.3616 79.604 80.2574 80.3898 80.3346 81.3454C80.4118 82.301 80.6357 83.0569 80.5701 83.0735Z" fill="#263238"/>
<g opacity="0.3">
<path opacity="0.3" d="M71.7306 84.2156C80.045 85.4842 88.4753 84.2156 97.2761 85.1246C88.7841 83.6063 79.9292 82.8871 71.7306 84.2156Z" fill="black"/>
</g>
<g opacity="0.3">
<path opacity="0.3" d="M57.1205 142.491C52.4422 133.038 52.998 122.356 53.6465 112.098L57.1205 142.491Z" fill="black"/>
</g>
<path d="M53.0328 106.997C53.0455 107.036 53.0532 107.076 53.056 107.117C53.056 107.207 53.0868 107.323 53.1061 107.466C53.1447 107.799 53.2026 108.242 53.2721 108.821C53.4072 110.01 53.6041 111.708 53.8434 113.816C54.3182 118.018 54.9667 123.828 55.7425 130.238C56.5184 136.647 57.2865 142.444 57.9118 146.633C58.2168 148.727 58.4793 150.422 58.6838 151.59C58.7726 152.167 58.8421 152.619 58.8884 152.939C58.9116 153.085 58.927 153.202 58.9386 153.292C58.9428 153.332 58.9428 153.372 58.9386 153.412C58.9229 153.374 58.9126 153.335 58.9077 153.295L58.8344 152.946C58.7765 152.613 58.6916 152.177 58.5873 151.614C58.375 150.445 58.0855 148.754 57.7574 146.663C57.0974 142.477 56.2945 136.674 55.5186 130.268C54.7428 123.861 54.1213 118.045 53.689 113.839C53.4806 111.745 53.303 110.043 53.1911 108.845C53.1409 108.265 53.0984 107.813 53.0714 107.49C53.0714 107.343 53.0714 107.227 53.0444 107.133C53.034 107.088 53.0301 107.043 53.0328 106.997Z" fill="#263238"/>
<path d="M89.008 101.926C88.8956 101.941 88.7819 101.946 88.6683 101.942H87.684C86.8348 101.942 85.5996 101.942 84.0788 101.979C81.0332 102.039 76.8297 102.232 72.217 102.702C67.6043 103.171 63.4625 103.85 60.4864 104.423C58.9965 104.699 57.7844 104.939 56.97 105.116L56.0127 105.309C55.9027 105.335 55.7904 105.352 55.6769 105.362C55.7815 105.323 55.89 105.291 56.0011 105.269L56.9468 105.039C57.769 104.839 58.9656 104.58 60.4517 104.283C68.2026 102.746 76.1224 101.933 84.0749 101.856C85.6189 101.856 86.8348 101.856 87.6879 101.883L88.6683 101.916C88.7817 101.911 88.8953 101.915 89.008 101.926Z" fill="#263238"/>
<path d="M68.6041 111.961C68.5384 111.961 68.662 107.669 68.8743 102.379C69.0866 97.0879 69.3182 92.796 69.3838 92.7993C69.4494 92.8027 69.3259 97.0912 69.1097 102.385C68.8936 107.679 68.6658 111.965 68.6041 111.961Z" fill="#263238"/>
<path d="M95.7592 111.432C95.687 111.346 95.6212 111.256 95.5623 111.162C95.4259 110.965 95.2484 110.702 95.0296 110.373L93.0688 107.466C92.0766 106.035 91.2529 104.521 90.6099 102.948C90.2535 102.008 90.0078 101.04 89.8765 100.058C89.7645 99.0013 89.7645 97.938 89.8765 96.8814C90.0395 94.8338 90.6333 92.8288 91.629 90.9647C92.0864 90.1576 92.6695 89.4082 93.3621 88.7372C93.9713 88.1588 94.6701 87.6557 95.4388 87.2422C96.5458 86.6282 97.8128 86.2621 99.1251 86.1767C99.6026 86.1423 100.083 86.1659 100.553 86.2466C100.08 86.2248 99.606 86.2248 99.1328 86.2466C97.8452 86.3586 96.6082 86.7379 95.5276 87.3521C94.7782 87.7667 94.0977 88.2674 93.5049 88.8404C92.8327 89.5041 92.2678 90.2433 91.8258 91.0379C90.8511 92.8845 90.2693 94.8672 90.1081 96.8914C90 97.9337 90 98.9823 90.1081 100.025C90.2359 100.994 90.4738 101.949 90.8184 102.878C91.4492 104.443 92.2519 105.953 93.2154 107.386L95.1107 110.323L95.6086 111.132C95.6692 111.228 95.7196 111.328 95.7592 111.432Z" fill="#263238"/>
<g opacity="0.3">
<path opacity="0.3" d="M56.5377 105.325C59.8958 105.175 63.2349 104.796 66.5235 104.19C66.1177 105.443 65.9291 106.741 65.9638 108.042C67.0066 107.029 67.7659 105.823 68.1833 104.516C68.3028 105.227 68.5877 105.91 69.0208 106.523C69.454 107.136 70.0265 107.668 70.7039 108.086C71.0347 106.797 71.1104 105.47 70.9277 104.16C75.8968 103.645 80.8325 102.94 85.7347 102.046C75.8125 101.838 65.9094 102.901 56.3485 105.199" fill="black"/>
</g>
<path d="M120.424 126.688C120.343 126.658 120.267 126.619 120.197 126.572L119.56 126.205C119.012 125.872 118.224 125.416 117.244 124.827C115.314 123.655 112.647 122.007 109.748 120.142C106.849 118.278 104.259 116.546 102.414 115.278C101.487 114.645 100.738 114.126 100.225 113.763L99.6384 113.343C99.5664 113.297 99.5004 113.245 99.4415 113.187C99.5204 113.224 99.5953 113.268 99.6654 113.316L100.275 113.709L102.503 115.181C104.382 116.426 106.984 118.138 109.883 120.002C112.782 121.867 115.406 123.528 117.336 124.734L119.606 126.159L120.22 126.548C120.292 126.59 120.361 126.637 120.424 126.688Z" fill="#263238"/>
<path d="M133.39 116.473C133.356 116.473 133.39 115.967 133.309 115.164C133.134 113.061 132.4 111.02 131.163 109.201C130.688 108.505 130.341 108.102 130.368 108.082C130.472 108.16 130.565 108.25 130.642 108.349C130.871 108.602 131.085 108.865 131.283 109.138C132.606 110.945 133.354 113.022 133.452 115.158C133.473 115.478 133.473 115.8 133.452 116.12C133.45 116.24 133.429 116.358 133.39 116.473Z" fill="#263238"/>
<path d="M135.784 115.717C135.795 115.374 135.827 115.032 135.88 114.692C135.952 113.871 135.934 113.046 135.826 112.228C135.716 111.409 135.516 110.602 135.228 109.817C135.008 109.211 134.842 108.848 134.865 108.835C134.931 108.908 134.985 108.99 135.023 109.078C135.151 109.306 135.264 109.539 135.363 109.777C136.026 111.353 136.251 113.041 136.019 114.705C135.973 115.021 135.922 115.278 135.876 115.451C135.86 115.543 135.829 115.632 135.784 115.717Z" fill="#263238"/>
<path d="M153.91 111.432C153.91 111.432 153.91 111.369 153.821 111.305C153.755 111.269 153.7 111.219 153.663 111.159C153.621 111.089 153.59 111.006 153.536 110.926C153.431 110.756 153.173 110.629 152.988 110.383C152.787 110.11 152.631 109.814 152.524 109.504C152.261 108.713 151.808 107.978 151.196 107.346C150.829 106.979 150.431 106.636 150.004 106.321C149.551 105.976 149.069 105.658 148.564 105.372C148.075 105.064 147.558 104.789 147.02 104.55L145.476 103.904C144.99 103.704 144.534 103.497 144.09 103.334L142.855 102.878C142.671 102.818 142.492 102.747 142.318 102.668C142.153 102.585 142.017 102.492 141.878 102.425L141.492 102.242C141.369 102.186 141.265 102.109 141.172 102.059C140.983 101.956 140.817 101.899 140.709 101.849C140.601 101.799 140.547 101.773 140.551 101.766C140.611 101.778 140.669 101.796 140.724 101.819C140.893 101.87 141.057 101.931 141.215 102.002C141.449 102.13 141.694 102.241 141.948 102.335C142.098 102.399 142.241 102.492 142.396 102.565C142.55 102.638 142.743 102.692 142.928 102.762L144.171 103.194C144.615 103.351 145.078 103.557 145.572 103.754L147.116 104.39C147.662 104.631 148.185 104.91 148.68 105.222C149.194 105.511 149.682 105.834 150.139 106.188C150.572 106.509 150.974 106.86 151.343 107.237C151.963 107.887 152.413 108.644 152.663 109.457C152.76 109.76 152.901 110.051 153.084 110.323C153.246 110.556 153.497 110.693 153.605 110.886C153.663 110.979 153.686 111.066 153.721 111.129C153.752 111.185 153.797 111.235 153.852 111.275C153.949 111.362 153.914 111.439 153.91 111.432Z" fill="#263238"/>
<path d="M104.39 154.228C104.336 154.228 104.29 145.804 104.29 135.412C104.29 125.02 104.336 116.596 104.39 116.596C104.444 116.596 104.491 125.02 104.491 135.412C104.491 145.804 104.448 154.228 104.39 154.228Z" fill="#263238"/>
</svg>
