<svg width="375" height="273" viewBox="0 0 375 273" fill="none" xmlns="http://www.w3.org/2000/svg">
<path d="M341.28 71.93H275.28V274.57H341.28V71.93Z" fill="#455A64"/>
<path d="M341.03 51.54H291.65V71.92H341.03V51.54Z" fill="#37474F"/>
<path d="M299.98 54.69H295.76V68.78H299.98V54.69Z" fill="#455A64"/>
<path d="M307.36 54.69H303.14V68.78H307.36V54.69Z" fill="#455A64"/>
<path d="M314.75 54.69H310.53V68.78H314.75V54.69Z" fill="#455A64"/>
<path d="M322.14 54.69H317.92V68.78H322.14V54.69Z" fill="#455A64"/>
<path d="M329.53 54.69H325.31V68.78H329.53V54.69Z" fill="#455A64"/>
<path d="M336.92 54.69H332.7V68.78H336.92V54.69Z" fill="#455A64"/>
<path d="M363.49 51.54H341.03V71.92H363.49V51.54Z" fill="#455A64"/>
<path d="M347.77 54.69H344.18V68.78H347.77V54.69Z" fill="#37474F"/>
<path d="M354.05 54.69H350.46V68.78H354.05V54.69Z" fill="#37474F"/>
<path d="M360.33 54.69H356.74V68.78H360.33V54.69Z" fill="#37474F"/>
<path d="M374.62 71.93H341.03V274.57H374.62V71.93Z" fill="#37474F"/>
<path d="M302.52 41.21H301.01V51.54H302.52V41.21Z" fill="#263238"/>
<path d="M331.66 41.21H330.15V51.54H331.66V41.21Z" fill="#263238"/>
<path d="M338.36 23.15H294.32V41.21H338.36V23.15Z" fill="#0086D2"/>
<path d="M300.97 85.88H288.79V104.53H300.97V85.88Z" fill="#263238"/>
<path d="M325.76 85.88H313.58V104.53H325.76V85.88Z" fill="#263238"/>
<path d="M300.97 115.28H288.79V133.93H300.97V115.28Z" fill="#263238"/>
<path d="M325.76 115.28H313.58V133.93H325.76V115.28Z" fill="#263238"/>
<path d="M300.97 144.67H288.79V163.32H300.97V144.67Z" fill="#263238"/>
<path d="M325.76 144.67H313.58V163.32H325.76V144.67Z" fill="#263238"/>
<path d="M300.97 174.07H288.79V192.72H300.97V174.07Z" fill="#263238"/>
<path d="M325.76 174.07H313.58V192.72H325.76V174.07Z" fill="#263238"/>
<path d="M300.97 203.46H288.79V222.11H300.97V203.46Z" fill="#263238"/>
<path d="M325.76 203.46H313.58V222.11H325.76V203.46Z" fill="#263238"/>
<path d="M300.97 232.85H288.79V251.5H300.97V232.85Z" fill="#263238"/>
<path d="M325.76 232.85H313.58V251.5H325.76V232.85Z" fill="#263238"/>
<path d="M354.2 85.88H347.2V104.53H354.2V85.88Z" fill="#263238"/>
<path d="M368.45 85.88H361.45V104.53H368.45V85.88Z" fill="#263238"/>
<path d="M354.2 115.28H347.2V133.93H354.2V115.28Z" fill="#263238"/>
<path d="M368.45 115.28H361.45V133.93H368.45V115.28Z" fill="#263238"/>
<path d="M354.2 144.67H347.2V163.32H354.2V144.67Z" fill="#263238"/>
<path d="M368.45 144.67H361.45V163.32H368.45V144.67Z" fill="#263238"/>
<path d="M354.2 174.07H347.2V192.72H354.2V174.07Z" fill="#263238"/>
<path d="M368.45 174.07H361.45V192.72H368.45V174.07Z" fill="#263238"/>
<path d="M354.2 203.46H347.2V222.11H354.2V203.46Z" fill="#263238"/>
<path d="M368.45 203.46H361.45V222.11H368.45V203.46Z" fill="#263238"/>
<path d="M354.2 232.85H347.2V251.5H354.2V232.85Z" fill="#263238"/>
<path d="M368.45 232.85H361.45V251.5H368.45V232.85Z" fill="#263238"/>
<path d="M166.39 14.6H131.09V274.56H166.39V14.6Z" fill="#37474F"/>
<path d="M166.39 29.17H131.09V31.9H166.39V29.17Z" fill="#455A64"/>
<path d="M141.23 39.93H134.73V55.13H141.23V39.93Z" fill="#263238"/>
<path d="M141.23 59.11H134.73V74.31H141.23V59.11Z" fill="#263238"/>
<path d="M141.23 78.28H134.73V93.48H141.23V78.28Z" fill="#263238"/>
<path d="M141.23 97.45H134.73V112.65H141.23V97.45Z" fill="#263238"/>
<path d="M141.23 116.63H134.73V131.83H141.23V116.63Z" fill="#263238"/>
<path d="M141.23 135.81H134.73V151.01H141.23V135.81Z" fill="#263238"/>
<path d="M141.23 154.97H134.73V170.17H141.23V154.97Z" fill="#263238"/>
<path d="M141.23 174.15H134.73V189.35H141.23V174.15Z" fill="#263238"/>
<path d="M141.23 193.33H134.73V208.53H141.23V193.33Z" fill="#263238"/>
<path d="M141.23 212.5H134.73V227.7H141.23V212.5Z" fill="#263238"/>
<path d="M141.23 231.67H134.73V246.87H141.23V231.67Z" fill="#263238"/>
<path d="M141.23 250.85H134.73V266.05H141.23V250.85Z" fill="#263238"/>
<path d="M141.23 39.93H134.73V55.13H141.23V39.93Z" fill="#263238"/>
<path d="M141.23 59.11H134.73V74.31H141.23V59.11Z" fill="#263238"/>
<path d="M141.23 78.28H134.73V93.48H141.23V78.28Z" fill="#263238"/>
<path d="M141.23 97.45H134.73V112.65H141.23V97.45Z" fill="#263238"/>
<path d="M141.23 116.63H134.73V131.83H141.23V116.63Z" fill="#263238"/>
<path d="M141.23 135.81H134.73V151.01H141.23V135.81Z" fill="#263238"/>
<path d="M141.23 154.97H134.73V170.17H141.23V154.97Z" fill="#263238"/>
<path d="M141.23 174.15H134.73V189.35H141.23V174.15Z" fill="#263238"/>
<path d="M141.23 193.33H134.73V208.53H141.23V193.33Z" fill="#263238"/>
<path d="M141.23 212.5H134.73V227.7H141.23V212.5Z" fill="#263238"/>
<path d="M141.23 231.67H134.73V246.87H141.23V231.67Z" fill="#263238"/>
<path d="M141.23 250.85H134.73V266.05H141.23V250.85Z" fill="#263238"/>
<path d="M151.99 39.93H145.49V55.13H151.99V39.93Z" fill="#263238"/>
<path d="M151.99 59.11H145.49V74.31H151.99V59.11Z" fill="#263238"/>
<path d="M151.99 78.28H145.49V93.48H151.99V78.28Z" fill="#263238"/>
<path d="M151.99 97.45H145.49V112.65H151.99V97.45Z" fill="#263238"/>
<path d="M151.99 116.63H145.49V131.83H151.99V116.63Z" fill="#263238"/>
<path d="M151.99 135.81H145.49V151.01H151.99V135.81Z" fill="#263238"/>
<path d="M151.99 154.97H145.49V170.17H151.99V154.97Z" fill="#263238"/>
<path d="M151.99 174.15H145.49V189.35H151.99V174.15Z" fill="#263238"/>
<path d="M151.99 193.33H145.49V208.53H151.99V193.33Z" fill="#263238"/>
<path d="M151.99 212.5H145.49V227.7H151.99V212.5Z" fill="#263238"/>
<path d="M151.99 231.67H145.49V246.87H151.99V231.67Z" fill="#263238"/>
<path d="M151.99 250.85H145.49V266.05H151.99V250.85Z" fill="#263238"/>
<path d="M151.99 39.93H145.49V55.13H151.99V39.93Z" fill="#263238"/>
<path d="M151.99 59.11H145.49V74.31H151.99V59.11Z" fill="#263238"/>
<path d="M151.99 78.28H145.49V93.48H151.99V78.28Z" fill="#263238"/>
<path d="M151.99 97.45H145.49V112.65H151.99V97.45Z" fill="#263238"/>
<path d="M151.99 116.63H145.49V131.83H151.99V116.63Z" fill="#263238"/>
<path d="M151.99 135.81H145.49V151.01H151.99V135.81Z" fill="#263238"/>
<path d="M151.99 154.97H145.49V170.17H151.99V154.97Z" fill="#263238"/>
<path d="M151.99 174.15H145.49V189.35H151.99V174.15Z" fill="#263238"/>
<path d="M151.99 193.33H145.49V208.53H151.99V193.33Z" fill="#263238"/>
<path d="M151.99 212.5H145.49V227.7H151.99V212.5Z" fill="#263238"/>
<path d="M151.99 231.67H145.49V246.87H151.99V231.67Z" fill="#263238"/>
<path d="M151.99 250.85H145.49V266.05H151.99V250.85Z" fill="#263238"/>
<path d="M162.75 39.93H156.25V55.13H162.75V39.93Z" fill="#263238"/>
<path d="M162.75 59.11H156.25V74.31H162.75V59.11Z" fill="#263238"/>
<path d="M162.75 78.28H156.25V93.48H162.75V78.28Z" fill="#263238"/>
<path d="M162.75 97.45H156.25V112.65H162.75V97.45Z" fill="#263238"/>
<path d="M162.75 116.63H156.25V131.83H162.75V116.63Z" fill="#263238"/>
<path d="M162.75 135.81H156.25V151.01H162.75V135.81Z" fill="#263238"/>
<path d="M162.75 154.97H156.25V170.17H162.75V154.97Z" fill="#263238"/>
<path d="M162.75 174.15H156.25V189.35H162.75V174.15Z" fill="#263238"/>
<path d="M162.75 193.33H156.25V208.53H162.75V193.33Z" fill="#263238"/>
<path d="M162.75 212.5H156.25V227.7H162.75V212.5Z" fill="#263238"/>
<path d="M162.75 231.67H156.25V246.87H162.75V231.67Z" fill="#263238"/>
<path d="M162.75 250.85H156.25V266.05H162.75V250.85Z" fill="#263238"/>
<path d="M162.75 39.93H156.25V55.13H162.75V39.93Z" fill="#263238"/>
<path d="M162.75 59.11H156.25V74.31H162.75V59.11Z" fill="#263238"/>
<path d="M162.75 78.28H156.25V93.48H162.75V78.28Z" fill="#263238"/>
<path d="M162.75 97.45H156.25V112.65H162.75V97.45Z" fill="#263238"/>
<path d="M162.75 116.63H156.25V131.83H162.75V116.63Z" fill="#263238"/>
<path d="M162.75 135.81H156.25V151.01H162.75V135.81Z" fill="#263238"/>
<path d="M162.75 154.97H156.25V170.17H162.75V154.97Z" fill="#263238"/>
<path d="M162.75 174.15H156.25V189.35H162.75V174.15Z" fill="#263238"/>
<path d="M162.75 193.33H156.25V208.53H162.75V193.33Z" fill="#263238"/>
<path d="M162.75 212.5H156.25V227.7H162.75V212.5Z" fill="#263238"/>
<path d="M162.75 231.67H156.25V246.87H162.75V231.67Z" fill="#263238"/>
<path d="M162.75 250.85H156.25V266.05H162.75V250.85Z" fill="#263238"/>
<path d="M131.09 14.6H70.74V274.56H131.09V14.6Z" fill="#455A64"/>
<path d="M131.09 29.17H70.74V31.9H131.09V29.17Z" fill="#37474F"/>
<path d="M131.09 0H92.25V14.6H131.09V0Z" fill="#37474F"/>
<path d="M131.09 14.6L149.34 14.6V0L131.09 0V14.6Z" fill="#263238"/>
<path d="M87.76 39.93H77.21V55.13H87.76V39.93Z" fill="#263238"/>
<path d="M87.76 59.11H77.21V74.31H87.76V59.11Z" fill="#263238"/>
<path d="M87.76 78.28H77.21V93.48H87.76V78.28Z" fill="#263238"/>
<path d="M87.76 97.45H77.21V112.65H87.76V97.45Z" fill="#263238"/>
<path d="M87.76 116.63H77.21V131.83H87.76V116.63Z" fill="#263238"/>
<path d="M87.76 135.81H77.21V151.01H87.76V135.81Z" fill="#263238"/>
<path d="M87.76 154.97H77.21V170.17H87.76V154.97Z" fill="#263238"/>
<path d="M87.76 174.15H77.21V189.35H87.76V174.15Z" fill="#263238"/>
<path d="M87.76 193.33H77.21V208.53H87.76V193.33Z" fill="#263238"/>
<path d="M87.76 212.5H77.21V227.7H87.76V212.5Z" fill="#263238"/>
<path d="M87.76 231.67H77.21V246.87H87.76V231.67Z" fill="#263238"/>
<path d="M87.76 250.85H77.21V266.05H87.76V250.85Z" fill="#263238"/>
<path d="M87.76 39.93H77.21V55.13H87.76V39.93Z" fill="#263238"/>
<path d="M87.76 59.11H77.21V74.31H87.76V59.11Z" fill="#263238"/>
<path d="M87.76 78.28H77.21V93.48H87.76V78.28Z" fill="#263238"/>
<path d="M87.76 97.45H77.21V112.65H87.76V97.45Z" fill="#263238"/>
<path d="M87.76 116.63H77.21V131.83H87.76V116.63Z" fill="#263238"/>
<path d="M87.76 135.81H77.21V151.01H87.76V135.81Z" fill="#263238"/>
<path d="M87.76 154.97H77.21V170.17H87.76V154.97Z" fill="#263238"/>
<path d="M87.76 174.15H77.21V189.35H87.76V174.15Z" fill="#263238"/>
<path d="M87.76 193.33H77.21V208.53H87.76V193.33Z" fill="#263238"/>
<path d="M87.76 212.5H77.21V227.7H87.76V212.5Z" fill="#263238"/>
<path d="M87.76 231.67H77.21V246.87H87.76V231.67Z" fill="#263238"/>
<path d="M87.76 250.85H77.21V266.05H87.76V250.85Z" fill="#263238"/>
<path d="M105.23 39.93H94.68V55.13H105.23V39.93Z" fill="#263238"/>
<path d="M105.23 59.11H94.68V74.31H105.23V59.11Z" fill="#263238"/>
<path d="M105.23 78.28H94.68V93.48H105.23V78.28Z" fill="#263238"/>
<path d="M105.23 97.45H94.68V112.65H105.23V97.45Z" fill="#263238"/>
<path d="M105.23 116.63H94.68V131.83H105.23V116.63Z" fill="#263238"/>
<path d="M105.23 135.81H94.68V151.01H105.23V135.81Z" fill="#263238"/>
<path d="M105.23 154.97H94.68V170.17H105.23V154.97Z" fill="#263238"/>
<path d="M105.23 174.15H94.68V189.35H105.23V174.15Z" fill="#263238"/>
<path d="M105.23 193.33H94.68V208.53H105.23V193.33Z" fill="#263238"/>
<path d="M105.23 212.5H94.68V227.7H105.23V212.5Z" fill="#263238"/>
<path d="M105.23 231.67H94.68V246.87H105.23V231.67Z" fill="#263238"/>
<path d="M105.23 250.85H94.68V266.05H105.23V250.85Z" fill="#263238"/>
<path d="M105.23 39.93H94.68V55.13H105.23V39.93Z" fill="#263238"/>
<path d="M105.23 59.11H94.68V74.31H105.23V59.11Z" fill="#263238"/>
<path d="M105.23 78.28H94.68V93.48H105.23V78.28Z" fill="#263238"/>
<path d="M105.23 97.45H94.68V112.65H105.23V97.45Z" fill="#263238"/>
<path d="M105.23 116.63H94.68V131.83H105.23V116.63Z" fill="#263238"/>
<path d="M105.23 135.81H94.68V151.01H105.23V135.81Z" fill="#263238"/>
<path d="M105.23 154.97H94.68V170.17H105.23V154.97Z" fill="#263238"/>
<path d="M105.23 174.15H94.68V189.35H105.23V174.15Z" fill="#263238"/>
<path d="M105.23 193.33H94.68V208.53H105.23V193.33Z" fill="#263238"/>
<path d="M105.23 212.5H94.68V227.7H105.23V212.5Z" fill="#263238"/>
<path d="M105.23 231.67H94.68V246.87H105.23V231.67Z" fill="#263238"/>
<path d="M105.23 250.85H94.68V266.05H105.23V250.85Z" fill="#263238"/>
<path d="M122.71 39.93H112.16V55.13H122.71V39.93Z" fill="#263238"/>
<path d="M122.71 59.11H112.16V74.31H122.71V59.11Z" fill="#263238"/>
<path d="M122.71 78.28H112.16V93.48H122.71V78.28Z" fill="#263238"/>
<path d="M122.71 97.45H112.16V112.65H122.71V97.45Z" fill="#263238"/>
<path d="M122.71 116.63H112.16V131.83H122.71V116.63Z" fill="#263238"/>
<path d="M122.71 135.81H112.16V151.01H122.71V135.81Z" fill="#263238"/>
<path d="M122.71 154.97H112.16V170.17H122.71V154.97Z" fill="#263238"/>
<path d="M122.71 174.15H112.16V189.35H122.71V174.15Z" fill="#263238"/>
<path d="M122.71 193.33H112.16V208.53H122.71V193.33Z" fill="#263238"/>
<path d="M122.71 212.5H112.16V227.7H122.71V212.5Z" fill="#263238"/>
<path d="M122.71 231.67H112.16V246.87H122.71V231.67Z" fill="#263238"/>
<path d="M122.71 250.85H112.16V266.05H122.71V250.85Z" fill="#263238"/>
<path d="M122.71 39.93H112.16V55.13H122.71V39.93Z" fill="#263238"/>
<path d="M122.71 59.11H112.16V74.31H122.71V59.11Z" fill="#263238"/>
<path d="M122.71 78.28H112.16V93.48H122.71V78.28Z" fill="#263238"/>
<path d="M122.71 97.45H112.16V112.65H122.71V97.45Z" fill="#263238"/>
<path d="M122.71 116.63H112.16V131.83H122.71V116.63Z" fill="#263238"/>
<path d="M122.71 135.81H112.16V151.01H122.71V135.81Z" fill="#263238"/>
<path d="M122.71 154.97H112.16V170.17H122.71V154.97Z" fill="#263238"/>
<path d="M122.71 174.15H112.16V189.35H122.71V174.15Z" fill="#263238"/>
<path d="M122.71 193.33H112.16V208.53H122.71V193.33Z" fill="#263238"/>
<path d="M122.71 212.5H112.16V227.7H122.71V212.5Z" fill="#263238"/>
<path d="M122.71 231.67H112.16V246.87H122.71V231.67Z" fill="#263238"/>
<path d="M122.71 250.85H112.16V266.05H122.71V250.85Z" fill="#263238"/>
<path d="M47.84 274.56H0V124.49L47.84 93.48V274.56Z" fill="#0086D2"/>
<path d="M41.69 274.56H5.38V128.69L41.69 105.16V274.56Z" fill="#0086D2"/>
<path opacity="0.3" d="M41.69 274.56H5.38V128.69L41.69 105.16V274.56Z" fill="black"/>
<g opacity="0.3">
<path opacity="0.3" d="M41.69 131.21H9.54001V132.37H41.69V131.21Z" fill="black"/>
<path opacity="0.3" d="M41.69 140.69H9.54001V141.85H41.69V140.69Z" fill="black"/>
<path opacity="0.3" d="M41.69 150.17H9.54001V151.33H41.69V150.17Z" fill="black"/>
<path opacity="0.3" d="M41.69 159.65H9.54001V160.81H41.69V159.65Z" fill="black"/>
<path opacity="0.3" d="M41.69 169.13H9.54001V170.29H41.69V169.13Z" fill="black"/>
<path opacity="0.3" d="M41.69 178.61H9.54001V179.77H41.69V178.61Z" fill="black"/>
<path opacity="0.3" d="M41.69 188.09H9.54001V189.25H41.69V188.09Z" fill="black"/>
<path opacity="0.3" d="M41.69 197.57H9.54001V198.73H41.69V197.57Z" fill="black"/>
<path opacity="0.3" d="M41.69 207.05H9.54001V208.21H41.69V207.05Z" fill="black"/>
<path opacity="0.3" d="M41.69 216.53H9.54001V217.69H41.69V216.53Z" fill="black"/>
<path opacity="0.3" d="M41.69 226.01H9.54001V227.17H41.69V226.01Z" fill="black"/>
<path opacity="0.3" d="M41.69 235.49H9.54001V236.65H41.69V235.49Z" fill="black"/>
<path opacity="0.3" d="M41.69 244.97H9.54001V246.13H41.69V244.97Z" fill="black"/>
<path opacity="0.3" d="M41.69 254.45H9.54001V255.61H41.69V254.45Z" fill="black"/>
<path opacity="0.3" d="M41.69 263.93H9.54001V265.09H41.69V263.93Z" fill="black"/>
<path opacity="0.3" d="M25.04 120.2L25.04 274.57H26.2L26.2 120.2H25.04Z" fill="black"/>
</g>
<path d="M41.69 105.16V110.38L9.54 131.21V274.56H5.39V128.68L41.69 105.16Z" fill="#0086D2"/>
<path opacity="0.2" d="M41.69 105.16V110.38L9.54 131.21V274.56H5.39V128.68L41.69 105.16Z" fill="black"/>
<path d="M89.99 93.48H47.84V274.56H89.99V93.48Z" fill="#0086D2"/>
<path opacity="0.2" d="M89.99 93.48H47.84V274.56H89.99V93.48Z" fill="black"/>
<g opacity="0.2">
<path opacity="0.2" d="M85.9 105.16H51.93V109.26H85.9V105.16Z" fill="black"/>
<path opacity="0.2" d="M85.9 114.44H51.93V118.54H85.9V114.44Z" fill="black"/>
<path opacity="0.2" d="M85.9 123.73H51.93V127.83H85.9V123.73Z" fill="black"/>
<path opacity="0.2" d="M85.9 133.01H51.93V137.11H85.9V133.01Z" fill="black"/>
<path opacity="0.2" d="M85.9 142.3H51.93V146.4H85.9V142.3Z" fill="black"/>
<path opacity="0.2" d="M85.9 151.59H51.93V155.69H85.9V151.59Z" fill="black"/>
<path opacity="0.2" d="M85.9 160.87H51.93V164.97H85.9V160.87Z" fill="black"/>
<path opacity="0.2" d="M85.9 170.16H51.93V174.26H85.9V170.16Z" fill="black"/>
<path opacity="0.2" d="M85.9 179.44H51.93V183.54H85.9V179.44Z" fill="black"/>
<path opacity="0.2" d="M85.9 188.73H51.93V192.83H85.9V188.73Z" fill="black"/>
<path opacity="0.2" d="M85.9 198.02H51.93V202.12H85.9V198.02Z" fill="black"/>
<path opacity="0.2" d="M85.9 207.3H51.93V211.4H85.9V207.3Z" fill="black"/>
<path opacity="0.2" d="M85.9 216.59H51.93V220.69H85.9V216.59Z" fill="black"/>
<path opacity="0.2" d="M85.9 225.87H51.93V229.97H85.9V225.87Z" fill="black"/>
<path opacity="0.2" d="M85.9 235.16H51.93V239.26H85.9V235.16Z" fill="black"/>
<path opacity="0.2" d="M85.9 244.45H51.93V248.55H85.9V244.45Z" fill="black"/>
<path opacity="0.2" d="M85.9 253.73H51.93V257.83H85.9V253.73Z" fill="black"/>
<path opacity="0.2" d="M85.9 263.02H51.93V267.12H85.9V263.02Z" fill="black"/>
</g>
<path d="M264.26 82.84H226.34V274.57H264.26V82.84Z" fill="#0086D2"/>
<path opacity="0.2" d="M264.26 82.84H226.34V274.57H264.26V82.84Z" fill="black"/>
<path d="M226.34 82.84H266.53V76.56H226.34V82.84Z" fill="#0086D2"/>
<path d="M226.33 76.56H260.41V66.75H226.33V76.56Z" fill="#0086D2"/>
<path opacity="0.2" d="M226.33 76.56H260.41V66.75H226.33V76.56Z" fill="black"/>
<path d="M226.34 66.74H252.41V45.1H226.34V66.74Z" fill="#0086D2"/>
<path opacity="0.3" d="M226.34 66.74H252.41V45.1H226.34V66.74Z" fill="black"/>
<g opacity="0.3">
<path opacity="0.3" d="M235.11 90.1H229.97V110.27H235.11V90.1Z" fill="black"/>
</g>
<g opacity="0.3">
<path opacity="0.3" d="M235.11 117.58H229.97V137.75H235.11V117.58Z" fill="black"/>
</g>
<g opacity="0.3">
<path opacity="0.3" d="M235.11 145.05H229.97V165.22H235.11V145.05Z" fill="black"/>
</g>
<g opacity="0.3">
<path opacity="0.3" d="M235.11 172.52H229.97V192.69H235.11V172.52Z" fill="black"/>
</g>
<g opacity="0.3">
<path opacity="0.3" d="M235.11 200H229.97V220.17H235.11V200Z" fill="black"/>
</g>
<g opacity="0.3">
<path opacity="0.3" d="M235.11 227.47H229.97V247.64H235.11V227.47Z" fill="black"/>
</g>
<g opacity="0.3">
<path opacity="0.3" d="M243.62 90.1H238.48V110.27H243.62V90.1Z" fill="black"/>
</g>
<g opacity="0.3">
<path opacity="0.3" d="M243.62 117.58H238.48V137.75H243.62V117.58Z" fill="black"/>
</g>
<g opacity="0.3">
<path opacity="0.3" d="M243.62 145.05H238.48V165.22H243.62V145.05Z" fill="black"/>
</g>
<g opacity="0.3">
<path opacity="0.3" d="M243.62 172.52H238.48V192.69H243.62V172.52Z" fill="black"/>
</g>
<g opacity="0.3">
<path opacity="0.3" d="M243.62 200H238.48V220.17H243.62V200Z" fill="black"/>
</g>
<g opacity="0.3">
<path opacity="0.3" d="M243.62 227.47H238.48V247.64H243.62V227.47Z" fill="black"/>
</g>
<g opacity="0.3">
<path opacity="0.3" d="M252.12 90.1H246.98V110.27H252.12V90.1Z" fill="black"/>
</g>
<g opacity="0.3">
<path opacity="0.3" d="M252.12 117.58H246.98V137.75H252.12V117.58Z" fill="black"/>
</g>
<g opacity="0.3">
<path opacity="0.3" d="M252.12 145.05H246.98V165.22H252.12V145.05Z" fill="black"/>
</g>
<g opacity="0.3">
<path opacity="0.3" d="M252.12 172.52H246.98V192.69H252.12V172.52Z" fill="black"/>
</g>
<g opacity="0.3">
<path opacity="0.3" d="M252.12 200H246.98V220.17H252.12V200Z" fill="black"/>
</g>
<g opacity="0.3">
<path opacity="0.3" d="M252.12 227.47H246.98V247.64H252.12V227.47Z" fill="black"/>
</g>
<g opacity="0.3">
<path opacity="0.3" d="M260.62 90.1H255.48V110.27H260.62V90.1Z" fill="black"/>
</g>
<g opacity="0.3">
<path opacity="0.3" d="M260.62 117.58H255.48V137.75H260.62V117.58Z" fill="black"/>
</g>
<g opacity="0.3">
<path opacity="0.3" d="M260.62 145.05H255.48V165.22H260.62V145.05Z" fill="black"/>
</g>
<g opacity="0.3">
<path opacity="0.3" d="M260.62 172.52H255.48V192.69H260.62V172.52Z" fill="black"/>
</g>
<g opacity="0.3">
<path opacity="0.3" d="M260.62 200H255.48V220.17H260.62V200Z" fill="black"/>
</g>
<g opacity="0.3">
<path opacity="0.3" d="M260.62 227.47H255.48V247.64H260.62V227.47Z" fill="black"/>
</g>
<path d="M226.33 82.84H148.6V274.57H226.33V82.84Z" fill="#0086D2"/>
<path d="M226.34 66.74H152.33V76.55H226.34V66.74Z" fill="#0086D2"/>
<path d="M226.34 45.11H170.65V66.75H226.34V45.11Z" fill="#0086D2"/>
<path opacity="0.2" d="M226.34 45.11H170.65V66.75H226.34V45.11Z" fill="black"/>
<path d="M226.34 76.55H146.28V82.83H226.34V76.55Z" fill="#0086D2"/>
<path opacity="0.2" d="M226.34 76.55H146.28V82.83H226.34V76.55Z" fill="black"/>
<g opacity="0.3">
<path opacity="0.3" d="M166.59 90.1H156.04V110.27H166.59V90.1Z" fill="black"/>
</g>
<g opacity="0.3">
<path opacity="0.3" d="M166.59 117.58H156.04V137.75H166.59V117.58Z" fill="black"/>
</g>
<g opacity="0.3">
<path opacity="0.3" d="M166.59 145.05H156.04V165.22H166.59V145.05Z" fill="black"/>
</g>
<g opacity="0.3">
<path opacity="0.3" d="M166.59 172.52H156.04V192.69H166.59V172.52Z" fill="black"/>
</g>
<g opacity="0.3">
<path opacity="0.3" d="M166.59 200H156.04V220.17H166.59V200Z" fill="black"/>
</g>
<g opacity="0.3">
<path opacity="0.3" d="M166.59 227.47H156.04V247.64H166.59V227.47Z" fill="black"/>
</g>
<g opacity="0.3">
<path opacity="0.3" d="M184.03 90.1H173.48V110.27H184.03V90.1Z" fill="black"/>
</g>
<g opacity="0.3">
<path opacity="0.3" d="M184.03 117.58H173.48V137.75H184.03V117.58Z" fill="black"/>
</g>
<g opacity="0.3">
<path opacity="0.3" d="M184.03 145.05H173.48V165.22H184.03V145.05Z" fill="black"/>
</g>
<g opacity="0.3">
<path opacity="0.3" d="M184.03 172.52H173.48V192.69H184.03V172.52Z" fill="black"/>
</g>
<g opacity="0.3">
<path opacity="0.3" d="M184.03 200H173.48V220.17H184.03V200Z" fill="black"/>
</g>
<g opacity="0.3">
<path opacity="0.3" d="M184.03 227.47H173.48V247.64H184.03V227.47Z" fill="black"/>
</g>
<g opacity="0.3">
<path opacity="0.3" d="M201.47 90.1H190.92V110.27H201.47V90.1Z" fill="black"/>
</g>
<g opacity="0.3">
<path opacity="0.3" d="M201.47 117.58H190.92V137.75H201.47V117.58Z" fill="black"/>
</g>
<g opacity="0.3">
<path opacity="0.3" d="M201.47 145.05H190.92V165.22H201.47V145.05Z" fill="black"/>
</g>
<g opacity="0.3">
<path opacity="0.3" d="M201.47 172.52H190.92V192.69H201.47V172.52Z" fill="black"/>
</g>
<g opacity="0.3">
<path opacity="0.3" d="M201.47 200H190.92V220.17H201.47V200Z" fill="black"/>
</g>
<g opacity="0.3">
<path opacity="0.3" d="M201.47 227.47H190.92V247.64H201.47V227.47Z" fill="black"/>
</g>
<g opacity="0.3">
<path opacity="0.3" d="M218.9 90.1H208.35V110.27H218.9V90.1Z" fill="black"/>
</g>
<g opacity="0.3">
<path opacity="0.3" d="M218.9 117.58H208.35V137.75H218.9V117.58Z" fill="black"/>
</g>
<g opacity="0.3">
<path opacity="0.3" d="M218.9 145.05H208.35V165.22H218.9V145.05Z" fill="black"/>
</g>
<g opacity="0.3">
<path opacity="0.3" d="M218.9 172.52H208.35V192.69H218.9V172.52Z" fill="black"/>
</g>
<g opacity="0.3">
<path opacity="0.3" d="M218.9 200H208.35V220.17H218.9V200Z" fill="black"/>
</g>
<g opacity="0.3">
<path opacity="0.3" d="M218.9 227.47H208.35V247.64H218.9V227.47Z" fill="black"/>
</g>
<path opacity="0.3" d="M201.47 255.56H173.48V274.56H201.47V255.56Z" fill="black"/>
<path d="M342.06 165.23H304.14V274.56H342.06V165.23Z" fill="#0086D2"/>
<path opacity="0.2" d="M342.06 165.23H304.14V274.56H342.06V165.23Z" fill="black"/>
<path d="M304.14 165.24H344.33V158.96H304.14V165.24Z" fill="#0086D2"/>
<path d="M304.14 158.95H338.22V149.14H304.14V158.95Z" fill="#0086D2"/>
<path opacity="0.2" d="M304.14 158.95H338.22V149.14H304.14V158.95Z" fill="black"/>
<g opacity="0.3">
<path opacity="0.3" d="M312.92 172.5H307.78V192.67H312.92V172.5Z" fill="black"/>
</g>
<g opacity="0.3">
<path opacity="0.3" d="M312.92 199.97H307.78V220.14H312.92V199.97Z" fill="black"/>
</g>
<g opacity="0.3">
<path opacity="0.3" d="M312.92 227.45H307.78V247.62H312.92V227.45Z" fill="black"/>
</g>
<g opacity="0.3">
<path opacity="0.3" d="M321.42 172.5H316.28V192.67H321.42V172.5Z" fill="black"/>
</g>
<g opacity="0.3">
<path opacity="0.3" d="M321.42 199.97H316.28V220.14H321.42V199.97Z" fill="black"/>
</g>
<g opacity="0.3">
<path opacity="0.3" d="M321.42 227.45H316.28V247.62H321.42V227.45Z" fill="black"/>
</g>
<g opacity="0.3">
<path opacity="0.3" d="M329.92 172.5H324.78V192.67H329.92V172.5Z" fill="black"/>
</g>
<g opacity="0.3">
<path opacity="0.3" d="M329.92 199.97H324.78V220.14H329.92V199.97Z" fill="black"/>
</g>
<g opacity="0.3">
<path opacity="0.3" d="M329.92 227.45H324.78V247.62H329.92V227.45Z" fill="black"/>
</g>
<g opacity="0.3">
<path opacity="0.3" d="M338.42 172.5H333.28V192.67H338.42V172.5Z" fill="black"/>
</g>
<g opacity="0.3">
<path opacity="0.3" d="M338.42 199.97H333.28V220.14H338.42V199.97Z" fill="black"/>
</g>
<g opacity="0.3">
<path opacity="0.3" d="M338.42 227.45H333.28V247.62H338.42V227.45Z" fill="black"/>
</g>
<path d="M304.14 165.23H226.41V274.56H304.14V165.23Z" fill="#0086D2"/>
<path d="M304.14 149.14H230.13V158.95H304.14V149.14Z" fill="#0086D2"/>
<path d="M304.14 158.95H224.08V165.23H304.14V158.95Z" fill="#0086D2"/>
<path opacity="0.2" d="M304.14 158.95H224.08V165.23H304.14V158.95Z" fill="black"/>
<g opacity="0.3">
<path opacity="0.3" d="M244.39 172.5H233.84V192.67H244.39V172.5Z" fill="black"/>
</g>
<g opacity="0.3">
<path opacity="0.3" d="M244.39 199.97H233.84V220.14H244.39V199.97Z" fill="black"/>
</g>
<g opacity="0.3">
<path opacity="0.3" d="M244.39 227.45H233.84V247.62H244.39V227.45Z" fill="black"/>
</g>
<g opacity="0.3">
<path opacity="0.3" d="M261.83 172.5H251.28V192.67H261.83V172.5Z" fill="black"/>
</g>
<g opacity="0.3">
<path opacity="0.3" d="M261.83 199.97H251.28V220.14H261.83V199.97Z" fill="black"/>
</g>
<g opacity="0.3">
<path opacity="0.3" d="M261.83 227.45H251.28V247.62H261.83V227.45Z" fill="black"/>
</g>
<g opacity="0.3">
<path opacity="0.3" d="M279.27 172.5H268.72V192.67H279.27V172.5Z" fill="black"/>
</g>
<g opacity="0.3">
<path opacity="0.3" d="M279.27 199.97H268.72V220.14H279.27V199.97Z" fill="black"/>
</g>
<g opacity="0.3">
<path opacity="0.3" d="M279.27 227.45H268.72V247.62H279.27V227.45Z" fill="black"/>
</g>
<g opacity="0.3">
<path opacity="0.3" d="M296.71 172.5H286.16V192.67H296.71V172.5Z" fill="black"/>
</g>
<g opacity="0.3">
<path opacity="0.3" d="M296.71 199.97H286.16V220.14H296.71V199.97Z" fill="black"/>
</g>
<g opacity="0.3">
<path opacity="0.3" d="M296.71 227.45H286.16V247.62H296.71V227.45Z" fill="black"/>
</g>
</svg>
