<svg width="528" height="557" viewBox="0 0 528 557" fill="none" xmlns="http://www.w3.org/2000/svg">
<path d="M586.33 546.515H394.025V560.7H586.33V546.515Z" fill="white" stroke="#263238" stroke-linecap="round" stroke-linejoin="round"/>
<path d="M525.007 547.015V555.305" stroke="#263238" stroke-width="0.75" stroke-linecap="round" stroke-linejoin="round"/>
<path d="M495.231 352.255H450.812V381.354H495.231V352.255Z" fill="#263238" stroke="#263238" stroke-linecap="round" stroke-linejoin="round"/>
<path d="M495.216 352.255H479.855V381.354H495.216V352.255Z" fill="white" stroke="#263238" stroke-linecap="round" stroke-linejoin="round"/>
<path d="M433.817 396.123V337.403H300.498V560.7H388.176H433.817H521.495V396.123H433.817Z" fill="#0086D2" stroke="#263238" stroke-linecap="round" stroke-linejoin="round"/>
<path d="M521.495 396.123H503.798V560.7H521.495V396.123Z" fill="white" stroke="#263238" stroke-linecap="round" stroke-linejoin="round"/>
<path d="M521.358 383.583H433.573V417.515H521.358V383.583Z" fill="#263238" stroke="#263238" stroke-linecap="round" stroke-linejoin="round"/>
<path d="M433.771 339.007H345.986V372.939H433.771V339.007Z" fill="#263238" stroke="#263238" stroke-linecap="round" stroke-linejoin="round"/>
<path d="M439.375 330.842H285.32V364.774H439.375V330.842Z" fill="white" stroke="#263238" stroke-linecap="round" stroke-linejoin="round"/>
<path d="M529.435 375.772H433.573V409.704H529.435V375.772Z" fill="white" stroke="#263238" stroke-linecap="round" stroke-linejoin="round"/>
<path d="M396.468 331.467V344.881" stroke="#263238" stroke-width="0.75" stroke-linecap="round" stroke-linejoin="round"/>
<path d="M400.438 331.467V344.881" stroke="#263238" stroke-width="0.75" stroke-linecap="round" stroke-linejoin="round"/>
<path d="M400.438 348.506V358.775" stroke="#263238" stroke-width="0.75" stroke-linecap="round" stroke-linejoin="round"/>
<path d="M404.423 331.467V344.881" stroke="#263238" stroke-width="0.75" stroke-linecap="round" stroke-linejoin="round"/>
<path d="M404.423 349.089V358.608" stroke="#263238" stroke-width="0.75" stroke-linecap="round" stroke-linejoin="round"/>
<path d="M408.118 349.089V355.088" stroke="#263238" stroke-width="0.75" stroke-linecap="round" stroke-linejoin="round"/>
<path d="M408.393 331.467V344.881" stroke="#263238" stroke-width="0.75" stroke-linecap="round" stroke-linejoin="round"/>
<path d="M412.898 341.486V344.881" stroke="#263238" stroke-width="0.75" stroke-linecap="round" stroke-linejoin="round"/>
<path d="M413.157 331.467V339.091" stroke="#263238" stroke-width="0.75" stroke-linecap="round" stroke-linejoin="round"/>
<path d="M396.468 347.589V355.546" stroke="#263238" stroke-width="0.75" stroke-linecap="round" stroke-linejoin="round"/>
<path d="M437.634 375.939V389.374" stroke="#263238" stroke-width="0.75" stroke-linecap="round" stroke-linejoin="round"/>
<path d="M441.605 375.939V389.374" stroke="#263238" stroke-width="0.75" stroke-linecap="round" stroke-linejoin="round"/>
<path d="M441.605 392.998V403.267" stroke="#263238" stroke-width="0.75" stroke-linecap="round" stroke-linejoin="round"/>
<path d="M445.575 375.939V389.374" stroke="#263238" stroke-width="0.75" stroke-linecap="round" stroke-linejoin="round"/>
<path d="M445.575 393.582V403.08" stroke="#263238" stroke-width="0.75" stroke-linecap="round" stroke-linejoin="round"/>
<path d="M449.285 393.582V399.581" stroke="#263238" stroke-width="0.75" stroke-linecap="round" stroke-linejoin="round"/>
<path d="M449.545 375.939V389.374" stroke="#263238" stroke-width="0.75" stroke-linecap="round" stroke-linejoin="round"/>
<path d="M454.049 385.979V389.374" stroke="#263238" stroke-width="0.75" stroke-linecap="round" stroke-linejoin="round"/>
<path d="M454.309 375.939V383.583" stroke="#263238" stroke-width="0.75" stroke-linecap="round" stroke-linejoin="round"/>
<path d="M437.634 392.082V400.039" stroke="#263238" stroke-width="0.75" stroke-linecap="round" stroke-linejoin="round"/>
<path d="M427.709 437.637H398.315V474.048H427.709V437.637Z" fill="white"/>
<g style="mix-blend-mode:multiply" opacity="0.6">
<g style="mix-blend-mode:multiply" opacity="0.6">
<path d="M398.315 465.445V472.652L427.709 440.074V437.637H423.403" fill="#0086D2"/>
</g>
<g style="mix-blend-mode:multiply" opacity="0.6">
<path d="M427.709 455.217V448.01L404.209 474.068H410.714" fill="#0086D2"/>
</g>
</g>
<path d="M427.709 437.637H398.315V474.048H427.709V437.637Z" stroke="#263238" stroke-linecap="round" stroke-linejoin="round"/>
<path d="M427.709 427.159H398.315V442.99H427.709V427.159Z" fill="white" stroke="#263238" stroke-linecap="round" stroke-linejoin="round"/>
<path d="M469.182 437.637H439.788V474.048H469.182V437.637Z" fill="white"/>
<g style="mix-blend-mode:multiply" opacity="0.6">
<g style="mix-blend-mode:multiply" opacity="0.6">
<path d="M464.875 437.637L439.788 465.445V472.652L469.182 440.074V437.637H464.875Z" fill="#0086D2"/>
</g>
<g style="mix-blend-mode:multiply" opacity="0.6">
<path d="M452.171 474.068L469.181 455.217V448.01L445.666 474.068H452.171Z" fill="#0086D2"/>
</g>
</g>
<path d="M469.182 437.637H439.788V474.048H469.182V437.637Z" stroke="#263238" stroke-linecap="round" stroke-linejoin="round"/>
<path d="M469.182 427.159H439.788V442.99H469.182V427.159Z" fill="white" stroke="#263238" stroke-linecap="round" stroke-linejoin="round"/>
<path d="M510.639 437.637H481.245V474.048H510.639V437.637Z" fill="white"/>
<g style="mix-blend-mode:multiply" opacity="0.6">
<g style="mix-blend-mode:multiply" opacity="0.6">
<path d="M506.333 437.637L481.245 465.445V472.652L510.639 440.074V437.637H506.333Z" fill="#0086D2"/>
</g>
<g style="mix-blend-mode:multiply" opacity="0.6">
<path d="M493.643 474.068L510.639 455.217V448.01L487.139 474.068H493.643Z" fill="#0086D2"/>
</g>
</g>
<path d="M510.639 437.637H481.245V474.048H510.639V437.637Z" stroke="#263238" stroke-linecap="round" stroke-linejoin="round"/>
<path d="M510.639 427.159H481.245V442.99H510.639V427.159Z" fill="white" stroke="#263238" stroke-linecap="round" stroke-linejoin="round"/>
<path d="M427.709 498.981H398.315V535.392H427.709V498.981Z" fill="white"/>
<g style="mix-blend-mode:multiply" opacity="0.6">
<g style="mix-blend-mode:multiply" opacity="0.6">
<path d="M398.315 526.789V533.975L427.709 501.418V498.981H423.403" fill="#0086D2"/>
</g>
<g style="mix-blend-mode:multiply" opacity="0.6">
<path d="M427.709 516.561V509.354L404.209 535.392H410.714" fill="#0086D2"/>
</g>
</g>
<path d="M427.709 498.981H398.315V535.392H427.709V498.981Z" stroke="#263238" stroke-linecap="round" stroke-linejoin="round"/>
<path d="M427.709 488.483H398.315V504.313H427.709V488.483Z" fill="white" stroke="#263238" stroke-linecap="round" stroke-linejoin="round"/>
<path d="M469.182 498.981H439.788V535.392H469.182V498.981Z" fill="white"/>
<g style="mix-blend-mode:multiply" opacity="0.6">
<g style="mix-blend-mode:multiply" opacity="0.6">
<path d="M439.788 526.789V533.975L469.182 501.418V498.981H464.875" fill="#0086D2"/>
</g>
<g style="mix-blend-mode:multiply" opacity="0.6">
<path d="M445.666 535.392H452.171L469.181 516.561V509.354" fill="#0086D2"/>
</g>
</g>
<path d="M469.182 498.981H439.788V535.392H469.182V498.981Z" stroke="#263238" stroke-linecap="round" stroke-linejoin="round"/>
<path d="M469.182 488.483H439.788V504.313H469.182V488.483Z" fill="white" stroke="#263238" stroke-linecap="round" stroke-linejoin="round"/>
<path d="M510.639 498.981H481.245V535.392H510.639V498.981Z" fill="white"/>
<g style="mix-blend-mode:multiply" opacity="0.6">
<g style="mix-blend-mode:multiply" opacity="0.6">
<path d="M506.333 498.981L481.245 526.789V533.975L510.639 501.418V498.981H506.333Z" fill="#0086D2"/>
</g>
<g style="mix-blend-mode:multiply" opacity="0.6">
<path d="M493.643 535.392L510.639 516.561V509.354L487.139 535.392H493.643Z" fill="#0086D2"/>
</g>
</g>
<path d="M510.639 498.981H481.245V535.392H510.639V498.981Z" stroke="#263238" stroke-linecap="round" stroke-linejoin="round"/>
<path d="M510.639 488.483H481.245V504.313H510.639V488.483Z" fill="white" stroke="#263238" stroke-linecap="round" stroke-linejoin="round"/>
<path d="M79.5774 317.157H45.1139V358.9H79.5774V317.157Z" fill="#0086D2" stroke="#263238" stroke-linecap="round" stroke-linejoin="round"/>
<path d="M95.1829 317.157H60.7194V358.9H95.1829V317.157Z" fill="#263238" stroke="#263238" stroke-linecap="round" stroke-linejoin="round"/>
<path d="M182.815 373.085H46.9005V560.7H182.815V373.085Z" fill="#263238" stroke="#263238" stroke-linecap="round" stroke-linejoin="round"/>
<path d="M182.831 352.588H38.2273V386.52H182.831V352.588Z" fill="#263238"/>
<path d="M144.931 282.454H102.955V335.903H144.931V282.454Z" fill="#263238"/>
<path d="M123.951 252.23L98.527 283.516H149.375L123.951 252.23Z" fill="#0086D2" stroke="#263238" stroke-linecap="round" stroke-linejoin="round"/>
<path d="M149.375 283.516L123.951 252.23L110.086 283.516H149.375Z" fill="#263238"/>
<path d="M107.261 327.509H104.314V359.733H107.261V327.509Z" fill="#263238"/>
<path d="M142.687 327.509H139.74V359.733H142.687V327.509Z" fill="#263238"/>
<path d="M123.294 327.509H120.347V359.733H123.294V327.509Z" fill="#263238"/>
<path d="M128.776 327.509H125.829V359.733H128.776V327.509Z" fill="#263238"/>
<path d="M59.1772 396.123H52.0005V435.262H59.1772V396.123Z" fill="white" stroke="#263238" stroke-linecap="round" stroke-linejoin="round"/>
<path d="M59.1772 458.092H52.0005V497.231H59.1772V458.092Z" fill="white" stroke="#263238" stroke-linecap="round" stroke-linejoin="round"/>
<path d="M392.375 28.3913H160.812V560.7H392.375V28.3913Z" fill="#263238" stroke="#263238" stroke-linecap="round" stroke-linejoin="round"/>
<path d="M392.375 28.3913H259.041V560.7H392.375V28.3913Z" fill="white" stroke="#263238" stroke-linecap="round" stroke-linejoin="round"/>
<path d="M376.892 28.3913H274.525V560.7H376.892V28.3913Z" fill="#0086D2" stroke="#263238" stroke-linecap="round" stroke-linejoin="round"/>
<path d="M392.375 28.3913H259.041V64.8437H392.375V28.3913Z" fill="#263238" stroke="#263238" stroke-linecap="round" stroke-linejoin="round"/>
<path d="M358.095 495.273H293.321V560.7H358.095V495.273Z" fill="white"/>
<g style="mix-blend-mode:multiply" opacity="0.6">
<g style="mix-blend-mode:multiply" opacity="0.6">
<path d="M321.692 516.561L293.963 550.993V560.346H294.406L325.754 521.415V516.561H321.692Z" fill="#0086D2"/>
</g>
<g style="mix-blend-mode:multiply" opacity="0.6">
<path d="M311.187 560.346L325.754 542.245V532.33L303.201 560.346H311.187Z" fill="#0086D2"/>
</g>
</g>
<path d="M358.095 495.273H293.321V560.7H358.095V495.273Z" stroke="#263238" stroke-linecap="round" stroke-linejoin="round"/>
<path d="M358.095 495.273H325.708V560.7H358.095V495.273Z" fill="white"/>
<g style="mix-blend-mode:multiply" opacity="0.6">
<g style="mix-blend-mode:multiply" opacity="0.6">
<path d="M353.484 516.561L325.754 550.993V560.346H326.197L357.545 521.415V516.561H353.484Z" fill="#0086D2"/>
</g>
<g style="mix-blend-mode:multiply" opacity="0.6">
<path d="M342.978 560.346L357.545 542.245V532.33L334.992 560.346H342.978Z" fill="#0086D2"/>
</g>
</g>
<path d="M358.095 495.273H325.708V560.7H358.095V495.273Z" stroke="#263238" stroke-linecap="round" stroke-linejoin="round"/>
<path d="M205.597 88.1107H176.203V124.521H205.597V88.1107Z" fill="white"/>
<g style="mix-blend-mode:multiply" opacity="0.6">
<g style="mix-blend-mode:multiply" opacity="0.6">
<path d="M205.597 90.5478V88.1107H201.291L176.203 115.898V123.105" fill="#0086D2"/>
</g>
<g style="mix-blend-mode:multiply" opacity="0.6">
<path d="M205.597 105.691V98.484L182.082 124.521H188.587" fill="#0086D2"/>
</g>
</g>
<path d="M205.597 88.1107H176.203V124.521H205.597V88.1107Z" stroke="#263238" stroke-linecap="round" stroke-linejoin="round"/>
<path d="M205.597 77.6124H176.203V93.4432H205.597V77.6124Z" fill="white" stroke="#263238" stroke-linecap="round" stroke-linejoin="round"/>
<path d="M247.62 88.1107H218.226V124.521H247.62V88.1107Z" fill="white"/>
<g style="mix-blend-mode:multiply" opacity="0.6">
<g style="mix-blend-mode:multiply" opacity="0.6">
<path d="M218.226 115.898V123.105L247.62 90.5478V88.1107H243.313" fill="#0086D2"/>
</g>
<g style="mix-blend-mode:multiply" opacity="0.6">
<path d="M247.619 105.691V98.484L224.104 124.521H230.609" fill="#0086D2"/>
</g>
</g>
<path d="M247.62 88.1107H218.226V124.521H247.62V88.1107Z" stroke="#263238" stroke-linecap="round" stroke-linejoin="round"/>
<path d="M247.62 77.6124H218.226V93.4432H247.62V77.6124Z" fill="white" stroke="#263238" stroke-linecap="round" stroke-linejoin="round"/>
<path d="M205.597 158.016H176.203V194.427H205.597V158.016Z" fill="white"/>
<g style="mix-blend-mode:multiply" opacity="0.6">
<g style="mix-blend-mode:multiply" opacity="0.6">
<path d="M176.203 185.824V193.01L205.597 160.453V158.016H201.291" fill="#0086D2"/>
</g>
<g style="mix-blend-mode:multiply" opacity="0.6">
<path d="M205.597 175.596V168.389L182.082 194.427H188.587" fill="#0086D2"/>
</g>
</g>
<path d="M205.597 158.016H176.203V194.427H205.597V158.016Z" stroke="#263238" stroke-linecap="round" stroke-linejoin="round"/>
<path d="M205.597 147.518H176.203V163.348H205.597V147.518Z" fill="white" stroke="#263238" stroke-linecap="round" stroke-linejoin="round"/>
<path d="M247.62 158.016H218.226V194.427H247.62V158.016Z" fill="white"/>
<g style="mix-blend-mode:multiply" opacity="0.6">
<g style="mix-blend-mode:multiply" opacity="0.6">
<path d="M247.62 160.453V158.016H243.313L218.226 185.824V193.01" fill="#0086D2"/>
</g>
<g style="mix-blend-mode:multiply" opacity="0.6">
<path d="M224.104 194.427H230.609L247.619 175.596V168.389" fill="#0086D2"/>
</g>
</g>
<path d="M247.62 158.016H218.226V194.427H247.62V158.016Z" stroke="#263238" stroke-linecap="round" stroke-linejoin="round"/>
<path d="M247.62 147.518H218.226V163.348H247.62V147.518Z" fill="white" stroke="#263238" stroke-linecap="round" stroke-linejoin="round"/>
<path d="M205.597 227.921H176.203V264.332H205.597V227.921Z" fill="white"/>
<g style="mix-blend-mode:multiply" opacity="0.6">
<g style="mix-blend-mode:multiply" opacity="0.6">
<path d="M176.203 255.729V262.936L205.597 230.358V227.921H201.291" fill="#0086D2"/>
</g>
<g style="mix-blend-mode:multiply" opacity="0.6">
<path d="M205.597 245.502V238.294L182.082 264.332H188.587" fill="#0086D2"/>
</g>
</g>
<path d="M205.597 227.921H176.203V264.332H205.597V227.921Z" stroke="#263238" stroke-linecap="round" stroke-linejoin="round"/>
<path d="M205.597 217.444H176.203V233.274H205.597V217.444Z" fill="white" stroke="#263238" stroke-linecap="round" stroke-linejoin="round"/>
<path d="M247.62 227.921H218.226V264.332H247.62V227.921Z" fill="white"/>
<g style="mix-blend-mode:multiply" opacity="0.6">
<g style="mix-blend-mode:multiply" opacity="0.6">
<path d="M218.226 255.729V262.936L247.62 230.358V227.921H243.313" fill="#0086D2"/>
</g>
<g style="mix-blend-mode:multiply" opacity="0.6">
<path d="M224.104 264.332H230.609L247.619 245.502V238.294" fill="#0086D2"/>
</g>
</g>
<path d="M247.62 227.921H218.226V264.332H247.62V227.921Z" stroke="#263238" stroke-linecap="round" stroke-linejoin="round"/>
<path d="M247.62 217.444H218.226V233.274H247.62V217.444Z" fill="white" stroke="#263238" stroke-linecap="round" stroke-linejoin="round"/>
<path d="M205.597 297.826H176.203V334.237H205.597V297.826Z" fill="white"/>
<g style="mix-blend-mode:multiply" opacity="0.6">
<g style="mix-blend-mode:multiply" opacity="0.6">
<path d="M201.291 297.826L176.203 325.634V332.841L205.597 300.263V297.826H201.291Z" fill="#0086D2"/>
</g>
<g style="mix-blend-mode:multiply" opacity="0.6">
<path d="M188.587 334.258L205.597 315.407V308.2L182.082 334.258H188.587Z" fill="#0086D2"/>
</g>
</g>
<path d="M205.597 297.826H176.203V334.237H205.597V297.826Z" stroke="#263238" stroke-linecap="round" stroke-linejoin="round"/>
<path d="M205.597 287.349H176.203V303.18H205.597V287.349Z" fill="white" stroke="#263238" stroke-linecap="round" stroke-linejoin="round"/>
<path d="M247.62 297.826H218.226V334.237H247.62V297.826Z" fill="white"/>
<g style="mix-blend-mode:multiply" opacity="0.6">
<g style="mix-blend-mode:multiply" opacity="0.6">
<path d="M218.226 325.634V332.841L247.62 300.263V297.826H243.313" fill="#0086D2"/>
</g>
<g style="mix-blend-mode:multiply" opacity="0.6">
<path d="M224.104 334.258H230.609L247.619 315.407V308.2" fill="#0086D2"/>
</g>
</g>
<path d="M247.62 297.826H218.226V334.237H247.62V297.826Z" stroke="#263238" stroke-linecap="round" stroke-linejoin="round"/>
<path d="M247.62 287.349H218.226V303.18H247.62V287.349Z" fill="white" stroke="#263238" stroke-linecap="round" stroke-linejoin="round"/>
<path d="M205.597 367.732H176.203V404.142H205.597V367.732Z" fill="white"/>
<g style="mix-blend-mode:multiply" opacity="0.6">
<g style="mix-blend-mode:multiply" opacity="0.6">
<path d="M201.291 367.732L176.203 395.54V402.747L205.597 370.169V367.732H201.291Z" fill="#0086D2"/>
</g>
<g style="mix-blend-mode:multiply" opacity="0.6">
<path d="M188.587 404.163L205.597 385.312V378.105L182.082 404.163H188.587Z" fill="#0086D2"/>
</g>
</g>
<path d="M205.597 367.732H176.203V404.142H205.597V367.732Z" stroke="#263238" stroke-linecap="round" stroke-linejoin="round"/>
<path d="M205.597 357.254H176.203V373.085H205.597V357.254Z" fill="white" stroke="#263238" stroke-linecap="round" stroke-linejoin="round"/>
<path d="M247.62 367.732H218.226V404.142H247.62V367.732Z" fill="white"/>
<g style="mix-blend-mode:multiply" opacity="0.6">
<g style="mix-blend-mode:multiply" opacity="0.6">
<path d="M243.313 367.732L218.226 395.54V402.747L247.62 370.169V367.732H243.313Z" fill="#0086D2"/>
</g>
<g style="mix-blend-mode:multiply" opacity="0.6">
<path d="M230.609 404.163L247.619 385.312V378.105L224.104 404.163H230.609Z" fill="#0086D2"/>
</g>
</g>
<path d="M247.62 367.732H218.226V404.142H247.62V367.732Z" stroke="#263238" stroke-linecap="round" stroke-linejoin="round"/>
<path d="M247.62 357.254H218.226V373.085H247.62V357.254Z" fill="white" stroke="#263238" stroke-linecap="round" stroke-linejoin="round"/>
<path d="M205.597 437.637H176.203V474.048H205.597V437.637Z" fill="white"/>
<g style="mix-blend-mode:multiply" opacity="0.6">
<g style="mix-blend-mode:multiply" opacity="0.6">
<path d="M201.291 437.637L176.203 465.445V472.652L205.597 440.074V437.637H201.291Z" fill="#0086D2"/>
</g>
<g style="mix-blend-mode:multiply" opacity="0.6">
<path d="M188.587 474.068L205.597 455.217V448.01L182.082 474.068H188.587Z" fill="#0086D2"/>
</g>
</g>
<path d="M205.597 437.637H176.203V474.048H205.597V437.637Z" stroke="#263238" stroke-linecap="round" stroke-linejoin="round"/>
<path d="M205.597 427.159H176.203V442.99H205.597V427.159Z" fill="white" stroke="#263238" stroke-linecap="round" stroke-linejoin="round"/>
<path d="M247.62 437.637H218.226V474.048H247.62V437.637Z" fill="white"/>
<g style="mix-blend-mode:multiply" opacity="0.6">
<g style="mix-blend-mode:multiply" opacity="0.6">
<path d="M243.313 437.637L218.226 465.445V472.652L247.62 440.074V437.637H243.313Z" fill="#0086D2"/>
</g>
<g style="mix-blend-mode:multiply" opacity="0.6">
<path d="M230.609 474.068L247.619 455.217V448.01L224.104 474.068H230.609Z" fill="#0086D2"/>
</g>
</g>
<path d="M247.62 437.637H218.226V474.048H247.62V437.637Z" stroke="#263238" stroke-linecap="round" stroke-linejoin="round"/>
<path d="M247.62 427.159H218.226V442.99H247.62V427.159Z" fill="white" stroke="#263238" stroke-linecap="round" stroke-linejoin="round"/>
<path d="M299.2 88.1107H269.806V124.521H299.2V88.1107Z" fill="white"/>
<g style="mix-blend-mode:multiply" opacity="0.6">
<g style="mix-blend-mode:multiply" opacity="0.6">
<path d="M269.806 115.898V123.105L299.2 90.5478V88.1107H294.894" fill="#0086D2"/>
</g>
<g style="mix-blend-mode:multiply" opacity="0.6">
<path d="M299.2 105.691V98.484L275.7 124.521H282.205" fill="#0086D2"/>
</g>
</g>
<path d="M299.2 88.1107H269.806V124.521H299.2V88.1107Z" stroke="#263238" stroke-linecap="round" stroke-linejoin="round"/>
<path d="M299.2 77.6124H269.806V93.4432H299.2V77.6124Z" fill="white" stroke="#263238" stroke-linecap="round" stroke-linejoin="round"/>
<path d="M341.222 88.1107H311.828V124.521H341.222V88.1107Z" fill="white"/>
<g style="mix-blend-mode:multiply" opacity="0.6">
<g style="mix-blend-mode:multiply" opacity="0.6">
<path d="M341.222 90.5478V88.1107H336.916L311.828 115.898V123.105" fill="#0086D2"/>
</g>
<g style="mix-blend-mode:multiply" opacity="0.6">
<path d="M341.222 105.691V98.484L317.722 124.521H324.227" fill="#0086D2"/>
</g>
</g>
<path d="M341.222 88.1107H311.828V124.521H341.222V88.1107Z" stroke="#263238" stroke-linecap="round" stroke-linejoin="round"/>
<path d="M341.222 77.6124H311.828V93.4432H341.222V77.6124Z" fill="white" stroke="#263238" stroke-linecap="round" stroke-linejoin="round"/>
<path d="M383.244 88.1107H353.85V124.521H383.244V88.1107Z" fill="white"/>
<g style="mix-blend-mode:multiply" opacity="0.6">
<g style="mix-blend-mode:multiply" opacity="0.6">
<path d="M353.85 115.898V123.105L383.244 90.5478V88.1107H378.938" fill="#0086D2"/>
</g>
<g style="mix-blend-mode:multiply" opacity="0.6">
<path d="M359.744 124.521H366.249L383.244 105.691V98.484" fill="#0086D2"/>
</g>
</g>
<path d="M383.244 88.1107H353.85V124.521H383.244V88.1107Z" stroke="#263238" stroke-linecap="round" stroke-linejoin="round"/>
<path d="M383.244 77.6124H353.85V93.4432H383.244V77.6124Z" fill="white" stroke="#263238" stroke-linecap="round" stroke-linejoin="round"/>
<path d="M299.2 158.016H269.806V194.427H299.2V158.016Z" fill="white"/>
<g style="mix-blend-mode:multiply" opacity="0.6">
<g style="mix-blend-mode:multiply" opacity="0.6">
<path d="M269.806 185.824V193.01L299.2 160.453V158.016H294.894" fill="#0086D2"/>
</g>
<g style="mix-blend-mode:multiply" opacity="0.6">
<path d="M275.7 194.427H282.205L299.2 175.596V168.389" fill="#0086D2"/>
</g>
</g>
<path d="M299.2 158.016H269.806V194.427H299.2V158.016Z" stroke="#263238" stroke-linecap="round" stroke-linejoin="round"/>
<path d="M299.2 147.518H269.806V163.348H299.2V147.518Z" fill="white" stroke="#263238" stroke-linecap="round" stroke-linejoin="round"/>
<path d="M341.222 158.016H311.828V194.427H341.222V158.016Z" fill="white"/>
<g style="mix-blend-mode:multiply" opacity="0.6">
<g style="mix-blend-mode:multiply" opacity="0.6">
<path d="M311.828 185.824V193.01L341.222 160.453V158.016H336.916" fill="#0086D2"/>
</g>
<g style="mix-blend-mode:multiply" opacity="0.6">
<path d="M317.722 194.427H324.227L341.222 175.596V168.389" fill="#0086D2"/>
</g>
</g>
<path d="M341.222 158.016H311.828V194.427H341.222V158.016Z" stroke="#263238" stroke-linecap="round" stroke-linejoin="round"/>
<path d="M341.222 147.518H311.828V163.348H341.222V147.518Z" fill="white" stroke="#263238" stroke-linecap="round" stroke-linejoin="round"/>
<path d="M383.244 158.016H353.85V194.427H383.244V158.016Z" fill="white"/>
<g style="mix-blend-mode:multiply" opacity="0.6">
<g style="mix-blend-mode:multiply" opacity="0.6">
<path d="M353.85 185.824V193.01L383.244 160.453V158.016H378.938" fill="#0086D2"/>
</g>
<g style="mix-blend-mode:multiply" opacity="0.6">
<path d="M383.244 175.596V168.389L359.744 194.427H366.249" fill="#0086D2"/>
</g>
</g>
<path d="M383.244 158.016H353.85V194.427H383.244V158.016Z" stroke="#263238" stroke-linecap="round" stroke-linejoin="round"/>
<path d="M383.244 147.518H353.85V163.348H383.244V147.518Z" fill="white" stroke="#263238" stroke-linecap="round" stroke-linejoin="round"/>
<path d="M299.2 227.921H269.806V264.332H299.2V227.921Z" fill="white"/>
<g style="mix-blend-mode:multiply" opacity="0.6">
<g style="mix-blend-mode:multiply" opacity="0.6">
<path d="M269.806 255.729V262.936L299.2 230.358V227.921H294.894" fill="#0086D2"/>
</g>
<g style="mix-blend-mode:multiply" opacity="0.6">
<path d="M299.2 245.502V238.294L275.7 264.332H282.205" fill="#0086D2"/>
</g>
</g>
<path d="M299.2 227.921H269.806V264.332H299.2V227.921Z" stroke="#263238" stroke-linecap="round" stroke-linejoin="round"/>
<path d="M299.2 217.444H269.806V233.274H299.2V217.444Z" fill="white" stroke="#263238" stroke-linecap="round" stroke-linejoin="round"/>
<path d="M341.222 227.921H311.828V264.332H341.222V227.921Z" fill="white"/>
<g style="mix-blend-mode:multiply" opacity="0.6">
<g style="mix-blend-mode:multiply" opacity="0.6">
<path d="M311.828 255.729V262.936L341.222 230.358V227.921H336.916" fill="#0086D2"/>
</g>
<g style="mix-blend-mode:multiply" opacity="0.6">
<path d="M341.222 245.502V238.294L317.722 264.332H324.227" fill="#0086D2"/>
</g>
</g>
<path d="M341.222 227.921H311.828V264.332H341.222V227.921Z" stroke="#263238" stroke-linecap="round" stroke-linejoin="round"/>
<path d="M341.222 217.444H311.828V233.274H341.222V217.444Z" fill="white" stroke="#263238" stroke-linecap="round" stroke-linejoin="round"/>
<path d="M383.244 227.921H353.85V264.332H383.244V227.921Z" fill="white"/>
<g style="mix-blend-mode:multiply" opacity="0.6">
<g style="mix-blend-mode:multiply" opacity="0.6">
<path d="M353.85 255.729V262.936L383.244 230.358V227.921H378.938" fill="#0086D2"/>
</g>
<g style="mix-blend-mode:multiply" opacity="0.6">
<path d="M359.744 264.332H366.249L383.244 245.502V238.294" fill="#0086D2"/>
</g>
</g>
<path d="M383.244 227.921H353.85V264.332H383.244V227.921Z" stroke="#263238" stroke-linecap="round" stroke-linejoin="round"/>
<path d="M383.244 217.444H353.85V233.274H383.244V217.444Z" fill="white" stroke="#263238" stroke-linecap="round" stroke-linejoin="round"/>
<path d="M299.2 297.826H269.806V334.237H299.2V297.826Z" fill="white"/>
<g style="mix-blend-mode:multiply" opacity="0.6">
<g style="mix-blend-mode:multiply" opacity="0.6">
<path d="M294.894 297.826L269.806 325.634V332.841L299.2 300.263V297.826H294.894Z" fill="#0086D2"/>
</g>
<g style="mix-blend-mode:multiply" opacity="0.6">
<path d="M282.205 334.258L299.2 315.407V308.2L275.7 334.258H282.205Z" fill="#0086D2"/>
</g>
</g>
<path d="M299.2 297.826H269.806V334.237H299.2V297.826Z" stroke="#263238" stroke-linecap="round" stroke-linejoin="round"/>
<path d="M299.2 287.349H269.806V303.18H299.2V287.349Z" fill="white" stroke="#263238" stroke-linecap="round" stroke-linejoin="round"/>
<path d="M341.222 297.826H311.828V334.237H341.222V297.826Z" fill="white"/>
<g style="mix-blend-mode:multiply" opacity="0.6">
<g style="mix-blend-mode:multiply" opacity="0.6">
<path d="M311.828 325.634V332.841L341.222 300.263V297.826H336.916" fill="#0086D2"/>
</g>
<g style="mix-blend-mode:multiply" opacity="0.6">
<path d="M341.222 315.407V308.2L317.722 334.258H324.227" fill="#0086D2"/>
</g>
</g>
<path d="M341.222 297.826H311.828V334.237H341.222V297.826Z" stroke="#263238" stroke-linecap="round" stroke-linejoin="round"/>
<path d="M341.222 287.349H311.828V303.18H341.222V287.349Z" fill="white" stroke="#263238" stroke-linecap="round" stroke-linejoin="round"/>
<path d="M383.244 297.826H353.85V334.237H383.244V297.826Z" fill="white"/>
<g style="mix-blend-mode:multiply" opacity="0.6">
<g style="mix-blend-mode:multiply" opacity="0.6">
<path d="M353.85 325.634V332.841L383.244 300.263V297.826H378.938" fill="#0086D2"/>
</g>
<g style="mix-blend-mode:multiply" opacity="0.6">
<path d="M359.744 334.258H366.249L383.244 315.407V308.2" fill="#0086D2"/>
</g>
</g>
<path d="M383.244 297.826H353.85V334.237H383.244V297.826Z" stroke="#263238" stroke-linecap="round" stroke-linejoin="round"/>
<path d="M383.244 287.349H353.85V303.18H383.244V287.349Z" fill="white" stroke="#263238" stroke-linecap="round" stroke-linejoin="round"/>
<path d="M299.2 367.732H269.806V404.142H299.2V367.732Z" fill="white"/>
<g style="mix-blend-mode:multiply" opacity="0.6">
<g style="mix-blend-mode:multiply" opacity="0.6">
<path d="M294.894 367.732L269.806 395.54V402.747L299.2 370.169V367.732H294.894Z" fill="#0086D2"/>
</g>
<g style="mix-blend-mode:multiply" opacity="0.6">
<path d="M282.205 404.163L299.2 385.312V378.105L275.7 404.163H282.205Z" fill="#0086D2"/>
</g>
</g>
<path d="M299.2 367.732H269.806V404.142H299.2V367.732Z" stroke="#263238" stroke-linecap="round" stroke-linejoin="round"/>
<path d="M299.2 357.254H269.806V373.085H299.2V357.254Z" fill="white" stroke="#263238" stroke-linecap="round" stroke-linejoin="round"/>
<path d="M341.222 367.732H311.828V404.142H341.222V367.732Z" fill="white"/>
<g style="mix-blend-mode:multiply" opacity="0.6">
<g style="mix-blend-mode:multiply" opacity="0.6">
<path d="M336.916 367.732L311.828 395.54V402.747L341.222 370.169V367.732H336.916Z" fill="#0086D2"/>
</g>
<g style="mix-blend-mode:multiply" opacity="0.6">
<path d="M324.227 404.163L341.222 385.312V378.105L317.722 404.163H324.227Z" fill="#0086D2"/>
</g>
</g>
<path d="M341.222 367.732H311.828V404.142H341.222V367.732Z" stroke="#263238" stroke-linecap="round" stroke-linejoin="round"/>
<path d="M341.222 357.254H311.828V373.085H341.222V357.254Z" fill="white" stroke="#263238" stroke-linecap="round" stroke-linejoin="round"/>
<path d="M383.244 367.732H353.85V404.142H383.244V367.732Z" fill="white"/>
<g style="mix-blend-mode:multiply" opacity="0.6">
<g style="mix-blend-mode:multiply" opacity="0.6">
<path d="M383.244 370.169V367.732H378.938L353.85 395.54V402.747" fill="#0086D2"/>
</g>
<g style="mix-blend-mode:multiply" opacity="0.6">
<path d="M359.744 404.163H366.249L383.244 385.312V378.105" fill="#0086D2"/>
</g>
</g>
<path d="M383.244 367.732H353.85V404.142H383.244V367.732Z" stroke="#263238" stroke-linecap="round" stroke-linejoin="round"/>
<path d="M383.244 357.254H353.85V373.085H383.244V357.254Z" fill="white" stroke="#263238" stroke-linecap="round" stroke-linejoin="round"/>
<path d="M299.2 437.637H269.806V474.048H299.2V437.637Z" fill="white"/>
<g style="mix-blend-mode:multiply" opacity="0.6">
<g style="mix-blend-mode:multiply" opacity="0.6">
<path d="M294.894 437.637L269.806 465.445V472.652L299.2 440.074V437.637H294.894Z" fill="#0086D2"/>
</g>
<g style="mix-blend-mode:multiply" opacity="0.6">
<path d="M282.205 474.068L299.2 455.217V448.01L275.7 474.068H282.205Z" fill="#0086D2"/>
</g>
</g>
<path d="M299.2 437.637H269.806V474.048H299.2V437.637Z" stroke="#263238" stroke-linecap="round" stroke-linejoin="round"/>
<path d="M299.2 427.159H269.806V442.99H299.2V427.159Z" fill="white" stroke="#263238" stroke-linecap="round" stroke-linejoin="round"/>
<path d="M341.222 437.637H311.828V474.048H341.222V437.637Z" fill="white"/>
<g style="mix-blend-mode:multiply" opacity="0.6">
<g style="mix-blend-mode:multiply" opacity="0.6">
<path d="M336.916 437.637L311.828 465.445V472.652L341.222 440.074V437.637H336.916Z" fill="#0086D2"/>
</g>
<g style="mix-blend-mode:multiply" opacity="0.6">
<path d="M324.227 474.068L341.222 455.217V448.01L317.722 474.068H324.227Z" fill="#0086D2"/>
</g>
</g>
<path d="M341.222 437.637H311.828V474.048H341.222V437.637Z" stroke="#263238" stroke-linecap="round" stroke-linejoin="round"/>
<path d="M341.222 427.159H311.828V442.99H341.222V427.159Z" fill="white" stroke="#263238" stroke-linecap="round" stroke-linejoin="round"/>
<path d="M383.244 437.637H353.85V474.048H383.244V437.637Z" fill="white"/>
<g style="mix-blend-mode:multiply" opacity="0.6">
<g style="mix-blend-mode:multiply" opacity="0.6">
<path d="M378.938 437.637L353.85 465.445V472.652L383.244 440.074V437.637H378.938Z" fill="#0086D2"/>
</g>
<g style="mix-blend-mode:multiply" opacity="0.6">
<path d="M366.249 474.068L383.244 455.217V448.01L359.744 474.068H366.249Z" fill="#0086D2"/>
</g>
</g>
<path d="M383.244 437.637H353.85V474.048H383.244V437.637Z" stroke="#263238" stroke-linecap="round" stroke-linejoin="round"/>
<path d="M383.244 427.159H353.85V442.99H383.244V427.159Z" fill="white" stroke="#263238" stroke-linecap="round" stroke-linejoin="round"/>
<path d="M382.878 495.169H268.371V514.978H382.878V495.169Z" fill="#263238" stroke="#263238" stroke-linecap="round" stroke-linejoin="round"/>
<path d="M382.878 489.441H268.371V509.25H382.878V489.441Z" fill="white" stroke="#263238" stroke-linecap="round" stroke-linejoin="round"/>
<path d="M223.066 1H160.69V53.4497H223.066V1Z" fill="#263238" stroke="#263238" stroke-linecap="round" stroke-linejoin="round"/>
<path d="M223.081 1H201.49V53.4497H223.081V1Z" fill="white" stroke="#263238" stroke-linecap="round" stroke-linejoin="round"/>
<path d="M381.168 13.8104H355.53V53.4497H381.168V13.8104Z" fill="#263238" stroke="#263238" stroke-linecap="round" stroke-linejoin="round"/>
<path d="M398.01 28.3913H155.177V53.4706H398.01V28.3913Z" fill="#263238" stroke="#263238" stroke-linecap="round" stroke-linejoin="round"/>
<path d="M398.01 28.3913H252.796V53.4706H398.01V28.3913Z" fill="white" stroke="#263238" stroke-linecap="round" stroke-linejoin="round"/>
<path d="M259.041 28.3913V38.9105" stroke="#263238" stroke-width="0.75" stroke-linecap="round" stroke-linejoin="round"/>
<path d="M263.011 28.3913V38.9105" stroke="#263238" stroke-width="0.75" stroke-linecap="round" stroke-linejoin="round"/>
<path d="M263.011 41.7433V49.7837" stroke="#263238" stroke-width="0.75" stroke-linecap="round" stroke-linejoin="round"/>
<path d="M266.997 28.3913V38.9105" stroke="#263238" stroke-width="0.75" stroke-linecap="round" stroke-linejoin="round"/>
<path d="M266.997 42.2016V49.6587" stroke="#263238" stroke-width="0.75" stroke-linecap="round" stroke-linejoin="round"/>
<path d="M270.692 42.2016V46.9091" stroke="#263238" stroke-width="0.75" stroke-linecap="round" stroke-linejoin="round"/>
<path d="M270.967 28.3913V38.9105" stroke="#263238" stroke-width="0.75" stroke-linecap="round" stroke-linejoin="round"/>
<path d="M275.471 36.2442V38.9104" stroke="#263238" stroke-width="0.75" stroke-linecap="round" stroke-linejoin="round"/>
<path d="M275.731 28.3913V34.3695" stroke="#263238" stroke-width="0.75" stroke-linecap="round" stroke-linejoin="round"/>
<path d="M259.041 41.0351V47.2632" stroke="#263238" stroke-width="0.75" stroke-linecap="round" stroke-linejoin="round"/>
<path d="M100.252 547.265C100.252 547.265 113.018 541.516 109.414 545.973C108.93 546.589 108.42 547.167 107.887 547.702H70.1256L68.9803 544.557L68.7055 543.807L68.2474 542.536L72.8283 538.37L67.9878 541.911L66.7204 538.016L67.6977 524.914L66.1707 536.85L65.2393 533.663L61.0096 522.623L67.8809 543.453L58.0473 538.12L68.2932 544.599L69.4842 547.89H28.6991C26.4697 547.556 23.3395 546.681 22.7745 544.244C21.8583 540.433 31.4324 540.433 31.4324 540.433C31.4324 540.433 21.4002 534.683 25.0497 533.413C28.6991 532.142 35.0818 537.225 35.0818 537.225C35.0818 537.225 31.4324 525.747 35.9827 528.289C37.1812 528.952 38.2663 529.945 39.1702 531.207C40.0741 532.468 40.7772 533.971 41.2355 535.621C40.7468 533.371 39.8306 528.06 42.3654 529.58C43.9529 530.671 45.2856 532.344 46.2133 534.413C44.9918 530.997 43.9229 525.914 49.2673 527.664C49.2673 527.664 48.1526 512 60.2003 509.146C72.248 506.292 71.6067 528.934 75.699 533.413C79.7912 537.891 84.8607 532.767 86.6473 537.87C88.4338 542.974 88.0063 545.536 88.0063 545.536C88.0063 545.536 94.847 520.644 95.7632 527.664C96.161 532.356 95.3513 537.09 93.4728 541.057C93.4728 541.057 104.421 521.269 102.146 528.934C100.751 533.591 99.0704 538.078 97.1222 542.349C97.1222 542.349 112.163 537.225 109.888 540.433C107.612 543.64 100.252 547.265 100.252 547.265Z" fill="#0086D2"/>
<path d="M82.1732 543.661C82.2801 542.515 82.4328 540.87 82.7077 538.912C82.784 538.349 82.8604 537.766 82.9673 537.141C83.7516 537.306 84.5498 537.306 85.3341 537.141C85.659 537.022 85.9623 536.812 86.2251 536.526C86.4878 536.239 86.7043 535.881 86.861 535.475C86.9185 535.273 86.945 535.057 86.9389 534.841C86.9328 534.624 86.8942 534.412 86.8255 534.217C86.7568 534.021 86.6594 533.848 86.5395 533.706C86.4195 533.564 86.2795 533.457 86.1281 533.392C85.1966 533.059 83.8682 534.6 83.3948 535.6C83.3948 535.6 83.0742 536.454 82.9367 536.871C82.9367 536.496 83.0589 536.142 83.12 535.746C83.181 535.35 83.3185 534.621 83.4101 534.059C83.5017 533.496 83.5475 533.475 83.6086 533.184C83.6697 532.892 83.746 532.621 83.8071 532.309L84.1736 531.038C84.8962 531.342 85.6469 531.503 86.4029 531.517C86.7489 531.482 87.0851 531.344 87.3883 531.114C87.6915 530.884 87.9544 530.566 88.1589 530.184C88.2429 529.997 88.2971 529.788 88.3178 529.57C88.3386 529.352 88.3255 529.131 88.2794 528.921C88.2333 528.711 88.1552 528.516 88.0503 528.35C87.9453 528.183 87.8159 528.049 87.6703 527.955C86.7847 527.435 85.3035 528.684 84.7233 529.58L84.479 530.059L84.8912 528.809C85.3035 527.622 85.7616 526.456 86.2044 525.268L86.4793 524.518C87.2132 524.85 87.9813 525.019 88.7544 525.018C89.1023 524.991 89.4414 524.859 89.7476 524.632C90.0538 524.405 90.3195 524.089 90.5257 523.706C90.6092 523.518 90.6626 523.307 90.6823 523.088C90.7019 522.87 90.6875 522.648 90.64 522.438C90.5924 522.227 90.5127 522.033 90.4062 521.867C90.2996 521.702 90.1687 521.569 90.0218 521.477C89.1362 520.956 87.655 522.206 87.0901 523.081C87.0901 523.081 86.9374 523.352 86.7999 523.644C87.0443 522.977 87.2733 522.331 87.4718 521.686C87.8473 520.565 88.1636 519.41 88.4185 518.228C89.1788 518.561 89.9715 518.737 90.77 518.749C91.1157 518.721 91.4526 518.589 91.7563 518.362C92.06 518.135 92.3229 517.819 92.526 517.436C92.61 517.249 92.6642 517.04 92.6849 516.822C92.7057 516.604 92.6926 516.383 92.6465 516.173C92.6004 515.963 92.5223 515.768 92.4174 515.602C92.3124 515.435 92.183 515.301 92.0374 515.207C91.1518 514.687 89.6706 515.936 89.0904 516.811L88.4491 518.082C88.6703 516.913 88.8235 515.722 88.9071 514.52C88.9767 513.44 89.0022 512.355 88.9835 511.271C88.9835 510.271 88.9071 509.354 88.8613 508.563C88.8613 508.125 88.8613 507.709 88.7544 507.355C88.7544 507.355 89.1057 505.834 89.1209 505.751C89.2736 504.584 89.1209 502.23 88.2047 501.585C88.0625 501.503 87.9099 501.461 87.7557 501.462C87.6015 501.462 87.4489 501.504 87.3067 501.585C87.1646 501.667 87.0357 501.786 86.9277 501.936C86.8197 502.086 86.7348 502.264 86.6778 502.459C86.591 502.915 86.5774 503.392 86.6381 503.855C86.6987 504.319 86.832 504.76 87.029 505.147C87.521 505.959 88.1031 506.662 88.7544 507.23C88.7544 507.625 88.7545 508.042 88.8461 508.5C88.8461 509.313 88.8461 510.229 88.8461 511.208C88.8461 511.479 88.8461 511.77 88.8461 512.041C88.8461 511.583 88.6934 510.937 88.6781 510.875C88.4185 509.75 87.426 507.792 86.464 507.792C86.3031 507.793 86.1443 507.841 85.998 507.932C85.8518 508.024 85.7216 508.157 85.616 508.322C85.5105 508.488 85.4321 508.682 85.3861 508.893C85.3401 509.103 85.3276 509.324 85.3493 509.542C85.4272 510.004 85.5764 510.438 85.7871 510.815C85.9977 511.192 86.2649 511.504 86.5709 511.729C87.289 512.153 88.0517 512.42 88.8308 512.52C88.8308 513.145 88.8308 513.77 88.7392 514.416C88.6443 515.608 88.4705 516.786 88.22 517.936V518.124C88.22 517.894 88.22 516.582 88.1284 516.478C87.9604 515.332 87.1359 513.229 86.1739 513.083C86.0142 513.062 85.853 513.088 85.7012 513.159C85.5493 513.229 85.4103 513.343 85.2933 513.493C85.1763 513.643 85.084 513.825 85.0226 514.027C84.9611 514.229 84.932 514.447 84.937 514.666C84.9708 515.136 85.08 515.591 85.2567 515.998C85.4335 516.405 85.6736 516.753 85.9601 517.02C86.6626 517.551 87.4191 517.937 88.2047 518.165C87.9372 519.297 87.6159 520.403 87.2428 521.477C86.9679 522.29 86.6625 523.081 86.3571 523.873C86.3571 523.56 86.3571 522.331 86.2655 522.248C86.0975 521.102 85.273 518.998 84.3263 518.853C84.1658 518.832 84.004 518.858 83.8514 518.929C83.6988 518.999 83.5589 519.113 83.4407 519.262C83.3225 519.412 83.2288 519.593 83.1656 519.796C83.1025 519.998 83.0713 520.216 83.0741 520.436C83.1108 520.905 83.2229 521.357 83.4024 521.76C83.5818 522.164 83.8243 522.508 84.1125 522.769C84.8055 523.316 85.558 523.71 86.3418 523.935C86.1891 524.289 86.0517 524.643 85.9143 524.997C85.4562 526.185 84.9829 527.351 84.54 528.518C84.4026 528.934 84.2652 529.33 84.1125 529.747C84.1125 529.288 84.1125 528.434 84.1125 528.351C83.9445 527.205 83.12 525.102 82.158 524.956C81.9982 524.935 81.8371 524.961 81.6853 525.032C81.5334 525.102 81.3944 525.216 81.2774 525.366C81.1604 525.516 81.0681 525.698 81.0066 525.9C80.9452 526.102 80.9161 526.32 80.9211 526.539C80.9546 527.012 81.0652 527.469 81.2449 527.876C81.4245 528.283 81.6687 528.631 81.9595 528.893C82.6265 529.412 83.3472 529.791 84.0972 530.018C83.8682 530.705 83.6544 531.392 83.4712 532.101C83.4712 532.413 83.3032 532.705 83.2421 532.996L83.0436 533.871C82.9215 534.475 82.7993 535.017 82.7077 535.579C82.6161 536.141 82.6008 536.141 82.555 536.412C82.555 535.933 82.555 535.183 82.555 535.121C82.555 533.933 81.9442 531.705 81.028 531.351C80.8719 531.296 80.7089 531.287 80.55 531.325C80.3911 531.363 80.2401 531.447 80.107 531.571C79.9739 531.696 79.8619 531.857 79.7784 532.046C79.695 532.234 79.6421 532.444 79.6232 532.663C79.6057 533.137 79.665 533.611 79.797 534.05C79.929 534.489 80.1303 534.883 80.3867 535.204C81.0164 535.86 81.7103 536.393 82.4481 536.787C82.3259 537.454 82.2191 538.12 82.1274 538.745C81.822 540.703 81.6388 542.37 81.5167 543.515C81.3945 544.661 81.3334 545.348 81.3334 545.348C81.3292 545.409 81.3338 545.469 81.3469 545.527C81.36 545.585 81.3814 545.639 81.4098 545.685C81.4382 545.732 81.473 545.77 81.5123 545.798C81.5516 545.826 81.5946 545.843 81.6388 545.848C81.683 545.854 81.7275 545.848 81.7699 545.83C81.8122 545.812 81.8516 545.783 81.8857 545.744C81.9197 545.705 81.9478 545.658 81.9684 545.604C81.9889 545.551 82.0014 545.492 82.0053 545.432C82.0053 545.432 82.0664 544.807 82.1732 543.661Z" fill="#0086D2"/>
<path d="M89.0599 512.416C89.8665 512.461 90.6738 512.349 91.4572 512.083C91.7843 511.925 92.0822 511.672 92.3302 511.341C92.5781 511.01 92.77 510.609 92.8925 510.167C92.938 509.957 92.9502 509.737 92.9284 509.52C92.9065 509.303 92.8512 509.095 92.766 508.91C92.6808 508.725 92.5677 508.567 92.4342 508.446C92.3007 508.325 92.1498 508.244 91.9916 508.209C91.0297 508.021 89.8386 509.75 89.4722 510.812C89.4416 510.917 89.0446 512.416 89.0599 512.416Z" fill="#0086D2"/>
<path d="M81.2418 543.64C80.8601 542.62 80.3409 541.12 79.7148 539.287C79.5469 538.766 79.3789 538.204 79.2109 537.62C79.9322 537.174 80.6012 536.584 81.196 535.871C81.4368 535.527 81.6201 535.116 81.7335 534.667C81.8468 534.217 81.8875 533.74 81.8526 533.267C81.8229 533.042 81.7574 532.828 81.6606 532.642C81.5638 532.455 81.4382 532.3 81.2926 532.186C81.1469 532.073 80.9849 532.005 80.8178 531.986C80.6507 531.968 80.4827 532 80.3256 532.08C79.4094 532.496 78.9361 534.788 78.9514 535.954C78.9514 535.954 78.9514 536.933 79.0735 537.37C78.9819 537.016 78.875 536.683 78.7681 536.308C78.6612 535.933 78.478 535.225 78.3406 534.663L78.1421 533.808C78.0657 533.517 78.0199 533.225 77.9588 532.913C77.8977 532.6 77.8214 532.038 77.7451 531.58C78.471 531.303 79.1612 530.874 79.7912 530.309C80.0681 530.02 80.296 529.652 80.4594 529.231C80.6227 528.811 80.7177 528.347 80.7379 527.872C80.7311 527.653 80.6906 527.439 80.6191 527.242C80.5476 527.046 80.4466 526.873 80.3228 526.733C80.199 526.594 80.055 526.492 79.9003 526.433C79.7456 526.374 79.5835 526.361 79.4247 526.393C78.4627 526.622 77.7451 528.768 77.6229 529.934C77.6229 529.934 77.6229 530.226 77.6229 530.517C77.6229 530.08 77.5007 529.643 77.4549 529.184C77.3328 527.893 77.2259 526.56 77.119 525.247C77.119 524.956 77.119 524.685 77.119 524.414C77.8659 524.134 78.5767 523.699 79.2262 523.123C79.5031 522.833 79.731 522.466 79.8944 522.045C80.0578 521.624 80.1528 521.161 80.1729 520.686C80.1661 520.467 80.1256 520.252 80.0541 520.056C79.9826 519.86 79.8817 519.687 79.7578 519.547C79.634 519.408 79.49 519.305 79.3353 519.247C79.1806 519.188 79.0186 519.174 78.8597 519.207C77.8978 519.436 77.1801 521.581 77.0579 522.748C77.0579 522.748 77.0579 523.102 77.0579 523.435C77.0579 522.706 76.9205 521.998 76.8289 521.352C76.683 520.141 76.4789 518.944 76.2181 517.769C76.9853 517.474 77.716 517.025 78.3864 516.436C78.6651 516.151 78.8934 515.784 79.0546 515.362C79.2158 514.94 79.3057 514.475 79.3178 513.999C79.311 513.78 79.2706 513.566 79.199 513.37C79.1275 513.174 79.0266 513 78.9027 512.861C78.7789 512.721 78.6349 512.619 78.4802 512.56C78.3255 512.502 78.1635 512.488 78.0046 512.52C77.0579 512.749 76.325 514.916 76.2181 516.082C76.2181 516.082 76.2181 517.249 76.2181 517.624C75.9414 516.478 75.5887 515.37 75.1645 514.312C74.7922 513.363 74.3792 512.445 73.9277 511.562C73.5154 510.729 73.0878 510.021 72.7214 509.375L72.1411 508.438C72.1411 508.438 71.8204 506.917 71.7899 506.813C71.4387 505.751 70.2629 503.938 69.3468 504.063C69.1876 504.092 69.0347 504.166 68.8979 504.281C68.7612 504.396 68.6436 504.549 68.5529 504.729C68.4622 504.91 68.4004 505.115 68.3714 505.33C68.3424 505.546 68.347 505.767 68.3848 505.98C68.4874 506.444 68.6637 506.871 68.9013 507.231C69.1388 507.591 69.4317 507.875 69.7591 508.063C70.5059 508.376 71.2835 508.53 72.0648 508.521L72.645 509.521C73.0115 510.167 73.4085 510.896 73.8055 511.729C73.9124 511.937 74.0193 512.187 74.1262 512.416L73.5154 511.583C72.8435 510.833 71.2249 509.937 70.4615 510.666C70.331 510.791 70.2212 510.952 70.1389 511.138C70.0566 511.324 70.0037 511.532 69.9836 511.748C69.9634 511.963 69.9765 512.182 70.022 512.391C70.0675 512.599 70.1444 512.792 70.2477 512.958C70.4982 513.29 70.7986 513.544 71.1282 513.702C71.4577 513.86 71.8086 513.919 72.1564 513.874C72.9276 513.676 73.6735 513.325 74.3705 512.833C74.5995 513.354 74.8286 513.895 75.0423 514.499C75.4489 515.551 75.7813 516.653 76.0349 517.79C76.0407 517.86 76.0407 517.929 76.0349 517.999C75.9432 517.811 75.3477 516.77 75.3019 516.707C74.6911 515.874 73.1642 514.728 72.248 515.332C72.1079 515.437 71.9853 515.58 71.8882 515.753C71.7911 515.927 71.7217 516.125 71.6843 516.337C71.6469 516.549 71.6424 516.769 71.6711 516.984C71.6998 517.198 71.7611 517.402 71.851 517.582C72.0712 517.95 72.3482 518.247 72.6623 518.453C72.9764 518.658 73.3198 518.766 73.6681 518.769C74.4701 518.696 75.2586 518.45 76.0043 518.04C76.2396 519.189 76.4181 520.358 76.5388 521.54C76.6304 522.415 76.7067 523.289 76.7678 524.185L76.0349 522.914C75.4241 522.06 73.8971 520.831 72.9809 521.54C72.8395 521.642 72.7155 521.785 72.6169 521.957C72.5183 522.129 72.4473 522.328 72.4084 522.54C72.3695 522.752 72.3637 522.972 72.3913 523.188C72.4189 523.403 72.4794 523.608 72.5687 523.789C72.7895 524.156 73.0667 524.453 73.3806 524.658C73.6946 524.863 74.0377 524.972 74.3857 524.977C75.1816 524.905 75.9645 524.666 76.7067 524.268L76.7983 525.477C76.89 526.789 76.9663 528.122 77.0732 529.434L77.2106 530.788C77.0121 530.413 76.6151 529.747 76.5846 529.684C75.9738 528.851 74.4468 527.726 73.5306 528.309C73.3917 528.418 73.2706 528.565 73.1747 528.74C73.0788 528.915 73.0101 529.115 72.973 529.328C72.9358 529.54 72.9309 529.761 72.9585 529.976C72.9861 530.192 73.0457 530.397 73.1336 530.58C73.3567 530.942 73.6346 531.234 73.9483 531.435C74.262 531.637 74.604 531.743 74.9507 531.746C75.72 531.687 76.4776 531.462 77.1953 531.08C77.287 531.809 77.3786 532.559 77.5007 533.267C77.5007 533.579 77.6076 533.892 77.6687 534.183L77.8519 535.058L78.2642 536.746C78.3406 537.016 78.4169 537.266 78.478 537.537C78.31 537.12 78.0352 536.454 78.0046 536.412C77.5007 535.454 76.1112 534.017 75.195 534.433C75.0504 534.509 74.9185 534.623 74.8073 534.77C74.6961 534.917 74.6078 535.093 74.5479 535.288C74.4879 535.483 74.4575 535.692 74.4585 535.903C74.4595 536.114 74.4919 536.323 74.5537 536.516C74.7327 536.922 74.9743 537.271 75.2616 537.537C75.549 537.803 75.8754 537.981 76.2181 538.058C77.0109 538.155 77.8101 538.078 78.5849 537.829C78.7529 538.495 78.9361 539.12 79.104 539.703C79.6538 541.578 80.1577 543.099 80.5241 544.161C80.8906 545.223 81.1196 545.827 81.1196 545.827C81.1622 545.935 81.2343 546.015 81.3202 546.051C81.4061 546.086 81.4988 546.073 81.5777 546.015C81.6567 545.957 81.7155 545.858 81.7413 545.741C81.7671 545.624 81.7577 545.498 81.7152 545.39C81.7152 545.39 81.5625 544.682 81.2418 543.64Z" fill="#0086D2"/>
<path d="M74.2941 512.395C74.9898 511.836 75.6181 511.133 76.157 510.312C76.3666 509.937 76.5136 509.505 76.5874 509.044C76.6613 508.583 76.6603 508.106 76.5845 507.646C76.5375 507.44 76.4592 507.249 76.3546 507.086C76.2501 506.924 76.1216 506.793 75.9776 506.703C75.8336 506.612 75.6773 506.564 75.5187 506.562C75.3602 506.559 75.2031 506.602 75.0576 506.688C74.1719 507.25 73.8971 509.583 74.004 510.854C74.004 510.854 74.2788 512.416 74.2941 512.395Z" fill="#0086D2"/>
<path d="M255.071 547.14C255.071 547.14 271.364 539.808 266.706 545.515C266.081 546.254 265.429 546.949 264.752 547.598H216.622L215.172 543.599L214.82 542.62L214.24 540.995L220.012 535.579L213.904 540.078L212.286 535.1L213.538 518.436L211.568 533.684L210.377 529.518L204.926 515.562L213.69 542.036L201.139 535.225L214.225 543.557L215.752 547.723H163.698C160.873 547.306 156.872 546.181 156.139 543.078C154.979 538.204 167.194 538.204 167.194 538.204C167.194 538.204 154.399 530.872 159.056 529.247C163.713 527.622 171.852 534.121 171.852 534.121C171.852 534.121 167.271 519.54 173.012 522.727C174.541 523.564 175.925 524.826 177.076 526.433C178.228 528.039 179.121 529.955 179.7 532.059C179.089 529.184 177.914 522.415 181.151 524.352C183.176 525.779 184.872 527.941 186.052 530.601C184.525 526.247 183.136 519.769 189.87 521.998C189.87 521.998 188.45 502.022 203.826 498.377C219.203 494.732 218.378 523.623 223.677 529.33C228.975 535.037 235.312 528.497 237.648 535.017C239.985 541.536 239.389 544.786 239.389 544.786C239.389 544.786 248.108 513.041 249.269 521.998C250.429 530.955 246.367 539.099 246.367 539.099C246.367 539.099 260.324 513.853 257.423 523.623C255.646 529.558 253.506 535.279 251.025 540.724C251.025 540.724 270.218 534.204 267.302 538.287C264.386 542.37 255.071 547.14 255.071 547.14Z" fill="#0086D2"/>
<path d="M231.999 542.536C232.136 541.078 232.35 538.974 232.686 536.496C232.777 535.767 232.884 535.017 233.006 534.225C234.019 534.436 235.048 534.436 236.06 534.225C236.489 534.097 236.892 533.845 237.242 533.485C237.593 533.126 237.882 532.668 238.091 532.142C238.159 531.884 238.189 531.61 238.178 531.335C238.168 531.061 238.118 530.793 238.032 530.545C237.945 530.297 237.824 530.075 237.674 529.892C237.524 529.708 237.35 529.567 237.16 529.476C235.969 529.039 234.274 531.017 233.678 532.267C233.678 532.267 233.266 533.371 233.083 533.913C233.159 533.434 233.236 532.975 233.312 532.475C233.388 531.976 233.571 531.038 233.694 530.392C233.785 530.018 233.862 529.643 233.938 529.268C234.014 528.893 234.121 528.539 234.197 528.164C234.274 527.789 234.503 527.06 234.671 526.518C235.588 526.929 236.546 527.14 237.511 527.143C237.954 527.098 238.384 526.922 238.771 526.627C239.159 526.332 239.495 525.925 239.756 525.435C239.852 525.193 239.912 524.928 239.932 524.654C239.953 524.38 239.934 524.104 239.875 523.841C239.817 523.577 239.721 523.332 239.593 523.12C239.465 522.907 239.308 522.731 239.13 522.602C238 521.936 236.076 523.539 235.373 524.685L235.053 525.289C235.221 524.768 235.404 524.227 235.587 523.706C236.106 522.206 236.686 520.686 237.251 519.186L237.603 518.228C238.546 518.639 239.529 518.856 240.519 518.874C240.961 518.831 241.39 518.658 241.777 518.367C242.165 518.075 242.502 517.673 242.764 517.186C242.86 516.944 242.92 516.679 242.941 516.405C242.961 516.132 242.942 515.855 242.884 515.592C242.825 515.329 242.729 515.083 242.601 514.871C242.473 514.658 242.316 514.482 242.138 514.353C241.008 513.687 239.084 515.27 238.381 516.436L238.015 517.145C238.32 516.311 238.61 515.478 238.885 514.645C239.356 513.219 239.754 511.75 240.076 510.25C241.064 510.679 242.094 510.904 243.13 510.916C243.572 510.874 244.001 510.701 244.389 510.41C244.776 510.118 245.113 509.716 245.375 509.229C245.47 508.986 245.53 508.72 245.549 508.445C245.569 508.171 245.548 507.893 245.488 507.63C245.429 507.366 245.331 507.122 245.202 506.91C245.072 506.698 244.913 506.524 244.734 506.396C243.604 505.73 241.68 507.313 240.992 508.479L240.168 510.104C240.46 508.617 240.654 507.097 240.748 505.563C240.847 504.179 240.877 502.787 240.84 501.397C240.833 500.235 240.782 499.074 240.687 497.919C240.687 497.356 240.687 496.856 240.565 496.377C240.565 496.377 241.008 494.44 241.023 494.294C241.222 492.794 240.947 489.795 239.863 489.003C239.677 488.894 239.478 488.835 239.276 488.831C239.074 488.828 238.873 488.879 238.686 488.981C238.498 489.084 238.328 489.236 238.184 489.43C238.04 489.623 237.925 489.853 237.847 490.107C237.73 490.692 237.707 491.303 237.781 491.901C237.855 492.498 238.023 493.066 238.274 493.565C238.91 494.612 239.656 495.525 240.489 496.273C240.489 496.773 240.565 497.294 240.595 497.877C240.595 498.918 240.702 500.085 240.702 501.356C240.702 501.689 240.702 502.064 240.702 502.418C240.702 501.814 240.504 501.001 240.489 500.918C240.168 499.481 238.962 496.981 237.679 496.96C237.477 496.979 237.279 497.052 237.098 497.175C236.917 497.299 236.756 497.47 236.624 497.68C236.491 497.889 236.391 498.132 236.329 498.395C236.266 498.658 236.242 498.935 236.259 499.21C236.351 499.798 236.535 500.352 236.798 500.834C237.062 501.316 237.399 501.714 237.786 502.001C238.704 502.542 239.677 502.886 240.672 503.022C240.672 503.813 240.672 504.605 240.534 505.438C240.42 506.956 240.2 508.456 239.878 509.917V510.167C239.878 509.854 239.786 508.188 239.756 508.084C239.542 506.626 238.504 503.918 237.282 503.751C236.877 503.751 236.489 503.97 236.202 504.361C235.916 504.752 235.755 505.282 235.755 505.834C235.802 506.434 235.943 507.013 236.17 507.531C236.397 508.048 236.703 508.493 237.068 508.833C237.961 509.516 238.923 510.015 239.924 510.312C239.579 511.733 239.171 513.125 238.702 514.478C238.351 515.499 237.969 516.561 237.572 517.52C237.572 517.103 237.465 515.562 237.45 515.437C237.236 513.978 236.198 511.271 234.961 511.104C234.556 511.104 234.168 511.323 233.881 511.714C233.595 512.105 233.434 512.634 233.434 513.187C233.482 513.789 233.626 514.369 233.856 514.887C234.085 515.405 234.395 515.848 234.762 516.186C235.652 516.863 236.609 517.361 237.603 517.665L237.068 519.04C236.473 520.519 235.877 522.019 235.327 523.519C235.134 524.046 234.951 524.567 234.778 525.081C234.778 524.477 234.686 523.394 234.671 523.31C234.457 521.831 233.403 519.144 232.182 518.957C231.777 518.957 231.389 519.176 231.102 519.567C230.816 519.958 230.655 520.487 230.655 521.04C230.699 521.643 230.84 522.226 231.067 522.748C231.294 523.27 231.601 523.717 231.968 524.06C232.825 524.723 233.752 525.201 234.717 525.477C234.427 526.351 234.152 527.226 233.907 528.101C233.8 528.476 233.694 528.872 233.617 529.247C233.541 529.622 233.434 529.976 233.358 530.351C233.205 531.122 233.052 531.83 232.93 532.538C232.93 532.913 232.808 533.246 232.747 533.6C232.747 532.996 232.823 532.017 232.823 531.934C232.823 530.434 232.044 527.58 230.853 527.122C230.655 527.068 230.45 527.068 230.252 527.123C230.053 527.177 229.864 527.285 229.697 527.44C229.529 527.596 229.386 527.795 229.275 528.026C229.164 528.258 229.088 528.517 229.052 528.789C229.031 529.395 229.108 529.999 229.277 530.561C229.446 531.122 229.702 531.626 230.029 532.038C230.825 532.904 231.71 533.606 232.655 534.121C232.518 534.975 232.365 535.829 232.258 536.621C231.877 539.12 231.632 541.224 231.464 542.703C231.296 544.182 231.25 545.036 231.25 545.036C231.242 545.193 231.279 545.348 231.353 545.469C231.427 545.589 231.533 545.666 231.647 545.682C231.705 545.69 231.763 545.683 231.818 545.66C231.873 545.637 231.925 545.599 231.969 545.549C232.013 545.498 232.049 545.436 232.076 545.366C232.102 545.295 232.117 545.219 232.121 545.14C232.121 545.14 231.861 543.994 231.999 542.536Z" fill="#0086D2"/>
<path d="M240.794 502.689C241.822 502.749 242.851 502.601 243.848 502.251C244.264 502.05 244.644 501.728 244.96 501.307C245.277 500.886 245.522 500.377 245.68 499.814C245.728 499.546 245.736 499.268 245.704 498.995C245.672 498.723 245.6 498.462 245.494 498.227C245.387 497.993 245.248 497.79 245.083 497.629C244.919 497.469 244.732 497.355 244.535 497.294C243.313 497.065 241.786 499.377 241.313 500.626C241.267 500.751 240.763 502.668 240.794 502.689Z" fill="#0086D2"/>
<path d="M230.747 542.536C230.258 541.203 229.586 539.308 228.868 536.954C228.655 536.287 228.441 535.593 228.227 534.871C229.148 534.302 230.002 533.551 230.762 532.642C231.067 532.205 231.299 531.682 231.441 531.11C231.584 530.538 231.633 529.931 231.586 529.33C231.538 529.063 231.452 528.811 231.332 528.589C231.212 528.368 231.061 528.181 230.888 528.04C230.714 527.898 230.522 527.805 230.322 527.766C230.123 527.726 229.919 527.741 229.723 527.81C228.563 528.351 227.952 531.267 227.967 532.767C227.967 532.767 228.074 533.996 228.135 534.558C227.998 534.121 227.876 533.684 227.738 533.205C227.601 532.725 227.372 531.809 227.189 531.122C227.005 530.434 227.021 530.372 226.929 530.018C226.838 529.663 226.792 529.268 226.715 528.893C226.639 528.518 226.532 527.747 226.441 527.164C227.366 526.805 228.246 526.257 229.052 525.539C229.403 525.171 229.692 524.702 229.898 524.166C230.104 523.63 230.221 523.04 230.243 522.435C230.225 522.16 230.168 521.891 230.074 521.646C229.98 521.4 229.851 521.183 229.694 521.007C229.538 520.83 229.357 520.698 229.163 520.618C228.969 520.538 228.765 520.511 228.563 520.54C227.357 520.832 226.425 523.602 226.273 525.081C226.273 525.081 226.273 525.456 226.273 525.831C226.196 525.247 226.12 524.685 226.059 524.102C225.906 522.456 225.769 520.769 225.631 519.082L225.54 518.019C226.494 517.668 227.401 517.113 228.227 516.374C228.579 516.006 228.868 515.537 229.073 515.001C229.279 514.465 229.397 513.875 229.418 513.27C229.401 512.996 229.344 512.73 229.251 512.486C229.158 512.242 229.03 512.026 228.875 511.85C228.721 511.673 228.542 511.541 228.349 511.459C228.157 511.378 227.954 511.349 227.754 511.375C226.532 511.666 225.601 514.416 225.448 515.916C225.448 515.916 225.448 516.353 225.448 516.77C225.356 515.853 225.265 514.937 225.158 514.041C224.967 512.493 224.707 510.963 224.379 509.458C225.358 509.09 226.29 508.521 227.143 507.771C227.495 507.403 227.784 506.934 227.989 506.398C228.195 505.862 228.313 505.272 228.334 504.668C228.317 504.394 228.26 504.127 228.167 503.883C228.074 503.639 227.946 503.423 227.791 503.247C227.636 503.071 227.458 502.938 227.265 502.856C227.073 502.775 226.87 502.746 226.67 502.772C225.448 503.064 224.517 505.834 224.364 507.313C224.364 507.417 224.364 508.792 224.364 509.292C223.998 507.853 223.543 506.46 223.005 505.126C222.548 503.918 222.038 502.75 221.478 501.626C220.959 500.564 220.424 499.648 219.951 498.835L219.218 497.648C219.218 497.648 218.79 495.69 218.76 495.565C218.317 494.19 216.882 491.899 215.706 492.065C215.503 492.095 215.307 492.185 215.131 492.327C214.956 492.47 214.805 492.662 214.689 492.892C214.573 493.121 214.495 493.382 214.46 493.656C214.424 493.931 214.433 494.212 214.484 494.482C214.623 495.057 214.852 495.585 215.155 496.027C215.458 496.47 215.829 496.817 216.24 497.044C217.19 497.446 218.178 497.65 219.172 497.648C219.401 498.023 219.661 498.439 219.92 498.898C220.378 499.731 220.898 500.647 221.447 501.73C221.585 502.001 221.722 502.314 221.86 502.626C221.554 502.168 221.127 501.585 221.081 501.522C220.226 500.585 218.164 499.439 217.126 500.356C216.966 500.523 216.831 500.732 216.731 500.971C216.63 501.209 216.565 501.473 216.539 501.746C216.514 502.019 216.528 502.296 216.582 502.562C216.635 502.827 216.727 503.076 216.851 503.293C217.169 503.717 217.551 504.041 217.971 504.242C218.39 504.443 218.837 504.518 219.279 504.459C220.263 504.215 221.215 503.773 222.104 503.147C222.394 503.814 222.699 504.501 222.974 505.23C223.483 506.564 223.902 507.959 224.226 509.396C224.226 509.396 224.226 509.563 224.226 509.646C224.089 509.396 223.341 508.084 223.28 508C222.501 506.917 220.546 505.48 219.447 506.23C219.273 506.373 219.122 506.562 219.002 506.785C218.882 507.009 218.796 507.263 218.749 507.533C218.702 507.803 218.695 508.082 218.728 508.356C218.762 508.629 218.835 508.891 218.943 509.125C219.225 509.587 219.578 509.961 219.976 510.22C220.374 510.479 220.808 510.617 221.249 510.625C222.295 510.537 223.326 510.228 224.303 509.708C224.607 511.171 224.836 512.66 224.99 514.166C225.112 515.27 225.204 516.395 225.28 517.54C225.112 517.207 224.41 515.978 224.349 515.916C223.57 514.832 221.615 513.395 220.516 514.145C220.342 514.288 220.19 514.477 220.071 514.701C219.951 514.925 219.865 515.179 219.818 515.448C219.771 515.718 219.764 515.998 219.797 516.271C219.831 516.545 219.904 516.806 220.012 517.04C220.296 517.505 220.65 517.88 221.051 518.139C221.452 518.398 221.889 518.535 222.333 518.54C223.349 518.442 224.348 518.133 225.295 517.624C225.295 518.144 225.295 518.665 225.402 519.186C225.509 520.873 225.616 522.56 225.753 524.248C225.753 524.81 225.86 525.372 225.937 525.956L225.127 524.56C224.349 523.498 222.394 522.04 221.295 522.81C221.123 522.953 220.973 523.141 220.855 523.363C220.736 523.586 220.651 523.837 220.604 524.105C220.557 524.372 220.55 524.649 220.582 524.92C220.614 525.191 220.685 525.451 220.791 525.685C221.071 526.151 221.423 526.528 221.821 526.791C222.219 527.053 222.654 527.195 223.096 527.205C224.08 527.111 225.048 526.816 225.967 526.331C226.074 527.268 226.196 528.205 226.349 529.122C226.425 529.518 226.486 529.913 226.563 530.288L226.807 531.413C226.99 532.163 227.158 532.871 227.341 533.496C227.418 533.85 227.509 534.184 227.601 534.517C227.387 533.975 227.036 533.142 227.005 533.08C226.364 531.851 224.578 530.018 223.417 530.538C223.23 530.643 223.059 530.798 222.916 530.993C222.772 531.189 222.659 531.421 222.582 531.677C222.506 531.933 222.467 532.207 222.469 532.484C222.47 532.76 222.513 533.034 222.593 533.288C222.82 533.808 223.127 534.255 223.494 534.597C223.86 534.939 224.277 535.167 224.715 535.267C225.738 535.379 226.767 535.28 227.769 534.975L228.441 537.371C229.143 539.745 229.785 541.682 230.258 543.036C230.731 544.39 231.006 545.119 231.006 545.119C231.064 545.251 231.155 545.347 231.263 545.39C231.371 545.432 231.486 545.417 231.586 545.348C231.686 545.269 231.761 545.142 231.795 544.991C231.829 544.841 231.82 544.678 231.77 544.536C231.77 544.536 231.22 543.849 230.747 542.536Z" fill="#0086D2"/>
<path d="M221.951 502.668C222.833 501.936 223.635 501.038 224.333 500.002C224.598 499.519 224.783 498.963 224.876 498.374C224.968 497.784 224.965 497.174 224.868 496.585C224.798 496.328 224.692 496.092 224.555 495.89C224.418 495.689 224.253 495.526 224.07 495.412C223.887 495.298 223.689 495.234 223.488 495.225C223.287 495.215 223.086 495.26 222.898 495.356C221.783 496.086 221.371 499.064 221.554 500.564C221.57 500.689 221.936 502.668 221.951 502.668Z" fill="#0086D2"/>
<path d="M110.468 547.348C110.468 547.348 100.405 542.87 103.276 546.369C103.78 546.952 104.177 547.39 104.497 547.702H134.258L135.159 545.265L135.373 544.661L135.739 543.661L132.166 540.349L135.938 543.099L136.93 540.057L136.167 529.83L137.388 539.162L138.121 536.662L141.45 528.039L136.029 544.244L143.786 540.078L135.709 545.14L134.762 547.702H166.95C168.706 547.452 171.165 546.765 171.623 544.869C172.34 541.87 164.797 541.87 164.797 541.87C164.797 541.87 172.707 537.391 169.821 536.391C166.935 535.392 161.911 539.391 161.911 539.391C161.911 539.391 164.797 530.413 161.194 532.413C160.252 532.921 159.397 533.691 158.685 534.674C157.973 535.656 157.418 536.83 157.055 538.12C157.437 536.371 158.155 532.225 156.155 533.413C154.906 534.271 153.851 535.574 153.101 537.183C154.063 534.517 154.918 530.559 150.749 531.913C150.965 528.445 150.184 524.998 148.571 522.3C146.959 519.603 144.64 517.866 142.106 517.457C132.609 515.228 133.113 532.913 129.891 536.391C126.669 539.87 122.699 535.891 121.263 539.891C120.448 541.677 120.069 543.77 120.179 545.869C120.179 545.869 114.789 526.435 114.071 531.913C113.762 535.565 114.4 539.25 115.873 542.328C115.873 542.328 107.231 526.893 109.033 532.871C110.132 536.49 111.455 539.974 112.987 543.286C112.987 543.286 101.123 539.308 102.925 541.786C104.726 544.265 110.468 547.348 110.468 547.348Z" fill="#0086D2"/>
<path d="M160.018 544.557C159.941 543.661 159.804 542.474 159.605 540.849C159.605 540.412 159.468 539.933 159.392 539.454C158.774 539.586 158.146 539.586 157.529 539.454C157.263 539.372 157.013 539.212 156.797 538.986C156.58 538.759 156.403 538.471 156.277 538.141C156.226 537.984 156.202 537.813 156.204 537.641C156.207 537.47 156.237 537.301 156.292 537.146C156.347 536.992 156.426 536.855 156.524 536.747C156.621 536.638 156.735 536.559 156.857 536.516C157.59 536.246 158.628 537.454 158.995 538.225C159.129 538.549 159.252 538.883 159.361 539.224L159.224 538.35C159.224 537.912 159.071 537.475 158.979 537.037L158.842 536.35C158.842 536.121 158.735 535.892 158.674 535.662C158.613 535.433 158.491 534.996 158.384 534.663C157.816 534.906 157.224 535.033 156.628 535.038C156.354 535.014 156.088 534.909 155.848 534.729C155.608 534.548 155.4 534.298 155.238 533.996C155.173 533.849 155.132 533.686 155.117 533.516C155.102 533.345 155.113 533.173 155.151 533.009C155.188 532.846 155.251 532.695 155.335 532.567C155.418 532.439 155.521 532.337 155.635 532.267C156.338 531.851 157.498 532.83 157.956 533.517L158.155 533.892C158.048 533.579 157.941 533.246 157.819 532.934C157.498 532.017 157.147 531.08 156.796 530.163L156.567 529.58C155.984 529.832 155.377 529.965 154.765 529.976C154.492 529.948 154.227 529.841 153.987 529.661C153.747 529.482 153.539 529.234 153.375 528.934C153.313 528.787 153.273 528.623 153.26 528.454C153.246 528.285 153.258 528.113 153.295 527.951C153.333 527.788 153.394 527.638 153.476 527.51C153.559 527.381 153.659 527.278 153.772 527.206C154.475 526.789 155.635 527.768 156.093 528.455C156.093 528.455 156.2 528.684 156.322 528.893C156.124 528.393 155.956 527.872 155.788 527.372C155.492 526.495 155.242 525.59 155.04 524.664C154.443 524.929 153.82 525.07 153.192 525.081C152.918 525.06 152.651 524.956 152.411 524.776C152.17 524.595 151.962 524.344 151.803 524.039C151.737 523.894 151.695 523.732 151.679 523.562C151.663 523.393 151.673 523.221 151.709 523.058C151.745 522.895 151.806 522.744 151.888 522.615C151.97 522.486 152.071 522.382 152.184 522.31C152.887 521.894 154.063 522.873 154.505 523.56L155.009 524.56C154.825 523.647 154.702 522.713 154.643 521.769C154.643 520.873 154.643 520.04 154.643 519.248C154.643 518.457 154.643 517.749 154.734 517.165C154.826 516.582 154.734 516.52 154.826 516.228C154.826 516.228 154.551 515.041 154.536 514.958C154.429 514.062 154.536 512.229 155.269 511.75C155.381 511.671 155.504 511.627 155.63 511.618C155.755 511.61 155.881 511.638 155.998 511.702C156.115 511.765 156.221 511.861 156.308 511.984C156.396 512.107 156.463 512.255 156.506 512.416C156.576 512.768 156.588 513.137 156.544 513.497C156.499 513.856 156.397 514.198 156.246 514.499C155.852 515.146 155.389 515.708 154.872 516.166C154.872 516.457 154.872 516.791 154.872 517.145C154.872 517.499 154.872 518.499 154.872 519.228V519.873C154.872 519.519 155.009 518.999 155.009 518.957C155.223 518.082 156.002 516.561 156.75 516.541C156.877 516.542 157.001 516.58 157.117 516.652C157.232 516.724 157.334 516.829 157.418 516.958C157.501 517.088 157.564 517.24 157.602 517.405C157.639 517.57 157.651 517.744 157.636 517.915C157.575 518.278 157.457 518.618 157.291 518.913C157.125 519.207 156.915 519.45 156.674 519.623C156.105 519.954 155.502 520.165 154.887 520.248C154.887 520.727 154.887 521.227 154.963 521.727C155.039 522.659 155.177 523.579 155.376 524.477C155.371 524.525 155.371 524.574 155.376 524.623C155.376 524.435 155.376 523.414 155.452 523.331C155.59 522.435 156.231 520.811 156.979 520.686C157.104 520.671 157.229 520.692 157.347 520.748C157.466 520.803 157.574 520.891 157.666 521.007C157.758 521.122 157.831 521.263 157.881 521.419C157.931 521.575 157.957 521.744 157.956 521.915C157.929 522.283 157.843 522.638 157.703 522.955C157.563 523.272 157.373 523.543 157.147 523.748C156.592 524.169 155.996 524.478 155.376 524.664C155.556 525.575 155.786 526.466 156.063 527.33C156.277 527.955 156.506 528.559 156.75 529.184C156.75 528.934 156.75 527.997 156.75 527.914C156.887 527.018 157.529 525.393 158.277 525.268C158.402 525.254 158.527 525.275 158.645 525.33C158.764 525.385 158.872 525.474 158.964 525.589C159.056 525.705 159.129 525.845 159.179 526.002C159.229 526.158 159.255 526.327 159.254 526.497C159.227 526.866 159.141 527.221 159.001 527.538C158.861 527.855 158.671 528.126 158.445 528.33C157.893 528.754 157.295 529.057 156.674 529.226L157.01 530.08C157.376 530.997 157.743 531.913 158.094 532.83C158.216 533.142 158.323 533.454 158.43 533.767C158.43 533.413 158.43 532.746 158.43 532.705C158.567 531.788 159.224 530.163 159.957 530.038C160.082 530.021 160.208 530.039 160.327 530.093C160.447 530.147 160.556 530.235 160.649 530.352C160.741 530.468 160.814 530.61 160.864 530.768C160.913 530.926 160.937 531.096 160.934 531.267C160.907 531.636 160.82 531.991 160.68 532.308C160.54 532.625 160.351 532.896 160.125 533.1C159.598 533.518 159.026 533.821 158.43 533.996C158.613 534.517 158.781 535.058 158.934 535.579L159.117 536.287L159.27 536.954C159.361 537.433 159.453 537.87 159.529 538.308C159.605 538.745 159.529 538.745 159.651 538.954C159.651 538.579 159.651 537.995 159.651 537.933C159.651 537.016 160.14 535.267 160.873 534.996C160.996 534.953 161.124 534.946 161.248 534.976C161.373 535.005 161.492 535.07 161.597 535.166C161.703 535.263 161.792 535.388 161.859 535.535C161.926 535.681 161.97 535.845 161.988 536.017C162.012 536.403 161.972 536.792 161.868 537.153C161.765 537.514 161.602 537.838 161.392 538.1C160.894 538.62 160.343 539.04 159.758 539.349C159.85 539.87 159.941 540.391 160.018 540.87C160.247 542.411 160.399 543.703 160.491 544.599C160.583 545.494 160.644 546.036 160.644 546.036C160.645 546.131 160.62 546.223 160.576 546.296C160.531 546.368 160.468 546.417 160.399 546.432C160.364 546.437 160.328 546.433 160.294 546.419C160.26 546.405 160.229 546.382 160.201 546.351C160.174 546.32 160.152 546.281 160.136 546.238C160.12 546.194 160.111 546.147 160.109 546.098C160.109 546.098 160.109 545.452 160.018 544.557Z" fill="#0086D2"/>
<path d="M154.536 520.165C153.899 520.197 153.261 520.106 152.642 519.894C152.386 519.771 152.152 519.573 151.957 519.314C151.761 519.055 151.61 518.741 151.513 518.394C151.479 518.23 151.471 518.057 151.489 517.888C151.508 517.719 151.553 517.558 151.621 517.414C151.688 517.27 151.778 517.148 151.883 517.055C151.988 516.961 152.106 516.9 152.23 516.874C152.978 516.728 153.91 518.082 154.215 518.957C154.292 518.998 154.536 520.165 154.536 520.165Z" fill="#0086D2"/>
<path d="M160.796 544.536C161.102 543.724 161.514 542.557 161.957 541.141C162.094 540.724 162.217 540.287 162.354 539.828C161.797 539.477 161.282 539.014 160.827 538.454C160.633 538.181 160.487 537.852 160.4 537.491C160.313 537.13 160.287 536.747 160.323 536.371C160.348 536.202 160.398 536.043 160.47 535.902C160.542 535.762 160.635 535.644 160.743 535.556C160.851 535.467 160.971 535.411 161.096 535.39C161.221 535.369 161.348 535.384 161.468 535.433C162.186 535.767 162.568 537.516 162.568 538.475C162.568 538.475 162.568 539.224 162.461 539.579L162.69 538.745C162.812 538.329 162.934 537.891 163.041 537.475L163.194 536.787C163.194 536.558 163.285 536.329 163.331 536.1C163.377 535.871 163.453 535.412 163.499 535.058C162.932 534.833 162.392 534.496 161.896 534.059C161.679 533.834 161.5 533.548 161.371 533.221C161.242 532.894 161.166 532.534 161.148 532.163C161.155 531.991 161.188 531.823 161.245 531.669C161.303 531.516 161.382 531.38 161.48 531.27C161.577 531.161 161.69 531.08 161.812 531.033C161.933 530.986 162.061 530.973 162.186 530.997C162.934 531.184 163.514 532.871 163.606 533.767C163.606 533.767 163.606 533.996 163.606 534.225C163.606 533.892 163.698 533.538 163.728 533.184C163.835 532.163 163.911 531.101 164.003 530.101V529.455C163.415 529.237 162.854 528.9 162.339 528.455C162.123 528.226 161.946 527.936 161.82 527.606C161.693 527.275 161.62 526.911 161.606 526.539C161.613 526.368 161.646 526.2 161.703 526.047C161.761 525.895 161.841 525.76 161.939 525.652C162.037 525.544 162.15 525.465 162.271 525.421C162.393 525.376 162.52 525.367 162.644 525.393C163.392 525.581 163.973 527.247 164.064 528.164C164.064 528.164 164.064 528.434 164.064 528.684C164.064 528.122 164.171 527.58 164.247 527.018C164.356 526.074 164.515 525.141 164.721 524.227C164.115 524 163.539 523.649 163.011 523.185C162.793 522.963 162.614 522.678 162.488 522.35C162.361 522.022 162.289 521.66 162.278 521.29C162.283 521.119 162.314 520.951 162.37 520.797C162.425 520.644 162.504 520.508 162.6 520.398C162.696 520.288 162.808 520.207 162.929 520.16C163.05 520.112 163.176 520.1 163.301 520.123C164.064 520.311 164.629 521.998 164.721 522.915C164.721 522.915 164.721 523.81 164.721 524.123C164.942 523.228 165.223 522.364 165.561 521.54C165.858 520.821 166.184 520.126 166.538 519.457C166.858 518.811 167.194 518.249 167.485 517.749L167.943 517.02C167.943 517.02 168.202 515.832 168.217 515.749C168.492 514.916 169.378 513.499 170.141 513.666C170.266 513.685 170.386 513.74 170.494 513.827C170.602 513.914 170.695 514.031 170.767 514.171C170.839 514.311 170.889 514.47 170.913 514.638C170.936 514.806 170.934 514.979 170.905 515.145C170.821 515.499 170.68 515.823 170.492 516.093C170.305 516.364 170.075 516.573 169.821 516.707C169.232 516.954 168.62 517.08 168.004 517.082C167.84 517.326 167.687 517.584 167.546 517.853C167.216 518.405 166.911 518.982 166.629 519.582C166.534 519.754 166.447 519.935 166.37 520.123L166.859 519.457C167.378 518.874 168.66 518.186 169.302 518.749C169.405 518.845 169.492 518.97 169.557 519.115C169.623 519.261 169.665 519.424 169.68 519.593C169.696 519.762 169.686 519.934 169.649 520.097C169.613 520.26 169.552 520.411 169.47 520.54C169.268 520.803 169.027 521.003 168.764 521.125C168.5 521.247 168.22 521.289 167.943 521.248C167.33 521.103 166.738 520.829 166.187 520.436C166.003 520.852 165.82 521.269 165.652 521.727C165.338 522.556 165.077 523.42 164.873 524.31C164.873 524.31 164.873 524.414 164.873 524.477L165.454 523.456C165.927 522.81 167.149 521.936 167.82 522.394C167.931 522.473 168.028 522.583 168.105 522.717C168.182 522.851 168.238 523.005 168.268 523.171C168.299 523.336 168.303 523.508 168.281 523.676C168.259 523.843 168.211 524.003 168.141 524.144C167.965 524.431 167.746 524.664 167.498 524.826C167.251 524.988 166.98 525.075 166.706 525.081C166.073 525.016 165.451 524.827 164.858 524.518C164.672 525.406 164.535 526.311 164.446 527.226C164.37 527.914 164.308 528.601 164.263 529.309C164.37 529.101 164.797 528.351 164.843 528.31C165.316 527.643 166.523 526.768 167.21 527.226C167.321 527.307 167.419 527.419 167.496 527.556C167.573 527.692 167.628 527.849 167.657 528.017C167.686 528.185 167.688 528.359 167.664 528.528C167.639 528.697 167.589 528.857 167.515 528.997C167.342 529.282 167.125 529.511 166.879 529.669C166.634 529.828 166.366 529.911 166.095 529.913C165.466 529.863 164.847 529.673 164.263 529.351C164.263 529.684 164.263 529.997 164.186 530.309C164.186 531.351 164.049 532.392 163.973 533.392C163.973 533.746 163.896 534.1 163.866 534.454C164.018 534.163 164.324 533.642 164.354 533.6C164.843 532.955 166.049 532.059 166.721 532.517C166.834 532.596 166.933 532.707 167.012 532.842C167.09 532.978 167.147 533.135 167.177 533.303C167.208 533.471 167.211 533.645 167.188 533.815C167.164 533.985 167.115 534.146 167.042 534.288C166.865 534.573 166.646 534.802 166.398 534.961C166.15 535.119 165.88 535.202 165.606 535.204C165 535.154 164.403 534.979 163.835 534.683C163.777 535.259 163.696 535.829 163.591 536.392C163.591 536.621 163.514 536.871 163.469 537.1L163.316 537.787L162.995 539.099C162.995 539.329 162.873 539.516 162.827 539.724C162.949 539.391 163.179 538.891 163.194 538.849C163.591 538.1 164.721 536.975 165.423 537.308C165.541 537.364 165.649 537.454 165.739 537.571C165.83 537.688 165.901 537.83 165.949 537.987C165.996 538.145 166.019 538.314 166.015 538.484C166.011 538.654 165.981 538.821 165.927 538.974C165.784 539.292 165.593 539.565 165.367 539.773C165.14 539.982 164.883 540.121 164.614 540.183C163.99 540.242 163.364 540.186 162.751 540.016C162.614 540.516 162.476 541.016 162.339 541.474C161.896 542.932 161.499 544.119 161.209 544.953L160.751 546.244C160.736 546.287 160.715 546.326 160.689 546.357C160.663 546.388 160.632 546.412 160.599 546.425C160.566 546.439 160.531 546.443 160.497 546.437C160.462 546.431 160.429 546.415 160.399 546.39C160.367 546.368 160.339 546.338 160.316 546.3C160.293 546.262 160.276 546.219 160.266 546.172C160.256 546.125 160.253 546.076 160.257 546.027C160.262 545.979 160.274 545.932 160.293 545.89C160.293 545.89 160.506 545.348 160.796 544.536Z" fill="#0086D2"/>
<path d="M166.232 520.144C165.666 519.711 165.151 519.163 164.706 518.519C164.54 518.227 164.425 517.889 164.367 517.529C164.308 517.169 164.309 516.796 164.37 516.436C164.408 516.272 164.471 516.121 164.556 515.992C164.64 515.864 164.743 515.761 164.858 515.69C164.973 515.62 165.098 515.583 165.224 515.582C165.351 515.581 165.476 515.617 165.591 515.686C166.278 516.124 166.507 517.957 166.416 518.873C166.462 518.998 166.248 520.165 166.232 520.144Z" fill="#0086D2"/>
<path d="M125.356 544.994C125.356 544.307 125.203 543.349 125.035 542.203C125.035 541.87 124.943 541.516 124.898 541.162C124.427 541.26 123.948 541.26 123.478 541.162C123.279 541.104 123.091 540.986 122.93 540.817C122.769 540.647 122.638 540.43 122.546 540.183C122.508 540.064 122.488 539.936 122.489 539.807C122.49 539.678 122.512 539.551 122.553 539.434C122.593 539.317 122.652 539.214 122.725 539.131C122.797 539.048 122.882 538.987 122.974 538.954C123.523 538.766 124.317 539.662 124.592 540.245L124.867 540.995C124.867 540.787 124.867 540.557 124.76 540.349C124.653 540.141 124.638 539.683 124.577 539.349L124.47 538.829C124.436 538.659 124.396 538.492 124.348 538.329C124.348 538.079 124.211 537.829 124.134 537.558C123.705 537.749 123.257 537.848 122.806 537.85C122.602 537.832 122.404 537.754 122.224 537.62C122.045 537.487 121.889 537.302 121.767 537.079C121.718 536.969 121.686 536.845 121.673 536.717C121.661 536.588 121.669 536.458 121.696 536.334C121.724 536.21 121.77 536.095 121.832 535.997C121.895 535.9 121.971 535.821 122.058 535.767C122.592 535.454 123.462 536.183 123.798 536.704L123.951 536.996C123.879 536.747 123.797 536.504 123.707 536.266C123.462 535.579 123.203 534.871 122.928 534.184L122.775 533.746C122.337 533.942 121.878 534.04 121.416 534.038C121.21 534.023 121.008 533.946 120.826 533.813C120.644 533.68 120.486 533.493 120.363 533.267C120.315 533.156 120.285 533.033 120.274 532.905C120.263 532.777 120.271 532.648 120.299 532.525C120.326 532.402 120.371 532.288 120.432 532.19C120.493 532.091 120.568 532.012 120.653 531.955C121.187 531.642 122.073 532.392 122.409 532.913L122.577 533.225C122.439 532.85 122.302 532.455 122.18 532.08C121.956 531.404 121.768 530.708 121.615 529.997C121.163 530.182 120.696 530.287 120.225 530.309C120.019 530.281 119.82 530.197 119.639 530.061C119.458 529.925 119.299 529.74 119.172 529.518C119.124 529.408 119.094 529.286 119.084 529.16C119.073 529.034 119.081 528.906 119.108 528.785C119.136 528.663 119.181 528.551 119.242 528.455C119.303 528.359 119.378 528.281 119.462 528.226C119.996 527.914 120.866 528.643 121.218 529.163L121.599 529.913C121.474 529.228 121.382 528.532 121.325 527.83C121.295 527.199 121.295 526.566 121.325 525.935C121.325 525.352 121.325 524.81 121.325 524.331C121.325 523.852 121.325 523.852 121.325 523.623C121.24 523.309 121.169 522.989 121.111 522.665C121.019 521.977 121.111 520.582 121.645 520.248C121.731 520.19 121.824 520.157 121.92 520.151C122.015 520.145 122.11 520.166 122.199 520.213C122.289 520.26 122.369 520.332 122.437 520.424C122.505 520.516 122.557 520.627 122.592 520.748C122.645 521.017 122.653 521.299 122.616 521.573C122.579 521.846 122.498 522.106 122.378 522.331C122.09 522.822 121.744 523.245 121.355 523.581V524.331C121.331 524.858 121.331 525.387 121.355 525.914V526.414C121.355 526.122 121.447 525.747 121.462 525.727C121.615 525.06 122.195 523.914 122.775 523.894C122.87 523.898 122.962 523.93 123.047 523.986C123.133 524.042 123.208 524.121 123.27 524.219C123.332 524.317 123.378 524.431 123.406 524.554C123.433 524.677 123.442 524.807 123.432 524.935C123.381 525.205 123.292 525.458 123.169 525.68C123.046 525.902 122.891 526.088 122.714 526.226C122.285 526.468 121.832 526.622 121.37 526.685C121.349 527.059 121.349 527.435 121.37 527.81C121.416 528.515 121.513 529.213 121.661 529.893C121.667 529.934 121.667 529.976 121.661 530.018C121.661 529.872 121.661 529.101 121.661 529.059C121.767 528.372 122.241 527.143 122.821 526.976C122.914 526.965 123.008 526.98 123.097 527.021C123.186 527.062 123.267 527.127 123.336 527.213C123.405 527.3 123.46 527.405 123.498 527.522C123.535 527.639 123.554 527.765 123.554 527.893C123.535 528.173 123.471 528.444 123.365 528.686C123.259 528.927 123.115 529.133 122.943 529.288C122.527 529.598 122.079 529.823 121.615 529.955C121.776 530.621 121.965 531.275 122.18 531.913L122.714 533.309C122.714 533.121 122.714 532.413 122.714 532.35C122.821 531.684 123.31 530.434 123.875 530.267C123.969 530.256 124.064 530.271 124.154 530.313C124.244 530.355 124.326 530.423 124.395 530.512C124.465 530.6 124.519 530.708 124.556 530.827C124.593 530.947 124.61 531.075 124.608 531.205C124.589 531.482 124.524 531.75 124.419 531.988C124.313 532.227 124.168 532.429 123.997 532.58C123.587 532.892 123.144 533.117 122.684 533.246C122.756 533.468 122.837 533.683 122.928 533.892C123.203 534.579 123.478 535.267 123.737 535.975C123.829 536.204 123.905 536.454 123.997 536.683C123.997 536.412 123.997 535.912 123.997 535.871C124.104 535.204 124.577 533.975 125.157 533.788C125.252 533.776 125.347 533.792 125.437 533.834C125.527 533.876 125.609 533.943 125.678 534.032C125.747 534.12 125.802 534.228 125.839 534.347C125.875 534.467 125.893 534.596 125.89 534.725C125.868 535.001 125.802 535.268 125.697 535.505C125.591 535.743 125.449 535.946 125.279 536.1C124.882 536.419 124.449 536.644 123.997 536.766C124.134 537.162 124.272 537.579 124.378 537.975C124.431 538.145 124.477 538.318 124.516 538.495L124.638 538.995C124.638 539.349 124.776 539.683 124.837 540.016C124.869 540.173 124.895 540.333 124.913 540.495C124.913 540.224 124.913 539.766 124.913 539.745C124.913 539.037 125.279 537.662 125.829 537.516C125.922 537.486 126.018 537.482 126.111 537.505C126.205 537.528 126.294 537.578 126.373 537.65C126.452 537.722 126.519 537.816 126.57 537.926C126.621 538.036 126.655 538.159 126.669 538.287C126.676 538.567 126.638 538.846 126.559 539.105C126.48 539.363 126.361 539.596 126.211 539.787C125.84 540.18 125.428 540.496 124.989 540.724C124.989 541.12 125.127 541.495 125.173 541.87C125.356 543.015 125.463 543.953 125.539 544.661C125.615 545.369 125.646 545.744 125.646 545.744C125.65 545.818 125.634 545.892 125.6 545.95C125.566 546.008 125.517 546.046 125.463 546.057C125.484 546.059 125.504 546.066 125.524 546.077C125.524 546.077 125.417 545.661 125.356 544.994Z" fill="#0086D2"/>
<path d="M121.263 526.643C120.786 526.672 120.308 526.609 119.843 526.456C119.653 526.356 119.479 526.204 119.332 526.011C119.185 525.818 119.068 525.587 118.988 525.331C118.964 525.206 118.958 525.075 118.973 524.948C118.988 524.82 119.023 524.698 119.075 524.59C119.127 524.482 119.195 524.39 119.275 524.32C119.354 524.25 119.444 524.204 119.538 524.185C120.103 524.06 120.805 525.081 121.065 525.706C121.05 525.768 121.279 526.643 121.263 526.643Z" fill="#0086D2"/>
<path d="M125.951 544.973C126.165 544.369 126.486 543.494 126.822 542.432C126.913 542.12 127.02 541.786 127.112 541.432C126.685 541.173 126.289 540.829 125.936 540.412C125.794 540.213 125.686 539.973 125.62 539.71C125.554 539.447 125.531 539.167 125.554 538.891C125.572 538.764 125.608 538.644 125.662 538.538C125.716 538.433 125.785 538.343 125.866 538.277C125.947 538.21 126.037 538.167 126.13 538.151C126.224 538.135 126.319 538.145 126.409 538.183C126.959 538.433 127.249 539.787 127.234 540.474C127.234 540.474 127.234 541.036 127.158 541.307L127.341 540.682C127.432 540.37 127.509 540.037 127.6 539.703L127.707 539.203C127.75 539.033 127.786 538.859 127.814 538.683L127.952 537.891C127.518 537.731 127.106 537.478 126.73 537.141C126.567 536.976 126.432 536.763 126.337 536.518C126.242 536.273 126.188 536.002 126.18 535.725C126.183 535.595 126.207 535.467 126.249 535.35C126.291 535.233 126.351 535.13 126.425 535.047C126.498 534.964 126.584 534.904 126.676 534.87C126.768 534.836 126.865 534.829 126.959 534.85C127.524 534.975 127.952 536.246 128.028 536.933V537.287C128.028 537.016 128.104 536.745 128.12 536.496C128.211 535.725 128.272 534.954 128.333 534.183C128.341 534.017 128.341 533.85 128.333 533.683C127.897 533.517 127.48 533.264 127.096 532.934C126.932 532.764 126.797 532.547 126.699 532.299C126.602 532.051 126.544 531.777 126.532 531.496C126.539 531.368 126.565 531.244 126.609 531.13C126.653 531.016 126.712 530.916 126.785 530.834C126.858 530.752 126.942 530.692 127.032 530.655C127.122 530.619 127.217 530.607 127.31 530.621C127.875 530.767 128.318 532.038 128.379 532.704C128.379 532.704 128.379 532.892 128.379 533.1C128.409 532.674 128.455 532.25 128.517 531.83C128.603 531.126 128.721 530.431 128.868 529.747C128.415 529.577 127.983 529.317 127.585 528.976C127.423 528.805 127.29 528.588 127.195 528.34C127.1 528.091 127.045 527.818 127.035 527.539C127.041 527.41 127.066 527.285 127.109 527.171C127.152 527.056 127.212 526.956 127.285 526.875C127.359 526.794 127.444 526.736 127.535 526.703C127.626 526.67 127.721 526.664 127.814 526.685C128.379 526.81 128.807 528.08 128.883 528.768C128.883 528.768 128.883 529.434 128.883 529.663C129.049 528.993 129.258 528.345 129.509 527.726C129.727 527.163 129.972 526.621 130.242 526.101C130.486 525.622 130.746 525.206 130.96 524.831L131.296 524.268C131.296 524.268 131.494 523.373 131.509 523.331C131.723 522.685 132.395 521.623 133.036 521.706C133.13 521.724 133.22 521.767 133.301 521.834C133.382 521.901 133.452 521.99 133.507 522.096C133.561 522.201 133.599 522.321 133.618 522.448C133.637 522.574 133.636 522.705 133.617 522.831C133.543 523.091 133.432 523.328 133.291 523.528C133.149 523.729 132.98 523.888 132.792 523.998C132.352 524.185 131.894 524.277 131.433 524.268L131.082 524.852C130.868 525.227 130.624 525.664 130.395 526.143L130.196 526.56L130.563 526.06C130.96 525.622 131.922 525.102 132.395 525.518C132.474 525.59 132.54 525.684 132.59 525.793C132.64 525.903 132.673 526.025 132.686 526.153C132.699 526.281 132.692 526.411 132.665 526.535C132.639 526.659 132.594 526.774 132.532 526.872C132.385 527.07 132.207 527.222 132.012 527.315C131.817 527.409 131.608 527.443 131.403 527.414C130.945 527.303 130.503 527.099 130.089 526.81C129.952 527.122 129.814 527.435 129.677 527.789C129.442 528.41 129.248 529.058 129.097 529.726V529.83L129.54 529.08C129.906 528.58 130.807 527.914 131.326 528.268C131.409 528.329 131.482 528.414 131.54 528.517C131.597 528.62 131.638 528.738 131.66 528.864C131.682 528.99 131.683 529.121 131.665 529.248C131.647 529.375 131.61 529.495 131.555 529.601C131.424 529.814 131.261 529.987 131.076 530.105C130.892 530.224 130.69 530.286 130.486 530.288C130.011 530.243 129.543 530.103 129.097 529.872C128.955 530.555 128.848 531.251 128.776 531.955L128.639 533.517C128.774 533.254 128.922 533.003 129.082 532.767C129.433 532.267 130.349 531.601 130.853 531.955C130.937 532.014 131.012 532.098 131.071 532.2C131.13 532.302 131.172 532.42 131.195 532.546C131.218 532.672 131.222 532.803 131.205 532.931C131.188 533.059 131.151 533.181 131.097 533.288C130.963 533.502 130.797 533.674 130.61 533.793C130.423 533.911 130.219 533.974 130.013 533.975C129.543 533.92 129.081 533.78 128.639 533.559V534.267C128.639 535.037 128.532 535.829 128.471 536.6C128.471 536.85 128.471 537.12 128.394 537.37L128.761 536.745C129.127 536.246 130.028 535.579 130.547 535.933C130.631 535.995 130.704 536.08 130.761 536.183C130.819 536.285 130.86 536.404 130.881 536.53C130.903 536.656 130.905 536.786 130.887 536.913C130.869 537.04 130.831 537.16 130.776 537.266C130.646 537.48 130.482 537.652 130.298 537.771C130.113 537.889 129.912 537.952 129.708 537.954C129.248 537.915 128.795 537.781 128.364 537.558C128.364 537.995 128.257 538.412 128.196 538.849C128.167 539.025 128.132 539.199 128.089 539.37L127.982 539.891L127.738 540.87C127.738 541.036 127.646 541.203 127.616 541.349C127.707 541.099 127.875 540.724 127.89 540.682C128.196 540.12 129.02 539.287 129.555 539.516C129.645 539.559 129.727 539.627 129.796 539.716C129.865 539.805 129.92 539.914 129.956 540.034C129.992 540.154 130.009 540.283 130.005 540.413C130.002 540.543 129.979 540.67 129.937 540.786C129.834 541.027 129.693 541.233 129.524 541.388C129.354 541.543 129.161 541.644 128.959 541.682C128.489 541.75 128.014 541.708 127.555 541.557L127.234 542.661C126.913 543.744 126.608 544.64 126.394 545.265C126.18 545.89 126.043 546.244 126.043 546.244C126.017 546.308 125.974 546.356 125.923 546.38C125.872 546.403 125.817 546.399 125.768 546.369C125.745 546.352 125.724 546.328 125.707 546.3C125.691 546.271 125.679 546.239 125.672 546.204C125.664 546.169 125.663 546.132 125.666 546.096C125.669 546.06 125.678 546.025 125.692 545.994C125.692 545.994 125.722 545.598 125.951 544.973Z" fill="#0086D2"/>
<path d="M130.105 526.643C129.697 526.307 129.327 525.893 129.005 525.414C128.879 525.197 128.79 524.944 128.745 524.673C128.7 524.403 128.7 524.122 128.746 523.852C128.774 523.728 128.821 523.614 128.884 523.517C128.947 523.421 129.025 523.343 129.111 523.29C129.198 523.237 129.291 523.209 129.386 523.209C129.481 523.209 129.575 523.236 129.662 523.289C130.181 523.623 130.364 524.997 130.288 525.685C130.211 525.727 130.105 526.643 130.105 526.643Z" fill="#0086D2"/>
<path d="M267.516 546.515H1V560.7H267.516V546.515Z" fill="#263238" stroke="#263238" stroke-linecap="round" stroke-linejoin="round"/>
<path d="M267.516 546.515H111.384V560.7H267.516V546.515Z" fill="white" stroke="#263238" stroke-linecap="round" stroke-linejoin="round"/>
<path d="M125.966 555.305V547.015" stroke="#263238" stroke-width="0.75" stroke-linecap="round" stroke-linejoin="round"/>
<path d="M129.937 547.015V551.493" stroke="#263238" stroke-width="0.75" stroke-linecap="round" stroke-linejoin="round"/>
<path d="M133.907 547.015V551.493" stroke="#263238" stroke-width="0.75" stroke-linecap="round" stroke-linejoin="round"/>
<path d="M137.877 547.015V558.513" stroke="#263238" stroke-width="0.75" stroke-linecap="round" stroke-linejoin="round"/>
<path d="M142.641 547.015V552.389" stroke="#263238" stroke-width="0.75" stroke-linecap="round" stroke-linejoin="round"/>
<path d="M237.175 547.015V555.305" stroke="#263238" stroke-width="0.75" stroke-linecap="round" stroke-linejoin="round"/>
<path d="M241.145 547.015V551.493" stroke="#263238" stroke-width="0.75" stroke-linecap="round" stroke-linejoin="round"/>
<path d="M245.115 547.015V551.493" stroke="#263238" stroke-width="0.75" stroke-linecap="round" stroke-linejoin="round"/>
<path d="M249.101 547.015V558.513" stroke="#263238" stroke-width="0.75" stroke-linecap="round" stroke-linejoin="round"/>
<path d="M253.865 547.015V552.389" stroke="#263238" stroke-width="0.75" stroke-linecap="round" stroke-linejoin="round"/>
</svg>
