<svg width="538" height="517" viewBox="0 0 538 517" fill="none" xmlns="http://www.w3.org/2000/svg">
<path d="M362.457 409.51H145.386L162.524 392.852H345.319L362.457 409.51Z" fill="white" stroke="#263238" stroke-linecap="round" stroke-linejoin="round"/>
<path d="M338.338 399.281C338.338 402.683 299.029 405.484 250.51 405.484C201.99 405.484 162.682 402.706 162.682 399.281C162.682 395.857 201.99 393.067 250.51 393.067C299.029 393.067 338.338 395.845 338.338 399.281Z" fill="#0086D2"/>
<path opacity="0.5" d="M338.338 399.281C338.338 402.683 299.029 405.484 250.51 405.484C201.99 405.484 162.682 402.706 162.682 399.281C162.682 395.857 201.99 393.067 250.51 393.067C299.029 393.067 338.338 395.845 338.338 399.281Z" fill="white"/>
<path d="M362.457 409.51H145.386V424.944H362.457V409.51Z" fill="#263238" stroke="#263238" stroke-linecap="round" stroke-linejoin="round"/>
<path d="M377.815 441.591H130.028L145.386 424.944H362.457L377.815 441.591Z" fill="white" stroke="#263238" stroke-linecap="round" stroke-linejoin="round"/>
<path d="M377.77 441.591H130.073V457.83H377.77V441.591Z" fill="#263238" stroke="#263238" stroke-linecap="round" stroke-linejoin="round"/>
<path d="M251.523 244.865V141.07H290.742V97.3993" stroke="#263238" stroke-miterlimit="10"/>
<path d="M266.848 140.582V97.3993" stroke="#263238" stroke-miterlimit="10"/>
<path d="M254.451 261.41H435.016V235.554H469.528" stroke="#263238" stroke-miterlimit="10"/>
<path d="M245.6 260.514H73.8966V232.89H36.7273" stroke="#263238" stroke-miterlimit="10"/>
<path d="M216.392 69.7637V108.989H194.266V133.937H221.707V217.728" stroke="#263238" stroke-miterlimit="10"/>
<path d="M337.651 185.636V129.48H352.694V105.417H365.091" stroke="#263238" stroke-miterlimit="10"/>
<path d="M155.329 180.295V137.509L142.932 125.024V93.8272" stroke="#263238" stroke-miterlimit="10"/>
<path d="M371.284 205.254H402.261V184.751H422.619V173.162H440.319" stroke="#263238" stroke-miterlimit="10"/>
<path d="M124.341 212.387H91.5973V186.532H45.5776" stroke="#263238" stroke-miterlimit="10"/>
<path d="M154.439 352.322V375.501H139.396V401.357H96.0225" stroke="#263238" stroke-miterlimit="10"/>
<path d="M319.95 355.895V379.958H354.462V370.16H364.202V390.652H394.3" stroke="#263238" stroke-miterlimit="10"/>
<path d="M293.264 97.3993C293.262 97.9012 293.112 98.3912 292.833 98.8074C292.555 99.2236 292.16 99.5474 291.699 99.738C291.238 99.9285 290.731 99.9772 290.243 99.8779C289.754 99.7786 289.306 99.5358 288.954 99.1801C288.603 98.8244 288.364 98.3718 288.267 97.8793C288.171 97.3869 288.221 96.8767 288.413 96.4132C288.604 95.9497 288.927 95.5537 289.342 95.2751C289.756 94.9965 290.243 94.8478 290.742 94.8478C291.074 94.8478 291.403 94.9138 291.709 95.0422C292.016 95.1706 292.295 95.3587 292.529 95.5958C292.764 95.8328 292.949 96.1142 293.075 96.4237C293.201 96.7332 293.265 97.0647 293.264 97.3993V97.3993Z" fill="#263238" stroke="#263238" stroke-linecap="round" stroke-linejoin="round"/>
<path d="M269.46 97.3993C269.458 97.9012 269.308 98.3912 269.03 98.8074C268.751 99.2236 268.356 99.5474 267.895 99.738C267.434 99.9285 266.928 99.9772 266.439 99.8779C265.951 99.7786 265.502 99.5358 265.151 99.1801C264.799 98.8244 264.56 98.3718 264.463 97.8793C264.367 97.3869 264.418 96.8767 264.609 96.4132C264.8 95.9497 265.123 95.5537 265.538 95.2751C265.952 94.9965 266.44 94.8478 266.938 94.8478C267.27 94.8478 267.599 94.9138 267.906 95.0422C268.213 95.1706 268.491 95.3587 268.725 95.5958C268.96 95.8328 269.145 96.1142 269.271 96.4237C269.398 96.7332 269.462 97.0647 269.46 97.3993V97.3993Z" fill="#263238" stroke="#263238" stroke-linecap="round" stroke-linejoin="round"/>
<path d="M218.937 69.0266C218.937 69.5317 218.788 70.0255 218.509 70.4453C218.23 70.8651 217.834 71.1921 217.37 71.3849C216.906 71.5777 216.396 71.6276 215.905 71.5282C215.413 71.4288 214.962 71.1847 214.608 70.8267C214.254 70.4687 214.013 70.0131 213.917 69.5174C213.82 69.0217 213.872 68.5083 214.066 68.0423C214.259 67.5763 214.586 67.1786 215.004 66.8996C215.422 66.6206 215.913 66.4728 216.414 66.4751C216.747 66.4751 217.075 66.5412 217.382 66.6695C217.689 66.7979 217.968 66.986 218.202 67.2231C218.436 67.4602 218.622 67.7415 218.748 68.051C218.874 68.3605 218.938 68.692 218.937 69.0266V69.0266Z" fill="#263238" stroke="#263238" stroke-linecap="round" stroke-linejoin="round"/>
<path d="M145.476 92.5457C145.474 93.0476 145.324 93.5376 145.046 93.9539C144.767 94.3701 144.373 94.6939 143.912 94.8844C143.451 95.075 142.944 95.1236 142.455 95.0244C141.967 94.9251 141.518 94.6823 141.167 94.3266C140.815 93.9709 140.576 93.5182 140.48 93.0258C140.383 92.5334 140.434 92.0232 140.625 91.5597C140.816 91.0962 141.14 90.7002 141.554 90.4216C141.969 90.1429 142.456 89.9942 142.954 89.9942C143.286 89.9942 143.615 90.0603 143.922 90.1887C144.229 90.317 144.507 90.5052 144.742 90.7422C144.976 90.9793 145.162 91.2607 145.288 91.5702C145.414 91.8797 145.478 92.2112 145.476 92.5457V92.5457Z" fill="#263238" stroke="#263238" stroke-linecap="round" stroke-linejoin="round"/>
<path d="M48.0999 186.532C48.1021 187.037 47.9551 187.532 47.6776 187.953C47.4001 188.375 47.0045 188.704 46.5411 188.898C46.0777 189.093 45.5674 189.144 45.0749 189.046C44.5824 188.948 44.1299 188.705 43.7749 188.347C43.42 187.99 43.1784 187.534 43.081 187.038C42.9836 186.542 43.0348 186.028 43.2279 185.561C43.4211 185.095 43.7475 184.696 44.1659 184.417C44.5842 184.137 45.0756 183.989 45.5776 183.992C46.2466 183.992 46.8881 184.259 47.3611 184.736C47.8341 185.212 48.0999 185.858 48.0999 186.532Z" fill="#263238" stroke="#263238" stroke-linecap="round" stroke-linejoin="round"/>
<path d="M39.3284 232.81C39.3284 233.315 39.1798 233.808 38.9014 234.228C38.623 234.647 38.2273 234.974 37.7644 235.167C37.3014 235.361 36.792 235.411 36.3006 235.313C35.8091 235.214 35.3577 234.971 35.0034 234.614C34.6491 234.258 34.4078 233.803 34.31 233.308C34.2123 232.813 34.2624 232.3 34.4542 231.834C34.646 231.368 34.9707 230.969 35.3873 230.689C35.8039 230.408 36.2938 230.259 36.7949 230.259C37.4668 230.259 38.1112 230.528 38.5863 231.006C39.0614 231.485 39.3284 232.134 39.3284 232.81V232.81Z" fill="#263238" stroke="#263238" stroke-linecap="round" stroke-linejoin="round"/>
<path d="M98.7699 400.869C98.7699 401.374 98.621 401.868 98.3421 402.288C98.0632 402.708 97.6669 403.035 97.2033 403.227C96.7397 403.42 96.2297 403.47 95.738 403.371C95.2462 403.271 94.7948 403.027 94.4409 402.669C94.0871 402.311 93.8467 401.855 93.7502 401.36C93.6537 400.864 93.7055 400.351 93.899 399.885C94.0925 399.419 94.4189 399.021 94.8371 398.742C95.2552 398.463 95.7461 398.315 96.2476 398.317C96.5798 398.317 96.9087 398.384 97.2155 398.512C97.5222 398.64 97.8008 398.828 98.0351 399.065C98.2695 399.303 98.455 399.584 98.5811 399.893C98.7072 400.203 98.7714 400.534 98.7699 400.869V400.869Z" fill="#263238" stroke="#263238" stroke-linecap="round" stroke-linejoin="round"/>
<path d="M398.106 390.153C398.108 390.658 397.961 391.152 397.684 391.573C397.407 391.994 397.012 392.323 396.55 392.518C396.087 392.713 395.577 392.765 395.085 392.668C394.593 392.571 394.14 392.329 393.785 391.972C393.429 391.616 393.187 391.161 393.088 390.666C392.99 390.171 393.039 389.657 393.231 389.19C393.422 388.723 393.747 388.324 394.164 388.043C394.58 387.762 395.071 387.613 395.572 387.613C395.904 387.611 396.234 387.676 396.541 387.803C396.848 387.93 397.128 388.116 397.363 388.352C397.598 388.589 397.785 388.869 397.913 389.178C398.04 389.487 398.106 389.818 398.106 390.153V390.153Z" fill="#263238" stroke="#263238" stroke-linecap="round" stroke-linejoin="round"/>
<path d="M473.334 235.056C473.334 235.558 473.186 236.049 472.909 236.467C472.632 236.884 472.238 237.21 471.777 237.402C471.316 237.595 470.809 237.645 470.32 237.547C469.83 237.449 469.381 237.207 469.028 236.852C468.675 236.496 468.435 236.044 468.338 235.551C468.241 235.058 468.29 234.548 468.481 234.083C468.672 233.619 468.996 233.223 469.41 232.943C469.825 232.664 470.313 232.515 470.812 232.515C471.481 232.515 472.122 232.783 472.595 233.259C473.068 233.736 473.334 234.382 473.334 235.056Z" fill="#263238" stroke="#263238" stroke-linecap="round" stroke-linejoin="round"/>
<path d="M444.035 172.617C444.035 173.12 443.887 173.611 443.61 174.029C443.333 174.446 442.939 174.772 442.478 174.964C442.017 175.157 441.51 175.207 441.021 175.109C440.532 175.011 440.082 174.769 439.73 174.414C439.377 174.058 439.137 173.606 439.039 173.113C438.942 172.62 438.992 172.11 439.183 171.645C439.374 171.181 439.697 170.785 440.112 170.505C440.527 170.226 441.014 170.077 441.513 170.077C442.182 170.077 442.824 170.345 443.297 170.821C443.77 171.298 444.035 171.944 444.035 172.617Z" fill="#263238" stroke="#263238" stroke-linecap="round" stroke-linejoin="round"/>
<path d="M369.246 105.349C369.246 105.851 369.098 106.342 368.821 106.76C368.544 107.178 368.15 107.503 367.689 107.695C367.228 107.888 366.721 107.938 366.232 107.84C365.743 107.742 365.293 107.5 364.941 107.145C364.588 106.79 364.348 106.337 364.25 105.844C364.153 105.351 364.203 104.841 364.394 104.377C364.585 103.912 364.908 103.516 365.323 103.237C365.738 102.957 366.225 102.808 366.724 102.808C367.393 102.808 368.035 103.076 368.508 103.552C368.981 104.029 369.246 104.675 369.246 105.349Z" fill="#263238" stroke="#263238" stroke-linecap="round" stroke-linejoin="round"/>
<path d="M284.56 374.787V352.674H218.486V374.787C218.466 382.016 215.986 389.021 211.46 394.632L208.566 398.238H294.457L291.575 394.632C287.049 389.021 284.572 382.016 284.56 374.787V374.787Z" fill="white"/>
<path d="M214.433 390.277H288.613C285.959 385.552 284.563 380.216 284.56 374.787V352.674H218.486V374.787C218.483 380.216 217.087 385.552 214.433 390.277Z" fill="#0086D2"/>
<path opacity="0.3" d="M214.433 390.277H288.613C285.959 385.552 284.563 380.216 284.56 374.787V352.674H218.486V374.787C218.483 380.216 217.087 385.552 214.433 390.277Z" fill="white"/>
<path d="M214.433 366.962H288.613C285.959 362.237 284.563 356.901 284.56 351.472V329.359H218.486V351.472C218.483 356.901 217.087 362.237 214.433 366.962Z" fill="#263238"/>
<path d="M284.56 374.787V352.674H218.486V374.787C218.466 382.016 215.986 389.021 211.46 394.632L208.566 398.238H294.457L291.575 394.632C287.049 389.021 284.572 382.016 284.56 374.787V374.787Z" stroke="#263238" stroke-linecap="round" stroke-linejoin="round"/>
<path d="M374.741 163.285H128.305C123.031 163.285 118.756 167.59 118.756 172.901V350.02C118.756 355.331 123.031 359.637 128.305 359.637H374.741C380.015 359.637 384.29 355.331 384.29 350.02V172.901C384.29 167.59 380.015 163.285 374.741 163.285Z" fill="#263238" stroke="#263238" stroke-linecap="round" stroke-linejoin="round"/>
<path d="M118.756 329.121H384.29V350.02C384.29 352.571 383.284 355.017 381.493 356.82C379.702 358.624 377.274 359.637 374.741 359.637H128.305C125.772 359.637 123.344 358.624 121.553 356.82C119.762 355.017 118.756 352.571 118.756 350.02V329.121Z" fill="white" stroke="#263238" stroke-linecap="round" stroke-linejoin="round"/>
<path d="M370.924 175.509H132.111V314.231H370.924V175.509Z" fill="white" stroke="#263238" stroke-linecap="round" stroke-linejoin="round"/>
<path d="M256.421 349.272C256.441 348.292 256.171 347.329 255.645 346.504C255.12 345.68 254.362 345.032 253.469 344.642C252.576 344.253 251.588 344.141 250.631 344.32C249.674 344.498 248.792 344.96 248.097 345.646C247.402 346.331 246.925 347.21 246.728 348.169C246.53 349.129 246.621 350.126 246.989 351.033C247.356 351.941 247.984 352.717 248.792 353.264C249.599 353.811 250.55 354.103 251.523 354.103C252.808 354.115 254.046 353.613 254.964 352.707C255.882 351.802 256.406 350.566 256.421 349.272Z" fill="#263238" stroke="#263238" stroke-linecap="round" stroke-linejoin="round"/>
<path d="M294.48 398.272H208.577V402.218H294.48V398.272Z" fill="white" stroke="#263238" stroke-linecap="round" stroke-linejoin="round"/>
<path d="M251.883 168.308C239.88 179.648 209.095 190.988 173.277 215.131C173.277 215.131 175.529 296.779 251.883 341.357V168.308Z" fill="#0086D2" stroke="#263238" stroke-linecap="round" stroke-linejoin="round"/>
<path d="M251.883 168.308C263.898 179.648 294.671 190.988 330.501 215.131C330.501 215.131 328.249 296.779 251.883 341.357V168.308Z" fill="#263238" stroke="#263238" stroke-linecap="round" stroke-linejoin="round"/>
<path d="M251.883 175.26C237.358 185.398 212.259 195.048 179.042 217.433C179.042 217.433 181.126 293.071 251.883 334.417C322.653 293.071 324.736 217.433 324.736 217.433C291.519 195.048 266.499 185.398 251.883 175.26Z" fill="#263238" stroke="#263238" stroke-linecap="round" stroke-linejoin="round"/>
<path d="M324.736 217.433C291.519 195.059 266.499 185.398 251.883 175.26V334.417C322.653 293.071 324.736 217.433 324.736 217.433Z" fill="#0086D2" stroke="#263238" stroke-linecap="round" stroke-linejoin="round"/>
<path d="M385.112 257.475H117.934V274.893H385.112V257.475Z" fill="#263238" stroke="#263238" stroke-linecap="round" stroke-linejoin="round"/>
<path d="M123.193 260.242C123.2 260.6 123.1 260.952 122.908 261.252C122.715 261.553 122.438 261.79 122.111 261.932C121.785 262.073 121.424 262.114 121.074 262.048C120.725 261.982 120.403 261.813 120.149 261.563C119.895 261.312 119.721 260.991 119.649 260.64C119.578 260.289 119.611 259.925 119.745 259.594C119.88 259.262 120.109 258.979 120.404 258.779C120.7 258.579 121.047 258.473 121.403 258.473C121.636 258.47 121.867 258.513 122.083 258.601C122.3 258.688 122.497 258.818 122.663 258.982C122.83 259.146 122.962 259.342 123.053 259.559C123.144 259.775 123.191 260.007 123.193 260.242V260.242Z" fill="white"/>
<path d="M120.378 261.217C120.574 261.424 120.827 261.568 121.104 261.63C121.382 261.692 121.672 261.669 121.937 261.565C122.201 261.46 122.429 261.278 122.591 261.043C122.752 260.807 122.84 260.528 122.844 260.242C122.84 259.901 122.712 259.574 122.483 259.323C121.74 259.905 121.036 260.538 120.378 261.217V261.217Z" fill="#263238"/>
<path d="M130.219 260.242C130.228 260.602 130.13 260.957 129.938 261.262C129.745 261.566 129.467 261.806 129.139 261.95C128.81 262.094 128.447 262.137 128.094 262.072C127.742 262.007 127.417 261.838 127.16 261.586C126.904 261.334 126.728 261.011 126.655 260.658C126.581 260.305 126.614 259.938 126.749 259.604C126.884 259.269 127.115 258.983 127.412 258.782C127.709 258.58 128.059 258.473 128.417 258.473C128.651 258.47 128.883 258.513 129.1 258.6C129.317 258.688 129.515 258.817 129.682 258.981C129.849 259.146 129.983 259.341 130.075 259.558C130.167 259.774 130.216 260.006 130.219 260.242V260.242Z" fill="white"/>
<path d="M127.393 261.217C127.589 261.424 127.842 261.568 128.12 261.63C128.397 261.692 128.687 261.669 128.952 261.565C129.216 261.46 129.444 261.278 129.606 261.043C129.767 260.807 129.855 260.528 129.859 260.242C129.855 259.901 129.727 259.574 129.498 259.323C128.757 259.908 128.054 260.541 127.393 261.217Z" fill="#263238"/>
<path d="M137.234 260.242C137.198 260.697 136.994 261.121 136.661 261.431C136.328 261.741 135.891 261.913 135.438 261.913C134.985 261.913 134.548 261.741 134.215 261.431C133.883 261.121 133.678 260.697 133.642 260.242C133.678 259.787 133.883 259.362 134.215 259.052C134.548 258.743 134.985 258.571 135.438 258.571C135.891 258.571 136.328 258.743 136.661 259.052C136.994 259.362 137.198 259.787 137.234 260.242Z" fill="white"/>
<path d="M134.408 261.217C134.542 261.357 134.703 261.468 134.881 261.544C135.059 261.62 135.25 261.659 135.444 261.659C135.63 261.661 135.815 261.625 135.987 261.555C136.16 261.484 136.317 261.38 136.45 261.249C136.583 261.117 136.689 260.96 136.761 260.788C136.834 260.615 136.872 260.429 136.874 260.242C136.874 259.9 136.745 259.572 136.513 259.323C135.772 259.908 135.069 260.541 134.408 261.217V261.217Z" fill="#263238"/>
<path d="M144.249 260.242C144.256 260.6 144.156 260.952 143.964 261.252C143.771 261.553 143.494 261.79 143.168 261.932C142.841 262.073 142.48 262.114 142.131 262.048C141.781 261.982 141.459 261.813 141.205 261.563C140.951 261.312 140.778 260.991 140.706 260.64C140.634 260.289 140.667 259.925 140.802 259.594C140.936 259.262 141.166 258.979 141.461 258.779C141.756 258.579 142.103 258.473 142.459 258.473C142.692 258.47 142.923 258.513 143.14 258.601C143.356 258.688 143.553 258.818 143.719 258.982C143.886 259.146 144.018 259.342 144.109 259.559C144.2 259.775 144.248 260.007 144.249 260.242V260.242Z" fill="white"/>
<path d="M141.423 261.217C141.62 261.423 141.874 261.565 142.152 261.626C142.43 261.687 142.719 261.664 142.984 261.56C143.249 261.456 143.477 261.275 143.64 261.04C143.803 260.806 143.893 260.528 143.9 260.242C143.896 259.901 143.768 259.574 143.54 259.323C142.792 259.905 142.085 260.538 141.423 261.217V261.217Z" fill="#263238"/>
<path d="M151.264 260.242C151.271 260.6 151.171 260.952 150.979 261.252C150.786 261.553 150.509 261.79 150.183 261.932C149.856 262.073 149.495 262.114 149.146 262.048C148.796 261.982 148.474 261.813 148.22 261.563C147.966 261.312 147.792 260.991 147.721 260.64C147.649 260.289 147.682 259.925 147.817 259.594C147.951 259.262 148.18 258.979 148.476 258.779C148.771 258.579 149.118 258.473 149.474 258.473C149.707 258.47 149.938 258.513 150.155 258.601C150.371 258.688 150.568 258.818 150.734 258.982C150.901 259.146 151.033 259.342 151.124 259.559C151.215 259.775 151.263 260.007 151.264 260.242V260.242Z" fill="white"/>
<path d="M148.404 261.217C148.539 261.356 148.7 261.467 148.878 261.543C149.056 261.619 149.247 261.659 149.44 261.659C149.627 261.662 149.813 261.628 149.987 261.558C150.161 261.488 150.32 261.385 150.454 261.253C150.588 261.121 150.694 260.964 150.768 260.79C150.841 260.617 150.88 260.43 150.881 260.242C150.877 259.901 150.749 259.574 150.521 259.323C149.776 259.908 149.069 260.541 148.404 261.217Z" fill="#263238"/>
<path d="M158.279 260.242C158.286 260.6 158.186 260.952 157.994 261.252C157.801 261.553 157.524 261.79 157.198 261.932C156.871 262.073 156.51 262.114 156.161 262.048C155.811 261.982 155.489 261.813 155.235 261.563C154.981 261.312 154.807 260.991 154.736 260.64C154.664 260.289 154.697 259.925 154.832 259.594C154.966 259.262 155.196 258.979 155.491 258.779C155.786 258.579 156.133 258.473 156.489 258.473C156.722 258.47 156.953 258.513 157.17 258.601C157.386 258.688 157.583 258.818 157.749 258.982C157.916 259.146 158.048 259.342 158.139 259.559C158.23 259.775 158.278 260.007 158.279 260.242V260.242Z" fill="white"/>
<path d="M155.464 261.217C155.66 261.424 155.913 261.568 156.191 261.63C156.468 261.692 156.758 261.669 157.023 261.565C157.287 261.46 157.515 261.278 157.677 261.043C157.838 260.807 157.926 260.528 157.93 260.242C157.926 259.901 157.798 259.574 157.57 259.323C156.826 259.905 156.122 260.538 155.464 261.217V261.217Z" fill="#263238"/>
<path d="M165.294 260.242C165.303 260.602 165.205 260.957 165.012 261.262C164.82 261.566 164.542 261.806 164.214 261.95C163.885 262.094 163.522 262.137 163.169 262.072C162.817 262.007 162.492 261.838 162.235 261.586C161.979 261.334 161.803 261.011 161.729 260.658C161.656 260.305 161.689 259.938 161.824 259.604C161.959 259.269 162.19 258.983 162.487 258.782C162.784 258.58 163.134 258.473 163.492 258.473C163.726 258.47 163.958 258.513 164.175 258.6C164.392 258.688 164.59 258.817 164.757 258.981C164.924 259.146 165.058 259.341 165.15 259.558C165.242 259.774 165.291 260.006 165.294 260.242V260.242Z" fill="white"/>
<path d="M162.479 261.217C162.675 261.424 162.928 261.568 163.206 261.63C163.483 261.692 163.773 261.669 164.038 261.565C164.302 261.46 164.53 261.278 164.692 261.043C164.853 260.807 164.941 260.528 164.945 260.242C164.941 259.901 164.813 259.574 164.585 259.323C163.843 259.908 163.14 260.541 162.479 261.217Z" fill="#263238"/>
<path d="M172.32 260.242C172.327 260.6 172.228 260.952 172.035 261.252C171.842 261.553 171.565 261.79 171.239 261.932C170.912 262.073 170.551 262.114 170.202 262.048C169.852 261.982 169.53 261.813 169.276 261.563C169.023 261.312 168.849 260.991 168.777 260.64C168.705 260.289 168.738 259.925 168.873 259.594C169.007 259.262 169.237 258.979 169.532 258.779C169.827 258.579 170.174 258.473 170.53 258.473C170.763 258.47 170.994 258.513 171.211 258.601C171.427 258.688 171.624 258.818 171.791 258.982C171.957 259.146 172.089 259.342 172.18 259.559C172.271 259.775 172.319 260.007 172.32 260.242V260.242Z" fill="white"/>
<path d="M169.494 261.217C169.628 261.357 169.789 261.468 169.967 261.544C170.145 261.62 170.337 261.659 170.53 261.659C170.716 261.661 170.901 261.625 171.074 261.555C171.246 261.484 171.404 261.38 171.536 261.249C171.669 261.117 171.775 260.96 171.848 260.788C171.92 260.615 171.958 260.429 171.96 260.242C171.96 259.9 171.832 259.572 171.6 259.323C170.858 259.908 170.155 260.541 169.494 261.217V261.217Z" fill="#263238"/>
<path d="M179.335 260.242C179.342 260.6 179.243 260.952 179.05 261.252C178.857 261.553 178.58 261.79 178.254 261.932C177.927 262.073 177.566 262.114 177.217 262.048C176.867 261.982 176.545 261.813 176.291 261.563C176.038 261.312 175.864 260.991 175.792 260.64C175.72 260.289 175.753 259.925 175.888 259.594C176.022 259.262 176.252 258.979 176.547 258.779C176.842 258.579 177.189 258.473 177.545 258.473C177.778 258.47 178.009 258.513 178.226 258.601C178.442 258.688 178.639 258.818 178.805 258.982C178.972 259.146 179.104 259.342 179.195 259.559C179.286 259.775 179.334 260.007 179.335 260.242V260.242Z" fill="white"/>
<path d="M176.554 261.217C176.752 261.423 177.005 261.565 177.283 261.626C177.561 261.687 177.85 261.664 178.115 261.56C178.38 261.456 178.608 261.275 178.771 261.04C178.934 260.806 179.025 260.528 179.031 260.242C179.027 259.901 178.899 259.574 178.671 259.323C177.926 259.908 177.219 260.541 176.554 261.217V261.217Z" fill="#263238"/>
<path d="M186.35 260.242C186.357 260.6 186.258 260.952 186.065 261.252C185.872 261.553 185.595 261.79 185.269 261.932C184.942 262.073 184.581 262.114 184.232 262.048C183.882 261.982 183.56 261.813 183.306 261.563C183.053 261.312 182.879 260.991 182.807 260.64C182.735 260.289 182.768 259.925 182.903 259.594C183.037 259.262 183.267 258.979 183.562 258.779C183.857 258.579 184.204 258.473 184.56 258.473C184.793 258.47 185.024 258.513 185.241 258.601C185.457 258.688 185.654 258.818 185.82 258.982C185.987 259.146 186.119 259.342 186.21 259.559C186.301 259.775 186.349 260.007 186.35 260.242V260.242Z" fill="white"/>
<path d="M183.524 261.217C183.659 261.356 183.82 261.467 183.998 261.543C184.176 261.619 184.367 261.659 184.56 261.659C184.747 261.662 184.933 261.628 185.107 261.558C185.281 261.488 185.44 261.385 185.574 261.253C185.708 261.121 185.814 260.964 185.888 260.79C185.961 260.617 186 260.43 186.001 260.242C185.997 259.901 185.869 259.574 185.641 259.323C184.896 259.908 184.189 260.541 183.524 261.217Z" fill="#263238"/>
<path d="M193.365 260.242C193.372 260.6 193.273 260.952 193.08 261.252C192.887 261.553 192.61 261.79 192.284 261.932C191.957 262.073 191.596 262.114 191.247 262.048C190.897 261.982 190.575 261.813 190.321 261.563C190.068 261.312 189.894 260.991 189.822 260.64C189.75 260.289 189.783 259.925 189.918 259.594C190.052 259.262 190.282 258.979 190.577 258.779C190.872 258.579 191.219 258.473 191.575 258.473C191.808 258.47 192.039 258.513 192.256 258.601C192.472 258.688 192.669 258.818 192.835 258.982C193.002 259.146 193.134 259.342 193.225 259.559C193.316 259.775 193.364 260.007 193.365 260.242V260.242Z" fill="white"/>
<path d="M190.55 261.217C190.746 261.424 190.999 261.568 191.277 261.63C191.554 261.692 191.844 261.669 192.109 261.565C192.374 261.46 192.601 261.278 192.763 261.043C192.924 260.807 193.013 260.528 193.016 260.242C193.012 259.901 192.884 259.574 192.656 259.323C191.914 259.908 191.211 260.541 190.55 261.217V261.217Z" fill="#263238"/>
<path d="M200.391 260.242C200.4 260.603 200.302 260.958 200.109 261.263C199.916 261.567 199.637 261.807 199.308 261.951C198.979 262.095 198.615 262.137 198.263 262.071C197.91 262.005 197.585 261.835 197.329 261.582C197.073 261.329 196.897 261.005 196.825 260.651C196.753 260.297 196.788 259.93 196.925 259.596C197.061 259.262 197.294 258.976 197.593 258.776C197.891 258.576 198.242 258.47 198.601 258.473C198.834 258.47 199.066 258.513 199.282 258.601C199.498 258.688 199.695 258.818 199.862 258.982C200.028 259.146 200.161 259.342 200.251 259.559C200.342 259.775 200.39 260.007 200.391 260.242V260.242Z" fill="white"/>
<path d="M197.565 261.217C197.761 261.424 198.014 261.568 198.292 261.63C198.569 261.692 198.859 261.669 199.124 261.565C199.389 261.46 199.616 261.278 199.778 261.043C199.939 260.807 200.028 260.528 200.031 260.242C200.032 259.9 199.903 259.572 199.671 259.323C198.929 259.908 198.226 260.541 197.565 261.217Z" fill="#263238"/>
<path d="M207.406 260.242C207.413 260.6 207.314 260.952 207.121 261.252C206.929 261.553 206.651 261.79 206.325 261.932C205.998 262.073 205.637 262.114 205.288 262.048C204.938 261.982 204.616 261.813 204.362 261.563C204.109 261.312 203.935 260.991 203.863 260.64C203.791 260.289 203.825 259.925 203.959 259.594C204.093 259.262 204.323 258.979 204.618 258.779C204.913 258.579 205.26 258.473 205.616 258.473C205.849 258.47 206.08 258.513 206.297 258.601C206.513 258.688 206.71 258.818 206.877 258.982C207.043 259.146 207.176 259.342 207.266 259.559C207.357 259.775 207.405 260.007 207.406 260.242V260.242Z" fill="white"/>
<path d="M204.58 261.217C204.778 261.423 205.031 261.565 205.309 261.626C205.587 261.687 205.876 261.664 206.141 261.56C206.406 261.456 206.634 261.275 206.797 261.04C206.96 260.806 207.051 260.528 207.057 260.242C207.054 259.901 206.925 259.574 206.697 259.323C205.95 259.905 205.242 260.538 204.58 261.217Z" fill="#263238"/>
<path d="M214.421 260.242C214.428 260.6 214.329 260.952 214.136 261.252C213.944 261.553 213.666 261.79 213.34 261.932C213.013 262.073 212.652 262.114 212.303 262.048C211.953 261.982 211.631 261.813 211.377 261.563C211.124 261.312 210.95 260.991 210.878 260.64C210.806 260.289 210.839 259.925 210.974 259.594C211.108 259.262 211.338 258.979 211.633 258.779C211.928 258.579 212.275 258.473 212.631 258.473C212.864 258.47 213.095 258.513 213.312 258.601C213.528 258.688 213.725 258.818 213.892 258.982C214.058 259.146 214.19 259.342 214.281 259.559C214.372 259.775 214.42 260.007 214.421 260.242V260.242Z" fill="white"/>
<path d="M211.595 261.217C211.73 261.356 211.891 261.467 212.069 261.543C212.247 261.619 212.438 261.659 212.631 261.659C212.818 261.662 213.004 261.628 213.178 261.558C213.352 261.488 213.511 261.385 213.645 261.253C213.779 261.121 213.886 260.964 213.959 260.79C214.032 260.617 214.071 260.43 214.072 260.242C214.069 259.901 213.94 259.574 213.712 259.323C212.967 259.908 212.26 260.541 211.595 261.217Z" fill="#263238"/>
<path d="M123.193 271.48C123.202 271.838 123.104 272.191 122.913 272.493C122.722 272.796 122.446 273.034 122.119 273.177C121.793 273.321 121.432 273.363 121.082 273.299C120.731 273.234 120.408 273.066 120.153 272.816C119.898 272.566 119.723 272.245 119.651 271.894C119.578 271.543 119.61 271.178 119.745 270.846C119.879 270.514 120.108 270.229 120.403 270.029C120.699 269.829 121.047 269.722 121.403 269.722C121.635 269.719 121.865 269.762 122.081 269.849C122.296 269.935 122.493 270.064 122.659 270.227C122.825 270.391 122.958 270.585 123.05 270.8C123.141 271.015 123.19 271.246 123.193 271.48V271.48Z" fill="white"/>
<path d="M120.378 272.466C120.51 272.606 120.669 272.718 120.845 272.794C121.021 272.87 121.211 272.909 121.402 272.908C121.59 272.91 121.777 272.874 121.951 272.803C122.125 272.732 122.283 272.627 122.417 272.495C122.551 272.362 122.657 272.204 122.731 272.03C122.804 271.856 122.842 271.669 122.844 271.48C122.837 271.143 122.709 270.821 122.483 270.572C121.74 271.155 121.036 271.787 120.378 272.466V272.466Z" fill="#263238"/>
<path d="M130.219 271.48C130.23 271.841 130.134 272.197 129.943 272.503C129.752 272.808 129.475 273.05 129.147 273.196C128.819 273.342 128.455 273.386 128.102 273.322C127.749 273.259 127.422 273.091 127.165 272.839C126.907 272.588 126.73 272.265 126.656 271.912C126.582 271.558 126.614 271.191 126.748 270.856C126.883 270.521 127.114 270.234 127.411 270.032C127.708 269.83 128.059 269.722 128.417 269.722C128.887 269.716 129.341 269.897 129.678 270.227C130.016 270.556 130.21 271.006 130.219 271.48V271.48Z" fill="white"/>
<path d="M127.393 272.466C127.525 272.606 127.684 272.718 127.86 272.794C128.036 272.87 128.226 272.909 128.417 272.908C128.605 272.91 128.792 272.874 128.966 272.803C129.14 272.732 129.298 272.627 129.432 272.495C129.566 272.362 129.672 272.204 129.746 272.03C129.819 271.856 129.857 271.669 129.859 271.48C129.852 271.143 129.724 270.821 129.498 270.572C128.757 271.158 128.054 271.79 127.393 272.466Z" fill="#263238"/>
<path d="M137.234 271.48C137.245 271.841 137.149 272.198 136.957 272.504C136.766 272.81 136.488 273.051 136.159 273.197C135.83 273.343 135.466 273.386 135.113 273.322C134.759 273.257 134.433 273.088 134.176 272.835C133.919 272.583 133.742 272.259 133.669 271.905C133.596 271.55 133.63 271.182 133.766 270.848C133.903 270.513 134.135 270.227 134.434 270.027C134.733 269.826 135.085 269.72 135.444 269.722C135.676 269.719 135.906 269.762 136.122 269.849C136.338 269.935 136.534 270.064 136.7 270.227C136.867 270.391 136.999 270.585 137.091 270.8C137.182 271.015 137.231 271.246 137.234 271.48V271.48Z" fill="white"/>
<path d="M134.408 272.466C134.604 272.674 134.858 272.818 135.137 272.88C135.416 272.942 135.706 272.918 135.972 272.812C136.237 272.706 136.464 272.522 136.625 272.285C136.786 272.047 136.872 271.767 136.874 271.48C136.873 271.142 136.744 270.818 136.513 270.572C135.772 271.158 135.069 271.79 134.408 272.466Z" fill="#263238"/>
<path d="M144.249 271.48C144.258 271.838 144.161 272.191 143.969 272.493C143.778 272.796 143.502 273.034 143.176 273.177C142.849 273.321 142.488 273.363 142.138 273.299C141.788 273.234 141.464 273.066 141.209 272.816C140.955 272.566 140.78 272.245 140.707 271.894C140.634 271.543 140.667 271.178 140.801 270.846C140.935 270.514 141.164 270.229 141.459 270.029C141.755 269.829 142.103 269.722 142.459 269.722C142.691 269.719 142.921 269.762 143.137 269.849C143.353 269.935 143.549 270.064 143.715 270.227C143.882 270.391 144.014 270.585 144.106 270.8C144.197 271.015 144.246 271.246 144.249 271.48V271.48Z" fill="white"/>
<path d="M141.423 272.466C141.621 272.673 141.876 272.815 142.154 272.876C142.433 272.937 142.724 272.913 142.989 272.807C143.254 272.701 143.482 272.519 143.644 272.283C143.807 272.046 143.896 271.767 143.9 271.48C143.893 271.143 143.765 270.821 143.54 270.572C142.792 271.155 142.085 271.787 141.423 272.466V272.466Z" fill="#263238"/>
<path d="M151.264 271.48C151.273 271.838 151.176 272.191 150.984 272.493C150.793 272.796 150.517 273.034 150.191 273.177C149.864 273.321 149.503 273.363 149.153 273.299C148.803 273.234 148.479 273.066 148.225 272.816C147.97 272.566 147.795 272.245 147.722 271.894C147.649 271.543 147.682 271.178 147.816 270.846C147.95 270.514 148.179 270.229 148.474 270.029C148.77 269.829 149.118 269.722 149.474 269.722C149.706 269.719 149.936 269.762 150.152 269.849C150.368 269.935 150.564 270.064 150.73 270.227C150.897 270.391 151.029 270.585 151.121 270.8C151.212 271.015 151.261 271.246 151.264 271.48V271.48Z" fill="white"/>
<path d="M148.404 272.466C148.539 272.606 148.7 272.716 148.878 272.792C149.056 272.868 149.247 272.908 149.44 272.908C149.628 272.91 149.814 272.874 149.988 272.803C150.162 272.732 150.321 272.627 150.454 272.495C150.588 272.362 150.695 272.204 150.768 272.03C150.841 271.856 150.88 271.669 150.881 271.48C150.875 271.143 150.747 270.821 150.521 270.572C149.776 271.158 149.069 271.79 148.404 272.466Z" fill="#263238"/>
<path d="M158.279 271.48C158.288 271.838 158.191 272.191 157.999 272.493C157.808 272.796 157.532 273.034 157.206 273.177C156.879 273.321 156.518 273.363 156.168 273.299C155.818 273.234 155.494 273.066 155.239 272.816C154.985 272.566 154.81 272.245 154.737 271.894C154.664 271.543 154.697 271.178 154.831 270.846C154.965 270.514 155.194 270.229 155.489 270.029C155.785 269.829 156.133 269.722 156.489 269.722C156.721 269.719 156.951 269.762 157.167 269.849C157.382 269.935 157.579 270.064 157.745 270.227C157.912 270.391 158.044 270.585 158.136 270.8C158.227 271.015 158.276 271.246 158.279 271.48V271.48Z" fill="white"/>
<path d="M155.464 272.466C155.596 272.606 155.755 272.718 155.931 272.794C156.107 272.87 156.297 272.909 156.489 272.908C156.676 272.91 156.863 272.874 157.037 272.803C157.211 272.732 157.369 272.627 157.503 272.495C157.637 272.362 157.744 272.204 157.817 272.03C157.89 271.856 157.928 271.669 157.93 271.48C157.923 271.143 157.795 270.821 157.57 270.572C156.826 271.155 156.122 271.787 155.464 272.466V272.466Z" fill="#263238"/>
<path d="M165.294 271.48C165.305 271.841 165.209 272.197 165.018 272.503C164.827 272.808 164.55 273.05 164.222 273.196C163.894 273.342 163.53 273.386 163.177 273.322C162.824 273.259 162.497 273.091 162.24 272.839C161.982 272.588 161.805 272.265 161.731 271.912C161.656 271.558 161.689 271.191 161.823 270.856C161.958 270.521 162.188 270.234 162.486 270.032C162.783 269.83 163.134 269.722 163.492 269.722C163.962 269.716 164.416 269.897 164.753 270.227C165.091 270.556 165.285 271.006 165.294 271.48V271.48Z" fill="white"/>
<path d="M162.479 272.466C162.611 272.606 162.77 272.718 162.946 272.794C163.122 272.87 163.312 272.909 163.504 272.908C163.691 272.91 163.878 272.874 164.052 272.803C164.226 272.732 164.384 272.627 164.518 272.495C164.652 272.362 164.759 272.204 164.832 272.03C164.905 271.856 164.943 271.669 164.945 271.48C164.938 271.143 164.81 270.821 164.585 270.572C163.843 271.158 163.14 271.79 162.479 272.466Z" fill="#263238"/>
<path d="M172.32 271.48C172.329 271.838 172.232 272.191 172.041 272.493C171.849 272.796 171.573 273.034 171.247 273.177C170.921 273.321 170.559 273.363 170.209 273.299C169.859 273.234 169.536 273.066 169.281 272.816C169.026 272.566 168.851 272.245 168.778 271.894C168.705 271.543 168.738 271.178 168.872 270.846C169.006 270.514 169.235 270.229 169.531 270.029C169.826 269.829 170.174 269.722 170.53 269.722C170.762 269.719 170.993 269.762 171.208 269.849C171.424 269.935 171.62 270.064 171.787 270.227C171.953 270.391 172.086 270.585 172.177 270.8C172.269 271.015 172.317 271.246 172.32 271.48V271.48Z" fill="white"/>
<path d="M169.494 272.466C169.691 272.674 169.945 272.818 170.223 272.88C170.502 272.942 170.793 272.918 171.058 272.812C171.323 272.706 171.551 272.522 171.711 272.285C171.872 272.047 171.959 271.767 171.96 271.48C171.959 271.142 171.83 270.818 171.6 270.572C170.858 271.158 170.155 271.79 169.494 272.466V272.466Z" fill="#263238"/>
<path d="M179.335 271.48C179.344 271.838 179.247 272.191 179.056 272.493C178.864 272.796 178.588 273.034 178.262 273.177C177.936 273.321 177.574 273.363 177.224 273.299C176.874 273.234 176.551 273.066 176.296 272.816C176.041 272.566 175.866 272.245 175.793 271.894C175.72 271.543 175.753 271.178 175.887 270.846C176.021 270.514 176.25 270.229 176.546 270.029C176.841 269.829 177.189 269.722 177.545 269.722C177.777 269.719 178.007 269.762 178.223 269.849C178.439 269.935 178.635 270.064 178.802 270.227C178.968 270.391 179.1 270.585 179.192 270.8C179.284 271.015 179.332 271.246 179.335 271.48V271.48Z" fill="white"/>
<path d="M176.554 272.466C176.752 272.673 177.007 272.815 177.286 272.876C177.564 272.937 177.855 272.913 178.12 272.807C178.385 272.701 178.613 272.519 178.776 272.283C178.938 272.046 179.027 271.767 179.031 271.48C179.025 271.143 178.897 270.821 178.671 270.572C177.926 271.158 177.219 271.79 176.554 272.466Z" fill="#263238"/>
<path d="M186.35 271.48C186.359 271.838 186.262 272.191 186.071 272.493C185.879 272.796 185.603 273.034 185.277 273.177C184.95 273.321 184.589 273.363 184.239 273.299C183.889 273.234 183.566 273.066 183.311 272.816C183.056 272.566 182.881 272.245 182.808 271.894C182.735 271.543 182.768 271.178 182.902 270.846C183.036 270.514 183.265 270.229 183.561 270.029C183.856 269.829 184.204 269.722 184.56 269.722C184.792 269.719 185.022 269.762 185.238 269.849C185.454 269.935 185.65 270.064 185.816 270.227C185.983 270.391 186.115 270.585 186.207 270.8C186.299 271.015 186.347 271.246 186.35 271.48V271.48Z" fill="white"/>
<path d="M183.524 272.466C183.659 272.606 183.82 272.716 183.998 272.792C184.176 272.868 184.367 272.908 184.56 272.908C184.748 272.91 184.934 272.874 185.108 272.803C185.282 272.732 185.441 272.627 185.574 272.495C185.708 272.362 185.815 272.204 185.888 272.03C185.961 271.856 186 271.669 186.001 271.48C185.995 271.143 185.866 270.821 185.641 270.572C184.896 271.158 184.189 271.79 183.524 272.466V272.466Z" fill="#263238"/>
<path d="M193.365 271.48C193.374 271.838 193.277 272.191 193.086 272.493C192.894 272.796 192.618 273.034 192.292 273.177C191.965 273.321 191.604 273.363 191.254 273.299C190.904 273.234 190.581 273.066 190.326 272.816C190.071 272.566 189.896 272.245 189.823 271.894C189.75 271.543 189.783 271.178 189.917 270.846C190.051 270.514 190.28 270.229 190.576 270.029C190.871 269.829 191.219 269.722 191.575 269.722C191.807 269.719 192.037 269.762 192.253 269.849C192.469 269.935 192.665 270.064 192.831 270.227C192.998 270.391 193.13 270.585 193.222 270.8C193.314 271.015 193.362 271.246 193.365 271.48V271.48Z" fill="white"/>
<path d="M190.55 272.466C190.682 272.606 190.841 272.718 191.017 272.794C191.193 272.87 191.383 272.909 191.575 272.908C191.763 272.91 191.949 272.874 192.123 272.803C192.297 272.732 192.455 272.627 192.589 272.495C192.723 272.362 192.83 272.204 192.903 272.03C192.976 271.856 193.015 271.669 193.016 271.48C193.01 271.143 192.881 270.821 192.656 270.572C191.914 271.158 191.211 271.79 190.55 272.466V272.466Z" fill="#263238"/>
<path d="M200.391 271.48C200.403 271.841 200.306 272.198 200.115 272.504C199.923 272.81 199.645 273.051 199.317 273.197C198.988 273.343 198.623 273.386 198.27 273.322C197.917 273.257 197.59 273.088 197.333 272.835C197.076 272.583 196.9 272.259 196.827 271.905C196.754 271.55 196.788 271.182 196.924 270.848C197.06 270.513 197.293 270.227 197.591 270.027C197.89 269.826 198.242 269.72 198.601 269.722C198.833 269.719 199.064 269.762 199.279 269.849C199.495 269.935 199.691 270.064 199.858 270.227C200.024 270.391 200.157 270.585 200.248 270.8C200.34 271.015 200.388 271.246 200.391 271.48V271.48Z" fill="white"/>
<path d="M197.565 272.466C197.762 272.674 198.016 272.818 198.295 272.88C198.573 272.942 198.864 272.918 199.129 272.812C199.394 272.706 199.622 272.522 199.783 272.285C199.943 272.047 200.03 271.767 200.031 271.48C200.03 271.142 199.901 270.818 199.671 270.572C198.929 271.158 198.226 271.79 197.565 272.466V272.466Z" fill="#263238"/>
<path d="M207.406 271.48C207.415 271.838 207.318 272.191 207.127 272.493C206.936 272.796 206.659 273.034 206.333 273.177C206.007 273.321 205.645 273.363 205.295 273.299C204.945 273.234 204.622 273.066 204.367 272.816C204.112 272.566 203.937 272.245 203.864 271.894C203.791 271.543 203.824 271.178 203.958 270.846C204.092 270.514 204.322 270.229 204.617 270.029C204.912 269.829 205.26 269.722 205.616 269.722C205.848 269.719 206.079 269.762 206.294 269.849C206.51 269.935 206.707 270.064 206.873 270.227C207.039 270.391 207.172 270.585 207.263 270.8C207.355 271.015 207.403 271.246 207.406 271.48V271.48Z" fill="white"/>
<path d="M204.58 272.466C204.778 272.673 205.033 272.815 205.312 272.876C205.591 272.937 205.881 272.913 206.146 272.807C206.411 272.701 206.64 272.519 206.802 272.283C206.964 272.046 207.053 271.767 207.057 271.48C207.051 271.143 206.923 270.821 206.697 270.572C205.95 271.155 205.242 271.787 204.58 272.466Z" fill="#263238"/>
<path d="M214.421 271.48C214.43 271.838 214.333 272.191 214.142 272.493C213.951 272.796 213.674 273.034 213.348 273.177C213.022 273.321 212.66 273.363 212.31 273.299C211.96 273.234 211.637 273.066 211.382 272.816C211.127 272.566 210.952 272.245 210.879 271.894C210.806 271.543 210.839 271.178 210.973 270.846C211.107 270.514 211.337 270.229 211.632 270.029C211.927 269.829 212.275 269.722 212.631 269.722C212.863 269.719 213.094 269.762 213.309 269.849C213.525 269.935 213.721 270.064 213.888 270.227C214.054 270.391 214.187 270.585 214.278 270.8C214.37 271.015 214.418 271.246 214.421 271.48V271.48Z" fill="white"/>
<path d="M211.595 272.466C211.73 272.606 211.891 272.716 212.069 272.792C212.247 272.868 212.438 272.908 212.631 272.908C212.819 272.91 213.005 272.874 213.179 272.803C213.353 272.732 213.512 272.627 213.646 272.495C213.779 272.362 213.886 272.204 213.959 272.03C214.032 271.856 214.071 271.669 214.072 271.48C214.066 271.143 213.938 270.821 213.712 270.572C212.967 271.158 212.26 271.79 211.595 272.466V272.466Z" fill="#263238"/>
<path d="M292.172 260.242C292.178 260.6 292.079 260.952 291.886 261.252C291.694 261.553 291.417 261.79 291.09 261.932C290.764 262.073 290.403 262.114 290.053 262.048C289.704 261.982 289.382 261.813 289.128 261.563C288.874 261.312 288.7 260.991 288.628 260.64C288.556 260.289 288.59 259.925 288.724 259.594C288.859 259.262 289.088 258.979 289.383 258.779C289.678 258.579 290.026 258.473 290.381 258.473C290.614 258.47 290.846 258.513 291.062 258.601C291.278 258.688 291.476 258.818 291.642 258.982C291.808 259.146 291.941 259.342 292.032 259.559C292.123 259.775 292.17 260.007 292.172 260.242V260.242Z" fill="white"/>
<path d="M289.357 261.217C289.553 261.424 289.806 261.568 290.083 261.63C290.361 261.692 290.651 261.669 290.915 261.565C291.18 261.46 291.408 261.278 291.569 261.043C291.731 260.807 291.819 260.528 291.823 260.242C291.819 259.901 291.69 259.574 291.462 259.323C290.721 259.908 290.017 260.541 289.357 261.217V261.217Z" fill="#263238"/>
<path d="M299.198 260.242C299.207 260.603 299.109 260.958 298.916 261.263C298.723 261.567 298.444 261.807 298.115 261.951C297.786 262.095 297.422 262.137 297.069 262.071C296.716 262.005 296.391 261.835 296.135 261.582C295.879 261.329 295.704 261.005 295.632 260.651C295.56 260.297 295.594 259.93 295.731 259.596C295.868 259.262 296.1 258.976 296.399 258.776C296.698 258.576 297.049 258.47 297.408 258.473C297.641 258.47 297.872 258.513 298.088 258.601C298.305 258.688 298.502 258.818 298.668 258.982C298.835 259.146 298.967 259.342 299.058 259.559C299.149 259.775 299.196 260.007 299.198 260.242V260.242Z" fill="white"/>
<path d="M296.372 261.217C296.568 261.424 296.821 261.568 297.098 261.63C297.376 261.692 297.666 261.669 297.93 261.565C298.195 261.46 298.423 261.278 298.584 261.043C298.746 260.807 298.834 260.528 298.838 260.242C298.838 259.9 298.709 259.572 298.477 259.323C297.736 259.908 297.032 260.541 296.372 261.217Z" fill="#263238"/>
<path d="M306.213 260.242C306.22 260.6 306.12 260.952 305.928 261.252C305.735 261.553 305.458 261.79 305.131 261.932C304.805 262.073 304.444 262.114 304.094 262.048C303.745 261.982 303.423 261.813 303.169 261.563C302.915 261.312 302.741 260.991 302.669 260.64C302.598 260.289 302.631 259.925 302.765 259.594C302.9 259.262 303.129 258.979 303.424 258.779C303.72 258.579 304.067 258.473 304.423 258.473C304.656 258.47 304.887 258.513 305.103 258.601C305.32 258.688 305.517 258.818 305.683 258.982C305.85 259.146 305.982 259.342 306.073 259.559C306.164 259.775 306.211 260.007 306.213 260.242V260.242Z" fill="white"/>
<path d="M303.387 261.217C303.584 261.423 303.838 261.565 304.116 261.626C304.393 261.687 304.683 261.664 304.948 261.56C305.212 261.456 305.441 261.275 305.604 261.04C305.767 260.806 305.857 260.528 305.864 260.242C305.86 259.901 305.732 259.574 305.503 259.323C304.756 259.905 304.049 260.538 303.387 261.217Z" fill="#263238"/>
<path d="M313.228 260.242C313.235 260.6 313.135 260.952 312.943 261.252C312.75 261.553 312.473 261.79 312.146 261.932C311.82 262.073 311.459 262.114 311.109 262.048C310.76 261.982 310.438 261.813 310.184 261.563C309.93 261.312 309.756 260.991 309.684 260.64C309.613 260.289 309.646 259.925 309.78 259.594C309.915 259.262 310.144 258.979 310.439 258.779C310.735 258.579 311.082 258.473 311.438 258.473C311.671 258.47 311.902 258.513 312.118 258.601C312.335 258.688 312.532 258.818 312.698 258.982C312.865 259.146 312.997 259.342 313.088 259.559C313.179 259.775 313.226 260.007 313.228 260.242V260.242Z" fill="white"/>
<path d="M310.402 261.217C310.536 261.356 310.697 261.467 310.875 261.543C311.053 261.619 311.244 261.659 311.437 261.659C311.625 261.662 311.811 261.628 311.985 261.558C312.159 261.488 312.317 261.385 312.451 261.253C312.585 261.121 312.692 260.964 312.765 260.79C312.839 260.617 312.877 260.43 312.879 260.242C312.875 259.901 312.747 259.574 312.518 259.323C311.773 259.908 311.066 260.541 310.402 261.217V261.217Z" fill="#263238"/>
<path d="M320.243 260.242C320.249 260.6 320.15 260.952 319.958 261.252C319.765 261.553 319.488 261.79 319.161 261.932C318.835 262.073 318.474 262.114 318.124 262.048C317.775 261.982 317.453 261.813 317.199 261.563C316.945 261.312 316.771 260.991 316.699 260.64C316.628 260.289 316.661 259.925 316.795 259.594C316.93 259.262 317.159 258.979 317.454 258.779C317.75 258.579 318.097 258.473 318.452 258.473C318.686 258.47 318.917 258.513 319.133 258.601C319.35 258.688 319.547 258.818 319.713 258.982C319.879 259.146 320.012 259.342 320.103 259.559C320.194 259.775 320.241 260.007 320.243 260.242V260.242Z" fill="white"/>
<path d="M317.428 261.217C317.624 261.424 317.877 261.568 318.155 261.63C318.432 261.692 318.722 261.669 318.987 261.565C319.251 261.46 319.479 261.278 319.641 261.043C319.802 260.807 319.89 260.528 319.894 260.242C319.89 259.901 319.762 259.574 319.533 259.323C318.79 259.905 318.086 260.538 317.428 261.217Z" fill="#263238"/>
<path d="M327.269 260.242C327.278 260.602 327.18 260.957 326.988 261.262C326.795 261.566 326.517 261.806 326.189 261.95C325.86 262.094 325.497 262.137 325.144 262.072C324.792 262.007 324.467 261.838 324.21 261.586C323.954 261.334 323.778 261.011 323.704 260.658C323.631 260.305 323.664 259.938 323.799 259.604C323.934 259.269 324.165 258.983 324.462 258.782C324.759 258.58 325.109 258.473 325.467 258.473C325.701 258.47 325.933 258.513 326.15 258.6C326.367 258.688 326.565 258.817 326.732 258.981C326.899 259.146 327.033 259.341 327.125 259.558C327.217 259.774 327.266 260.006 327.269 260.242V260.242Z" fill="white"/>
<path d="M324.443 261.217C324.639 261.424 324.892 261.568 325.169 261.63C325.447 261.692 325.737 261.669 326.002 261.565C326.266 261.46 326.494 261.278 326.656 261.043C326.817 260.807 326.905 260.528 326.909 260.242C326.905 259.901 326.777 259.574 326.548 259.323C325.807 259.908 325.104 260.541 324.443 261.217V261.217Z" fill="#263238"/>
<path d="M334.284 260.242C334.293 260.603 334.195 260.958 334.002 261.263C333.809 261.567 333.53 261.807 333.201 261.951C332.872 262.095 332.508 262.137 332.155 262.071C331.803 262.005 331.477 261.835 331.221 261.582C330.965 261.329 330.79 261.005 330.718 260.651C330.646 260.297 330.681 259.93 330.817 259.596C330.954 259.262 331.187 258.976 331.485 258.776C331.784 258.576 332.135 258.47 332.494 258.473C332.727 258.47 332.958 258.513 333.175 258.601C333.391 258.688 333.588 258.818 333.754 258.982C333.921 259.146 334.053 259.342 334.144 259.559C334.235 259.775 334.283 260.007 334.284 260.242V260.242Z" fill="white"/>
<path d="M331.458 261.217C331.654 261.424 331.907 261.568 332.184 261.63C332.462 261.692 332.752 261.669 333.017 261.565C333.281 261.46 333.509 261.278 333.671 261.043C333.832 260.807 333.92 260.528 333.924 260.242C333.924 259.9 333.795 259.572 333.563 259.323C332.822 259.908 332.119 260.541 331.458 261.217V261.217Z" fill="#263238"/>
<path d="M341.299 260.242C341.306 260.6 341.206 260.952 341.014 261.252C340.821 261.553 340.544 261.79 340.218 261.932C339.891 262.073 339.53 262.114 339.181 262.048C338.831 261.982 338.509 261.813 338.255 261.563C338.001 261.312 337.827 260.991 337.756 260.64C337.684 260.289 337.717 259.925 337.852 259.594C337.986 259.262 338.215 258.979 338.511 258.779C338.806 258.579 339.153 258.473 339.509 258.473C339.742 258.47 339.973 258.513 340.19 258.601C340.406 258.688 340.603 258.818 340.769 258.982C340.936 259.146 341.068 259.342 341.159 259.559C341.25 259.775 341.298 260.007 341.299 260.242V260.242Z" fill="white"/>
<path d="M338.473 261.217C338.67 261.423 338.924 261.565 339.202 261.626C339.479 261.687 339.769 261.664 340.034 261.56C340.299 261.456 340.527 261.275 340.69 261.04C340.853 260.806 340.943 260.528 340.95 260.242C340.946 259.901 340.818 259.574 340.59 259.323C339.842 259.905 339.135 260.538 338.473 261.217Z" fill="#263238"/>
<path d="M348.314 260.242C348.321 260.6 348.221 260.952 348.029 261.252C347.836 261.553 347.559 261.79 347.232 261.932C346.906 262.073 346.545 262.114 346.196 262.048C345.846 261.982 345.524 261.813 345.27 261.563C345.016 261.312 344.842 260.991 344.771 260.64C344.699 260.289 344.732 259.925 344.867 259.594C345.001 259.262 345.23 258.979 345.526 258.779C345.821 258.579 346.168 258.473 346.524 258.473C346.757 258.47 346.988 258.513 347.204 258.601C347.421 258.688 347.618 258.818 347.784 258.982C347.951 259.146 348.083 259.342 348.174 259.559C348.265 259.775 348.313 260.007 348.314 260.242V260.242Z" fill="white"/>
<path d="M345.454 261.217C345.589 261.356 345.75 261.467 345.928 261.543C346.106 261.619 346.297 261.659 346.49 261.659C346.677 261.662 346.863 261.628 347.037 261.558C347.211 261.488 347.37 261.385 347.504 261.253C347.638 261.121 347.744 260.964 347.818 260.79C347.891 260.617 347.93 260.43 347.931 260.242C347.927 259.901 347.799 259.574 347.571 259.323C346.826 259.908 346.119 260.541 345.454 261.217Z" fill="#263238"/>
<path d="M355.329 260.242C355.336 260.6 355.236 260.952 355.044 261.252C354.851 261.553 354.574 261.79 354.248 261.932C353.921 262.073 353.56 262.114 353.211 262.048C352.861 261.982 352.539 261.813 352.285 261.563C352.031 261.312 351.857 260.991 351.786 260.64C351.714 260.289 351.747 259.925 351.882 259.594C352.016 259.262 352.245 258.979 352.541 258.779C352.836 258.579 353.183 258.473 353.539 258.473C353.772 258.47 354.003 258.513 354.219 258.601C354.436 258.688 354.633 258.818 354.799 258.982C354.966 259.146 355.098 259.342 355.189 259.559C355.28 259.775 355.328 260.007 355.329 260.242V260.242Z" fill="white"/>
<path d="M352.514 261.217C352.71 261.424 352.963 261.568 353.241 261.63C353.518 261.692 353.808 261.669 354.073 261.565C354.337 261.46 354.565 261.278 354.727 261.043C354.888 260.807 354.976 260.528 354.98 260.242C354.976 259.901 354.848 259.574 354.62 259.323C353.876 259.905 353.172 260.538 352.514 261.217Z" fill="#263238"/>
<path d="M362.344 260.242C362.353 260.602 362.255 260.957 362.063 261.262C361.87 261.566 361.592 261.806 361.264 261.95C360.935 262.094 360.572 262.137 360.219 262.072C359.867 262.007 359.542 261.838 359.285 261.586C359.029 261.334 358.853 261.011 358.779 260.658C358.706 260.305 358.739 259.938 358.874 259.604C359.009 259.269 359.24 258.983 359.537 258.782C359.834 258.58 360.184 258.473 360.542 258.473C360.776 258.47 361.008 258.513 361.225 258.6C361.442 258.688 361.64 258.817 361.807 258.981C361.974 259.146 362.108 259.341 362.2 259.558C362.292 259.774 362.341 260.006 362.344 260.242V260.242Z" fill="white"/>
<path d="M359.529 261.217C359.725 261.424 359.978 261.568 360.256 261.63C360.533 261.692 360.823 261.669 361.088 261.565C361.352 261.46 361.58 261.278 361.742 261.043C361.903 260.807 361.991 260.528 361.995 260.242C361.991 259.901 361.863 259.574 361.635 259.323C360.893 259.908 360.19 260.541 359.529 261.217V261.217Z" fill="#263238"/>
<path d="M369.37 260.242C369.377 260.6 369.278 260.952 369.085 261.252C368.892 261.553 368.615 261.79 368.289 261.932C367.962 262.073 367.601 262.114 367.252 262.048C366.902 261.982 366.58 261.813 366.326 261.563C366.073 261.312 365.899 260.991 365.827 260.64C365.755 260.289 365.788 259.925 365.923 259.594C366.057 259.262 366.287 258.979 366.582 258.779C366.877 258.579 367.224 258.473 367.58 258.473C367.813 258.47 368.044 258.513 368.261 258.601C368.477 258.688 368.674 258.818 368.841 258.982C369.007 259.146 369.139 259.342 369.23 259.559C369.321 259.775 369.369 260.007 369.37 260.242V260.242Z" fill="white"/>
<path d="M366.544 261.217C366.678 261.357 366.839 261.468 367.017 261.544C367.195 261.62 367.387 261.659 367.58 261.659C367.766 261.661 367.951 261.625 368.124 261.555C368.296 261.484 368.454 261.38 368.586 261.249C368.719 261.117 368.825 260.96 368.898 260.788C368.97 260.615 369.008 260.429 369.01 260.242C369.01 259.9 368.882 259.572 368.65 259.323C367.908 259.908 367.205 260.541 366.544 261.217V261.217Z" fill="#263238"/>
<path d="M376.385 260.242C376.392 260.6 376.293 260.952 376.1 261.252C375.907 261.553 375.63 261.79 375.304 261.932C374.977 262.073 374.616 262.114 374.267 262.048C373.917 261.982 373.595 261.813 373.341 261.563C373.088 261.312 372.914 260.991 372.842 260.64C372.77 260.289 372.803 259.925 372.938 259.594C373.072 259.262 373.302 258.979 373.597 258.779C373.892 258.579 374.239 258.473 374.595 258.473C374.828 258.47 375.059 258.513 375.276 258.601C375.492 258.688 375.689 258.818 375.856 258.982C376.022 259.146 376.154 259.342 376.245 259.559C376.336 259.775 376.384 260.007 376.385 260.242V260.242Z" fill="white"/>
<path d="M373.604 261.217C373.802 261.423 374.055 261.565 374.333 261.626C374.611 261.687 374.9 261.664 375.165 261.56C375.43 261.456 375.658 261.275 375.821 261.04C375.984 260.806 376.075 260.528 376.081 260.242C376.077 259.901 375.949 259.574 375.721 259.323C374.976 259.908 374.269 260.541 373.604 261.217Z" fill="#263238"/>
<path d="M383.4 260.242C383.407 260.6 383.308 260.952 383.115 261.252C382.922 261.553 382.645 261.79 382.319 261.932C381.992 262.073 381.631 262.114 381.282 262.048C380.932 261.982 380.61 261.813 380.356 261.563C380.103 261.312 379.929 260.991 379.857 260.64C379.785 260.289 379.818 259.925 379.953 259.594C380.087 259.262 380.317 258.979 380.612 258.779C380.907 258.579 381.254 258.473 381.61 258.473C381.843 258.47 382.074 258.513 382.291 258.601C382.507 258.688 382.704 258.818 382.87 258.982C383.037 259.146 383.169 259.342 383.26 259.559C383.351 259.775 383.399 260.007 383.4 260.242V260.242Z" fill="white"/>
<path d="M380.574 261.217C380.709 261.356 380.87 261.467 381.048 261.543C381.225 261.619 381.417 261.659 381.61 261.659C381.797 261.662 381.983 261.628 382.157 261.558C382.331 261.488 382.49 261.385 382.624 261.253C382.758 261.121 382.864 260.964 382.938 260.79C383.011 260.617 383.05 260.43 383.051 260.242C383.047 259.901 382.919 259.574 382.691 259.323C381.946 259.908 381.239 260.541 380.574 261.217Z" fill="#263238"/>
<path d="M292.172 271.48C292.181 271.838 292.083 272.191 291.892 272.493C291.701 272.796 291.424 273.034 291.098 273.177C290.772 273.321 290.411 273.363 290.06 273.299C289.71 273.234 289.387 273.066 289.132 272.816C288.877 272.566 288.702 272.245 288.629 271.894C288.557 271.543 288.589 271.178 288.723 270.846C288.857 270.514 289.087 270.229 289.382 270.029C289.677 269.829 290.025 269.722 290.381 269.722C290.613 269.719 290.844 269.762 291.06 269.849C291.275 269.935 291.472 270.064 291.638 270.227C291.804 270.391 291.937 270.585 292.028 270.8C292.12 271.015 292.169 271.246 292.172 271.48V271.48Z" fill="white"/>
<path d="M289.357 272.466C289.489 272.606 289.647 272.718 289.824 272.794C290 272.87 290.19 272.909 290.381 272.908C290.569 272.91 290.755 272.874 290.929 272.803C291.103 272.732 291.262 272.627 291.396 272.495C291.53 272.362 291.636 272.204 291.709 272.03C291.783 271.856 291.821 271.669 291.823 271.48C291.816 271.143 291.688 270.821 291.462 270.572C290.721 271.158 290.017 271.79 289.357 272.466V272.466Z" fill="#263238"/>
<path d="M299.198 271.48C299.209 271.841 299.113 272.198 298.921 272.504C298.73 272.81 298.452 273.051 298.123 273.197C297.794 273.343 297.43 273.386 297.076 273.322C296.723 273.257 296.397 273.088 296.14 272.835C295.882 272.583 295.706 272.259 295.633 271.905C295.56 271.55 295.594 271.182 295.73 270.848C295.867 270.513 296.099 270.227 296.398 270.027C296.697 269.826 297.048 269.72 297.408 269.722C297.64 269.719 297.87 269.762 298.086 269.849C298.301 269.935 298.498 270.064 298.664 270.227C298.83 270.391 298.963 270.585 299.055 270.8C299.146 271.015 299.195 271.246 299.198 271.48V271.48Z" fill="white"/>
<path d="M296.372 272.466C296.568 272.674 296.822 272.818 297.101 272.88C297.38 272.942 297.67 272.918 297.936 272.812C298.201 272.706 298.428 272.522 298.589 272.285C298.75 272.047 298.836 271.767 298.838 271.48C298.836 271.142 298.708 270.818 298.477 270.572C297.736 271.158 297.032 271.79 296.372 272.466V272.466Z" fill="#263238"/>
<path d="M306.213 271.48C306.222 271.838 306.124 272.191 305.933 272.493C305.742 272.796 305.466 273.034 305.139 273.177C304.813 273.321 304.452 273.363 304.102 273.299C303.751 273.234 303.428 273.066 303.173 272.816C302.918 272.566 302.743 272.245 302.671 271.894C302.598 271.543 302.63 271.178 302.765 270.846C302.899 270.514 303.128 270.229 303.423 270.029C303.719 269.829 304.067 269.722 304.422 269.722C304.655 269.719 304.885 269.762 305.101 269.849C305.316 269.935 305.513 270.064 305.679 270.227C305.845 270.391 305.978 270.585 306.07 270.8C306.161 271.015 306.21 271.246 306.213 271.48V271.48Z" fill="white"/>
<path d="M303.387 272.466C303.585 272.673 303.84 272.815 304.118 272.876C304.397 272.937 304.687 272.913 304.953 272.807C305.218 272.701 305.446 272.519 305.608 272.283C305.77 272.046 305.859 271.767 305.864 271.48C305.857 271.143 305.729 270.821 305.503 270.572C304.756 271.155 304.049 271.787 303.387 272.466Z" fill="#263238"/>
<path d="M313.228 271.48C313.237 271.838 313.14 272.191 312.948 272.493C312.757 272.796 312.481 273.034 312.154 273.177C311.828 273.321 311.467 273.363 311.117 273.299C310.766 273.234 310.443 273.066 310.188 272.816C309.933 272.566 309.758 272.245 309.686 271.894C309.613 271.543 309.645 271.178 309.78 270.846C309.914 270.514 310.143 270.229 310.438 270.029C310.734 269.829 311.082 269.722 311.438 269.722C311.67 269.719 311.9 269.762 312.116 269.849C312.331 269.935 312.528 270.064 312.694 270.227C312.861 270.391 312.993 270.585 313.085 270.8C313.176 271.015 313.225 271.246 313.228 271.48Z" fill="white"/>
<path d="M310.402 272.466C310.536 272.606 310.697 272.716 310.875 272.792C311.053 272.868 311.244 272.908 311.437 272.908C311.625 272.91 311.812 272.874 311.986 272.803C312.16 272.732 312.318 272.627 312.452 272.495C312.586 272.362 312.692 272.204 312.766 272.03C312.839 271.856 312.877 271.669 312.879 271.48C312.872 271.143 312.744 270.821 312.518 270.572C311.773 271.158 311.066 271.79 310.402 272.466Z" fill="#263238"/>
<path d="M320.243 271.48C320.252 271.838 320.154 272.191 319.963 272.493C319.772 272.796 319.496 273.034 319.169 273.177C318.843 273.321 318.482 273.363 318.132 273.299C317.781 273.234 317.458 273.066 317.203 272.816C316.948 272.566 316.773 272.245 316.701 271.894C316.628 271.543 316.66 271.178 316.795 270.846C316.929 270.514 317.158 270.229 317.453 270.029C317.749 269.829 318.097 269.722 318.452 269.722C318.685 269.719 318.915 269.762 319.131 269.849C319.346 269.935 319.543 270.064 319.709 270.227C319.875 270.391 320.008 270.585 320.1 270.8C320.191 271.015 320.24 271.246 320.243 271.48V271.48Z" fill="white"/>
<path d="M317.428 272.466C317.56 272.606 317.719 272.718 317.895 272.794C318.071 272.87 318.261 272.909 318.452 272.908C318.64 272.91 318.827 272.874 319.001 272.803C319.175 272.732 319.333 272.627 319.467 272.495C319.601 272.362 319.707 272.204 319.781 272.03C319.854 271.856 319.892 271.669 319.894 271.48C319.887 271.143 319.759 270.821 319.533 270.572C318.79 271.155 318.086 271.787 317.428 272.466V272.466Z" fill="#263238"/>
<path d="M327.269 271.48C327.28 271.841 327.184 272.197 326.993 272.503C326.802 272.808 326.525 273.05 326.197 273.196C325.869 273.342 325.505 273.386 325.152 273.322C324.799 273.259 324.472 273.091 324.215 272.839C323.957 272.588 323.78 272.265 323.706 271.912C323.632 271.558 323.664 271.191 323.798 270.856C323.933 270.521 324.164 270.234 324.461 270.032C324.758 269.83 325.109 269.722 325.467 269.722C325.937 269.716 326.391 269.897 326.728 270.227C327.066 270.556 327.26 271.006 327.269 271.48V271.48Z" fill="white"/>
<path d="M324.443 272.466C324.575 272.606 324.734 272.718 324.91 272.794C325.086 272.87 325.276 272.909 325.467 272.908C325.655 272.91 325.842 272.874 326.016 272.803C326.19 272.732 326.348 272.627 326.482 272.495C326.616 272.362 326.722 272.204 326.796 272.03C326.869 271.856 326.907 271.669 326.909 271.48C326.902 271.143 326.774 270.821 326.548 270.572C325.807 271.158 325.104 271.79 324.443 272.466V272.466Z" fill="#263238"/>
<path d="M334.284 271.48C334.295 271.841 334.199 272.198 334.007 272.504C333.816 272.81 333.538 273.051 333.209 273.197C332.88 273.343 332.516 273.386 332.163 273.322C331.809 273.257 331.483 273.088 331.226 272.835C330.969 272.583 330.792 272.259 330.719 271.905C330.646 271.55 330.68 271.182 330.816 270.848C330.953 270.513 331.185 270.227 331.484 270.027C331.783 269.826 332.135 269.72 332.494 269.722C332.726 269.719 332.956 269.762 333.172 269.849C333.388 269.935 333.584 270.064 333.75 270.227C333.917 270.391 334.049 270.585 334.141 270.8C334.232 271.015 334.281 271.246 334.284 271.48V271.48Z" fill="white"/>
<path d="M331.458 272.466C331.654 272.674 331.909 272.818 332.187 272.88C332.466 272.942 332.757 272.918 333.022 272.812C333.287 272.706 333.514 272.522 333.675 272.285C333.836 272.047 333.923 271.767 333.924 271.48C333.923 271.142 333.794 270.818 333.563 270.572C332.822 271.158 332.119 271.79 331.458 272.466Z" fill="#263238"/>
<path d="M341.299 271.48C341.308 271.838 341.211 272.191 341.019 272.493C340.828 272.796 340.552 273.034 340.226 273.177C339.899 273.321 339.538 273.363 339.188 273.299C338.838 273.234 338.514 273.066 338.259 272.816C338.005 272.566 337.83 272.245 337.757 271.894C337.684 271.543 337.717 271.178 337.851 270.846C337.985 270.514 338.214 270.229 338.509 270.029C338.805 269.829 339.153 269.722 339.509 269.722C339.741 269.719 339.971 269.762 340.187 269.849C340.403 269.935 340.599 270.064 340.765 270.227C340.932 270.391 341.064 270.585 341.156 270.8C341.247 271.015 341.296 271.246 341.299 271.48Z" fill="white"/>
<path d="M338.473 272.466C338.671 272.673 338.926 272.815 339.204 272.876C339.483 272.937 339.774 272.913 340.039 272.807C340.304 272.701 340.532 272.519 340.694 272.283C340.857 272.046 340.946 271.767 340.95 271.48C340.943 271.143 340.815 270.821 340.59 270.572C339.842 271.155 339.135 271.787 338.473 272.466Z" fill="#263238"/>
<path d="M348.314 271.48C348.323 271.838 348.226 272.191 348.034 272.493C347.843 272.796 347.567 273.034 347.241 273.177C346.914 273.321 346.553 273.363 346.203 273.299C345.853 273.234 345.529 273.066 345.274 272.816C345.02 272.566 344.845 272.245 344.772 271.894C344.699 271.543 344.732 271.178 344.866 270.846C345 270.514 345.229 270.229 345.524 270.029C345.82 269.829 346.168 269.722 346.524 269.722C346.756 269.719 346.986 269.762 347.202 269.849C347.418 269.935 347.614 270.064 347.78 270.227C347.947 270.391 348.079 270.585 348.171 270.8C348.262 271.015 348.311 271.246 348.314 271.48V271.48Z" fill="white"/>
<path d="M345.454 272.466C345.589 272.606 345.75 272.716 345.928 272.792C346.106 272.868 346.297 272.908 346.49 272.908C346.678 272.91 346.864 272.874 347.038 272.803C347.212 272.732 347.371 272.627 347.504 272.495C347.638 272.362 347.745 272.204 347.818 272.03C347.891 271.856 347.93 271.669 347.931 271.48C347.925 271.143 347.797 270.821 347.571 270.572C346.826 271.158 346.119 271.79 345.454 272.466V272.466Z" fill="#263238"/>
<path d="M355.329 271.48C355.338 271.838 355.241 272.191 355.049 272.493C354.858 272.796 354.582 273.034 354.256 273.177C353.929 273.321 353.568 273.363 353.218 273.299C352.868 273.234 352.544 273.066 352.289 272.816C352.035 272.566 351.86 272.245 351.787 271.894C351.714 271.543 351.747 271.178 351.881 270.846C352.015 270.514 352.244 270.229 352.539 270.029C352.835 269.829 353.183 269.722 353.539 269.722C353.771 269.719 354.001 269.762 354.217 269.849C354.433 269.935 354.629 270.064 354.795 270.227C354.962 270.391 355.094 270.585 355.186 270.8C355.277 271.015 355.326 271.246 355.329 271.48V271.48Z" fill="white"/>
<path d="M352.514 272.466C352.646 272.606 352.805 272.718 352.981 272.794C353.157 272.87 353.347 272.909 353.539 272.908C353.726 272.91 353.913 272.874 354.087 272.803C354.261 272.732 354.419 272.627 354.553 272.495C354.687 272.362 354.794 272.204 354.867 272.03C354.94 271.856 354.978 271.669 354.98 271.48C354.973 271.143 354.845 270.821 354.62 270.572C353.876 271.155 353.172 271.787 352.514 272.466V272.466Z" fill="#263238"/>
<path d="M362.344 271.48C362.355 271.841 362.259 272.197 362.068 272.503C361.877 272.808 361.6 273.05 361.272 273.196C360.944 273.342 360.58 273.386 360.227 273.322C359.874 273.259 359.547 273.091 359.29 272.839C359.032 272.588 358.855 272.265 358.781 271.912C358.706 271.558 358.739 271.191 358.873 270.856C359.008 270.521 359.239 270.234 359.536 270.032C359.833 269.83 360.184 269.722 360.542 269.722C361.012 269.716 361.466 269.897 361.803 270.227C362.141 270.556 362.335 271.006 362.344 271.48V271.48Z" fill="white"/>
<path d="M359.529 272.466C359.661 272.606 359.82 272.718 359.996 272.794C360.172 272.87 360.362 272.909 360.554 272.908C360.741 272.91 360.928 272.874 361.102 272.803C361.276 272.732 361.434 272.627 361.568 272.495C361.702 272.362 361.808 272.204 361.882 272.03C361.955 271.856 361.993 271.669 361.995 271.48C361.988 271.143 361.86 270.821 361.635 270.572C360.893 271.158 360.19 271.79 359.529 272.466V272.466Z" fill="#263238"/>
<path d="M369.37 271.48C369.379 271.838 369.282 272.191 369.091 272.493C368.899 272.796 368.623 273.034 368.297 273.177C367.97 273.321 367.609 273.363 367.259 273.299C366.909 273.234 366.586 273.066 366.331 272.816C366.076 272.566 365.901 272.245 365.828 271.894C365.755 271.543 365.788 271.178 365.922 270.846C366.056 270.514 366.285 270.229 366.581 270.029C366.876 269.829 367.224 269.722 367.58 269.722C367.812 269.719 368.042 269.762 368.258 269.849C368.474 269.935 368.67 270.064 368.836 270.227C369.003 270.391 369.135 270.585 369.227 270.8C369.319 271.015 369.367 271.246 369.37 271.48Z" fill="white"/>
<path d="M366.544 272.466C366.741 272.674 366.995 272.818 367.273 272.88C367.552 272.942 367.843 272.918 368.108 272.812C368.373 272.706 368.601 272.522 368.761 272.285C368.922 272.047 369.009 271.767 369.01 271.48C369.009 271.142 368.88 270.818 368.65 270.572C367.908 271.158 367.205 271.79 366.544 272.466V272.466Z" fill="#263238"/>
<path d="M376.385 271.48C376.394 271.838 376.297 272.191 376.106 272.493C375.914 272.796 375.638 273.034 375.312 273.177C374.985 273.321 374.624 273.363 374.274 273.299C373.924 273.234 373.601 273.066 373.346 272.816C373.091 272.566 372.916 272.245 372.843 271.894C372.77 271.543 372.803 271.178 372.937 270.846C373.071 270.514 373.3 270.229 373.596 270.029C373.891 269.829 374.239 269.722 374.595 269.722C374.827 269.719 375.057 269.762 375.273 269.849C375.489 269.935 375.685 270.064 375.851 270.227C376.018 270.391 376.15 270.585 376.242 270.8C376.334 271.015 376.382 271.246 376.385 271.48V271.48Z" fill="white"/>
<path d="M373.604 272.466C373.802 272.673 374.057 272.815 374.336 272.876C374.614 272.937 374.905 272.913 375.17 272.807C375.435 272.701 375.663 272.519 375.826 272.283C375.988 272.046 376.077 271.767 376.081 271.48C376.075 271.143 375.947 270.821 375.721 270.572C374.976 271.158 374.269 271.79 373.604 272.466V272.466Z" fill="#263238"/>
<path d="M383.4 271.48C383.409 271.838 383.312 272.191 383.121 272.493C382.929 272.796 382.653 273.034 382.327 273.177C382.001 273.321 381.639 273.363 381.289 273.299C380.939 273.234 380.616 273.066 380.361 272.816C380.106 272.566 379.931 272.245 379.858 271.894C379.785 271.543 379.818 271.178 379.952 270.846C380.086 270.514 380.315 270.229 380.611 270.029C380.906 269.829 381.254 269.722 381.61 269.722C381.842 269.719 382.072 269.762 382.288 269.849C382.504 269.935 382.7 270.064 382.866 270.227C383.033 270.391 383.165 270.585 383.257 270.8C383.349 271.015 383.397 271.246 383.4 271.48V271.48Z" fill="white"/>
<path d="M380.574 272.466C380.709 272.606 380.87 272.716 381.048 272.792C381.225 272.868 381.417 272.908 381.61 272.908C381.798 272.91 381.984 272.874 382.158 272.803C382.332 272.732 382.49 272.627 382.624 272.495C382.758 272.362 382.865 272.204 382.938 272.03C383.011 271.856 383.05 271.669 383.051 271.48C383.045 271.143 382.916 270.821 382.691 270.572C381.946 271.158 381.239 271.79 380.574 272.466Z" fill="#263238"/>
<path d="M279.482 251.521H225.197C224.018 251.521 222.886 251.056 222.044 250.225C221.202 249.394 220.717 248.263 220.693 247.076V221.856C220.693 204.653 234.892 190.648 252.345 190.648C269.798 190.648 284.008 204.653 284.008 221.856V247.076C283.985 248.267 283.496 249.401 282.65 250.233C281.803 251.065 280.665 251.527 279.482 251.521ZM229.701 242.676H274.966V221.856C274.966 215.811 272.582 210.013 268.337 205.738C264.093 201.464 258.336 199.062 252.334 199.062C246.331 199.062 240.575 201.464 236.33 205.738C232.086 210.013 229.701 215.811 229.701 221.856V242.676Z" fill="white" stroke="#263238" stroke-linecap="round" stroke-linejoin="round"/>
<path d="M286.44 239.365H217.326V296.949H286.44V239.365Z" fill="#0086D2" stroke="#263238" stroke-linecap="round" stroke-linejoin="round"/>
<path d="M259.078 263.281C259.003 261.321 258.177 259.467 256.774 258.107C255.37 256.747 253.499 255.988 251.551 255.988C249.604 255.988 247.732 256.747 246.329 258.107C244.925 259.467 244.099 261.321 244.024 263.281C244.03 264.629 244.401 265.949 245.098 267.1C245.794 268.251 246.789 269.189 247.976 269.813L246.715 282.888H256.387L255.126 269.813C256.313 269.189 257.308 268.251 258.005 267.1C258.701 265.949 259.072 264.629 259.078 263.281V263.281Z" fill="#263238" stroke="#263238" stroke-linecap="round" stroke-linejoin="round"/>
<path d="M407.947 495.558C437.486 495.558 461.432 490.227 461.432 483.651C461.432 477.075 437.486 471.744 407.947 471.744C378.408 471.744 354.462 477.075 354.462 483.651C354.462 490.227 378.408 495.558 407.947 495.558Z" fill="#0086D2"/>
<path opacity="0.5" d="M407.947 495.558C437.486 495.558 461.432 490.227 461.432 483.651C461.432 477.075 437.486 471.744 407.947 471.744C378.408 471.744 354.462 477.075 354.462 483.651C354.462 490.227 378.408 495.558 407.947 495.558Z" fill="white"/>
<path d="M379.977 471.472C379.977 471.472 367.006 478.82 367.006 482.358C367.006 485.896 375.011 483.719 380.247 481.224C385.483 478.729 389.638 476.87 389.638 471.971C389.638 467.072 379.977 471.472 379.977 471.472Z" fill="#0086D2" stroke="#263238" stroke-miterlimit="10"/>
<path d="M442.076 471.472C442.076 471.472 455.048 478.82 455.048 482.358C455.048 485.896 447.042 483.719 441.806 481.224C436.57 478.729 432.415 476.87 432.415 471.971C432.415 467.072 442.076 471.472 442.076 471.472Z" fill="#0086D2" stroke="#263238" stroke-miterlimit="10"/>
<path d="M385.224 351.188L379.696 472.878C380.46 473.512 381.344 473.983 382.294 474.263C383.244 474.544 384.241 474.628 385.224 474.511C386.94 474.255 388.507 473.386 389.638 472.062L408.409 372.734H412.271L432.156 473.921C433.344 474.583 434.663 474.971 436.018 475.055C437.944 475.055 440.984 472.606 440.984 472.606L434.633 351.268L385.224 351.188Z" fill="#263238" stroke="#263238" stroke-miterlimit="10"/>
<path d="M404.547 277.444L379.425 287.775L386.046 346.562H434.07L442.909 285.598L415.581 276.9L404.547 277.444Z" fill="#0086D2" stroke="#263238" stroke-miterlimit="10"/>
<path d="M407.305 285.87L410.334 290.769L405.368 332.954L411.438 341.935L416.685 332.137L412.541 290.225L416.133 284.521L410.886 282.207L407.305 285.87Z" fill="#263238" stroke="#263238" stroke-miterlimit="10"/>
<path d="M410.886 282.207L406.855 289.159L399.671 279.52L403.691 274.7L410.886 282.207Z" fill="#0086D2" stroke="#263238" stroke-miterlimit="10"/>
<path d="M410.886 282.207L415.773 289.862L421.662 278.953L418.216 274.553L410.886 282.207Z" fill="#0086D2" stroke="#263238" stroke-miterlimit="10"/>
<path d="M401.135 298.662H384.211V304.468L392.678 307.734L401.135 304.105V298.662Z" fill="#0086D2" stroke="#263238" stroke-miterlimit="10"/>
<path d="M434.993 298.662H418.07V304.468L426.526 307.734L434.993 304.105V298.662Z" fill="#0086D2" stroke="#263238" stroke-miterlimit="10"/>
<path d="M434.633 345.473H385.224V351.188H434.633V345.473Z" fill="#263238" stroke="#263238" stroke-miterlimit="10"/>
<path d="M384.391 350.1L375.833 353.638C375.693 356.101 375.879 358.572 376.385 360.986C377.218 364.252 378.322 371.328 379.144 372.689C379.966 374.05 384.121 376.772 384.673 375.955C385.224 375.139 387.983 351.188 387.983 351.188L384.391 350.1Z" fill="#263238" stroke="#263238" stroke-miterlimit="10"/>
<path d="M403.691 264.778V274.7L410.886 282.207L418.216 274.553V264.63L403.691 264.778Z" fill="white" stroke="#263238" stroke-miterlimit="10"/>
<path d="M398.669 255.57C398.669 255.57 397.374 252.587 396.507 254.436C395.64 256.284 396.653 259.108 397.948 260.242C398.901 260.937 400.08 261.241 401.247 261.092L400.527 256.84L398.669 255.57Z" fill="white" stroke="#263238" stroke-miterlimit="10"/>
<path d="M422.09 255.57C422.09 255.57 423.384 252.587 424.251 254.436C425.119 256.284 424.105 259.108 422.81 260.242C421.854 260.938 420.67 261.242 419.5 261.092L420.22 256.84L422.09 255.57Z" fill="white" stroke="#263238" stroke-miterlimit="10"/>
<path d="M401.112 235.872C401.112 235.872 395.066 238.423 395.066 242.676C395.066 246.928 395.933 251.748 397.374 253.596C398.815 255.445 399.952 256.715 399.952 256.715L400.245 250.614L404.411 243.39C404.411 243.39 411.314 247.779 414.759 247.779C416.685 247.796 418.61 247.656 420.513 247.359L421.808 254.583L423.677 249.344V244.524C423.677 244.524 427.123 241.258 426.402 239.138C425.682 237.017 414.016 230.349 406.855 232.05C399.693 233.751 401.112 235.872 401.112 235.872Z" fill="#263238" stroke="#263238" stroke-miterlimit="10"/>
<path d="M398.23 250.183C398.23 250.183 399.952 260.809 401.394 263.644C403.289 266.789 405.612 269.652 408.296 272.149C409.298 272.852 413.037 272.285 414.478 272.285C415.919 272.285 420.108 263.78 420.795 262.226C421.482 260.673 421.921 247.348 421.921 247.348L420.66 244.944C420.66 244.944 414.478 246.509 409.591 244.524C406.938 243.568 404.565 241.958 402.689 239.841C402.689 239.841 402.261 244.661 400.527 247.496C398.793 250.331 398.23 250.183 398.23 250.183Z" fill="white" stroke="#263238" stroke-miterlimit="10"/>
<path d="M409.298 251.317C407.559 250.402 405.63 249.916 403.668 249.9C401.985 249.832 400.309 250.171 398.781 250.886C398.781 250.886 398.781 255.706 400.369 257.554C401.957 259.402 406.551 258.824 407.846 257.271C409.141 255.717 409.298 251.317 409.298 251.317Z" fill="#263238" stroke="#263238" stroke-miterlimit="10"/>
<path d="M411.314 251.317C413.052 250.402 414.982 249.916 416.944 249.9C418.627 249.832 420.303 250.171 421.831 250.886C421.831 250.886 421.831 255.706 420.243 257.554C418.655 259.402 414.061 258.824 412.778 257.271C411.494 255.717 411.314 251.317 411.314 251.317Z" fill="#263238" stroke="#263238" stroke-miterlimit="10"/>
<path d="M409.298 251.317H411.314" stroke="#263238" stroke-miterlimit="10"/>
<path d="M379.696 341.119L388.805 340.846L395.707 347.106C395.696 347.907 395.405 348.678 394.885 349.283C394.052 350.1 391.845 349.556 391.845 349.556C391.845 349.556 390.19 353.638 387.15 353.638C384.11 353.638 375.89 347.968 375.89 347.968L379.696 341.119Z" fill="white" stroke="#263238" stroke-miterlimit="10"/>
<path d="M379.425 287.775L348.787 328.327L375.833 347.923L379.696 341.119L371.42 325.061L382.736 314.719L379.425 287.775Z" fill="#0086D2" stroke="#263238" stroke-miterlimit="10"/>
<path d="M377.489 336.492L372.805 344.929" stroke="#263238" stroke-linecap="round" stroke-linejoin="round"/>
<path d="M371.42 325.061L367.828 315.808" stroke="#263238" stroke-linecap="round" stroke-linejoin="round"/>
<path d="M442.909 341.119L433.8 340.846L426.898 347.106C426.912 347.908 427.207 348.679 427.731 349.283C428.553 350.1 430.76 349.556 430.76 349.556C430.76 349.556 432.415 353.638 435.455 353.638C438.495 353.638 446.771 347.968 446.771 347.968L442.909 341.119Z" fill="white" stroke="#263238" stroke-miterlimit="10"/>
<path d="M442.909 285.598L473.818 328.327L446.771 347.923L442.909 341.119L451.185 325.061L438.214 314.447L442.909 285.598Z" fill="#0086D2" stroke="#263238" stroke-miterlimit="10"/>
<path d="M445.116 336.492L449.8 344.929" stroke="#263238" stroke-linecap="round" stroke-linejoin="round"/>
<path d="M451.185 325.061L454.777 315.808" stroke="#263238" stroke-linecap="round" stroke-linejoin="round"/>
<path d="M94.9189 495.558C124.458 495.558 148.404 490.227 148.404 483.651C148.404 477.075 124.458 471.744 94.9189 471.744C65.38 471.744 41.434 477.075 41.434 483.651C41.434 490.227 65.38 495.558 94.9189 495.558Z" fill="#0086D2"/>
<path opacity="0.5" d="M94.9189 495.558C124.458 495.558 148.404 490.227 148.404 483.651C148.404 477.075 124.458 471.744 94.9189 471.744C65.38 471.744 41.434 477.075 41.434 483.651C41.434 490.227 65.38 495.558 94.9189 495.558Z" fill="white"/>
<path d="M67.1293 471.472C67.1293 471.472 54.1578 478.82 54.1578 482.358C54.1578 485.896 62.1636 483.719 67.4108 481.224C72.658 478.729 76.7904 476.87 76.7904 471.971C76.7904 467.072 67.1293 471.472 67.1293 471.472Z" fill="#0086D2" stroke="#263238" stroke-miterlimit="10"/>
<path d="M129.262 471.472C129.262 471.472 142.234 478.82 142.234 482.358C142.234 485.896 134.239 483.719 128.992 481.224C123.745 478.729 119.601 476.87 119.601 471.971C119.601 467.072 129.262 471.472 129.262 471.472Z" fill="#0086D2" stroke="#263238" stroke-miterlimit="10"/>
<path d="M72.3765 351.188L66.8591 472.878C67.6213 473.512 68.5032 473.983 69.4516 474.264C70.3999 474.545 71.395 474.629 72.3765 474.511C74.0922 474.255 75.6591 473.386 76.7904 472.062L95.5608 372.734H99.423L119.297 473.967C120.485 474.629 121.804 475.016 123.159 475.101C125.096 475.101 128.125 472.651 128.125 472.651L121.774 351.313L72.3765 351.188Z" fill="#263238" stroke="#263238" stroke-miterlimit="10"/>
<path d="M91.6986 277.444L66.5776 287.775L73.1985 346.562H121.234L130.061 285.598L102.733 276.9L91.6986 277.444Z" fill="#0086D2" stroke="#263238" stroke-miterlimit="10"/>
<path d="M121.785 345.473H72.3765V351.188H121.785V345.473Z" fill="#263238" stroke="#263238" stroke-miterlimit="10"/>
<path d="M71.5432 350.1L62.9856 353.638C62.8453 356.101 63.0308 358.572 63.5374 360.986C64.3706 364.252 65.4741 371.328 66.3073 372.689C67.1406 374.05 71.273 376.772 71.8247 375.955C72.3765 375.139 75.1352 351.188 75.1352 351.188L71.5432 350.1Z" fill="#263238" stroke="#263238" stroke-miterlimit="10"/>
<path d="M90.8541 264.778V274.7L98.038 282.207L105.368 274.553V264.63L90.8541 264.778Z" fill="white" stroke="#263238" stroke-miterlimit="10"/>
<path d="M85.8209 255.57C85.8209 255.57 84.526 252.587 83.659 254.436C82.792 256.284 83.8053 259.108 85.1002 260.242C86.0566 260.938 87.24 261.242 88.4107 261.092L87.69 256.84L85.8209 255.57Z" fill="white" stroke="#263238" stroke-miterlimit="10"/>
<path d="M109.242 255.57C109.242 255.57 110.537 252.587 111.404 254.436C112.271 256.284 111.257 259.108 109.962 260.242C109.01 260.937 107.83 261.241 106.663 261.092L107.373 256.84L109.242 255.57Z" fill="white" stroke="#263238" stroke-miterlimit="10"/>
<path d="M88.2643 235.872C88.2643 235.872 82.2289 238.423 82.2289 242.676C82.2289 246.928 83.0847 251.748 84.4809 253.596C85.8772 255.445 87.0707 256.715 87.0707 256.715L87.3522 250.614L91.5184 243.39C91.5184 243.39 98.4208 247.779 101.866 247.779C103.792 247.796 105.717 247.656 107.62 247.359L108.915 254.583L110.784 249.344V244.524C110.784 244.524 114.23 241.258 113.509 239.138C112.789 237.017 101.123 230.349 93.9619 232.05C86.8005 233.751 88.2643 235.872 88.2643 235.872Z" fill="#263238" stroke="#263238" stroke-miterlimit="10"/>
<path d="M85.348 250.183C85.348 250.183 87.082 260.809 88.512 263.644C90.4302 266.795 92.7762 269.662 95.482 272.16C96.4841 272.863 100.222 272.296 101.664 272.296C103.105 272.296 107.294 263.791 107.992 262.237C108.69 260.684 109.118 247.359 109.118 247.359L107.868 244.944C107.868 244.944 101.686 246.509 96.7994 244.524C94.1467 243.568 91.7739 241.958 89.897 239.841C89.897 239.841 89.4691 244.661 87.7463 247.496C86.0236 250.331 85.348 250.183 85.348 250.183Z" fill="white" stroke="#263238" stroke-miterlimit="10"/>
<path d="M96.4503 251.317C94.7116 250.402 92.782 249.916 90.8203 249.9C89.1366 249.832 87.4614 250.171 85.9335 250.886C85.9335 250.886 85.9335 255.706 87.5099 257.554C89.0863 259.402 93.6916 258.824 94.9865 257.271C96.2814 255.717 96.4503 251.317 96.4503 251.317Z" fill="#263238" stroke="#263238" stroke-miterlimit="10"/>
<path d="M98.4659 251.317C100.205 250.402 102.134 249.916 104.096 249.9C105.78 249.832 107.455 250.171 108.983 250.886C108.983 250.886 108.983 255.706 107.395 257.554C105.807 259.402 101.225 258.824 99.9297 257.271C98.6348 255.717 98.4659 251.317 98.4659 251.317Z" fill="#263238" stroke="#263238" stroke-miterlimit="10"/>
<path d="M96.4503 251.317H98.4659" stroke="#263238" stroke-miterlimit="10"/>
<path d="M94.4573 285.87L97.4863 290.769L92.5206 332.954L98.601 341.935L103.837 332.137L99.7045 290.225L103.285 284.521L98.038 282.207L94.4573 285.87Z" fill="#263238" stroke="#263238" stroke-miterlimit="10"/>
<path d="M98.038 282.207L94.0069 289.159L86.823 279.52L90.8541 274.7L98.038 282.207Z" fill="#0086D2" stroke="#263238" stroke-miterlimit="10"/>
<path d="M98.038 282.207L102.925 289.862L108.814 278.953L105.368 274.553L98.038 282.207Z" fill="#0086D2" stroke="#263238" stroke-miterlimit="10"/>
<path d="M66.5776 287.775L35.9391 328.327L62.9856 347.923L66.8591 341.119L58.5717 325.061L69.888 314.719L66.5776 287.775Z" fill="#0086D2" stroke="#263238" stroke-miterlimit="10"/>
<path d="M66.8591 341.119L75.9572 340.846L82.8595 347.106C82.8485 347.907 82.5574 348.678 82.0375 349.283C81.2043 350.1 78.9973 349.556 78.9973 349.556C78.9973 349.556 77.3421 353.638 74.3019 353.638C71.2617 353.638 63.0419 347.968 63.0419 347.968L66.8591 341.119Z" fill="white" stroke="#263238" stroke-miterlimit="10"/>
<path d="M64.6521 336.492L59.9567 344.929" stroke="#263238" stroke-linecap="round" stroke-linejoin="round"/>
<path d="M58.5717 325.061L54.991 315.808" stroke="#263238" stroke-linecap="round" stroke-linejoin="round"/>
<path d="M130.061 285.598L160.97 328.327L133.924 347.923L130.061 341.119L138.337 325.061L125.366 314.447L130.061 285.598Z" fill="#0086D2" stroke="#263238" stroke-miterlimit="10"/>
<path d="M130.061 341.119L120.952 340.846L114.05 347.106C114.064 347.908 114.359 348.679 114.883 349.283C115.705 350.1 117.912 349.556 117.912 349.556C117.912 349.556 119.567 353.638 122.607 353.638C125.647 353.638 133.867 347.968 133.867 347.968L130.061 341.119Z" fill="white" stroke="#263238" stroke-miterlimit="10"/>
<path d="M132.268 336.492L136.964 344.929" stroke="#263238" stroke-linecap="round" stroke-linejoin="round"/>
<path d="M138.338 325.061L141.929 315.808" stroke="#263238" stroke-linecap="round" stroke-linejoin="round"/>
<path d="M88.2868 298.662H71.363V304.468L79.8306 307.734L88.2868 304.105V298.662Z" fill="#0086D2" stroke="#263238" stroke-miterlimit="10"/>
<path d="M122.146 298.662H105.222V304.468L113.689 307.734L122.146 304.105V298.662Z" fill="#0086D2" stroke="#263238" stroke-miterlimit="10"/>
</svg>
