<svg width="241" height="177" viewBox="0 0 241 177" fill="none" xmlns="http://www.w3.org/2000/svg">
<ellipse cx="86.5" cy="79.5" rx="83.5" ry="79.5" fill="#FFFCFC"/>
<path d="M122.505 89.48V87.9292L171.13 55.52C171.487 55.2994 171.881 55.1844 172.282 55.1844C172.682 55.1844 173.077 55.2994 173.433 55.52L240.862 101.536V103.064C240.85 103.236 240.801 103.401 240.718 103.543C240.636 103.684 240.524 103.796 240.394 103.868L191.769 137.828L122.505 89.48Z" fill="#002E74"/>
<path opacity="0.1" d="M240.862 103.064V101.536L240.039 100.97L191.76 136.283V137.833L240.385 103.873C240.517 103.803 240.632 103.69 240.716 103.548C240.8 103.406 240.85 103.238 240.862 103.064Z" fill="black"/>
<path d="M122.505 87.9235L171.13 53.9635C171.487 53.7429 171.881 53.6279 172.282 53.6279C172.682 53.6279 173.077 53.7429 173.433 53.9635L240.385 100.709C241.021 101.151 241.021 101.875 240.385 102.317L191.76 136.277L122.505 87.9235Z" fill="#002E74"/>
<path opacity="0.2" d="M191.76 137.833V136.283L122.505 87.9235V89.4743L191.76 137.833Z" fill="black"/>
<path d="M123.614 90.2215L74.4744 121.521L73.4495 123.44V124.991C73.463 125.39 73.5636 125.778 73.7411 126.115C73.9187 126.452 74.1668 126.726 74.4603 126.91L139.241 172.144C139.76 172.479 140.34 172.654 140.928 172.654C141.516 172.654 142.096 172.479 142.615 172.144L190.674 138.592V137.024L123.614 90.2215Z" fill="#002E74"/>
<path opacity="0.1" d="M123.614 90.2215L74.4744 121.521L73.4495 123.44V124.991C73.463 125.39 73.5636 125.778 73.7411 126.115C73.9187 126.452 74.1668 126.726 74.4603 126.91L139.241 172.144C139.76 172.479 140.34 172.654 140.928 172.654C141.516 172.654 142.096 172.479 142.615 172.144L190.674 138.592V137.024L123.614 90.2215Z" fill="black"/>
<path d="M140.931 171.103C140.341 171.112 139.76 170.938 139.241 170.599L74.4606 125.364C74.1587 125.193 73.9035 124.921 73.7247 124.581C73.5459 124.241 73.4509 123.846 73.4509 123.443C73.4509 123.04 73.5459 122.645 73.7247 122.304C73.9035 121.964 74.1587 121.692 74.4606 121.521L121.452 88.6933L190.674 137.024L142.615 170.599C142.098 170.938 141.519 171.111 140.931 171.103Z" fill="#002E74"/>
<path d="M121.452 84.1653L74.9939 116.603L74.5259 117.412V123.44C74.5379 123.612 74.5876 123.777 74.6698 123.919C74.7521 124.06 74.8639 124.172 74.9939 124.244L139.774 169.484C140.132 169.702 140.527 169.815 140.928 169.815C141.329 169.815 141.724 169.702 142.082 169.484L188.54 137.024V131.013L121.452 84.1653Z" fill="#EBEBEB"/>
<path d="M188.545 131.013L187.964 131.421L180.402 136.696L178.998 137.686L142.086 163.451C141.729 163.671 141.334 163.786 140.933 163.786C140.532 163.786 140.136 163.671 139.779 163.451L74.9892 118.216C74.3574 117.769 74.3574 117.05 74.9892 116.603L75.607 116.173L121.471 84.1653L187.988 130.611L188.128 130.713L188.545 131.013Z" fill="#F0F0F0"/>
<path d="M140.93 163.79V169.818C140.529 169.83 140.132 169.715 139.779 169.484L74.9892 124.244C74.8593 124.172 74.7474 124.06 74.6652 123.919C74.583 123.777 74.5333 123.612 74.5212 123.44V117.406C74.5339 117.579 74.5838 117.745 74.6659 117.887C74.748 118.029 74.8595 118.142 74.9892 118.216L139.779 163.451C140.132 163.683 140.529 163.8 140.93 163.79Z" fill="#E0E0E0"/>
<path d="M188.545 130.232L180.181 136.067L178.871 136.984L142.086 162.669C141.729 162.89 141.334 163.005 140.933 163.005C140.532 163.005 140.136 162.89 139.779 162.669L81.747 122.161C81.2276 121.816 80.7408 121.47 80.2869 121.142C77.9469 119.404 76.5054 117.848 75.6069 116.195L75.4946 115.986C75.425 115.859 75.3772 115.717 75.3542 115.567C75.3138 115.251 75.3752 114.928 75.5258 114.664C75.6764 114.401 75.9048 114.218 76.1638 114.152C77.6835 113.615 79.1495 112.877 80.5349 111.95L80.5958 111.911L121.452 83.3842L188.545 130.232Z" fill="#FAFAFA"/>
<path opacity="0.1" d="M179.868 129.502C179.274 129.921 179.274 130.594 179.868 131.013C180.201 131.221 180.57 131.33 180.944 131.33C181.319 131.33 181.688 131.221 182.021 131.013C182.62 130.594 182.62 129.921 182.021 129.502C181.688 129.293 181.319 129.185 180.944 129.185C180.57 129.185 180.201 129.293 179.868 129.502Z" fill="black"/>
<path d="M186.809 124.617C185.99 124.051 184.96 124.136 183.912 124.861C182.283 125.993 180.879 128.54 180.266 131.2C180.521 131.297 180.789 131.337 181.057 131.319C181.623 128.947 182.873 126.711 184.309 125.698C184.707 125.402 185.162 125.234 185.629 125.212C185.901 125.207 186.17 125.291 186.406 125.455C187.099 125.936 187.501 127.119 187.501 128.681C187.503 128.94 187.49 129.199 187.464 129.457L188.222 129.983C188.274 129.552 188.3 129.117 188.301 128.681C188.292 126.762 187.754 125.279 186.809 124.617Z" fill="#263238"/>
<path d="M188.147 130.487C188.147 130.56 188.123 130.634 188.109 130.713L187.969 130.611L188.147 130.487Z" fill="#263238"/>
<path opacity="0.1" d="M173.395 124.968C172.801 125.387 172.801 126.061 173.395 126.479C173.728 126.688 174.097 126.797 174.472 126.797C174.846 126.797 175.216 126.688 175.548 126.479C176.147 126.061 176.147 125.387 175.548 124.968C175.216 124.76 174.846 124.651 174.472 124.651C174.097 124.651 173.728 124.76 173.395 124.968Z" fill="black"/>
<path d="M180.336 120.084C179.512 119.518 178.487 119.597 177.434 120.327C175.81 121.459 174.406 124.006 173.793 126.666C174.049 126.763 174.317 126.804 174.584 126.785C175.15 124.414 176.395 122.178 177.837 121.165C178.234 120.866 178.689 120.697 179.157 120.672C179.429 120.67 179.697 120.756 179.933 120.921C180.626 121.402 181.029 122.58 181.029 124.148C181.028 124.407 181.015 124.665 180.991 124.923L181.745 125.449C181.799 125.018 181.825 124.583 181.824 124.148C181.805 122.229 181.272 120.746 180.336 120.084Z" fill="#263238"/>
<path opacity="0.1" d="M166.9 120.435C166.771 120.491 166.66 120.594 166.582 120.729C166.504 120.864 166.462 121.025 166.462 121.19C166.462 121.355 166.504 121.516 166.582 121.652C166.66 121.787 166.771 121.889 166.9 121.946C167.234 122.15 167.602 122.256 167.976 122.256C168.35 122.256 168.719 122.15 169.053 121.946C169.652 121.527 169.652 120.848 169.053 120.435C168.72 120.226 168.351 120.117 167.976 120.117C167.602 120.117 167.232 120.226 166.9 120.435Z" fill="black"/>
<path d="M173.821 115.55C173.002 114.984 171.973 115.063 170.925 115.793C169.301 116.925 167.892 119.472 167.279 122.133C167.536 122.229 167.805 122.27 168.074 122.251C168.636 119.88 169.886 117.644 171.322 116.631C171.721 116.332 172.178 116.162 172.647 116.139C172.919 116.136 173.188 116.222 173.424 116.388C174.116 116.869 174.514 118.046 174.514 119.614C174.516 119.873 174.503 120.132 174.477 120.389L175.235 120.916C175.287 120.485 175.313 120.049 175.314 119.614C175.314 117.695 174.771 116.212 173.821 115.55Z" fill="#263238"/>
<path opacity="0.1" d="M160.409 115.901C159.814 116.32 159.814 116.993 160.409 117.412C160.741 117.621 161.11 117.729 161.485 117.729C161.86 117.729 162.229 117.621 162.561 117.412C163.161 116.993 163.161 116.32 162.561 115.901C162.229 115.692 161.86 115.584 161.485 115.584C161.11 115.584 160.741 115.692 160.409 115.901Z" fill="black"/>
<path d="M167.33 111.016C166.511 110.45 165.482 110.53 164.433 111.26C162.805 112.392 161.401 114.939 160.788 117.599C161.045 117.696 161.314 117.737 161.583 117.718C162.145 115.346 163.394 113.11 164.831 112.097C165.229 111.801 165.684 111.633 166.151 111.611C166.425 111.607 166.694 111.691 166.932 111.854C167.625 112.335 168.023 113.518 168.023 115.08C168.024 115.339 168.012 115.598 167.985 115.856L168.744 116.382C168.795 115.951 168.822 115.516 168.823 115.08C168.823 113.161 168.28 111.679 167.33 111.016Z" fill="#263238"/>
<path opacity="0.1" d="M153.913 111.367C153.784 111.423 153.673 111.526 153.595 111.661C153.517 111.797 153.475 111.958 153.475 112.123C153.475 112.288 153.517 112.449 153.595 112.584C153.673 112.719 153.784 112.822 153.913 112.878C154.247 113.085 154.616 113.193 154.991 113.193C155.367 113.193 155.736 113.085 156.07 112.878C156.665 112.46 156.665 111.786 156.07 111.367C155.736 111.161 155.367 111.053 154.991 111.053C154.616 111.053 154.247 111.161 153.913 111.367Z" fill="black"/>
<path d="M160.839 106.46C160.015 105.894 158.99 105.973 157.937 106.703C156.313 107.835 154.909 110.382 154.296 113.043C154.552 113.14 154.82 113.18 155.087 113.161C155.654 110.79 156.898 108.554 158.34 107.541C158.738 107.244 159.192 107.076 159.66 107.054C159.932 107.05 160.2 107.134 160.437 107.298C161.129 107.779 161.532 108.962 161.532 110.524C161.531 110.783 161.518 111.042 161.494 111.299L162.248 111.826C162.302 111.395 162.328 110.96 162.327 110.524C162.327 108.628 161.784 107.145 160.839 106.46Z" fill="#263238"/>
<path opacity="0.1" d="M147.422 106.834C146.827 107.252 146.827 107.926 147.422 108.345C147.754 108.553 148.123 108.662 148.498 108.662C148.873 108.662 149.242 108.553 149.574 108.345C150.173 107.926 150.173 107.252 149.574 106.834C149.242 106.625 148.873 106.516 148.498 106.516C148.123 106.516 147.754 106.625 147.422 106.834Z" fill="black"/>
<path d="M154.343 101.932C153.524 101.366 152.471 101.445 151.446 102.175C149.818 103.307 148.414 105.854 147.801 108.515C148.058 108.612 148.327 108.652 148.596 108.633C149.158 106.262 150.407 104.026 151.844 103.013C152.242 102.716 152.697 102.549 153.164 102.526C153.438 102.522 153.707 102.606 153.945 102.77C154.638 103.251 155.036 104.434 155.036 105.996C155.037 106.255 155.025 106.514 154.998 106.771L155.757 107.298C155.808 106.867 155.835 106.432 155.836 105.996C155.836 104.094 155.293 102.611 154.343 101.932Z" fill="#263238"/>
<path opacity="0.1" d="M140.93 102.3C140.336 102.719 140.336 103.392 140.93 103.811C141.263 104.02 141.632 104.128 142.007 104.128C142.381 104.128 142.751 104.02 143.083 103.811C143.682 103.392 143.682 102.719 143.083 102.3C142.751 102.091 142.381 101.983 142.007 101.983C141.632 101.983 141.263 102.091 140.93 102.3Z" fill="black"/>
<path d="M147.852 97.404C147.029 96.838 145.98 96.9172 144.951 97.6474C143.327 98.7794 141.923 101.326 141.31 103.987C141.565 104.084 141.833 104.124 142.1 104.105C142.667 101.734 143.916 99.4982 145.353 98.4851C145.751 98.1883 146.206 98.0206 146.673 97.9983C146.945 97.9936 147.214 98.0777 147.45 98.2417C148.142 98.7228 148.545 99.9057 148.545 101.468C148.546 101.727 148.534 101.986 148.507 102.243L149.261 102.77C149.317 102.339 149.345 101.904 149.345 101.468C149.345 99.5605 148.798 98.0775 147.852 97.404Z" fill="#263238"/>
<path opacity="0.1" d="M134.434 97.7663C134.306 97.8225 134.195 97.9252 134.117 98.0604C134.038 98.1956 133.996 98.3567 133.996 98.5219C133.996 98.687 134.038 98.8481 134.117 98.9833C134.195 99.1185 134.306 99.2212 134.434 99.2775C134.767 99.4859 135.136 99.5947 135.511 99.5947C135.885 99.5947 136.255 99.4859 136.587 99.2775C137.186 98.8586 137.186 98.1851 136.587 97.7663C136.255 97.5578 135.885 97.4491 135.511 97.4491C135.136 97.4491 134.767 97.5578 134.434 97.7663Z" fill="black"/>
<path d="M141.356 92.876C140.537 92.31 139.484 92.3892 138.459 93.1194C136.835 94.2514 135.427 96.7984 134.814 99.4586C135.071 99.5554 135.34 99.5956 135.609 99.5775C136.176 97.2059 137.42 94.9702 138.857 93.9571C139.257 93.6594 139.713 93.4917 140.182 93.4703C140.454 93.4661 140.722 93.5502 140.959 93.7137C141.651 94.1948 142.049 95.3777 142.049 96.9399C142.051 97.1991 142.038 97.4581 142.012 97.7153L142.77 98.2417C142.821 97.8106 142.848 97.3755 142.849 96.9399C142.849 95.0268 142.306 93.5439 141.356 92.876Z" fill="#263238"/>
<path opacity="0.1" d="M127.943 93.2326C127.349 93.6514 127.349 94.325 127.943 94.7438C128.276 94.9522 128.645 95.061 129.02 95.061C129.394 95.061 129.763 94.9522 130.096 94.7438C130.695 94.325 130.695 93.6514 130.096 93.2326C129.763 93.0242 129.394 92.9154 129.02 92.9154C128.645 92.9154 128.276 93.0242 127.943 93.2326Z" fill="black"/>
<path d="M134.865 88.348C134.046 87.782 132.993 87.8612 131.968 88.5914C130.344 89.7234 128.936 92.2704 128.323 94.9306C128.58 95.0277 128.849 95.068 129.118 95.0495C129.68 92.6779 130.929 90.4422 132.366 89.4291C132.765 89.1298 133.221 88.9602 133.69 88.9366C133.963 88.9345 134.231 89.0204 134.467 89.1857C135.16 89.6668 135.558 90.8441 135.558 92.4119C135.559 92.6711 135.547 92.9301 135.52 93.1873L136.279 93.7137C136.33 93.2826 136.357 92.8475 136.358 92.4119C136.344 90.4931 135.815 89.0102 134.865 88.348Z" fill="#263238"/>
<path opacity="0.1" d="M121.448 88.6989C121.319 88.7552 121.208 88.8579 121.13 88.9931C121.052 89.1283 121.01 89.2894 121.01 89.4545C121.01 89.6196 121.052 89.7808 121.13 89.9159C121.208 90.0511 121.319 90.1539 121.448 90.2101C121.782 90.4168 122.151 90.5245 122.526 90.5245C122.901 90.5245 123.271 90.4168 123.605 90.2101C124.199 89.7913 124.199 89.1178 123.605 88.6989C123.271 88.4923 122.901 88.3845 122.526 88.3845C122.151 88.3845 121.782 88.4923 121.448 88.6989Z" fill="black"/>
<path d="M128.388 83.82C127.564 83.254 126.54 83.3332 125.487 84.0634C123.863 85.1954 122.454 87.7424 121.845 90.4026C122.101 90.4998 122.369 90.54 122.636 90.5215C123.203 88.1499 124.448 85.9142 125.889 84.9011C126.287 84.6036 126.741 84.4359 127.209 84.4143C127.481 84.4101 127.749 84.4942 127.986 84.6577C128.678 85.1388 129.081 86.3217 129.081 87.8839C129.08 88.143 129.067 88.4019 129.043 88.6593L129.797 89.1857C129.851 88.7549 129.877 88.3197 129.876 87.8839C129.862 85.9595 129.324 84.4766 128.388 83.82Z" fill="#263238"/>
<path d="M170.18 128.721L134.435 153.681" stroke="#EBEBEB" stroke-width="0.569223" stroke-miterlimit="10" stroke-linecap="round"/>
<path d="M165.851 125.698L130.11 150.659" stroke="#EBEBEB" stroke-width="0.569223" stroke-miterlimit="10" stroke-linecap="round"/>
<path d="M161.522 122.676L125.781 147.637" stroke="#EBEBEB" stroke-width="0.569223" stroke-miterlimit="10" stroke-linecap="round"/>
<path d="M157.193 119.653L121.452 144.614" stroke="#EBEBEB" stroke-width="0.569223" stroke-miterlimit="10" stroke-linecap="round"/>
<path d="M152.864 116.631L117.123 141.592" stroke="#EBEBEB" stroke-width="0.569223" stroke-miterlimit="10" stroke-linecap="round"/>
<path d="M148.535 113.609L112.794 138.569" stroke="#EBEBEB" stroke-width="0.569223" stroke-miterlimit="10" stroke-linecap="round"/>
<path d="M144.207 110.586L108.465 135.541" stroke="#EBEBEB" stroke-width="0.569223" stroke-miterlimit="10" stroke-linecap="round"/>
<path d="M139.877 107.564L104.136 132.519" stroke="#EBEBEB" stroke-width="0.569223" stroke-miterlimit="10" stroke-linecap="round"/>
<path d="M135.548 104.541L99.8071 129.496" stroke="#EBEBEB" stroke-width="0.569223" stroke-miterlimit="10" stroke-linecap="round"/>
<path d="M131.219 101.519L95.4783 126.474" stroke="#EBEBEB" stroke-width="0.569223" stroke-miterlimit="10" stroke-linecap="round"/>
<path d="M126.89 98.4964L91.1492 123.451" stroke="#EBEBEB" stroke-width="0.569223" stroke-miterlimit="10" stroke-linecap="round"/>
<path d="M122.561 95.4739L86.8203 120.429" stroke="#EBEBEB" stroke-width="0.569223" stroke-miterlimit="10" stroke-linecap="round"/>
<path d="M118.232 92.4515L82.4912 117.406" stroke="#EBEBEB" stroke-width="0.569223" stroke-miterlimit="10" stroke-linecap="round"/>
<path d="M116.065 90.9516L178.838 134.766" stroke="#002E74" stroke-width="0.569223" stroke-miterlimit="10" stroke-linecap="round"/>
<path d="M176.639 130.26L138.834 156.704" stroke="#002E74" stroke-width="0.569223" stroke-miterlimit="10" stroke-linecap="round"/>
<g opacity="0.25">
<path opacity="0.25" d="M157.727 124.73C157.399 124.125 156.791 123.881 156.267 123.598C156.056 123.485 155.799 123.327 155.56 123.168C155.232 122.529 154.797 121.47 155.373 121.351C155.719 121.272 156.388 121.714 156.777 121.85C156.987 121.923 156.941 121.55 156.777 121.482C156.14 121.182 154.905 120.225 154.662 121.533C154.607 121.944 154.659 122.365 154.811 122.738C154.516 122.585 154.196 122.513 153.875 122.529C153.576 122.563 153.318 122.574 153.215 122.999C153.155 123.231 153.239 123.332 153.253 123.508C153.264 123.6 153.299 123.686 153.353 123.753C153.407 123.82 153.476 123.865 153.552 123.881C153.52 123.881 153.421 123.881 153.215 123.881C152.747 123.881 151.531 123.497 151.245 124.176C151.128 124.453 151.4 124.844 151.357 124.951C151.315 125.059 150.464 125.359 150.309 125.472C150.239 125.523 150.286 125.817 150.248 125.846C149.815 125.877 149.381 125.877 148.947 125.846C148.231 125.913 146.457 125.591 146.691 126.927C146.715 127.068 146.813 127.051 146.837 127.283C146.841 127.393 146.858 127.502 146.888 127.606C146.865 127.606 146.813 127.606 146.72 127.787C146.626 127.968 146.411 127.86 146.322 127.991C145.985 128.506 146.504 128.687 146.078 129.009C145.484 129.462 144.244 128.545 143.635 129.049C143.097 129.502 143.799 130.798 142.844 130.821C142.634 130.821 142.756 131.2 142.915 131.217C143.809 131.313 143.71 131.109 143.883 130.226C144.16 128.794 145.929 129.785 146.925 129.451C146.949 129.438 146.971 129.419 146.988 129.396C147.005 129.372 147.017 129.343 147.024 129.313C147.031 129.282 147.032 129.251 147.027 129.22C147.022 129.189 147.011 129.159 146.996 129.134C146.734 128.625 147.038 128.347 147.431 128.126C147.455 128.114 147.476 128.095 147.493 128.071C147.51 128.047 147.522 128.019 147.529 127.989C147.537 127.959 147.538 127.927 147.534 127.896C147.53 127.865 147.52 127.836 147.506 127.81C147.398 127.577 147.038 126.864 147.253 126.525C147.599 126.435 147.952 126.385 148.306 126.378C149.075 126.312 149.847 126.295 150.618 126.327C150.644 126.326 150.669 126.318 150.692 126.303C150.715 126.287 150.735 126.266 150.749 126.24C150.764 126.214 150.773 126.184 150.776 126.153C150.78 126.122 150.777 126.09 150.768 126.061C150.655 125.761 151.657 125.568 151.877 125.495C151.897 125.486 151.916 125.472 151.932 125.455C151.948 125.437 151.961 125.416 151.97 125.392C151.979 125.368 151.984 125.343 151.985 125.317C151.986 125.29 151.983 125.264 151.975 125.24C151.507 123.802 153.258 124.334 153.988 124.47C154.018 124.48 154.05 124.48 154.08 124.469C154.11 124.458 154.137 124.438 154.158 124.41C154.179 124.381 154.193 124.347 154.198 124.309C154.204 124.272 154.2 124.234 154.189 124.198C154.077 123.717 153.192 123.231 154.24 123.066C154.519 123.059 154.795 123.139 155.041 123.299C155.493 124.219 156.12 124.995 156.87 125.563C157.558 125.998 158.26 125.704 157.727 124.73ZM157.404 124.991C157.624 125.342 156.936 125.053 156.852 124.991C156.459 124.706 156.136 124.299 155.916 123.814C156.126 123.955 156.318 124.08 156.459 124.159C156.832 124.323 157.16 124.611 157.404 124.991Z" fill="#455A64"/>
<path opacity="0.25" d="M139.849 133.837C139.723 133.209 139.704 132.524 140.186 132.451C140.416 132.417 140.252 132.038 140.079 132.026C139.433 132.026 139.232 132.683 139.316 133.498C139.058 133.354 138.788 133.244 138.511 133.17C138.09 133.073 137.818 133.062 137.683 133.577C137.598 133.888 137.804 134.086 137.785 134.369C137.762 134.777 138.104 134.607 137.594 134.771C137.395 134.769 137.198 134.742 137.004 134.692C136.489 134.692 136.447 134.692 136.133 135.02C135.82 135.349 136.601 135.501 135.665 135.32C135.429 135.223 135.18 135.18 134.931 135.196C134.589 135.292 134.407 135.411 134.463 135.869C134.491 136.079 134.86 136.35 134.856 136.481C134.856 137.477 133.962 136.633 133.63 136.481C133.608 136.469 133.584 136.463 133.56 136.465C133.535 136.467 133.512 136.476 133.491 136.491C133.471 136.506 133.453 136.526 133.441 136.551C133.428 136.576 133.421 136.604 133.419 136.633C133.419 137.126 133.69 137.301 133.096 137.341C133.026 137.341 132.628 137.075 132.488 137.069C132.109 137.069 131.762 137.669 131.266 137.635C131.131 137.635 131.084 137.771 131.126 137.901C131.262 138.348 131.463 138.62 130.714 139.033C130.714 139.033 129.834 138.903 129.853 138.903C129.638 138.903 129.778 139.322 129.942 139.339C130.283 139.367 131.439 139.956 131.781 139.401C132.029 138.988 131.533 138.513 131.659 138.269C131.575 138.439 132.319 138.026 132.399 137.992C132.583 137.893 132.779 137.828 132.979 137.799C133.082 137.799 133.166 138.003 133.279 137.998C133.391 137.992 133.573 138.082 133.705 137.998C133.836 137.913 133.868 137.703 133.92 137.664C134.051 137.556 133.751 137.432 134.009 137.324C134.196 137.245 134.36 137.477 134.533 137.539C134.814 137.647 135.235 137.896 135.469 137.539C135.782 137.069 135.211 136.741 135.263 136.407C135.385 135.7 136.199 136.237 136.601 135.92C136.629 135.897 136.649 135.863 136.659 135.824C136.67 135.785 136.669 135.744 136.658 135.705C136.419 134.726 137.888 135.49 138.347 135.388C138.431 135.388 138.52 135.303 138.506 135.185C138.492 135.066 138.324 134.579 138.324 134.573C138.441 134.007 139.11 134.047 139.414 134.149C139.714 135.337 140.495 136.537 141.347 136.22C141.379 136.208 141.406 136.184 141.426 136.151C141.445 136.119 141.455 136.079 141.455 136.039C141.403 135.201 140.645 134.392 139.849 133.837ZM140.158 134.817C140.13 134.754 140.088 134.652 140.046 134.534C140.284 134.719 140.488 134.962 140.645 135.247C140.809 135.841 140.238 134.981 140.158 134.817Z" fill="#455A64"/>
<path opacity="0.25" d="M152.841 140.216C152.509 139.611 151.905 139.367 151.381 139.084C151.166 138.965 150.913 138.807 150.674 138.648C150.342 138.009 149.907 136.95 150.487 136.837C150.833 136.758 151.502 137.194 151.891 137.33C152.102 137.409 152.05 137.035 151.891 136.967C151.254 136.662 150.019 135.711 149.776 137.018C149.719 137.429 149.77 137.85 149.921 138.224C149.626 138.07 149.306 137.998 148.985 138.014C148.68 138.048 148.428 138.06 148.32 138.484C148.264 138.716 148.348 138.818 148.358 138.994C148.369 139.087 148.405 139.173 148.46 139.24C148.514 139.307 148.585 139.352 148.662 139.367C148.624 139.367 148.531 139.367 148.32 139.333C147.852 139.333 146.64 138.954 146.354 139.633C146.233 139.911 146.504 140.301 146.467 140.403C146.429 140.505 145.568 140.811 145.414 140.924C145.348 140.98 145.414 141.275 145.353 141.297C144.92 141.335 144.485 141.335 144.052 141.297C143.336 141.371 141.567 141.048 141.796 142.378C141.824 142.526 141.918 142.503 141.941 142.741C141.946 142.851 141.965 142.96 141.997 143.063C141.969 143.063 141.918 143.063 141.824 143.244C141.731 143.425 141.52 143.312 141.431 143.448C141.089 143.963 141.609 144.144 141.188 144.461C140.589 144.914 139.349 144.003 138.745 144.507C138.141 145.01 138.904 146.25 137.954 146.272C137.743 146.272 137.865 146.657 138.024 146.674C138.913 146.765 138.82 146.561 138.988 145.684C139.269 144.246 141.038 145.237 142.03 144.903C142.147 144.869 142.157 144.693 142.105 144.591C141.843 144.082 142.147 143.799 142.54 143.578C142.564 143.566 142.585 143.548 142.602 143.525C142.619 143.501 142.632 143.474 142.639 143.443C142.645 143.413 142.646 143.382 142.642 143.351C142.637 143.321 142.626 143.292 142.61 143.267C142.508 143.035 142.142 142.316 142.358 141.982C142.706 141.892 143.06 141.843 143.415 141.835C144.185 141.767 144.957 141.75 145.727 141.784C145.753 141.783 145.779 141.775 145.802 141.76C145.824 141.745 145.844 141.724 145.859 141.698C145.873 141.672 145.883 141.642 145.886 141.61C145.889 141.579 145.886 141.548 145.877 141.518C145.765 141.218 146.762 141.026 146.986 140.952C147.007 140.943 147.025 140.93 147.041 140.912C147.057 140.894 147.069 140.873 147.078 140.849C147.087 140.825 147.092 140.799 147.092 140.773C147.092 140.747 147.088 140.721 147.08 140.697C146.612 139.265 148.362 139.792 149.092 139.933C149.123 139.942 149.154 139.942 149.184 139.931C149.214 139.92 149.241 139.9 149.262 139.872C149.283 139.844 149.298 139.81 149.304 139.773C149.311 139.736 149.308 139.697 149.298 139.662C149.181 139.175 148.301 138.694 149.345 138.53C149.625 138.528 149.901 138.607 150.15 138.762C150.603 139.679 151.228 140.455 151.975 141.026C152.668 141.484 153.374 141.195 152.841 140.216ZM152.518 140.477C152.733 140.833 152.05 140.545 151.961 140.477C151.569 140.188 151.247 139.78 151.025 139.294C151.24 139.435 151.432 139.565 151.573 139.639C151.944 139.81 152.271 140.1 152.518 140.477Z" fill="#455A64"/>
<path opacity="0.25" d="M163.825 129.236C163.694 128.608 163.68 127.923 164.157 127.849C164.391 127.815 164.227 127.436 164.054 127.425C163.408 127.425 163.202 128.081 163.287 128.902C163.032 128.753 162.763 128.641 162.486 128.568C162.065 128.472 161.794 128.46 161.653 128.975C161.574 129.287 161.78 129.485 161.761 129.768C161.738 130.175 162.075 130.006 161.569 130.17C161.371 130.167 161.173 130.141 160.979 130.09C160.465 130.09 160.418 130.09 160.109 130.419C159.8 130.747 160.577 130.9 159.641 130.719C159.406 130.621 159.159 130.579 158.911 130.594C158.569 130.69 158.387 130.809 158.443 131.268C158.471 131.477 158.836 131.749 158.836 131.879C158.836 132.875 157.942 132.032 157.605 131.879C157.583 131.868 157.559 131.864 157.536 131.866C157.512 131.869 157.489 131.878 157.469 131.892C157.448 131.907 157.431 131.927 157.418 131.952C157.405 131.976 157.397 132.003 157.395 132.032C157.395 132.524 157.666 132.7 157.076 132.739C157.006 132.739 156.608 132.473 156.468 132.468C156.089 132.468 155.738 133.068 155.242 133.034C155.106 133.034 155.064 133.17 155.101 133.3C155.242 133.747 155.443 134.019 154.694 134.432C154.694 134.432 153.814 134.302 153.833 134.302C153.618 134.302 153.754 134.72 153.922 134.737C154.264 134.766 155.415 135.354 155.757 134.8C156.009 134.386 155.513 133.911 155.64 133.668C155.555 133.837 156.295 133.424 156.379 133.39C156.562 133.292 156.756 133.228 156.955 133.198C157.058 133.198 157.147 133.402 157.254 133.396C157.362 133.39 157.554 133.481 157.685 133.396C157.816 133.311 157.849 133.102 157.9 133.062C158.031 132.954 157.732 132.83 157.989 132.722C158.176 132.643 158.335 132.875 158.513 132.937C158.794 133.045 159.215 133.294 159.449 132.937C159.758 132.468 159.187 132.139 159.243 131.805C159.36 131.098 160.179 131.636 160.582 131.319C160.608 131.294 160.627 131.26 160.636 131.221C160.645 131.183 160.644 131.142 160.633 131.104C160.399 130.124 161.864 130.889 162.327 130.787C162.412 130.787 162.496 130.702 162.486 130.583C162.477 130.464 162.304 129.977 162.304 129.972C162.421 129.406 163.085 129.445 163.394 129.547C163.694 130.736 164.471 131.936 165.322 131.619C165.355 131.608 165.384 131.585 165.403 131.551C165.423 131.518 165.432 131.478 165.43 131.438C165.36 130.6 164.62 129.791 163.825 129.236ZM164.134 130.215C164.091 130.124 164.053 130.029 164.021 129.932C164.259 130.118 164.463 130.36 164.62 130.645C164.784 131.239 164.213 130.379 164.134 130.232V130.215Z" fill="#455A64"/>
<path opacity="0.25" d="M131.327 107.077C130.995 106.471 130.391 106.234 129.867 105.945C129.652 105.826 129.399 105.668 129.16 105.509C128.828 104.87 128.393 103.811 128.973 103.698C129.315 103.619 129.989 104.06 130.377 104.19C130.583 104.27 130.536 103.896 130.377 103.828C129.741 103.522 128.505 102.572 128.262 103.879C128.202 104.289 128.253 104.712 128.407 105.085C128.112 104.93 127.792 104.859 127.471 104.875C127.167 104.909 126.914 104.92 126.806 105.345C126.75 105.577 126.806 105.679 126.844 105.854C126.855 105.947 126.891 106.034 126.946 106.101C127 106.168 127.071 106.212 127.148 106.228C127.034 106.22 126.92 106.22 126.806 106.228C126.338 106.228 125.126 105.843 124.836 106.522C124.719 106.8 124.99 107.19 124.953 107.292C124.915 107.394 124.054 107.7 123.9 107.818C123.83 107.869 123.9 108.164 123.839 108.186C123.406 108.224 122.971 108.224 122.538 108.186C121.822 108.26 120.053 107.937 120.282 109.273C120.31 109.415 120.404 109.392 120.427 109.63C120.432 109.74 120.451 109.849 120.483 109.952C120.455 109.952 120.404 109.952 120.31 110.133C120.217 110.314 120.006 110.201 119.917 110.337C119.576 110.852 120.095 111.033 119.674 111.35C119.075 111.803 117.835 110.892 117.226 111.396C116.618 111.899 117.39 113.139 116.44 113.161C116.229 113.161 116.351 113.546 116.51 113.563C117.399 113.654 117.301 113.45 117.474 112.573C117.755 111.141 119.524 112.126 120.516 111.797C120.541 111.786 120.563 111.767 120.58 111.743C120.598 111.72 120.611 111.691 120.618 111.66C120.624 111.63 120.625 111.597 120.62 111.566C120.614 111.535 120.603 111.505 120.586 111.48C120.329 110.971 120.633 110.688 121.026 110.467C121.05 110.455 121.071 110.437 121.088 110.414C121.106 110.39 121.118 110.363 121.125 110.332C121.132 110.302 121.132 110.271 121.128 110.24C121.123 110.21 121.112 110.181 121.097 110.156C120.994 109.924 120.629 109.205 120.844 108.871C121.192 108.781 121.546 108.732 121.902 108.724C122.671 108.656 123.443 108.639 124.213 108.673C124.239 108.673 124.265 108.665 124.288 108.65C124.311 108.634 124.33 108.613 124.344 108.587C124.359 108.56 124.367 108.53 124.37 108.499C124.372 108.468 124.368 108.436 124.359 108.407C124.251 108.107 125.248 107.915 125.472 107.841C125.513 107.822 125.545 107.785 125.562 107.737C125.58 107.689 125.581 107.635 125.566 107.586C125.098 106.149 126.848 106.675 127.578 106.817C127.609 106.826 127.64 106.825 127.67 106.814C127.7 106.803 127.727 106.783 127.748 106.755C127.769 106.727 127.784 106.693 127.79 106.656C127.797 106.619 127.795 106.581 127.784 106.545C127.667 106.058 126.783 105.577 127.831 105.413C128.111 105.411 128.387 105.49 128.636 105.645C129.089 106.563 129.714 107.338 130.461 107.909C131.154 108.345 131.861 108.056 131.327 107.077ZM131.004 107.337C131.219 107.694 130.536 107.405 130.447 107.337C130.055 107.048 129.733 106.641 129.511 106.154C129.726 106.296 129.918 106.426 130.059 106.505C130.431 106.672 130.758 106.96 131.004 107.337Z" fill="#455A64"/>
<path opacity="0.25" d="M113.449 116.184C113.318 115.561 113.304 114.876 113.782 114.803C114.011 114.763 113.847 114.384 113.679 114.378C113.028 114.378 112.827 115.035 112.911 115.85C112.656 115.704 112.387 115.593 112.111 115.522C111.69 115.425 111.418 115.408 111.278 115.929C111.194 116.235 111.4 116.439 111.386 116.716C111.386 117.129 111.699 116.959 111.189 117.118C110.991 117.117 110.793 117.092 110.599 117.044C110.443 116.999 110.28 117.006 110.127 117.064C109.974 117.122 109.836 117.228 109.729 117.372C109.411 117.695 110.197 117.854 109.261 117.672C109.027 117.573 108.779 117.53 108.531 117.548C108.184 117.644 108.007 117.763 108.063 118.221C108.063 118.425 108.456 118.703 108.451 118.833C108.451 119.829 107.562 118.986 107.225 118.833C107.203 118.823 107.179 118.82 107.155 118.823C107.131 118.826 107.109 118.836 107.088 118.851C107.068 118.866 107.051 118.887 107.038 118.911C107.025 118.935 107.017 118.963 107.014 118.991C107.014 119.484 107.286 119.653 106.696 119.699C106.621 119.699 106.228 119.427 106.088 119.427C105.704 119.427 105.358 120.027 104.862 119.993C104.726 119.993 104.679 120.123 104.721 120.259C104.857 120.706 105.058 120.978 104.314 121.391C104.314 121.391 103.434 121.255 103.453 121.255C103.238 121.255 103.373 121.68 103.542 121.691C103.879 121.725 105.035 122.314 105.376 121.753C105.629 121.346 105.133 120.87 105.255 120.621C105.175 120.797 105.915 120.378 105.994 120.344C106.179 120.248 106.375 120.183 106.575 120.152C106.677 120.152 106.766 120.355 106.874 120.355C106.982 120.355 107.174 120.44 107.305 120.355C107.436 120.27 107.464 120.067 107.515 120.021C107.651 119.919 107.347 119.789 107.604 119.687C107.862 119.586 107.955 119.835 108.133 119.902C108.409 120.01 108.835 120.259 109.069 119.902C109.378 119.433 108.807 119.104 108.858 118.77C108.98 118.063 109.818 118.601 110.197 118.284C110.224 118.26 110.245 118.226 110.255 118.188C110.265 118.149 110.264 118.107 110.253 118.069C110.019 117.089 111.484 117.854 111.947 117.752C112.027 117.752 112.116 117.667 112.106 117.548C112.097 117.429 111.919 116.942 111.924 116.931C112.036 116.365 112.705 116.41 113.014 116.512C113.309 117.701 114.091 118.901 114.942 118.578C114.974 118.568 115.002 118.545 115.022 118.513C115.041 118.481 115.051 118.442 115.05 118.403C115.003 117.554 114.24 116.739 113.449 116.184ZM113.754 117.163C113.714 117.073 113.678 116.981 113.646 116.886C113.884 117.069 114.087 117.312 114.24 117.599C114.409 118.193 113.838 117.333 113.754 117.163Z" fill="#455A64"/>
<path opacity="0.25" d="M126.436 122.568C126.109 121.963 125.5 121.719 124.976 121.436C124.766 121.317 124.508 121.159 124.27 121.001C123.942 120.361 123.502 119.303 124.082 119.189C124.429 119.11 125.098 119.546 125.486 119.682C125.697 119.755 125.65 119.387 125.486 119.314C124.85 119.014 123.614 118.057 123.371 119.37C123.314 119.781 123.367 120.203 123.521 120.576C123.226 120.42 122.906 120.349 122.585 120.367C122.285 120.401 122.028 120.406 121.925 120.831C121.864 121.068 121.925 121.17 121.962 121.346C121.974 121.438 122.01 121.523 122.063 121.59C122.117 121.657 122.186 121.702 122.262 121.719C122.15 121.698 122.038 121.687 121.925 121.685C121.457 121.685 120.24 121.306 119.955 121.98C119.838 122.263 120.104 122.648 120.067 122.755C120.029 122.863 119.168 123.163 119.019 123.276C118.948 123.327 118.995 123.621 118.958 123.649C118.525 123.684 118.09 123.684 117.657 123.649C116.941 123.723 115.167 123.4 115.401 124.73C115.401 124.878 115.523 124.855 115.541 125.087C115.549 125.199 115.568 125.309 115.597 125.415C115.569 125.415 115.523 125.415 115.429 125.591C115.335 125.766 115.12 125.664 115.031 125.8C114.694 126.315 115.214 126.491 114.788 126.813C114.193 127.266 112.953 126.349 112.345 126.859C111.736 127.368 112.509 128.602 111.554 128.625C111.343 128.625 111.465 129.004 111.624 129.021C112.518 129.117 112.42 128.913 112.588 128.036C112.869 126.598 114.638 127.589 115.635 127.255C115.659 127.243 115.68 127.225 115.697 127.201C115.714 127.178 115.727 127.15 115.733 127.12C115.74 127.09 115.741 127.058 115.736 127.028C115.731 126.997 115.721 126.968 115.705 126.944C115.443 126.434 115.747 126.151 116.14 125.93C116.164 125.918 116.185 125.9 116.202 125.877C116.219 125.853 116.232 125.826 116.239 125.796C116.246 125.766 116.248 125.735 116.244 125.704C116.239 125.674 116.23 125.645 116.215 125.619C116.108 125.381 115.747 124.668 115.963 124.334C116.309 124.245 116.661 124.194 117.016 124.181C117.785 124.115 118.557 124.1 119.327 124.136C119.353 124.135 119.379 124.127 119.402 124.112C119.425 124.097 119.444 124.076 119.459 124.05C119.473 124.024 119.483 123.994 119.486 123.963C119.489 123.931 119.486 123.9 119.477 123.87C119.365 123.57 120.366 123.378 120.586 123.304C120.607 123.295 120.625 123.282 120.641 123.264C120.657 123.246 120.67 123.225 120.679 123.202C120.688 123.178 120.694 123.152 120.695 123.126C120.695 123.1 120.692 123.074 120.685 123.049C120.217 121.617 121.962 122.144 122.697 122.285C122.727 122.293 122.758 122.292 122.787 122.28C122.817 122.269 122.843 122.248 122.863 122.221C122.884 122.193 122.898 122.159 122.904 122.123C122.91 122.086 122.908 122.049 122.898 122.014C122.786 121.527 121.901 121.04 122.95 120.882C123.228 120.88 123.503 120.96 123.75 121.114C124.204 122.032 124.831 122.808 125.58 123.378C126.268 123.836 126.984 123.548 126.436 122.568ZM126.113 122.829C126.333 123.18 125.645 122.897 125.561 122.829C125.167 122.543 124.844 122.135 124.625 121.646C124.836 121.787 125.028 121.912 125.168 121.991C125.541 122.159 125.869 122.449 126.113 122.829Z" fill="#455A64"/>
<path opacity="0.25" d="M137.425 111.582C137.294 110.96 137.275 110.275 137.757 110.201C137.987 110.162 137.823 109.782 137.65 109.777C137.004 109.777 136.803 110.433 136.887 111.248C136.629 111.104 136.359 110.994 136.082 110.92C135.665 110.824 135.389 110.807 135.254 111.328C135.169 111.633 135.375 111.837 135.361 112.114C135.338 112.528 135.675 112.358 135.165 112.516C134.966 112.518 134.769 112.494 134.575 112.443C134.419 112.398 134.256 112.405 134.102 112.462C133.949 112.52 133.812 112.627 133.704 112.771C133.386 113.094 134.172 113.252 133.236 113.071C133.001 112.97 132.751 112.928 132.502 112.946C132.16 113.043 131.978 113.161 132.034 113.62C132.057 113.824 132.427 114.101 132.422 114.231C132.422 115.227 131.533 114.384 131.196 114.231C131.173 114.222 131.15 114.218 131.126 114.222C131.102 114.225 131.079 114.234 131.059 114.249C131.039 114.265 131.022 114.285 131.009 114.309C130.996 114.334 130.988 114.361 130.985 114.39C130.985 114.882 131.257 115.052 130.662 115.097C130.592 115.097 130.194 114.825 130.054 114.825C129.675 114.825 129.329 115.425 128.833 115.391C128.697 115.391 128.65 115.522 128.692 115.658C128.828 116.105 129.029 116.376 128.28 116.79C128.28 116.79 127.4 116.654 127.419 116.654C127.209 116.654 127.344 117.078 127.508 117.089C127.85 117.123 129.006 117.712 129.347 117.157C129.6 116.744 129.104 116.269 129.226 116.025C129.146 116.201 129.886 115.782 129.965 115.748C130.15 115.651 130.345 115.588 130.545 115.561C130.648 115.561 130.733 115.759 130.845 115.759C130.957 115.759 131.14 115.844 131.271 115.759C131.402 115.674 131.435 115.471 131.486 115.425C131.617 115.324 131.318 115.193 131.575 115.092C131.762 115.012 131.926 115.239 132.099 115.307C132.38 115.414 132.801 115.663 133.035 115.307C133.349 114.837 132.778 114.509 132.829 114.175C132.951 113.467 133.765 114.005 134.168 113.688C134.195 113.664 134.216 113.631 134.226 113.592C134.236 113.553 134.235 113.511 134.224 113.473C133.985 112.494 135.455 113.258 135.918 113.156C135.998 113.156 136.087 113.071 136.073 112.952C136.058 112.833 135.89 112.346 135.89 112.335C136.007 111.769 136.676 111.814 136.98 111.916C137.28 113.105 138.062 114.305 138.913 113.982C138.945 113.971 138.972 113.948 138.991 113.916C139.011 113.885 139.021 113.846 139.021 113.807C138.974 112.952 138.216 112.12 137.425 111.582ZM137.729 112.561C137.687 112.472 137.65 112.379 137.617 112.284C137.856 112.468 138.06 112.711 138.216 112.997C138.38 113.592 137.809 112.731 137.748 112.561H137.729Z" fill="#455A64"/>
<path opacity="0.25" d="M129.151 133.226C128.823 132.621 128.215 132.377 127.691 132.094C127.475 131.975 127.223 131.817 126.984 131.658C126.656 131.019 126.216 129.96 126.797 129.847C127.143 129.768 127.812 130.204 128.201 130.34C128.411 130.413 128.365 130.045 128.201 129.977C127.564 129.672 126.329 128.715 126.085 130.028C126.029 130.439 126.08 130.86 126.23 131.234C125.936 131.077 125.616 131.005 125.294 131.024C124.995 131.058 124.738 131.064 124.635 131.494C124.574 131.726 124.658 131.828 124.672 132.004C124.684 132.096 124.719 132.181 124.773 132.248C124.827 132.314 124.896 132.36 124.972 132.377C124.86 132.359 124.747 132.348 124.635 132.343C124.167 132.343 122.95 131.964 122.664 132.643C122.547 132.921 122.814 133.311 122.777 133.413C122.739 133.515 121.878 133.82 121.728 133.934C121.658 133.985 121.705 134.279 121.667 134.307C121.234 134.345 120.8 134.345 120.366 134.307C119.65 134.381 117.877 134.058 118.111 135.388C118.134 135.535 118.232 135.513 118.251 135.751C118.259 135.86 118.278 135.969 118.307 136.073C118.279 136.073 118.232 136.073 118.139 136.254C118.045 136.435 117.83 136.322 117.741 136.458C117.404 136.973 117.923 137.154 117.498 137.471C116.903 137.924 115.663 137.007 115.055 137.516C114.516 137.964 115.218 139.26 114.264 139.282C114.053 139.282 114.175 139.662 114.334 139.679C115.228 139.775 115.129 139.571 115.298 138.694C115.579 137.256 117.348 138.247 118.345 137.913C118.457 137.879 118.466 137.703 118.415 137.601C118.153 137.092 118.457 136.809 118.85 136.588C118.874 136.576 118.895 136.558 118.912 136.534C118.929 136.511 118.941 136.484 118.949 136.454C118.956 136.424 118.957 136.393 118.953 136.362C118.949 136.332 118.939 136.302 118.925 136.277C118.817 136.045 118.457 135.326 118.672 134.992C119.019 134.903 119.371 134.851 119.725 134.839C120.495 134.773 121.266 134.758 122.037 134.794C122.063 134.793 122.089 134.785 122.111 134.77C122.134 134.755 122.154 134.733 122.168 134.707C122.183 134.681 122.192 134.652 122.196 134.62C122.199 134.589 122.196 134.557 122.187 134.528C122.075 134.228 123.076 134.036 123.296 133.962C123.317 133.954 123.336 133.941 123.352 133.923C123.369 133.906 123.382 133.884 123.391 133.86C123.4 133.836 123.405 133.811 123.406 133.784C123.406 133.758 123.402 133.732 123.394 133.707C122.926 132.275 124.672 132.802 125.407 132.943C125.437 132.951 125.468 132.949 125.497 132.938C125.526 132.927 125.552 132.906 125.573 132.878C125.593 132.851 125.607 132.817 125.614 132.781C125.62 132.744 125.618 132.707 125.608 132.671C125.496 132.185 124.611 131.698 125.659 131.539C125.938 131.538 126.212 131.618 126.46 131.772C126.914 132.69 127.541 133.466 128.29 134.036C128.982 134.494 129.684 134.194 129.151 133.226ZM128.828 133.487C129.048 133.843 128.36 133.554 128.276 133.487C127.881 133.201 127.558 132.792 127.34 132.304C127.55 132.445 127.742 132.575 127.882 132.649C128.256 132.816 128.583 133.106 128.828 133.487Z" fill="#455A64"/>
<path opacity="0.25" d="M137.856 123.219C137.725 122.591 137.711 121.906 138.188 121.833C138.417 121.799 138.254 121.419 138.08 121.408C137.435 121.408 137.233 122.065 137.318 122.88C137.06 122.736 136.79 122.626 136.513 122.551C136.096 122.455 135.825 122.444 135.684 122.959C135.6 123.27 135.806 123.468 135.792 123.751C135.792 124.159 136.105 123.989 135.595 124.153C135.397 124.15 135.2 124.124 135.006 124.074C134.849 124.03 134.687 124.038 134.534 124.095C134.381 124.153 134.243 124.259 134.135 124.402C133.817 124.73 134.603 124.883 133.667 124.702C133.431 124.604 133.182 124.562 132.932 124.578C132.591 124.674 132.408 124.793 132.464 125.251C132.488 125.461 132.857 125.732 132.853 125.862C132.853 126.859 131.964 126.015 131.627 125.862C131.605 125.852 131.581 125.848 131.557 125.85C131.533 125.852 131.51 125.861 131.49 125.876C131.47 125.891 131.452 125.911 131.44 125.935C131.427 125.959 131.419 125.987 131.416 126.015C131.416 126.508 131.687 126.683 131.093 126.723C131.023 126.723 130.625 126.457 130.489 126.451C130.106 126.451 129.759 127.051 129.263 127.017C129.128 127.017 129.081 127.153 129.123 127.283C129.259 127.73 129.46 128.002 128.711 128.415C128.711 128.415 127.831 128.285 127.855 128.285C127.639 128.285 127.775 128.704 127.939 128.721C128.28 128.749 129.436 129.338 129.778 128.783C130.031 128.37 129.535 127.894 129.656 127.651C129.577 127.821 130.316 127.408 130.396 127.374C130.58 127.275 130.776 127.21 130.976 127.181C131.079 127.181 131.163 127.385 131.276 127.379C131.388 127.374 131.575 127.464 131.706 127.379C131.837 127.294 131.865 127.085 131.917 127.045C132.048 126.938 131.748 126.813 132.006 126.706C132.193 126.627 132.357 126.859 132.53 126.921C132.811 127.028 133.232 127.277 133.466 126.921C133.775 126.451 133.204 126.123 133.255 125.789C133.377 125.081 134.191 125.619 134.594 125.302C134.621 125.279 134.642 125.245 134.652 125.206C134.662 125.167 134.661 125.125 134.65 125.087C134.411 124.108 135.881 124.872 136.344 124.77C136.424 124.77 136.513 124.685 136.499 124.566C136.484 124.447 136.316 123.961 136.316 123.955C136.433 123.389 137.102 123.429 137.411 123.531C137.706 124.719 138.488 125.919 139.339 125.602C139.371 125.59 139.399 125.566 139.418 125.533C139.437 125.5 139.447 125.461 139.447 125.421C139.405 124.572 138.647 123.774 137.856 123.219ZM138.16 124.198C138.132 124.136 138.09 124.034 138.048 123.915C138.287 124.099 138.491 124.342 138.647 124.629C138.81 125.223 138.239 124.363 138.16 124.198Z" fill="#455A64"/>
<path opacity="0.25" d="M147.819 115.108C147.833 115.03 147.833 114.949 147.819 114.871C147.679 114.259 147.099 114.718 147 115.092C146.902 115.465 147.122 115.601 147.103 115.878C147.103 116.286 147.422 116.122 146.911 116.28C146.714 116.277 146.516 116.252 146.322 116.207C145.807 116.178 145.76 116.207 145.451 116.535C145.142 116.863 145.919 117.01 144.983 116.829C144.747 116.734 144.498 116.693 144.249 116.71C143.907 116.801 143.724 116.92 143.781 117.384C143.809 117.588 144.178 117.865 144.174 117.995C144.174 118.986 143.28 118.148 142.948 117.995C142.925 117.985 142.9 117.98 142.876 117.983C142.852 117.986 142.828 117.995 142.808 118.01C142.787 118.026 142.769 118.046 142.756 118.071C142.743 118.096 142.735 118.124 142.732 118.154C142.732 118.64 143.004 118.816 142.414 118.861C142.344 118.861 141.946 118.589 141.806 118.589C141.427 118.589 141.08 119.184 140.584 119.155C140.448 119.155 140.402 119.286 140.439 119.421C140.579 119.869 140.781 120.14 140.032 120.525C140.032 120.525 139.152 120.395 139.171 120.395C138.955 120.395 139.096 120.819 139.26 120.831C139.601 120.865 140.757 121.453 141.099 120.893C141.347 120.485 140.851 120.01 140.977 119.761C140.893 119.936 141.637 119.518 141.717 119.484C141.901 119.388 142.094 119.324 142.292 119.291C142.4 119.291 142.484 119.495 142.592 119.495C142.699 119.495 142.891 119.58 143.022 119.495C143.153 119.41 143.186 119.206 143.238 119.161C143.369 119.059 143.069 118.929 143.327 118.821C143.584 118.714 143.678 118.974 143.851 119.042C144.132 119.15 144.553 119.399 144.787 119.042C145.1 118.572 144.525 118.244 144.581 117.91C144.703 117.203 145.517 117.74 145.919 117.423C145.946 117.399 145.965 117.365 145.975 117.326C145.984 117.287 145.983 117.246 145.971 117.208C145.737 116.229 147.206 116.993 147.665 116.891C147.749 116.891 147.838 116.806 147.824 116.688C147.727 116.278 147.705 115.847 147.759 115.425C147.785 115.322 147.805 115.216 147.819 115.108Z" fill="#455A64"/>
</g>
<path d="M100.525 44.8153H56.5919C52.2202 44.8153 48.6763 47.9911 48.6763 51.9085V151.409C48.6763 155.327 52.2202 158.502 56.5919 158.502H100.525C104.897 158.502 108.441 155.327 108.441 151.409V51.9085C108.441 47.9911 104.897 44.8153 100.525 44.8153Z" fill="#263238" stroke="#263238" stroke-miterlimit="10"/>
<path d="M106.359 52.7255V150.592C106.359 152.221 105.637 153.783 104.351 154.935C103.066 156.086 101.323 156.733 99.5056 156.733H57.6176C57.3085 156.733 56.9997 156.714 56.6936 156.675C55.0548 156.474 53.5526 155.749 52.464 154.633C51.3754 153.517 50.774 152.086 50.7708 150.603V52.7255C50.7716 51.0965 51.4943 49.5346 52.7799 48.383C54.0656 47.2314 55.809 46.5845 57.6268 46.5845H58.828C62.5949 46.5845 66.371 46.648 70.1347 46.5845C70.1347 46.6066 70.1101 46.648 70.1193 46.6811C71.148 46.5376 72.7496 46.935 73.5073 47.6002C74.69 48.66 76.073 50.109 77.8778 50.2774C79.7659 50.4512 81.2658 49.0823 82.4978 47.9948C83.8777 46.7722 85.7195 46.5872 87.586 46.5872H99.5241C101.338 46.5916 103.076 47.2402 104.357 48.3908C105.638 49.5414 106.358 51.1001 106.359 52.7255Z" fill="#002E74"/>
<path opacity="0.3" d="M106.358 52.7255V65.2034C100.368 71.6701 85.781 79.997 69.1952 87.772C60.217 91.9837 54.4327 95.9526 50.7583 99.1045V68.9488C51.2757 68.2919 51.8363 67.6212 52.44 66.9367C59.6965 58.7312 77.2956 53.4679 89.708 46.5845H99.4993C100.4 46.5837 101.292 46.7421 102.124 47.0503C102.956 47.3586 103.712 47.8109 104.349 48.3812C104.986 48.9515 105.491 49.6287 105.836 50.3741C106.181 51.1196 106.358 51.9186 106.358 52.7255Z" fill="white"/>
<path opacity="0.3" d="M106.358 89.0719V127.199C100.368 133.665 85.781 141.992 69.1952 149.767C64.8333 151.777 60.6497 154.084 56.6811 156.667C55.0424 156.466 53.5401 155.74 52.4516 154.624C51.363 153.508 50.7616 152.077 50.7583 150.595V130.944C51.2757 130.287 51.8363 129.616 52.44 128.932C62.604 117.431 93.096 111.707 101.163 99.2039C103.328 95.856 105.114 92.0389 106.358 89.0719Z" fill="white"/>
<path d="M78.2042 49.0023C78.871 49.0023 79.4115 48.5179 79.4115 47.9203C79.4115 47.3228 78.871 46.8384 78.2042 46.8384C77.5374 46.8384 76.9968 47.3228 76.9968 47.9203C76.9968 48.5179 77.5374 49.0023 78.2042 49.0023Z" fill="#7D7D7D" stroke="white" stroke-miterlimit="10"/>
<path d="M108.416 77.5213V63.3708C108.703 63.3708 108.978 63.4729 109.18 63.6545C109.383 63.8362 109.497 64.0826 109.497 64.3396V76.5498C109.497 76.807 109.383 77.0537 109.181 77.2358C108.978 77.4179 108.703 77.5206 108.416 77.5213Z" fill="#263238" stroke="#263238" stroke-miterlimit="10"/>
<path d="M108.416 89.715V82.6549C108.703 82.6549 108.978 82.757 109.18 82.9387C109.383 83.1203 109.497 83.3668 109.497 83.6237V88.7462C109.497 88.8735 109.469 88.9994 109.415 89.117C109.36 89.2345 109.281 89.3413 109.18 89.4313C109.08 89.5212 108.961 89.5926 108.83 89.6413C108.699 89.69 108.558 89.715 108.416 89.715Z" fill="#263238" stroke="#263238" stroke-miterlimit="10"/>
<path d="M99.6442 106.78H58.5354C56.6013 106.78 55.0334 108.185 55.0334 109.918C55.0334 111.651 56.6013 113.056 58.5354 113.056H99.6442C101.578 113.056 103.146 111.651 103.146 109.918C103.146 108.185 101.578 106.78 99.6442 106.78Z" fill="white" stroke="#263238" stroke-miterlimit="10"/>
<path d="M60.1342 127.353C62.2738 126.917 63.6136 125.009 63.1267 123.091C62.6399 121.174 60.5106 119.973 58.371 120.41C56.2313 120.846 54.8915 122.754 55.3784 124.671C55.8653 126.589 57.9946 127.789 60.1342 127.353Z" fill="white" stroke="#263238" stroke-miterlimit="10"/>
<path d="M75.0122 126.404C76.5638 125.014 76.5638 122.76 75.0122 121.369C73.4605 119.979 70.9449 119.979 69.3932 121.369C67.8416 122.76 67.8416 125.014 69.3932 126.404C70.9449 127.795 73.4605 127.795 75.0122 126.404Z" fill="white" stroke="#263238" stroke-miterlimit="10"/>
<path d="M86.0815 127.347C88.2164 126.892 89.5361 124.973 89.0291 123.06C88.522 121.147 86.3803 119.964 84.2453 120.419C82.1104 120.873 80.7907 122.792 81.2977 124.705C81.8048 126.619 83.9465 127.801 86.0815 127.347Z" fill="white" stroke="#263238" stroke-miterlimit="10"/>
<path d="M101.79 125.23C102.623 123.411 101.652 121.331 99.6223 120.585C97.5922 119.839 95.2712 120.708 94.4382 122.527C93.6052 124.346 94.5756 126.426 96.6057 127.173C98.6358 127.919 100.957 127.05 101.79 125.23Z" fill="white" stroke="#263238" stroke-miterlimit="10"/>
<path d="M60.1364 143.047C62.276 142.611 63.6158 140.703 63.1289 138.785C62.642 136.868 60.5128 135.667 58.3732 136.104C56.2335 136.54 54.8937 138.448 55.3806 140.365C55.8675 142.283 57.9968 143.483 60.1364 143.047Z" fill="white" stroke="#263238" stroke-miterlimit="10"/>
<path d="M75.0141 142.097C76.5658 140.706 76.5658 138.452 75.0141 137.061C73.4625 135.671 70.9468 135.671 69.3952 137.061C67.8435 138.452 67.8435 140.706 69.3952 142.097C70.9468 143.487 73.4625 143.487 75.0141 142.097Z" fill="white" stroke="#263238" stroke-miterlimit="10"/>
<path d="M86.0842 143.04C88.2191 142.586 89.5388 140.667 89.0318 138.754C88.5247 136.841 86.383 135.658 84.248 136.112C82.113 136.567 80.7934 138.486 81.3004 140.399C81.8075 142.312 83.9492 143.495 86.0842 143.04Z" fill="white" stroke="#263238" stroke-miterlimit="10"/>
<path d="M101.791 140.922C102.624 139.103 101.653 137.023 99.6233 136.277C97.5932 135.531 95.2722 136.4 94.4392 138.219C93.6062 140.038 94.5766 142.118 96.6067 142.865C98.6368 143.611 100.958 142.742 101.791 140.922Z" fill="white" stroke="#263238" stroke-miterlimit="10"/>
<path d="M79.0912 90.4298C87.4399 90.4298 94.2079 84.365 94.2079 76.8838C94.2079 69.4025 87.4399 63.3377 79.0912 63.3377C70.7426 63.3377 63.9746 69.4025 63.9746 76.8838C63.9746 84.365 70.7426 90.4298 79.0912 90.4298Z" stroke="white" stroke-miterlimit="10"/>
<path d="M72.614 79.423V74.5516C72.5653 74.6053 72.503 74.6479 72.4323 74.6758C72.333 74.719 72.23 74.755 72.1243 74.7834L71.8163 74.869C71.7598 74.8868 71.7022 74.9016 71.6438 74.9131V74.5102C71.7295 74.4885 71.8138 74.4627 71.8964 74.4329C71.9971 74.3955 72.094 74.3503 72.1859 74.2976C72.285 74.2419 72.3796 74.1801 72.4692 74.1127C72.5611 74.0451 72.6429 73.9672 72.7126 73.8809H73.1653V79.423H72.614Z" fill="#263238"/>
<path d="M75.4169 79.423V74.5516C75.3676 74.6059 75.3041 74.6485 75.2321 74.6758C75.1331 74.7196 75.0301 74.7557 74.9241 74.7834L74.6161 74.869C74.5595 74.8865 74.5019 74.9012 74.4436 74.9131V74.5102C74.5144 74.4936 74.5976 74.466 74.6962 74.4329C74.7969 74.3955 74.8938 74.3503 74.9857 74.2976C75.0848 74.2419 75.1794 74.1801 75.269 74.1127C75.3609 74.0451 75.4427 73.9672 75.5124 73.8809H75.9621V79.423H75.4169Z" fill="#263238"/>
<path d="M77.4619 76.536V75.8018H78.0594V76.536H77.4619ZM77.4619 78.8599V78.1285H78.0594V78.8599H77.4619Z" fill="#263238"/>
<path d="M80.2279 79.492C79.9531 79.5019 79.6806 79.4446 79.4394 79.3264C79.2375 79.2189 79.0806 79.055 78.9928 78.8599C78.8955 78.6319 78.8484 78.3891 78.8542 78.1451V78.0071H79.387V78.123C79.388 78.2963 79.4181 78.4684 79.4763 78.6336C79.5212 78.7665 79.6131 78.8828 79.7381 78.9648C79.8841 79.0478 80.0552 79.0883 80.2279 79.0807C80.4009 79.0864 80.572 79.0471 80.7207 78.9676C80.8689 78.8796 80.978 78.7477 81.0287 78.595C81.1038 78.3761 81.1381 78.1476 81.1303 77.9188C81.1418 77.6315 81.0707 77.3464 80.9239 77.0908C80.8499 76.9812 80.744 76.8917 80.6176 76.8319C80.4912 76.7721 80.349 76.7443 80.2063 76.7513H80.0554V76.26H80.2063C80.3386 76.272 80.4723 76.2554 80.596 76.2117C80.7198 76.168 80.8301 76.0985 80.9178 76.0088C81.0817 75.768 81.1561 75.4868 81.1303 75.2057C81.1415 74.961 81.0798 74.7181 80.9517 74.5019C80.8806 74.4061 80.7816 74.3297 80.6653 74.281C80.5491 74.2323 80.4201 74.2133 80.2925 74.2259C80.1671 74.2157 80.0407 74.2315 79.9231 74.2722C79.8056 74.3129 79.7002 74.3773 79.6149 74.4605C79.4558 74.6759 79.3771 74.931 79.3901 75.1891V75.2857H78.848V75.156C78.8414 74.9137 78.8885 74.6726 78.9866 74.4467C79.0786 74.251 79.2413 74.0886 79.4486 73.9858C79.703 73.867 79.9875 73.8099 80.2741 73.8202C80.5547 73.8099 80.8327 73.8721 81.0749 73.9996C81.2817 74.1155 81.4431 74.2863 81.5369 74.4881C81.642 74.7144 81.6934 74.9578 81.6878 75.2029C81.7079 75.5178 81.6232 75.831 81.4445 76.1027C81.298 76.304 81.0709 76.4472 80.81 76.5029C80.9701 76.5438 81.1169 76.6186 81.2381 76.7209C81.3832 76.8487 81.4938 77.0045 81.5615 77.1763C81.6521 77.4104 81.6949 77.6573 81.6878 77.905C81.6931 78.1864 81.6442 78.4665 81.543 78.733C81.4564 78.9576 81.2911 79.1512 81.0718 79.285C80.8203 79.4288 80.5261 79.501 80.2279 79.492Z" fill="#263238"/>
<path d="M83.9299 79.4864C83.6513 79.4977 83.3749 79.4384 83.1322 79.3153C82.9268 79.195 82.7727 79.016 82.6948 78.8075C82.5955 78.5455 82.5486 78.2699 82.5562 77.9933H83.1137C83.1108 78.1893 83.1346 78.3848 83.1845 78.5756C83.2202 78.731 83.3183 78.8692 83.4603 78.9639C83.6023 79.0586 83.7782 79.1031 83.9545 79.089C84.0513 79.0952 84.1484 79.0838 84.24 79.0553C84.3316 79.0268 84.4158 78.982 84.4874 78.9234C84.6235 78.7908 84.7115 78.6243 84.7399 78.4459C84.7897 78.1908 84.8124 77.9321 84.8077 77.6731C84.8159 77.4017 84.789 77.1303 84.7276 76.8644C84.6962 76.6974 84.6029 76.5448 84.4628 76.4311C84.3181 76.335 84.1405 76.2872 83.9607 76.2959C83.8036 76.2959 83.6497 76.3361 83.5172 76.4118C83.3713 76.5008 83.2493 76.6177 83.1599 76.754H82.6948V73.8809H85.0972V74.3528H83.1907L83.1599 76.2848C83.2618 76.1764 83.3876 76.0881 83.5295 76.0254C83.7084 75.9466 83.9063 75.9086 84.1055 75.915C84.37 75.9037 84.6305 75.976 84.8416 76.1192C85.0399 76.2725 85.1808 76.4768 85.2451 76.7044C85.3313 77.0026 85.3717 77.3099 85.3652 77.6179C85.3683 77.8862 85.3436 78.1542 85.2913 78.4183C85.2503 78.6266 85.1656 78.8261 85.0418 79.0062C84.9336 79.1615 84.7803 79.2875 84.5983 79.3705C84.3888 79.4558 84.1598 79.4955 83.9299 79.4864Z" fill="#263238"/>
<path d="M100.728 48.8725H95.4922V51.4448H100.728V48.8725Z" stroke="#263238" stroke-width="0.821067" stroke-linecap="round" stroke-linejoin="round"/>
<path d="M99.5763 48.8725H95.4922V51.4448H99.5763V48.8725Z" fill="#263238" stroke="#263238" stroke-width="0.725073" stroke-linecap="round" stroke-linejoin="round"/>
<path d="M101.452 49.5901H100.716V50.7245H101.452V49.5901Z" fill="#263238" stroke="#263238" stroke-width="0.725073" stroke-linecap="round" stroke-linejoin="round"/>
<path d="M55.3567 49.6702H54.3958V51.144H55.3567V49.6702Z" fill="#263238" stroke="#263238" stroke-width="0.883086" stroke-linecap="round" stroke-linejoin="round"/>
<path d="M56.866 49.1513H55.905V51.144H56.866V49.1513Z" fill="#263238" stroke="#263238" stroke-width="0.883086" stroke-linecap="round" stroke-linejoin="round"/>
<path d="M58.3753 48.5386H57.4143V51.144H58.3753V48.5386Z" fill="#263238" stroke="#263238" stroke-width="0.883086" stroke-linecap="round" stroke-linejoin="round"/>
<path d="M97.7561 110.611C97.5706 110.611 97.3928 110.545 97.2617 110.427C97.1306 110.31 97.0569 110.151 97.0569 109.984V108C97.0569 107.834 97.1306 107.674 97.2617 107.557C97.3928 107.439 97.5706 107.373 97.7561 107.373C97.9415 107.373 98.1193 107.439 98.2504 107.557C98.3815 107.674 98.4552 107.834 98.4552 108V109.987C98.4544 110.153 98.3804 110.312 98.2493 110.428C98.1183 110.545 97.941 110.611 97.7561 110.611Z" fill="#263238"/>
<path d="M97.7591 111.061C97.4323 111.061 97.119 110.945 96.8879 110.737C96.6569 110.53 96.5271 110.25 96.5271 109.957V109.021C96.5271 109.006 96.5305 108.991 96.537 108.977C96.5435 108.963 96.5531 108.951 96.5652 108.94C96.5772 108.93 96.5915 108.921 96.6072 108.916C96.6229 108.91 96.6396 108.908 96.6565 108.908C96.673 108.908 96.6895 108.911 96.7048 108.917C96.7201 108.922 96.734 108.931 96.7458 108.941C96.7575 108.952 96.7668 108.964 96.7731 108.978C96.7795 108.992 96.7827 109.006 96.7827 109.021V109.954C96.7968 110.179 96.9063 110.39 97.0887 110.545C97.2711 110.699 97.5127 110.785 97.7637 110.785C98.0148 110.785 98.2563 110.699 98.4387 110.545C98.6212 110.39 98.7306 110.179 98.7447 109.954V109.021C98.7447 108.991 98.758 108.962 98.7817 108.941C98.8054 108.92 98.8375 108.908 98.871 108.908C98.8878 108.908 98.9046 108.91 98.9202 108.916C98.9359 108.921 98.9502 108.93 98.9623 108.94C98.9743 108.951 98.9839 108.963 98.9904 108.977C98.997 108.991 99.0003 109.006 99.0003 109.021V109.954C99.0007 110.1 98.9689 110.245 98.9066 110.379C98.8442 110.514 98.7527 110.637 98.6373 110.739C98.5219 110.842 98.3848 110.924 98.2341 110.979C98.0834 111.034 97.9219 111.062 97.7591 111.061Z" fill="#263238"/>
<path d="M97.7593 112.253C97.7263 112.252 97.695 112.24 97.6719 112.219C97.6489 112.198 97.6361 112.17 97.6361 112.14V110.948C97.6332 110.931 97.6343 110.914 97.6394 110.898C97.6445 110.882 97.6535 110.867 97.6656 110.854C97.6778 110.842 97.6928 110.832 97.7098 110.825C97.7268 110.818 97.7452 110.814 97.7639 110.814C97.7826 110.814 97.801 110.818 97.818 110.825C97.8349 110.832 97.85 110.842 97.8621 110.854C97.8743 110.867 97.8832 110.882 97.8883 110.898C97.8934 110.914 97.8946 110.931 97.8917 110.948V112.14C97.8917 112.155 97.8883 112.171 97.8815 112.185C97.8748 112.199 97.865 112.211 97.8526 112.222C97.8402 112.233 97.8255 112.241 97.8095 112.246C97.7934 112.252 97.7764 112.254 97.7593 112.253Z" fill="#263238"/>
<path d="M98.6124 112.314H96.9091C96.8923 112.314 96.8756 112.312 96.8599 112.306C96.8442 112.301 96.8299 112.292 96.8179 112.282C96.8058 112.271 96.7962 112.259 96.7897 112.245C96.7831 112.231 96.7798 112.216 96.7798 112.201C96.7798 112.17 96.7934 112.14 96.8177 112.119C96.8419 112.097 96.8748 112.085 96.9091 112.085H98.6124C98.6467 112.085 98.6796 112.097 98.7038 112.119C98.7281 112.14 98.7417 112.17 98.7417 112.201C98.7417 112.216 98.7384 112.231 98.7318 112.245C98.7253 112.259 98.7157 112.271 98.7037 112.282C98.6916 112.292 98.6773 112.301 98.6617 112.306C98.646 112.312 98.6292 112.314 98.6124 112.314Z" fill="#263238"/>
<path d="M49.1753 125.921C49.1753 125.921 49.3108 126.544 49.4433 126.575C49.5757 126.605 50.8755 126.544 50.9063 126.246C50.9371 125.948 50.241 125.769 50.241 125.769L49.1753 125.921Z" fill="white" stroke="#263238" stroke-linejoin="round"/>
</svg>
